<svg width="9" height="12" fill="none" xmlns="http://www.w3.org/2000/svg"><path fill-rule="evenodd" clip-rule="evenodd" d="M.444 8.62A.928.928 0 010 7.828V6.03a.386.386 0 01.582-.333l4.06 2.367a.773.773 0 01.383.667v1.864a.464.464 0 01-.706.396L.444 8.62zm6.052-3.416a.773.773 0 01.383.668v3.782c0 .111-.06.215-.157.269l-.889.5a.18.18 0 01-.036.015v-2.1a.774.774 0 00-.376-.664L1.855 5.54V3.17a.386.386 0 01.582-.333l4.059 2.366zM8.272 2.41a.772.772 0 01.385.67v5.524a.31.31 0 01-.162.271l-.842.455V5.484a.774.774 0 00-.375-.663L3.633 2.635V.387a.387.387 0 01.58-.334l4.06 2.357z" fill="#000"/></svg>