<svg version="1.1" id="Layer_1" xmlns="http://www.w3.org/2000/svg" x="0" y="0" viewBox="0 0 16.8 24" xml:space="preserve"><style>.st0{fill:#31cb9e}</style><path class="st0" d="M7.2 12l8.9 5.1c.2.1.5.1.6-.2 0-.1.1-.2.1-.2V7.3c0-.3-.2-.5-.5-.5-.1 0-.2 0-.3.1L7.2 12zm8.7-7.4L9.8.1c-.2-.2-.5-.1-.7.1 0 .1-.1.1-.1.2l-2.2 10 9.1-5c.2-.1.3-.4.2-.6-.1-.1-.1-.2-.2-.2M9.8 23.9l6.1-4.5c.2-.1.3-.4.1-.6 0-.1-.1-.1-.2-.1l-9.1-5 2.2 10c.2.2.5.3.7.3.1 0 .1-.1.2-.1"/><path class="st0" d="M4.8 11.8L7.2.9c0-.3-.1-.5-.4-.5-.1 0-.2 0-.4.1L.5 5c-.3.3-.5.6-.5 1v11.6c0 .4.2.8.5 1l5.9 4.6c.2.1.5.1.6-.1.1-.1.1-.2.1-.4L4.8 11.8z"/></svg>