<svg xmlns="http://www.w3.org/2000/svg" viewBox="0 0 24 20.883"><path d="M4.398.106L.02 9.3a.17.17 0 00.035.205l11.818 11.33c.07.063.177.063.248 0l11.825-11.33a.172.172 0 00.035-.205L19.603.106A.162.162 0 0019.446 0H4.553a.175.175 0 00-.157.106h.002z" fill="#dab764"/><path d="M13.521 10.241c-.085.007-.523.035-1.499.035-.778 0-1.33-.021-1.528-.035-3.006-.134-5.247-.658-5.247-1.28s2.242-1.153 5.247-1.287v2.044c.196.014.757.049 1.535.049.933 0 1.4-.042 1.485-.049V7.674c2.998.134 5.24.658 5.24 1.28s-2.235 1.153-5.233 1.287zm0-2.772V5.637h4.187V2.843H6.307v2.793h4.187v1.832c-3.402.158-5.962.828-5.962 1.641s2.56 1.478 5.962 1.641v5.863h3.027V10.75c3.395-.157 5.948-.828 5.948-1.634s-2.554-1.492-5.948-1.647z" fill="#fff"/></svg>