<svg version="1.1" id="Layer_1" xmlns="http://www.w3.org/2000/svg" x="0" y="0" viewBox="0 0 17 24" xml:space="preserve"><style>.st0{fill:#49c1bf}.st2{fill:#298e97}</style><g transform="translate(190.693 -109)"><path id="path0_fill" class="st0" d="M-173.7 118.9l-3.5 1.5-9.2 4.7 9.2 4.4v-7.3l3.5-1.6v10.8l-3.5 1.5-13.5-6.5V123l9.3-4.6-9.3-4.5v-3.5l3.5-1.5 13.4 6.5v3.5h.1z"/></g><g transform="translate(190.693 -109)"><path id="path1_fill" d="M-190.7 110.5l13.5 6.5 3.5-1.5-13.4-6.5-3.6 1.5z" fill="#077a8f"/></g><g transform="translate(208.695 -100.365)"><path id="path2_fill" class="st2" d="M-195.2 108.4l3.5-1.5v3.4l-3.5 1.5v-3.4z"/></g><g transform="translate(190.693 -106.944)"><path id="path3_fill" class="st0" d="M-190.7 108.5v3.5l9.3 4.5-9.3 4.6v3.4l13.5 6.5v-3.5l-9.2-4.4 9.2-4.7V115l-13.5-6.5z"/></g><g transform="translate(208.695 -93.411)"><path id="path4_fill" class="st2" d="M-195.2 117.4l3.5-1.5v-10.8l-3.5 1.6v10.7z"/></g></svg>