<svg version="1.1" id="Layer_1" xmlns="http://www.w3.org/2000/svg" x="0" y="0" viewBox="0 0 24 24" xml:space="preserve"><style>.st2{fill:#6f7390}.st3{fill:#b7b9c8}</style><circle cx="12" cy="12" r="12" fill="#2e3148"/><circle cx="12" cy="12" r="7" fill="#1b1e36"/><path class="st2" d="M12 1.5c-1.3 0-2.3 4.7-2.3 10.5s1.1 10.5 2.3 10.5 2.3-4.7 2.3-10.5-1-10.5-2.3-10.5zm.2 20.4c-.1.2-.3 0-.3 0-.6-.7-.9-2-.9-2-1-3.4-.8-10.6-.8-10.6.5-5.7 1.4-7.1 1.7-7.4.1.1.2.1.2.1.4.3.8 1.6.8 1.6 1.1 4 1 7.9 1 7.9.1 3.3-.5 7-.5 7-.5 2.8-1.2 3.4-1.2 3.4z"/><path class="st2" d="M21.1 6.8c-.6-1.1-5.2.3-10.3 3.2s-8.6 6.1-7.9 7.3 5.2-.3 10.3-3.2 8.6-6.2 7.9-7.3zM3.5 17.1c-.2 0-.2-.2-.2-.2.3-.9 1.3-1.8 1.3-1.8 2.4-2.6 8.8-5.9 8.8-5.9 5.2-2.4 6.8-2.3 7.2-2.2.1 0 .1.1.1.2 0 .5-1 1.5-1 1.5-3 3-6.3 4.8-6.3 4.8-2.8 1.7-6.4 3-6.4 3-2.6.9-3.5.6-3.5.6z"/><path class="st2" d="M21.1 17.3c.6-1.1-2.9-4.4-7.9-7.3S3.6 5.6 2.9 6.8s2.9 4.4 7.9 7.3 9.7 4.3 10.3 3.2zM3.4 7.2c-.1-.2.1-.3.1-.3.9-.2 2.2.2 2.2.2 3.4.8 9.5 4.6 9.5 4.6 4.7 3.3 5.4 4.7 5.5 5.2 0 .1 0 .2-.1.2-.5.2-1.8-.1-1.8-.1-4.1-1.1-7.3-3.1-7.3-3.1-2.9-1.6-5.8-4-5.8-4-2.2-1.8-2.3-2.7-2.3-2.7z"/><circle class="st3" cx="12" cy="12" r="1.2"/><circle class="st3" cx="17.1" cy="7.3" r=".7"/><circle class="st3" cx="5.3" cy="9.8" r=".7"/><circle class="st3" cx="10.5" cy="18.9" r=".7"/></svg>