<svg xmlns="http://www.w3.org/2000/svg" viewBox="0 0 24 22.6"><path d="M5.5 19.8c1.4 1.6 3.5 2.6 5.6 2.8 1.3-.1 2.5-.6 3.4-1.5 1.8-1.5 3.6-2.9 5.6-4.2l1.1-.4c.4-.2 1.2-.6 1.9-1.5.8-1 .9-2.1.9-2.5-.1-1.2-.5-2.4-1.2-3.4-3.5 6.2-10.1 10.3-17.3 10.7z" fill="#0293d6"/><path d="M7.9 1.6c1-1 2.3-1.6 3.7-1.6.9-.1 1.8.2 2.4.8 1.8 1.3 4 2 6.3 2.1.6.1 1.7.3 2.5 1.2.6.8.6 1.6.6 2-.1 1-.3 2-.6 2.9L7.9 1.6z" fill="#ebe638"/><path d="M5.5 19.8c-.6-.1-1.3-.3-2.2-.6s-2-.8-2.7-2.1c-.5-.7-.6-1.5-.6-2 0-1.4.3-2.7 1-3.9.6-1.5 1-3.1 1.2-4.7l.3-1.3c.2-.6.3-1.3.8-1.9l.7-.8c1.2-.7 2.5-1 3.9-.9-3.7 5.3-4.6 12.1-2.4 18.2z" fill="#bad147"/><path d="M7.9 1.6c-.1 0 3.5.2 5.6 1l1.8.8c-.7-.1-5.2-.3-8.6 3.1-4.3 4.4-2.9 10.3-2.8 10.7-1-1.3-1.5-2.8-1.4-4.4.2-4.4 2.1-8.4 5.4-11.2z" fill="#78b650"/><path d="M16.5 17.5c2.5-4.5 2-10.1-1.2-14.1 1.9.3 3.6 1.2 4.9 2.6.8.6 1.7 1.5 2.6 3-1.2 3.4-3.4 6.3-6.3 8.5z" fill="#2f8260"/><path d="M18.5 6.2c-1-1.7-2.5-2.5-3.1-2.8-.5-.1-5.3-.9-9 2.6-3 2.8-3.1 6.5-3.1 7.2 0 2.4.8 4.8 2.3 6.7 1.9.4 3.9.4 5.8 0 1-.2 3.2-.6 5.1-2.2.3-.3 3.1-2.9 3.3-7.1 0-.8 0-2.6-1.3-4.4zm-2.3 9.3c-1.2 1.3-2.9 2.1-4.7 2.1-.4 0-3-.1-4.7-2.2-.3-.3-1.5-1.9-1.5-4.2.1-3.1 2.6-4.9 3.1-5.3.4-.3 1.5-1 3.1-1.1.4-.1 1.7-.1 3.1.6 3 1.6 3.1 5.5 3.1 5.7 0 .8 0 2.7-1.5 4.4z" fill="#085229"/></svg>