<svg xmlns="http://www.w3.org/2000/svg" viewBox="0 0 20.799 24"><path d="M.004 1.413v9.149a.56.56 0 00.556.564l4.09-.02c.425 0 .691-.47.478-.846l-.531-.936a.825.825 0 00-1.136-.311l-.057.033a.814.814 0 01-1.124-.307.849.849 0 01-.069-.682l.85-2.595a.831.831 0 01.956-.56l2.635.543a.837.837 0 01.246 1.54l-.058.034a.852.852 0 00-.302 1.156l.523.919a.551.551 0 00.96.004l2.047-3.571a.569.569 0 00-.2-.772L2.084.191C1.16-.352.004.326.004 1.413zm20.103 9.373L12.319 6.21a.554.554 0 00-.76.208l-2.031 3.616c-.212.376.057.846.482.846h1.336a.561.561 0 00.556-.564v-.621c0-.31.249-.564.556-.564h.388a.55.55 0 01.417.192l2.023 2.325a.576.576 0 010 .748l-2.023 2.329a.548.548 0 01-.417.192h-.388a.561.561 0 01-.556-.564v-.625a.56.56 0 00-.556-.564h-1.324c-.425 0-.691.466-.482.846l2.014 3.588a.55.55 0 00.76.208l7.788-4.576c.929-.544.929-1.9.005-2.444z" fill="#3bc988"/><path d="M2.08 23.809l7.788-4.576a.568.568 0 00.2-.772l-2.063-3.596a.55.55 0 00-.96.004l-.67 1.181a.574.574 0 00.204.772l.527.31a.573.573 0 01.204.772l-.192.343a.552.552 0 01-.368.27l-2.991.613a.553.553 0 01-.637-.372l-.968-2.946a.585.585 0 01.045-.462l.192-.343a.547.547 0 01.756-.208l.531.31a.549.549 0 00.756-.208l.662-1.165c.212-.376-.053-.846-.478-.846l-4.061-.02a.567.567 0 00-.557.568v9.149c0 1.087 1.156 1.765 2.08 1.222z"/></svg>