<svg version="1.1" id="Layer_1" shape-rendering="geometricPrecision" text-rendering="geometricPrecision" image-rendering="optimizeQuality" xmlns="http://www.w3.org/2000/svg" x="0" y="0" viewBox="0 0 24 15" xml:space="preserve"><style>.st0{fill:#fff}</style><path id="path0_fill" class="st0" d="M0 0h24v15H0z"/><path id="path1_fill" d="M0 0h6.9C5.7.8 4.7 2 4 3.3 3.3 4.6 3 6 3 7.5s.3 2.9 1 4.2c.7 1.3 1.7 2.5 2.9 3.3H0V0zm12 0c-2 0-3.8.8-5.2 2.2-1.4 1.4-2.2 3.3-2.2 5.3s.8 3.9 2.2 5.3S10 15 12 15s3.8-.8 5.2-2.2c1.4-1.4 2.2-3.3 2.2-5.3s-.8-3.9-2.2-5.3S14 0 12 0zm12 0h-6.9c1.2.8 2.2 2 2.8 3.3.7 1.3 1 2.8 1 4.2 0 1.5-.3 2.9-1 4.2-.7 1.3-1.6 2.4-2.8 3.3H24V0z" fill="#f7931a"/><path id="path2_fill" class="st0" d="M14.5 5c-.3-1-1.2-1.1-2.3-.9l-.3-1.3-.9.2.3 1.3c-.2.1-.4.1-.6.2l-.3-1.3-.8.1.3 1.3c-.2 0-.3.1-.5.1l-1.1.4.2.9s.6-.2.6-.1c.3-.1.5.1.6.2l.3 1.5h.1-.1l.5 2.2c0 .1 0 .3-.2.3l-.6.1.1 1 1.1-.3c.2 0 .4-.1.6-.1l.3 1.4.8-.2-.3-1.4c.2 0 .4-.1.6-.2l.3 1.3.8-.2-.3-1.4c1.3-.4 2.2-1 2-2.3-.2-1.1-.8-1.4-1.6-1.4.4-.2.6-.7.4-1.4zm-.4 3.2c.3 1-1.5 1.3-2 1.5l-.4-1.8c.4-.2 2.1-.7 2.4.3zm-1-2.4c.2.9-1.2 1.2-1.7 1.3L11 5.4c.4-.1 1.8-.6 2.1.4z"/></svg>