<svg version="1.1" id="Layer_1" xmlns="http://www.w3.org/2000/svg" x="0" y="0" viewBox="0 0 32 32" xml:space="preserve"><style>.st1{fill:#fff}</style><circle cx="16" cy="16" r="16" fill="#673398"/><path class="st1" d="M27.7 13.5c-.2-.8-.4-1.5-.7-2.2-.3-.7-.7-1.4-1.1-2-.4-.7-.9-1.3-1.4-1.8-.5-.5-1.1-1-1.8-1.5-.6-.4-1.3-.8-2-1.1-3-1.3-6.3-1.3-9.3 0-1.4.6-2.7 1.5-3.8 2.6-.5.5-1 1.1-1.4 1.8-.4.6-.8 1.3-1.1 2-1.3 3-1.3 6.3 0 9.3.3.7.7 1.4 1.1 2 .4.6.9 1.2 1.5 1.8.5.5 1.1 1 1.8 1.5.6.4 1.3.8 2 1.1 3 1.3 6.3 1.3 9.3 0 .7-.3 1.4-.7 2-1.1.6-.4 1.2-.9 1.8-1.5.5-.5 1-1.1 1.5-1.8.4-.6.8-1.3 1.1-2 .8-2.2 1-4.7.5-7.1zM16.1 26.4c-5.8 0-10.4-4.7-10.4-10.4S10.3 5.5 16.1 5.5c5.8 0 10.4 4.7 10.4 10.4s-4.7 10.5-10.4 10.5z"/><path class="st1" d="M16.2 25.5h1.1c.1 0 .2 0 .3-.1h.1c.1 0 .2 0 .3-.1-.9 0-1.8-.1-2.7-.3-1.3-.3-2.6-.8-3.7-1.7-1.7-1.4-2.7-3.6-2.7-5.9 0-1.7.6-3.3 1.7-4.6 1.4-1.7 3.4-2.5 5.4-2.6h.3V8.6H16c-.6 0-1.2.1-1.8.2-.6.1-1.2.3-1.8.6-.6.3-1.1.6-1.6 1s-1 .8-1.4 1.3c-.4.5-.7 1-1 1.5-.3.5-.5 1.1-.7 1.6-.2.6-.3 1.1-.3 1.7v.8c0 .6.1 1.2.2 1.8.4.8.6 1.4.9 1.9.3.7.9 1.7 1.7 2.4 1.7 1.3 3.7 2 5.9 2-.1.1.1.1.1.1z"/><path class="st1" d="M18.9 23.9c-.6 0-1.2-.1-1.8-.2-2.5-.5-4.7-2-5.5-4.3-1-2.8.5-5.9 3.3-6.8.5-.2 1.1-.3 1.7-.3.7 0 1.4.1 2.1.4l.7-1.5c-.2-.1-.4-.2-.6-.2-.7-.2-1.4-.3-2.2-.3-.7 0-1.5.1-2.2.4-.9.3-1.7.8-2.4 1.4-.3.3-.6.6-.9 1-.3.4-.5.7-.7 1.1-.4.8-.6 1.7-.7 2.6-.1.9.1 1.9.4 2.7.3.9.8 1.7 1.5 2.4.6.6 1.3 1.1 2.1 1.6.9.5 2 .7 3.1.9.7.1 1.7.1 2.3.1.5-.2.7-.3 1-.4.2-.1.5-.2.7-.4s.3-.2.7-.4c0 0 .1 0 .1-.1-1.4.3-1.7.3-2.7.3z"/><path class="st1" d="M21.9 22.1c-.4 0-.9.1-1.5.1-1.1 0-2.4-.1-3.6-.5-1.8-.6-3.4-2.1-3.4-4s1.5-3.4 3.3-3.4c1.3 0 2.4.7 2.9 1.7l1.5-.7c-.2-.4-.5-.8-.9-1.2-1.9-1.9-5.1-1.9-7 0-.9.9-1.5 2.2-1.5 3.5 0 .7.1 1.4.4 2 .3.6.6 1.1 1.1 1.6.8.9 1.9 1.5 3 1.9 1.1.4 2.8.5 4.3.4.4 0 .8-.1 1.3-.2.5-.4 1-.9 1.5-1.5-.2.2-.9.2-1.4.3z"/></svg>