<svg xmlns="http://www.w3.org/2000/svg" viewBox="0 0 11.259 24"><path d="M6.849.521a.347.347 0 01-.1-.449.36.36 0 01.386 0 6.961 6.961 0 012.32 1.574c.375.348.689.753.928 1.2.251.455.458.931.617 1.424a5.6 5.6 0 01.233 1.574c-.078.526-.155 3.074-1.624 4.274a.883.883 0 01-1.16-.225.773.773 0 01-.077-.899 6.245 6.245 0 00.154-6.524A13.576 13.576 0 006.849.521zM4.567 23.509c.155.15.155.299.078.375-.077.075-.233.15-.309.074a6.961 6.961 0 01-2.32-1.574 4.591 4.591 0 01-.928-1.2 7.998 7.998 0 01-.619-1.424 5.56 5.56 0 01-.233-1.575c.078-.525.155-3.074 1.624-4.274a.884.884 0 011.159.225.668.668 0 010 .901 6.244 6.244 0 00-.155 6.522 13.548 13.548 0 001.703 1.95z" fill="#b48aff"/><path d="M11.24 17.323a6.772 6.772 0 00-1.624-3.898 13.382 13.382 0 00-3.247-2.4A17.92 17.92 0 013.43 8.994 4.993 4.993 0 011.962 6.37a5.24 5.24 0 01.379-3.068A8.289 8.289 0 014.513.528a.322.322 0 00.078-.375.3.3 0 00-.464-.074 6.906 6.906 0 00-3.016 2.548 6.2 6.2 0 00-1.09 4.05c.062.725.245 1.435.542 2.099a7.409 7.409 0 001.237 1.8 13.33 13.33 0 003.324 2.323 16.417 16.417 0 012.938 1.95 4.464 4.464 0 011.47 2.699 5.214 5.214 0 01-.387 3.224 7.572 7.572 0 01-2.243 2.699.255.255 0 00-.077.375.302.302 0 00.465.076 9.64 9.64 0 002.938-2.625 6.404 6.404 0 001.012-3.974z" fill="#6916ff"/></svg>