<svg xmlns="http://www.w3.org/2000/svg" viewBox="0 0 536.47 574.77"><defs><clipPath id="clip-path"><path transform="rotate(-29.49 82.043 68.173)" fill="none" d="M56.36 59.61h51.39v17.13H56.36z"/></clipPath><style>.cls-9{fill:none}.cls-3{font-size:24.08px;fill:#8592a2;font-family:FuturisCyrillic}.cls-6{fill:#6f5037}.cls-7{fill:#667329}.cls-8{fill:#484f18}.cls-9{stroke:#fff;stroke-miterlimit:10}.cls-10{fill:#fff}.cls-11{fill:#ffab00}.cls-12{fill:#ff8000}.cls-14{fill:#1d1d1b}.cls-15{fill:#00cdcd}.cls-17{fill:#fc2727}.cls-18{clip-path:url(#clip-path)}</style></defs><g style="isolation:isolate"><g id="Слой_2" data-name="Слой 2"><g id="Layer_2" data-name="Layer 2"><text class="cls-3" transform="translate(146.1 554.84)">GENERAL PARTNER</text><path d="M147.3 375.16A41.48 41.48 0 01164.21 304a23.67 23.67 0 0113.63-37.29A41.49 41.49 0 01247 221.6a41.48 41.48 0 0150.42 8.68 23.5 23.5 0 0121.93-3.43 41.47 41.47 0 0166.14 7.42 41.23 41.23 0 0113.25-6 41.49 41.49 0 00-64.48-28.19 41.47 41.47 0 00-66.14-7.42 23.55 23.55 0 00-21.93 3.44 41.51 41.51 0 00-50.42-8.69 41.49 41.49 0 00-69.13 45.06A23.67 23.67 0 00113 269.78 41.48 41.48 0 0096.07 341a41.49 41.49 0 0040.62 68.41 41.37 41.37 0 0110.61-34.24z" fill="#6ce077"/><path d="M178.37 424a41.49 41.49 0 0039.25-28A41.33 41.33 0 00245 407.67v.59l.55-.58h1a41.27 41.27 0 0023.72-7.46 41.48 41.48 0 0075.56-23.66 40.82 40.82 0 00-.26-4.58c1.07.08 2.14.14 3.22.14a41.46 41.46 0 0040-52.51 41.46 41.46 0 001.43-59.57 41.52 41.52 0 008.51-31.78 41.23 41.23 0 00-13.25 6 41.47 41.47 0 00-66.14-7.42 23.5 23.5 0 00-21.93 3.43A41.48 41.48 0 00247 221.6a41.49 41.49 0 00-69.13 45.06A23.67 23.67 0 00164.21 304a41.48 41.48 0 00-16.91 71.21 41.37 41.37 0 00-10.61 34.24 41 41 0 007.87-2.85 41.41 41.41 0 0033.81 17.4z" fill="#1fc25a"/><path class="cls-6" d="M243.49 261.04l-3.47 261.55 31.23 3.46-21.7-262.45-6.06-2.56z"/><path class="cls-6" d="M254.7 453.49l87.46-120.52 3.96.46-87.83 137.09-3.59-17.03zm-7.39-116.82L214.2 282.2l-2.1 4.03 31.58 65.31 3.63-14.87zm1.15 52.06l-42-52.06-1.74 8.08 40.02 59.91 3.72-15.93zm2.67-32.47l33.93-47.71 1.03 6.16-30.97 61.84-3.99-20.29zm24.11-71.11c10.88-7.74 23.66-18.94 30.86-30 6.47-9.93 9.9-20.44 14.21-30.65 0 13.29-7.63 31.2-16.05 41.44-4.33 5.27-10.05 9.7-14.61 15.07-2.23 2.62-19.74 13.74-14.25 4.1"/><path class="cls-7" d="M327.85 208.73s-16.43 9.13-8.37 21.33v-.08c14.1-3.76 8.37-21.25 8.37-21.25z"/><path class="cls-8" d="M332.62 237.07S314 234.28 313 248.86l.08-.05c13.41 5.61 19.54-11.74 19.54-11.74zm-13.77 40.87s-9.39-16.29-21.46-8h.08c3.99 14.06 21.38 8 21.38 8z"/><path class="cls-8" d="M308 230.06s-11.73 14.69.36 22.91v-.09c11.55-8.83-.36-22.82-.36-22.82z"/><path class="cls-7" d="M322.48 267.2s-13.27-13.32-22.81-2.24h.09c7.46 12.52 22.72 2.24 22.72 2.24zm-22.1-31.68s-7.22 17.36 6.67 21.92v-.08c8.67-11.69-6.67-21.84-6.67-21.84zm-96.53 29.01s-4.35 19.85 11.29 22v-.09c6.98-14.06-11.29-21.91-11.29-21.91zm41.63-20.21s-12.07 16.34 1.31 24.74V269c12.21-10-1.31-24.68-1.31-24.68zm14.23 30.26s-18.15 9.15-10 22.67v-.09c15.43-3.45 10-22.58 10-22.58z"/><path class="cls-8" d="M229.47 264s-.81 20.3 15 19.73v-.08c4.37-15.15-15-19.65-15-19.65z"/><path class="cls-7" d="M305.41 303.77s-19.36-6.19-23 9.18h.08c13.38 8.27 22.92-9.18 22.92-9.18zm49.03 11.59s-19.08 7-12.51 21.38l.05-.08c15.66-1.66 12.46-21.3 12.46-21.3z"/><path class="cls-8" d="M297.88 376.17s-7.87 12.71 2.46 18.05v-.07c8.3-8.07-2.46-17.98-2.46-17.98zm21.63 24.76s-14.51-9.68-21.15 2.15h.08c9.08 10.01 21.07-2.15 21.07-2.15zm-46.35-96.08s-8.86 12.77 1.56 18.87v-.07c9.07-7.92-1.56-18.8-1.56-18.8z"/><path class="cls-7" d="M193.45 326.09s0 20.32 15.77 19.1l-.06-.08c3.84-15.27-15.71-19.02-15.71-19.02zm-.55 28.7s13.16 11.17 21 .3h-.08c-7.74-10.88-20.92-.3-20.92-.3zm33.1-19.67s-15.6 13-4.58 24.34v-.09c14.16-6.84 4.58-24.25 4.58-24.25z"/><path class="cls-8" d="M299 335.51s-13.61-15.09-24.5-3.65h.09c7.41 13.93 24.41 3.65 24.41 3.65zm-75.25-61.57s-13.56 15.14-1 24.75v-.09c13.04-8.82 1-24.66 1-24.66z"/><path class="cls-7" d="M236.19 294.64s-12.32 11.41-2.74 20.29v-.08c11.43-6.25 2.74-20.21 2.74-20.21zM206 304s9 13.45 18.84 5.71h-.07C220.61 297.9 206 304 206 304z"/><path class="cls-8" d="M210.05 322.15s11.26 16.92 23.7 7.18h-.08c-5.28-14.87-23.62-7.18-23.62-7.18z"/><path class="cls-6" d="M322.84 364.61l11.51-62.7-4.26 1.61-22.01 77.35 14.76-16.26z"/><path class="cls-7" d="M336.2 288s-16.45 12-6.2 24v-.09c14.62-5.85 6.2-23.91 6.2-23.91z"/><path class="cls-8" d="M344 312.65s-18 2-15.36 15.88l.06-.06c13.94 1.87 15.3-15.82 15.3-15.82zm-24-11.43s-8.29 16.12 4.7 21.59v-.08c9.3-10.55-4.7-21.51-4.7-21.51zM164 264s-18.1 1.09-16.18 15l.06-.06C161.72 281.63 164 264 164 264z"/><path class="cls-7" d="M313.74 312.77s-2.25 16 10.28 16.79v-.07c4.67-11.59-10.28-16.72-10.28-16.72z"/><path class="cls-8" d="M304.67 329s-2.84 20.12 12.93 21.12v-.08c5.88-14.61-12.93-21.04-12.93-21.04z"/><path class="cls-6" d="M163.64 288.15c-20.18-10.59-22.56-23.34-33-37.07-4.31-5.68-8.4-10.92-11.27-17.58-2.54-5.86-5.84-11.05-7.37-17.76-3.31 3.91 2.46 20.53 4.66 25.38 3.73 8.2 10.12 14.7 14.41 22.59a104.39 104.39 0 0017 22.79c2 2.13 8.91 11.17 12.19 11.42 3.93.29 8.41-6.48 3.79-9.63"/><path class="cls-7" d="M114.75 273.42s16.1 9.92 22.82-3.15h-.09c-10.22-10.48-22.73 3.15-22.73 3.15zM95 231.56s10 16.07 21.82 7.4h-.08C112.31 225 95 231.56 95 231.56zm10.26 17.51s10 16.08 21.83 7.4h-.08c-4.45-13.99-21.75-7.4-21.75-7.4z"/><path class="cls-8" d="M131.18 223s-17.33 7.57-10.43 20.55v-.08c14.48-2.38 10.43-20.47 10.43-20.47z"/><path class="cls-7" d="M142.58 237s-17.33 7.58-10.43 20.55v-.06c14.49-2.4 10.43-20.49 10.43-20.49zm10.89 19.72s-17.33 7.57-10.43 20.55v-.07c14.49-2.43 10.43-20.48 10.43-20.48z"/><path class="cls-6" d="M216.71 526.06h71.66c-15.7-36.47-25-69.34-33.71-164.25.32 9.11-13.95 37.45-13.95 37.45-3.45 66.54-6.96 93.3-24 126.8zm102-151.55l22.04-13.3v-1.9l-17.2 5.34-4.84 9.86z"/><path class="cls-9" d="M252.54 537.1v-22.03"/><path class="cls-10" d="M255.39 515.21a2.86 2.86 0 10-2.85 2.86 2.84 2.84 0 002.85-2.86z"/><text class="cls-3" transform="translate(417.29 351.92)">DEALERS</text><path class="cls-9" d="M412.77 349.79H262.45"/><circle class="cls-10" cx="262.59" cy="349.79" r="2.86"/><path class="cls-9" d="M345.77 349.79l-32.67 29.26"/><path class="cls-10" d="M311.3 376.83a2.86 2.86 0 104 .22 2.85 2.85 0 00-4-.22z"/><text class="cls-3" transform="translate(417.29 288.94)">REFERRALS</text><path class="cls-9" d="M412.76 285.93h-54.8l-45.62-10.73"/><path class="cls-10" d="M313.13 272.45a2.86 2.86 0 102.13 3.44 2.86 2.86 0 00-2.13-3.44z"/><path class="cls-9" d="M357.96 285.93l-43.91-20.81"/><path class="cls-10" d="M315.4 262.6a2.86 2.86 0 101.36 3.81 2.86 2.86 0 00-1.36-3.81z"/><path class="cls-9" d="M357.96 285.93l-64.98 21.62"/><path class="cls-10" d="M292.21 304.79a2.86 2.86 0 103.61 1.81 2.85 2.85 0 00-3.61-1.81z"/><path class="cls-9" d="M357.96 285.93l-8.14 36.29"/><path class="cls-10" d="M347.06 321.46a2.85 2.85 0 103.41-2.16 2.85 2.85 0 00-3.41 2.16z"/><path class="cls-9" d="M357.96 285.93l-38.53 34.58"/><path class="cls-10" d="M317.63 318.29a2.86 2.86 0 104 .22 2.87 2.87 0 00-4-.22z"/><path class="cls-11" d="M.79 123.55l49 8.4-17.18 46.6 44.53-22 13.49 47.8 23.1-44 39 30.79L145.5 142l49.66 2-34.71-35.6 41.32-27.59-49-8.4L170 25.82l-44.53 22L112 0 88.87 44l-39-30.78 7.19 49.17-49.66-2L42.11 96zm75.59-65.4a50.58 50.58 0 11-19.13 68.93 50.59 50.59 0 0119.13-68.93z"/><path class="cls-12" d="M12.55 152.36l48.83-6.65L59 194.94l35.6-34.1 27 41.25 8.74-48.53 46.1 17.52L155 126.69l47.58-12.93-43.43-23.33L190 52l-48.83 6.64 2.38-49.22L108 43.53 81 2.27 72.22 50.8 26.13 33.28l21.44 44.39L0 90.6l43.41 23.34zm63.83-94.21a50.58 50.58 0 11-19.13 68.93 50.59 50.59 0 0119.13-68.93z"/><circle class="cls-12" cx="101.28" cy="102.18" r="44.02" transform="rotate(-29.49 101.269 102.18)"/><path d="M91.44 145.09A44 44 0 01128 67.19a44 44 0 10-36.56 77.9z" style="mix-blend-mode:multiply" fill="#ccc"/><path class="cls-11" d="M139.6 80.51a44.39 44.39 0 00-7.23-9.51 44 44 0 00-36.62 74.84 44 44 0 0043.85-65.33z"/><path class="cls-14" transform="rotate(-29.49 98.065 96.522)" d="M60.97 93.81h74.23v5.44H60.97z"/><path class="cls-14" transform="rotate(-29.49 83.871 109.16)" d="M68.07 107.86h31.64v2.6H68.07z"/><path class="cls-14" transform="rotate(-29.49 86.291 110.772)" d="M71.81 109.47h29v2.6h-29z"/><path class="cls-14" transform="rotate(-29.49 87.593 113.003)" d="M75.74 111.72h23.74v2.6H75.74z"/><path class="cls-14" transform="rotate(-29.49 88.904 115.278)" d="M79.62 113.98H98.2v2.6H79.62z"/><path class="cls-14" transform="rotate(-29.49 90.11 117.566)" d="M83.47 116.28h13.31v2.6H83.47z"/><path class="cls-14" transform="rotate(150.51 116.132 90.93)" d="M100.31 89.62h31.64v2.6h-31.64z"/><path class="cls-14" transform="rotate(150.51 116.259 93.84)" d="M101.76 92.53h29v2.6h-29z"/><path class="cls-14" transform="rotate(150.51 117.516 96.111)" d="M105.65 94.81h23.74v2.6h-23.74z"/><path class="cls-14" transform="rotate(150.51 118.782 98.39)" d="M109.49 97.08h18.58v2.6h-18.58z"/><path class="cls-14" transform="rotate(150.51 120.125 100.62)" d="M113.47 99.31h13.31v2.6h-13.31z"/><path class="cls-10" transform="rotate(-29.49 79.386 114.703)" d="M78.11 113.43h2.56v2.56h-2.56z"/><path class="cls-10" transform="rotate(-29.49 82.88 115.704)" d="M81.61 114.43h2.56v2.56h-2.56z"/><path class="cls-10" transform="rotate(-29.49 83.857 112.223)" d="M82.58 110.94h2.56v2.56h-2.56z"/><path class="cls-10" transform="rotate(-29.49 86.366 116.662)" d="M85.1 115.4h2.56v2.56H85.1z"/><path class="cls-10" transform="rotate(-29.49 87.343 113.181)" d="M86.07 111.91h2.56v2.56h-2.56z"/><path class="cls-10" transform="rotate(-29.49 109.602 97.608)" d="M108.34 96.34h2.56v2.56h-2.56z"/><path class="cls-10" transform="rotate(-29.49 113.116 98.614)" d="M111.85 97.34h2.56v2.56h-2.56z"/><path class="cls-10" transform="rotate(-29.49 114.079 95.11)" d="M112.82 93.85h2.56v2.56h-2.56z"/><path class="cls-10" transform="rotate(-29.49 116.601 99.572)" d="M115.34 98.3h2.56v2.56h-2.56z"/><path class="cls-10" transform="rotate(-29.49 117.578 96.092)" d="M116.31 94.82h2.56v2.56h-2.56z"/><path class="cls-15" d="M73.11 107.52l45.75-25.87c9.49-5.36 15-13.49 12.4-18.15l-17.52-10.44S116 49 82.05 68.18C48.82 87 52.57 87.65 52.57 87.65l.53 21c2.4 4.28 11.36 3.76 20.01-1.13z"/><path class="cls-14" d="M79.6 38.89L58.22 51C45 58.46 39.58 73.92 47.06 87.15L52.64 97s6.86 1.15 36.8-15.78c29.3-16.57 32.49-23.4 32.49-23.4L116.34 48c-7.48-13.26-23.51-16.59-36.74-9.11z"/><path d="M67.14 41.8h2.16a2.28 2.28 0 012.28 2.28v1.79H65V44a2.15 2.15 0 012.14-2.2z" transform="rotate(-29.49 68.278 43.83)" fill="#840013"/><path class="cls-10" d="M94.54 127.77s17.36.37 31.6-17.87c10.23 18.1-21.36 35.97-31.6 17.87z"/><circle class="cls-17" cx="129.16" cy="104.93" r="3.54"/><circle class="cls-17" cx="88.96" cy="126.95" r="3.54"/><g class="cls-18"><path class="cls-15" d="M57.95 71.96l-2.48 1.41 1.44 2.55 2.48-1.41 1.34 2.36.07.13 1.37 2.42 1.37 2.42.07.13 1.09 1.92.24.44 1.45 2.54 2.54-1.44-1.44-2.54-.24-.44-1.09-1.92-.07-.13-1.37-2.42-1.37-2.42-.07-.13-1.34-2.36-2.55 1.44-1.44-2.55zm15.51-2.29L71.1 71l-.12.07-2.36 1.34-1.34-2.36 2.36-1.34.13-.07 2.36-1.33-1.44-2.55-2.36 1.34-.13.07-2.36 1.33-2.48 1.41 1.44 2.54 1.37 2.43.07.12 1.33 2.36 1.37 2.42.07.13 1.37 2.42.29.5 1.12 2 2.48-1.41 2.37-1.33.12-.07 2.36-1.34 2.49-1.4-1.09-1.93-.35-.62-1.37-2.43-.07-.13-1.34-2.36L76 68.26zm1.8 8.82l-.13.07-2.36 1.34-1.37-2.42-.07-.13L70 75l2.36-1.33.12-.07 2.36-1.34 1.37 2.42.07.13 1.37 2.42-2.36 1.34z"/></g><g class="cls-18"><path class="cls-10" d="M99.28 51.96l-1.44-2.55-2.55 1.44 1.44 2.55 1.34 2.36.07.12 1.37 2.42 1.37 2.43.07.12 1.33 2.36.35.62 1.09 1.93 2.55-1.44-1.09-1.93-.35-.62-1.34-2.36-.07-.12-1.37-2.42-1.37-2.43 2.37-1.33-1.41-2.49-2.36 1.34z"/><path class="cls-10" transform="rotate(-29.49 92.347 54.186)" d="M90.92 52.73h2.85v2.93h-2.85z"/><path class="cls-10" d="M94.6 61.08l1.37 2.42.07.13.98 1.74.35.62 1.44 2.54 2.55-1.44-1.44-2.54-.35-.62-.98-1.74-.07-.13-1.37-2.42-1.44-2.55-2.55 1.44 1.44 2.55zm-6.47.3l-2.36 1.33-1.87 1.06-.5.28-1.33-2.36-2.49 1.4-1.44-2.54L75.66 62l1.44 2.5 2.48-1.41L81 65.52l.08.12L82.36 68l1.37 2.42.07.13L85.17 73l.7 1.24.71 1.25 2.36-1.34.12-.07 1.12-.63 1.24-.7 2.36-1.34.13-.07L96.27 70l-.74-1.31-.7-1.24L93.46 65l-.07-.13-1.34-2.36L90.61 60l-2.36 1.34zm2.81 5l.07.12 1.37 2.43-2.38 1.3-1.25.7-1.11.64-1.37-2.43-.05-.14-1.37-2.4.49-.29 1.87-1 2.36-1.33z"/></g><ellipse cx="100.48" cy="83.59" rx="7.43" ry="4.4" transform="rotate(-30 100.484 83.584)" fill="#fff4a4" stroke="#1d1d1b" stroke-miterlimit="10"/><path stroke-width="2" fill="#fff4a4" stroke="#1d1d1b" stroke-miterlimit="10" d="M93.93 87.07l12.73-7.62"/><path class="cls-6" d="M137.66 273.69h1.09v9.07h-1.09z"/><ellipse class="cls-12" cx="134.5" cy="295.61" rx="10.86" ry="13.48"/><ellipse class="cls-11" cx="141.28" cy="295.61" rx="10.22" ry="13.48"/><path class="cls-6" d="M226.65 222.97h.67v5.61h-.67z"/><ellipse class="cls-12" cx="224.68" cy="236.54" rx="6.72" ry="8.35"/><ellipse class="cls-11" cx="228.89" cy="236.54" rx="6.33" ry="8.35"/><path class="cls-8" d="M353.88 355.91s-13-4.21-15.52 6.13h.06c9 5.6 15.46-6.13 15.46-6.13z"/><path class="cls-6" d="M358.24 203.24h1.44v4.67h-1.44z"/><ellipse class="cls-12" cx="354.04" cy="224.96" rx="14.4" ry="17.88"/><ellipse class="cls-11" cx="363.04" cy="224.96" rx="13.56" ry="17.88"/><text class="cls-3" transform="translate(417.29 226.06)">PROFIT</text><path class="cls-9" d="M412.77 223.04h-47.25"/><path class="cls-10" d="M365.66 220.18a2.86 2.86 0 102.86 2.86 2.86 2.86 0 00-2.86-2.86z"/></g></g></g></svg>