<svg xmlns="http://www.w3.org/2000/svg" viewBox="0 0 24 24"><path d="M12 24c6.7 0 12-5.3 12-12S18.7 0 12 0 0 5.3 0 12s5.3 12 12 12z" fill="#2775ca"/><path d="M15.3 13.9c0-1.7-1.1-2.3-3.2-2.6-1.5-.2-1.8-.6-1.8-1.3 0-.7.5-1.1 1.5-1.1.9 0 1.4.3 1.6 1.1.1.1.2.2.4.2h.8c.2 0 .4-.1.4-.3v-.1c-.2-1.1-1.1-1.9-2.3-2V6.5c0-.2-.2-.4-.4-.4h-.8c-.2 0-.4.1-.4.4v1.1c-1.5.2-2.4 1.2-2.4 2.5 0 1.7 1 2.3 3.1 2.5 1.4.2 1.9.5 1.9 1.4s-.7 1.4-1.6 1.4c-1.3 0-1.8-.6-1.9-1.3 0-.2-.2-.3-.3-.3h-1c-.2 0-.3.1-.3.4v.1c.2 1.2 1 2.1 2.6 2.4v1.2c0 .2.1.3.4.4h.8c.2 0 .4-.1.4-.4v-1.2c1.5-.4 2.5-1.5 2.5-2.8zm-5.9 5.2C5.6 17.8 3.5 13.4 5 9.5c.8-2.1 2.4-3.7 4.4-4.4.3-.1.4-.2.4-.5v-.7c0-.2-.1-.4-.3-.4h-.2C4.5 5 1.9 10.1 3.4 14.9c.9 2.8 3.1 4.9 5.8 5.9.2.1.4 0 .4-.2.1 0 .1-.1.1-.2v-.7c.1-.3-.1-.4-.3-.6zm5.4-15.6c-.2-.1-.4 0-.4.2-.1.1-.1.1-.1.2v.7c0 .2.1.4.3.5 3.9 1.4 5.9 5.7 4.4 9.6-.8 2.1-2.4 3.7-4.4 4.4-.2.1-.3.2-.3.5v.7c0 .2.1.4.3.4h.2c4.7-1.5 7.4-6.6 5.9-11.3-1-2.8-3.2-5-5.9-5.9z" fill="#fff"/></svg>