<svg xmlns="http://www.w3.org/2000/svg" viewBox="0 0 11.5 24"><path d="M10.2 0l1.4 1.4L9 4c.5.8.8 1.8.8 2.8 0 1.3-.5 2.6-1.4 3.5-.7.7-1.5 1.2-2.5 1.4V14c1 .2 1.8.7 2.5 1.4.9.9 1.4 2.2 1.4 3.5 0 1.3-.5 2.6-1.4 3.5-.9 1.1-2.2 1.6-3.5 1.6-1.3 0-2.6-.5-3.5-1.5C.5 21.6 0 20.3 0 19c0-1.3.5-2.6 1.4-3.5.7-.7 1.5-1.2 2.5-1.4v-2.3c-1-.2-1.8-.7-2.5-1.4C.5 9.4 0 8.1 0 6.8c0-1.3.5-2.6 1.4-3.5.9-.9 2.2-1.5 3.5-1.5 1 0 1.9.3 2.7.8L10.2 0zM4.9 15.9c-.8 0-1.6.3-2.1.9-.6.6-.9 1.4-.9 2.2 0 .8.3 1.6.9 2.2.5.6 1.3.9 2.1.9s1.6-.3 2.1-.9c.6-.6.9-1.4.9-2.2 0-.8-.3-1.6-.9-2.2-.5-.6-1.3-.9-2.1-.9zM7 9c.6-.6.9-1.4.9-2.2 0-.8-.3-1.6-.9-2.2-.5-.5-1.3-.8-2.1-.8s-1.6.3-2.1.9c-.6.5-.9 1.3-.9 2.1s.3 1.6.9 2.2c.5.6 1.3.9 2.1.9S6.4 9.6 7 9z" fill="#001d57"/></svg>