<svg version="1.1" id="Layer_1" xmlns="http://www.w3.org/2000/svg" x="0" y="0" viewBox="0 0 24 15.36" xml:space="preserve"><style>.st0{fill:#1f5fff}</style><path class="st0" d="M8.448 1.728l-4.409 4.91a1.226 1.226 0 001.818 1.649l3.114-3.396a.762.762 0 011.094-.029l3.479 3.417a1.523 1.523 0 002.301-.194l4.375-6.054A1.282 1.282 0 0018.145.528l-3.061 4.215a.76.76 0 01-1.145.1L10.638 1.65a1.522 1.522 0 00-2.19.078z"/><path class="st0" d="M8.786 7.864l-2.518 3.262a.76.76 0 01-1.135.079l-2.791-2.73a1.378 1.378 0 00-1.973 1.924l4.161 4.475a1.522 1.522 0 002.314-.099l2.672-3.416a.761.761 0 011.186-.017l2.563 3.09a2.284 2.284 0 003.637-.16l6.852-9.92a1.393 1.393 0 00-2.28-1.601l-6.099 8.546a.76.76 0 01-1.198.052l-3.026-3.543a1.525 1.525 0 00-2.365.058z"/></svg>