<svg version="1.1" id="Layer_1" xmlns="http://www.w3.org/2000/svg" x="0" y="0" viewBox="0 0 19.608 24" xml:space="preserve"><style>.st0{fill:#5e4778}.st1{fill:#3d3144}</style><path class="st0" d="M9.794 0L0 2.047v13.575c0 1.988 2.036 3.866 4.241 5.327a42.004 42.004 0 005.404 2.991l.159.06.159-.06c.397-.149 9.645-4.084 9.645-8.318V2.047L9.794 0zm9.019 15.622c0 2.961-6.367 6.092-9.019 7.135l-.129-.05-.05-.02-.089-.04-.05-.02-.089-.04-.03-.01-.109-.05-.03-.01-.119-.05-.02-.01-.129-.047h-.01l-.149-.06h-.01c-1.321-.586-3.039-1.451-4.549-2.465l-.179-.119-.179-.129-.169-.119-.01-.01-.159-.119-.01-.01-.159-.119-.01-.01-.159-.12-.02-.01-.149-.109-.02-.01-.139-.109-.02-.02-.129-.109-.02-.02-.119-.109-.03-.02-.109-.109-.03-.03-.109-.109-.03-.03-.109-.099-.03-.03-.099-.099-.03-.04-.089-.099-.03-.04-.089-.099-.03-.04-.08-.1-.04-.04-.069-.089-.04-.05-.069-.09-.04-.05-.06-.089-.03-.05-.06-.089-.03-.06c-.02-.03-.03-.06-.05-.08l-.04-.06a.286.286 0 01-.04-.08l-.03-.06c-.01-.03-.03-.05-.04-.08a.694.694 0 01-.06-.14c-.01-.03-.02-.04-.03-.07a.476.476 0 00-.03-.07.188.188 0 01-.02-.07c0-.02-.02-.05-.02-.07a.194.194 0 00-.02-.07c-.01-.02-.01-.04-.02-.07-.01-.03-.01-.05-.02-.08a.155.155 0 01-.01-.06c0-.02-.01-.05-.01-.08s-.01-.04-.01-.06a.372.372 0 00-.02-.089c-.01-.03 0-.03 0-.05V2.773l8.97-1.441h.079l8.97 1.441.014 12.849z"/><path class="st0" d="M9.794 2.325L3 3.419l-1.401.218v11.637c0 2.693 5.791 5.545 8.195 6.489 1.4-.547 3.943-1.739 5.821-3.17.139-.109.288-.219.417-.328.646-.527 1.182-1.083 1.53-1.65.268-.437.427-.885.427-1.332V3.637L9.794 2.325zM5.841 8.497h4.778v.994H5.841v-.994zm9.317.467c0 2.355-1.639 3.876-3.904 3.876H8.115v4.969H6.874v-6.092h4.212c1.689 0 2.791-1.024 2.791-2.753 0-1.709-1.103-2.703-2.771-2.703H9.794l-3.139.01V5.138h4.589c2.275 0 3.913 1.471 3.914 3.826"/><path class="st0" d="M9.794 0v1.332h.04l8.97 1.441v12.839c0 2.961-6.367 6.092-9.019 7.135v1.242l.159-.06c.397-.149 9.645-4.084 9.645-8.318V2.047L9.794 0z"/><path class="st0" d="M11.244 12.83H8.115v.586a12.87 12.87 0 001.689 1.143c1.977 1.133 4.519 1.898 7.768 2.047.268-.437.427-.885.427-1.332V3.637L9.804 2.325 3 3.419c.318 2.554 1.261 6.081 3.874 8.854v-.557h4.212c1.689 0 2.791-1.024 2.791-2.753 0-1.709-1.103-2.703-2.771-2.703H9.794l-3.139.01V5.138h4.589c2.265 0 3.904 1.481 3.904 3.816-.001 2.355-1.629 3.876-3.904 3.876m-1.45-4.333h.814v.994H5.841v-.994h3.953z"/><path class="st1" d="M9.675 22.708l-.05-.02-.089-.03-.05-.02-.089-.04-.03-.01-.109-.05-.03-.01-.119-.05-.02-.01-.129-.06h-.02l-.149-.06h-.01c-1.311-.586-3.03-1.451-4.539-2.474l-.179-.119-.179-.139-.169-.119-.01-.01-.159-.119-.01-.01-.159-.119-.01-.01-.159-.119-.02-.01-.148-.11-.02-.01-.139-.109-.02-.019-.129-.109-.02-.02-.119-.109-.03-.02-.109-.109-.03-.03-.109-.109-.03-.03-.109-.099-.03-.03-.099-.099-.03-.04-.089-.099-.03-.04-.089-.099-.03-.04-.089-.08-.04-.04-.07-.09-.04-.05-.07-.089-.04-.05-.06-.089-.03-.05-.06-.089-.03-.05c-.02-.03-.03-.06-.05-.08l-.04-.06-.04-.08-.03-.06c-.01-.03-.03-.05-.04-.08a.694.694 0 01-.06-.14c-.01-.03-.02-.04-.03-.07a.476.476 0 00-.03-.07.153.153 0 01-.02-.07c0-.03-.02-.06-.02-.08a.194.194 0 00-.02-.07c-.01-.02-.01-.04-.02-.07-.01-.03-.01-.05-.02-.08a.155.155 0 01-.01-.06c0-.02-.01-.05-.01-.08s-.01-.04-.01-.06a.372.372 0 00-.02-.089c-.01-.03 0-.03 0-.05V2.773l8.97-1.441h.04V0L0 2.047v13.575c0 1.988 2.036 3.866 4.241 5.327a42.004 42.004 0 005.404 2.991l.159.06v-1.243l-.129-.049"/><path class="st1" d="M9.794 14.559a12.937 12.937 0 01-1.689-1.143v4.392H6.864v-5.535C4.251 9.491 3.318 5.963 3 3.419l-1.401.218v11.637c0 2.693 5.791 5.545 8.195 6.489 1.4-.547 3.943-1.739 5.821-3.17.139-.109.288-.219.417-.328.646-.527 1.182-1.083 1.53-1.65-3.248-.168-5.781-.933-7.768-2.056"/></svg>