<svg xmlns="http://www.w3.org/2000/svg" viewBox="0 0 12.254 24"><path d="M4.812.072C3.798.285 3.081 1.704 3.397 2.873c.695 2.568 4.447 2.031 4.456-.638C7.858.69 6.495-.28 4.812.072zm-.75 14.888V24h2.999v-5.279l1.301-.028c1.874-.041 2.848-.587 3.564-1.997l.294-.579.025-3.677c.028-4.16.034-4.117-.697-5.088-.916-1.216-1.665-1.432-4.992-1.432H4.063v9.04h-.001zM1.637 6.308c-.55.261-1.117.844-1.383 1.421L.05 8.17 0 18.71h3.006V6.099l-.464.001a2.142 2.142 0 00-.904.21l-.001-.002zm7.304 2.714c.405.216.407.231.41 3.319l.003 2.936-.217.217c-.202.202-.277.216-1.146.216h-.93V8.92h.844c.472 0 .927.045 1.036.102z" fill="#152743"/></svg>