<svg xmlns="http://www.w3.org/2000/svg" viewBox="0 0 24 24"><path d="M5.544 13.32l-2.856 2.858-1.342 1.342A11.943 11.943 0 010 12C0 5.384 5.384 0 12 0s12 5.384 12 12-5.384 12-12 12a11.94 11.94 0 01-6.884-2.176 12.101 12.101 0 01-1.393-1.142l1.268-1.269 9.182-9.182a1.766 1.766 0 013.517-.038l4.226 4.226c.193-.792.29-1.604.29-2.419 0-5.629-4.579-10.207-10.207-10.207S1.793 6.371 1.793 12c0 .783.088 1.546.256 2.279l2.714-2.715a1.768 1.768 0 011.744-1.489 1.768 1.768 0 011.738 1.455l1.727 1.726-1.269 1.268-1.215-1.215a1.757 1.757 0 01-1.945.011zm9.501-1.425l-8.638 8.638A10.136 10.136 0 0012 22.206c4.094 0 7.633-2.423 9.257-5.911l-4.413-4.414a1.752 1.752 0 01-1.799.014zm.92-2.308a.794.794 0 10-.056 1.588.794.794 0 00.056-1.588zm-9.447 1.448a.794.794 0 100 1.588.794.794 0 000-1.588z" fill="#044aac"/></svg>