<svg xmlns="http://www.w3.org/2000/svg" viewBox="0 0 20.4 24"><path d="M14.6 12.3c-.3-.8-.7-1.4-1.3-1.9l-.3-.2-.2-.2c-.1-.1-.2-.1-.2-.2-.1 0-.2-.1-.2-.1-.1 0-.2-.1-.3-.1-.1 0-.2-.1-.2-.1-.2-.1-.4-.1-.6-.2-.2.3-.4.6-.6.8.4 0 .8.1 1.1.3l.6.3c.1 0 .1.1.1.1l.1.1.1.1s.1 0 .1.1l.1.1.1.1.1.1.1.1.1.1.1.1.1.1.1.1.1.1s0 .1.1.1c0 0 0 .1.1.1 0 0 0 .1.1.1 0 0 0 .1.1.1 0 .1 0 .1.1.1.1.3.2.5.2.8l.1.4c.1.2.5 1.8 1.6 2.3l3.4 1.7-8.3 5v-3.4c0-.5 1.1-1.2 1.6-1.4.1-.1.2-.1.3-.2.2-.1.4-.3.6-.4l.1-.1.1-.1.2-.2.2-.2.1-.1c.1-.1.1-.1.1-.2v-.1l.2-.2c.1-.1.1-.2.2-.3-.3-.3-.4-.6-.6-.9-.1.2-.1.4-.2.5 0 .1-.1.2-.1.2 0 .1-.1.1-.1.2v.1c0 .1-.1.1-.1.2-.3.3-.7.6-1.1.8h-.1c-.2.1-2.1.9-2.1 2.2v3.4l-8.3-5c.5-.3 2.1-1.3 3.4-1.7.5-.2 1.6.5 2.2 1 .1.1.2.2.3.2.2.2.4.3.6.4l-.7.5c.1.1.3.1.4.2h.2c.2.1.4.1.6.2.2-.3.4-.6.7-.8-.4 0-.7-.1-1-.2h-.1s-.1 0-.1-.1h-.1s-.1 0-.1-.1c-.2-.1-.5-.3-.7-.4l-.3-.3c-.3-.3-.6-.5-1-.7-.8-.5-1.5-.6-2-.5-1.1.4-2.3 1-3.1 1.5l8.3-15v6.6c0 .2-.3.8-1.5 1.4h-.1c-.1.1-.2.1-.3.2-.2.1-.4.3-.6.4l-.3.3c-.1.1-.2.2-.3.4-.1.1-.1.1-.1.2s-.1.1-.1.2l-.1.2v.1c0 .1-.1.1-.1.2-.2.1-.2.1-.3.2v.1l-.1.2v.1s0 .1-.1.1v.1c0 .1 0 .1-.1.2v1c0 .2 0 .5.1.7.3.1.7.2 1 .4-.1-.3-.2-.7-.2-1v-1c0-.1 0-.1.1-.2l.1-.2v-.1c0-.1.1-.1.1-.2v-.1c0-.1.1-.1.1-.2s.1-.1.1-.2.1-.1.1-.2c.1-.1.1-.1.1-.2.2-.3.5-.5.8-.7l.4-.2c.2-.1 2.1-1 2.1-2.2V1.8l8.5 15c-.7-.4-2.1-1-3.1-1.6-.6-.3-1-1.4-1.1-1.8l-.1-.5c0-.1-.1-.3-.1-.6zm5.7 4.8L11 .5c-.3-.5-.8-.6-1.3-.4-.1.1-.2.2-.3.4L.1 17.1c-.2.4-.1 1 .3 1.2l9.3 5.5c.3.2.7.2 1 0l9.3-5.5c.4-.2.5-.8.3-1.2z" fill="#5f2652"/></svg>