<svg xmlns="http://www.w3.org/2000/svg" viewBox="0 0 17.6 24"><path d="M11.4 24c-1.7 0-3-.4-3.8-1.2-.7-.7-1.2-1.7-1.2-2.7 0-.3.1-.6.2-.9.2-.2.4-.4.6-.5.6-.3 1.2-.3 1.8 0 .2.1.4.3.6.6.1.3.2.6.2.9 0 .4-.1.7-.3 1-.2.2-.4.4-.7.5.2.3.6.6 1.1.6.5.1 1 .2 1.5.2.7 0 1.4-.2 1.9-.6.6-.4 1-1 1.3-1.7.3-.8.4-1.7.4-2.6 0-.9-.1-1.8-.5-2.7-.2-.7-.7-1.3-1.3-1.7-.6-.4-1.2-.5-1.9-.5-.6 0-1.1.2-1.6.6l-1.2.7v-.6L14 6.2H6.5v7.5c0 .5.1 1.1.4 1.5.3.4.8.6 1.3.6s.9-.2 1.2-.4c.4-.3.8-.7 1-1.1 0-.1.1-.1.1-.2.1 0 .1-.1.2-.1s.3.1.4.1c.1.1.2.3.2.5 0 .1 0 .3-.1.4-.3.6-.7 1.2-1.3 1.6-.5.4-1.2.6-1.8.5-1.6 0-2.7-.3-3.4-1-.7-.7-1-1.7-.9-2.6V6.2H0V4.8h3.8V1.6L3 .7V0h2.5l1 .5v4.3h9.9l1 1-6.1 6.1c.4-.1.8-.2 1.1-.3.8 0 1.5.3 2.2.6.8.4 1.5 1 1.9 1.7.4.6.7 1.3.9 2.1.1.6.2 1.2.2 1.8 0 1.1-.3 2.2-.7 3.3-.5 1-1.3 1.8-2.3 2.3-1 .3-2.1.6-3.2.6z" fill="#2c7df7"/></svg>