<svg xmlns="http://www.w3.org/2000/svg" viewBox="0 0 21.4 24.1"><path d="M11.6.3l8.8 5.1c.6.3.9.9.9 1.6v10.1c0 .7-.3 1.3-.9 1.6l-8.8 5.1c-.6.3-1.3.3-1.9 0L1 18.7c-.6-.3-.9-.9-.9-1.6V7c0-.7.3-1.3.9-1.6L9.8.3c.6-.3 1.2-.3 1.8 0z" fill="#11457e"/><path d="M8.6 6.6l-4.5 5.7V6.6H2v11.6h2.1v-2.7l1.6-2 2.8 4.7h2.6l-3.9-6.5 4.1-5.1H8.6zM15 8.8h1.2l2.1-2.1-1-1-1.8 1.9-1.8-1.9-1 1L15 8.8zm.8.9c-1.2 0-2.1.4-2.9 1.2-.7.8-1.1 1.8-1.1 3.2s.4 2.4 1 3.2c.7.8 1.6 1.2 2.8 1.2 2.1 0 3.5-1.2 3.7-3.1h-2.1c-.1.8-.8 1.4-1.6 1.4-1.1 0-1.8-.9-1.8-2.6s.7-2.7 1.8-2.7c.8 0 1.5.6 1.6 1.4h2.1c-.1-.9-.5-1.7-1.1-2.2-.6-.7-1.4-1-2.4-1z" fill="#fff"/></svg>