<svg version="1.1" id="Layer_1" xmlns="http://www.w3.org/2000/svg" x="0" y="0" viewBox="0 0 20.998 24" xml:space="preserve"><style>.st3{fill:#2f2f2f}</style><path d="M10.513 6.163l4.886 2.947-4.886 2.794L5.406 9.11l5.107-2.947z" fill="#ea259e"/><path d="M5.406 9.216L10.513 12l-.029 5.683-5.078-2.688V9.216z" fill="#014c99"/><path d="M10.513 12l4.944-2.784.144 5.779-5.021 2.794L10.513 12z" fill="#08b0f9"/><path class="st3" d="M20.669 5.808l-.076-.048-4.877-2.794L10.609.038 10.541 0l-.058.029a1.874 1.874 0 00-.278.125L5.751 2.755.241 5.981C.01 6.086.02 6.326.02 6.47v.106l-.01 8.179L0 17.789c-.01.182.067.346.202.403l6.336 3.6 3.744 2.131a.471.471 0 00.24.077.272.272 0 00.182-.058l5.414-3.12 4.608-2.65c.173-.077.278-.25.25-.413l.019-11.491c.03-.268-.191-.393-.326-.46m-10.166.73l4.464 2.592-4.454 2.563-1.517-.854-2.995-1.7 4.502-2.601m5.069 2.236l-4.838-2.813a.385.385 0 00-.442-.01L5.396 8.793.942 6.269l3.11-1.814L10.513.682l5.942 3.408 3.629 2.083-4.512 2.601M.634 6.797L5.07 9.312l.086 5.53a.41.41 0 00.211.394l2.947 1.69 1.891 1.085v5.174l-9.59-5.453.019-10.935zm5.05 2.86l4.531 2.563-.01 5.088-4.435-2.543-.086-5.108zm5.136 8.362l1.891-1.094 2.918-1.67.029-.019a.48.48 0 00.173-.144l.029-.038v-.048l-.01-3.667V9.321L20.381 6.7v4.464l-.01 6.509-6.077 3.494-3.485 2.006.011-5.154m0-.701V12.22l4.464-2.573v5.107l-4.464 2.564"/><path class="st3" d="M10.378 1.277a.411.411 0 00-.307.221.391.391 0 00.019.374.408.408 0 00.423.172.359.359 0 00.317-.278.367.367 0 00-.086-.365.396.396 0 00-.366-.124m.259 1.68a.412.412 0 00-.422.01.403.403 0 00-.192.298c-.01.134.048.25.125.317a.388.388 0 00.278.106.449.449 0 00.173-.038.37.37 0 00.24-.346c.01-.136-.077-.27-.202-.347m.01 1.651a.419.419 0 00-.422-.019c-.115.058-.192.173-.202.307s.048.278.154.346c.072.053.16.08.25.077a.449.449 0 00.173-.038.376.376 0 00.047-.673M4.129 15.369a.382.382 0 00-.278.298.391.391 0 00.125.384.353.353 0 00.24.086.355.355 0 00.086-.01.375.375 0 00.269-.221.37.37 0 00-.067-.422.359.359 0 00-.375-.115m12.403.778a.348.348 0 00.096-.019c.125-.029.23-.115.259-.211a.418.418 0 00-.067-.442.388.388 0 00-.663.192.398.398 0 00.134.384.308.308 0 00.241.096m-13.805.048a.374.374 0 00-.25.336.385.385 0 00.182.384.363.363 0 00.192.058.401.401 0 00.163-.038c.125-.058.211-.173.221-.278a.415.415 0 00-.144-.394.343.343 0 00-.364-.068m15.168.768a.378.378 0 00.134-.019c.134-.048.23-.163.24-.278a.386.386 0 00-.115-.394.365.365 0 00-.384-.077.413.413 0 00-.115.691.385.385 0 00.24.077m-16.224.086a.356.356 0 00-.365 0 .38.38 0 00-.202.346c0 .154.077.288.202.346a.339.339 0 00.173.048.393.393 0 00.211-.058.41.41 0 00.182-.355.4.4 0 00-.202-.336m17.367.662a.344.344 0 00.23.086c.049 0 .098-.01.144-.029a.405.405 0 00.24-.307.382.382 0 00-.173-.394.35.35 0 00-.394-.01.404.404 0 00-.192.326.371.371 0 00.145.328"/></svg>