<svg xmlns="http://www.w3.org/2000/svg" width="24" height="24"><path d="M12.001 24.003C5.373 24.003 0 18.63 0 12.002S5.373.001 12.001.001s12.001 5.373 12.001 12.001-5.373 12.001-12.001 12.001zm9.001-9.78l-5.614-4.847h-1.781l3.469 2.999-1.096.943-2.28-2.781h-1.508l-3.038 3.699 1.341-3.693H9.277l-.888 2.494-.89-2.493h-1.5l-.891 2.499-.894-2.51H2.999l1.33 3.684h1.584l.836-2.348.843 2.367h1.56l-.933 1.142h1.498l3.229-3.931.925 1.131h-1.214l-.625.772h2.469l.716.87h1.499l1.253-1.073 1.258 1.077zm-1.759-2.229l1.687-1.427-1.688-.002-.835.711z"/></svg>