<svg version="1.1" id="Layer_1" xmlns="http://www.w3.org/2000/svg" x="0" y="0" viewBox="0 0 24 22.917" xml:space="preserve"><style>.st0{fill:#008dd0}</style><g id="Layer_2"><g id="Layer_1-2"><g id="Layer_1-3"><g id="_2621096421008"><path class="st0" d="M21.769 8.684C20.58 7.558 18.9 6.621 16.72 6.025h-.013c-5.187-1.411-7.035 1.927-2.835 4.031 4.768 2.385 5.43 6.292 2.739 8.735-.686.622-2.914 1.785-4.963 2.064-3.255.451-6.867-.24-9.802-1.173a15.446 15.446 0 005.37 2.692c4.577 1.26 10.105.332 13.768-2.853 3.691-3.211 4.043-7.763.785-10.837zm-5.047-2.658l.048.014-.048-.014z"/><path class="st0" d="M6.75 1.154a15.597 15.597 0 0115.405 2.088c-5.481-1.743-9.733-1.592-12.523-.469l-.041.016C6.146 4.198 4.953 7.083 6.452 9.691c.807 1.406 2.231 2.457 3.675 3.178 3.818 1.912 2.644 4.84-1.49 4.305a9.983 9.983 0 01-1.359-.278C-.839 14.68-2.026 7.787 3.015 3.403A13.318 13.318 0 016.75 1.154z"/></g></g></g></g></svg>