<svg xmlns="http://www.w3.org/2000/svg" viewBox="0 0 14.5 24"><path d="M6.3 19.5L0 24 4 5.6l2.3 13.9zm.1-.1h3.8l-6-13.7 2.2 13.7zm4.2-.3l2.9-10.9-1.1-1.4-1.8 12.3zM9.2 2L4.4 5.3l7-2.3-2.2-1zm-.6 0l-3 .1-.4 1.3L8.6 2z" fill="#384182"/><path d="M12.2 6.5L4.5 5.4l7-2.2.7 3.3zm-1.8-4.1l.4-1.2-2.2-1 1.8 2.2zm.7-1.3l.5 1.8 3-.8-3.5-1z" fill="#f79534"/><path d="M10.4 19.4L4.2 5.5l8.1 1.1-1.9 12.8zM9 2L5.2 3.5l-1 1.7L9 2zM6.6.9L5.7 2l3.2-.1-2.3-1zM8.3.1L6.8.8l3.5 1.5-2-2.2zM10 0H8.4l2.5 1-.9-1zm1 1.3l-.4 1.2.8.4-.4-1.6z" fill="#f0513a"/></svg>