<svg version="1.1" id="_ÎÓÈ_1" xmlns="http://www.w3.org/2000/svg" x="0" y="0" viewBox="0 0 24 21.249" xml:space="preserve"><style>.st1{fill:#02819b}</style><path d="M18.214 21.249L1.813 9.735a4.247 4.247 0 010-6.959L5.786 0l16.401 11.515a4.25 4.25 0 010 6.96l-3.973 2.774zM5.784 1.851L2.688 4.018a2.73 2.73 0 000 4.477l15.531 10.903 3.097-2.165a2.733 2.733 0 000-4.476L5.784 1.851z" fill="#4bc0c8"/><path class="st1" d="M5.769 19.387l-3.092-2.171a2.733 2.733 0 010-4.476l8.004-5.596-1.32-.924-7.55 5.278a4.248 4.248 0 000 6.96l3.962 2.782 4.901-3.43-1.32-.927-3.585 2.504zM22.195 2.792L18.231.01l-4.906 3.433 1.32.927 3.584-2.503 3.094 2.171a2.733 2.733 0 010 4.476l-8.006 5.592 1.32.927 7.551-5.283a4.248 4.248 0 000-6.96l.007.002z"/><path transform="rotate(-34.979 6.309 9.272)" class="st1" d="M2.503 8.513h7.613v1.517H2.503z"/><path class="st1" d="M20.516 9.069l-3.038 2.127.869 1.242 3.151-2.207c-.331-.38-.657-.77-.982-1.162z"/></svg>