<svg xmlns="http://www.w3.org/2000/svg" viewBox="0 0 22.806 24"><g fill-rule="evenodd" clip-rule="evenodd"><path d="M4.542 2.171h1.299l4.262 6.476L15.795 0h6.496l-7.64 11.608-.65-.987 6.276-9.536H16.38l-6.276 9.536-5.562-8.45zm3.613 9.437l.65.987-6.792 10.32h3.898l6.791-10.319 6.077 9.234H17.48l-4.778-7.26L6.496 24H0l8.155-12.392z" fill="#4ea5db"/><path d="M11.403 16.544L16.31 24h6.496L13.352 9.634l4.912-7.464h-1.299l-4.912 7.464 8.74 13.281h-3.898l-4.842-7.358-.65.987zm-7.376 5.285h1.299l5.427-8.247L2.529 1.085h3.898l4.327 6.575.65-.987L7.012 0H.515l8.939 13.583-5.427 8.246z" fill="#276eb2"/></g></svg>