<svg xmlns="http://www.w3.org/2000/svg" viewBox="0 0 19.556 24"><path d="M9.84.053c-.017-.07-.102-.07-.136 0L7.739 3.537c-.017.035-.017.07 0 .088L9.772 7.25l5.388 9.607c.017.035.017.07-.017.106l-2.847 3.308-3.033 3.554c-.051.053-.017.141.068.141h4.541c.017 0 .051-.018.068-.035l5.591-6.528c.017-.035.034-.07.017-.106L9.84.053zM7.603 23.974a.372.372 0 00.034-.026l3.016-3.519c.051-.053.017-.141-.068-.141h-3.32c-.017 0-.051-.018-.068-.035L4.384 16.98c-.017-.035-.034-.07-.017-.106l4.71-8.393c.017-.035.017-.07 0-.088L7.129 4.909c-.034-.053-.119-.053-.153 0L.013 17.331a.117.117 0 000 .106l5.591 6.528c.017.017.034.035.068.035H7.57a.18.18 0 01.033-.026z" fill="#276eb2"/></svg>