<svg xmlns="http://www.w3.org/2000/svg" viewBox="0 0 21.4 24.1"><path d="M11.6.3l8.8 5.1c.6.3.9.9.9 1.6v10.1c0 .7-.3 1.3-.9 1.6l-8.8 5.1c-.6.3-1.3.3-1.9 0L1 18.7c-.6-.3-.9-.9-.9-1.6V7c0-.7.3-1.3.9-1.6L9.8.3c.6-.3 1.2-.3 1.8 0z" fill="#e77c00"/><path d="M14.5 18.6c2.5-.3 4-1.7 4-3.9 0-1.9-1-3.3-3.3-3.9l-2-.5c-.8-.2-1.3-.5-1.3-1.2 0-.8.6-1.3 1.6-1.3s1.7.6 1.7 1.5h3c0-2.1-1.4-3.5-3.7-3.8V4h-1.9v1.5c-2.3.3-3.8 1.7-3.8 3.9 0 1.7.9 3.1 3.3 3.7l2.1.5c.8.2 1.2.6 1.2 1.3 0 .8-.7 1.3-1.9 1.3-1.3 0-2.1-.6-2.1-1.8h-3c0 2.3 1.5 3.9 4.1 4.2v1.6h1.9l.1-1.6zM5.4 4C3.9 4 2.9 5 2.9 6.8c0 1.8 1 2.8 2.5 2.8 1.3 0 2.2-.8 2.3-1.9H6.5c-.1.6-.5.9-1.1.9-.9 0-1.3-.7-1.3-1.8S4.5 5 5.4 5c.6 0 1 .3 1.1.9h1.2C7.6 4.7 6.7 4 5.4 4z" fill="#fff"/></svg>