<svg xmlns="http://www.w3.org/2000/svg" viewBox="0 0 24 23.4"><path d="M7.3 14.9zm-.4-2.3H10v.9H6.9v-.9zm-2.5 3.3h14.1v-8H4.4v8zm7.3-6.6h5.7v1.1H13v3.1h3.1v-.9h-2.2v-1.3h3.5v3.4h-5.7V9.3zm-6.2 0h4v1.6h-4V9.3zm0 4.2v-2.2h4.4v-2h1.3v5.4H5.5v-1.2zm6.5 9.8zM15.7.5C15.1.3 14.6.2 14 .2c-.5-.2-1.1-.2-1.7-.2H0v23.3l12.3-.1c.6 0 1.1 0 1.7-.1.5-.1 1.1-.2 1.7-.4 1.2-.4 2.3-.9 3.3-1.6 1-.7 1.9-1.6 2.6-2.5.7-1 1.3-2.1 1.8-3.3.4-1.2.6-2.4.6-3.8 0-1.3-.2-2.6-.6-3.8-.4-1.2-1-2.3-1.8-3.3-.7-1-1.6-1.8-2.6-2.5-1-.6-2.1-1.1-3.3-1.4zm0 19.2c-.5.2-1 .3-1.5.5s-1 .2-1.5.2H2.9V2.9h9.8c.5 0 1 .1 1.5.2s.9.2 1.4.4c.8.3 1.5.8 2.1 1.3.7.6 1.3 1.2 1.8 1.9s.9 1.5 1.1 2.3c.3.8.4 1.7.4 2.6 0 .9-.1 1.8-.4 2.6-.3.8-.6 1.6-1.1 2.3s-1 1.3-1.7 1.9c-.6.5-1.4.9-2.1 1.3z" fill="#f4d029"/></svg>