<svg xmlns="http://www.w3.org/2000/svg" viewBox="0 0 24 24"><path d="M5.8 12.4C2.6 12.4 0 15 0 18.2 0 21.4 2.6 24 5.8 24c3.2 0 5.8-2.6 5.8-5.8 0-3.2-2.6-5.8-5.8-5.8zm0 9.8c-2.2 0-4-1.8-4-4s1.8-4 4-4 4 1.8 4 4-1.8 4-4 4zM18.2 0c-3.2 0-5.8 2.6-5.8 5.8 0 3.2 2.6 5.8 5.8 5.8 3.2 0 5.8-2.6 5.8-5.8C24 2.6 21.4 0 18.2 0zm0 9.9c-2.2 0-4-1.8-4-4s1.8-4 4-4 4 1.8 4 4c0 2.1-1.8 4-4 4zM5.8 0C2.6 0 0 2.6 0 5.8c0 2.3 1.4 4.4 3.5 5.3C6 12.2 9 11.3 10.6 9c1.6-2.3 1.3-5.3-.6-7.3h1.6V0H5.8zm4 5.8c0 2.2-1.8 4-4 4s-4-1.8-4-4 1.8-4 4-4 4 1.8 4 4z" fill="#1a53f0"/></svg>