<svg version="1.1" id="Layer_1" xmlns="http://www.w3.org/2000/svg" x="0" y="0" viewBox="0 0 24 14.831" xml:space="preserve"><style>.st0{fill:#3f4b80}.st1{fill:#313a62}.st2{fill:#4b5897}.st3{fill:#5161a4}.st5{fill:#495692}.st7{fill:#4f60a3}</style><g id="Group"><g id="Shape"><path class="st0" d="M20.403 2.362l-.987-.717L21.724.48z"/><path class="st1" d="M14.535 0l2.874 1.478.346 2.384z"/><path class="st0" d="M17.755 3.862l-.459 2.027L14.535 0z"/><path class="st2" d="M17.296 5.889L12.895.334 14.54.011z"/><path class="st3" d="M17.296 5.889l-4.773-1.866.372-3.689z"/><path class="st2" d="M12.895.334l-.372 3.689-4.919.691zm4.401 5.555l-5.264 1.43.491-3.296z"/><path class="st0" d="M12.032 7.319l5.264-1.43-2.373 1.106zm-2.907.496l2.907-.496.049.992z"/><path class="st1" d="M12.081 8.311l-.049-.992 2.891-.324z"/><path class="st0" d="M7.604 4.714l4.919-.691-.491 3.296z"/><path class="st2" d="M7.604 4.714l4.428 2.605-2.907.496z"/><path class="st1" d="M7.604 4.714l1.521 3.101-1.467 1.073z"/><path class="st3" d="M5.107 5.55l.588 3.532L4.077 6.65z"/><path class="st1" d="M2.211 6.671l1.866-.021.011 1.138z"/><path class="st0" d="M2.362 7.443l-.151-.772 1.877 1.117z"/><path class="st2" d="M2.362 7.443l-1.068.944.917-1.716z"/><path class="st1" d="M1.294 8.387l-.075.571L0 8.759z"/><path class="st3" d="M1.294 8.387l1.068-.944-1.143 1.515z"/><path class="st0" d="M4.077 6.65l1.618 2.432-1.607.318zm.475 4.563l-1.17 2.421-.173-1.866z"/><path fill="#1f243e" d="M3.209 11.768l.173 1.866-.675.324z"/><path class="st0" d="M3.382 13.634l.178.912-1.392.285z"/><path class="st1" d="M2.707 13.958l.675-.324-1.214 1.197zM4.088 9.4l1.607-.318-2.486 2.686z"/><path class="st2" d="M5.695 9.082l1.095 1.246-3.581 1.44zM5.107 5.55l2.497-.836-1.909 4.368z"/><path class="st0" d="M5.695 9.082l1.909-4.368.054 4.174z"/><path class="st1" d="M6.79 10.328L5.695 9.082l1.963-.194z"/><path class="st2" d="M14.923 6.995l2.314-.016-1.478 2.254z"/><path class="st3" d="M14.923 6.995l2.373-1.106-.059 1.09z"/><path class="st0" d="M14.47 8.991l.453-1.996.836 2.238z"/><path class="st2" d="M13.915 10.037l.555-1.046 1.289.242z"/><path class="st0" d="M12.793 10.787l.35-1.716 1.327-.08z"/><path class="st1" d="M12.793 10.787l1.677-1.796-.555 1.046z"/><path class="st5" d="M19.416 1.645l2.2-1.543.108.378z"/><path fill="#5d6cac" d="M21.616.102l1.802-.091-1.694.469z"/><path class="st7" d="M20.462 3.624l-1.003-.706 3.392.005z"/><path class="st5" d="M19.459 2.918l2.918-.378.474.383z"/><path class="st0" d="M22.377 2.54l1.337-1.17-.863 1.553z"/><path class="st7" d="M22.851 2.923l.863-1.553.286.135z"/><path class="st1" d="M23.714 1.37l.237-.674.049.809z"/></g><path id="Shape-2" class="st1" d="M17.755 3.862l.323 2.836-.782-.809z"/><path id="Shape-3" class="st0" d="M18.078 6.698l-.323-2.836 2.707-.238z"/><path id="Shape-4" class="st2" d="M20.462 3.624l-2.707.238-.346-2.384z"/><path id="Shape-5" class="st1" d="M20.403 2.362l.437.394-1.381.162z"/><path id="Shape-6" class="st0" d="M17.409 1.478l2.994.884-.944.556z"/><path id="Shape-7" class="st1" d="M17.409 1.478l2.007.167.987.717z"/><path id="Shape-8" class="st0" d="M20.338 8.111l.124-4.487 1.079.879z"/><path id="Shape-9" class="st5" d="M20.338 8.111l.124-4.487-2.384 3.074z"/><path id="Shape-10" class="st1" d="M21.541 4.503l-.345-1.121-.734.242z"/><path id="Shape-11" class="st1" d="M21.686 7.491l-1.348.62 1.203-3.608z"/></g></svg>