<svg xmlns="http://www.w3.org/2000/svg" viewBox="0 0 23.23 24"><path d="M3.342 17.201a2.074 2.074 0 11-.008.008l.008-.008M17.539 3.722a2.076 2.076 0 110 2.936 2.074 2.074 0 01-.003-2.931h.003M6.004 15.604l2.19 2.19 2.006-2.006a3.95 3.95 0 01-2.195-2.195l-2.001 2.011zm9.849-5.359l2.006-2.006-2.19-2.19-2.006 2.006c.495.199.945.496 1.322.873.377.375.672.823.868 1.317" fill="#fdba4d"/><path d="M17.47 20.034a2.076 2.076 0 112.936 0 2.074 2.074 0 01-2.933.003l-.003-.003M3.55 6.473a2.076 2.076 0 112.936 0c-.81.81-2.123.81-2.933 0m11.95 11.234l2.19-2.19-2.006-2.006a3.95 3.95 0 01-2.195 2.195m-3.124-7.765L8.361 5.935l-2.19 2.19 2.006 2.006c.199-.495.496-.945.873-1.322a3.873 3.873 0 011.318-.868" fill="#5da9dd"/><path d="M14.036 2.078a2.076 2.076 0 110-.003v.003m0 19.847a2.076 2.076 0 110-.003v.003zM12.713 5.243h-1.307v2.573a3.824 3.824 0 011.307 0m0 8.484a3.824 3.824 0 01-1.307 0v2.573h1.307" fill="#18568c"/><path d="M21.152 13.511a2.076 2.076 0 11.003 0h-.003m-19.074.353a2.078 2.078 0 110-4.156 2.078 2.078 0 010 4.156m13.79-1.425h2.573V11.13h-2.573c.075.432.075.875 0 1.307v.002zm-7.995 0a3.824 3.824 0 010-1.307H5.3v1.307" fill="#18578c"/><path d="M14.842 11.939a2.946 2.946 0 11-2.946-2.946 2.947 2.947 0 012.946 2.946z" fill="#18568b"/></svg>