<svg version="1.1" id="Layer_1" xmlns="http://www.w3.org/2000/svg" x="0" y="0" viewBox="0 0 24 24" xml:space="preserve"><style>.st1{fill:#e1ded9}</style><g id="poe"><g id="Group"><g id="Vector" transform="translate(-110.56 -283.616)"><path id="path2_fill" d="M129.9 288.9l-15.1 15.4-.3-6.2 9.1-9.2 3.8-3.9 2.4-.8 1.8.5 1.7 1.4-2 2.3-1.4.5z" fill="#fff"/></g><g id="Shape" transform="translate(-101.969 -282.328)"><path id="path3_fill" class="st1" d="M122.7 288.1l-3 3.1h4.6l.5-.5c.4-.4.6-.8.8-1.3.2-.5.3-1 .3-1.5 0-1.1-.4-2-1.1-2.8l-2.1 2.2c.1.1.2.3.2.5 0 0-.1.2-.2.3z"/></g><g id="Shape_1_" transform="translate(-109.362 -272.234)"><path id="path4_fill" class="st1" d="M117.7 291.1l-2.5 2.6h4.6l2.5-2.6h-4.6z"/></g><g id="Shape_2_" transform="translate(-107.056 -274.811)"><path id="path5_fill" class="st1" d="M116.6 292.4h4.6l2.7-2.8h-4.6l-2.7 2.8z"/></g><g id="Shape_3_" transform="translate(-104.571 -277.511)"><path id="path6_fill" class="st1" d="M125.6 287.9H121l-2.9 3h4.6l2.9-3z"/></g></g><g id="Shape_4_" transform="translate(-113 -284)"><path id="path7_fill" d="M135.5 285.6c-.5-.5-1-.9-1.7-1.2-.6-.3-1.3-.4-2-.4s-1.3.1-2 .4-1.2.7-1.7 1.2l-11.8 12.2c-.1.1-.2.3-.2.5v6.3L113 308h1.8l2.4-2.5h6.1c.1 0 .2 0 .2-.1.1 0 .1-.1.2-.2l11.8-12.2c1-1 1.5-2.3 1.5-3.7 0-.7-.1-1.4-.4-2-.2-.7-.6-1.3-1.1-1.7zm-6.9 1.4l.5-.5c.7-.8 1.7-1.2 2.8-1.2s2 .4 2.8 1.2c.7.8 1.1 1.8 1.1 2.8 0 1.1-.4 2.1-1.1 2.8l-.5.5h-4.6l3-3.1c.1-.1.2-.3.2-.4s-.1-.3-.2-.5c-.1-.1-.3-.2-.4-.2s-.3.1-.4.2l-3 3.2-.2-4.8zm-10.1 17.2l2.5-2.6h4.6l-2.5 2.6h-4.6zm7.1-7.5l2.9-3h4.6l-2.9 3h-4.6zm3.6 1.1l-2.7 2.8h-4.6l2.7-2.8h4.6zm-4.5-6.8l2.9-3v4.8l-2.9 3V291zm-3.7 3.9l2.7-2.8v4.8l-2.7 2.8v-4.8zm-3.5 3.6l2.5-2.6v4.8l-2.5 2.6" fill="#438d5c"/></g></g></svg>