<svg xmlns="http://www.w3.org/2000/svg" viewBox="0 0 24 24"><path d="M3.3 12c0 1 .2 2 .5 2.9 1-1.1 2.2-2.1 2.3-2.1-.1-.2-.1-.5-.1-.8 0-3.3 2.7-6 6-6s6 2.7 6 6c0 0-4.3-1.2-9 1-2.4 1.1-5 3-6.7 6.2C.9 17.2 0 14.7 0 12 0 5.4 5.4 0 12 0c2.6 0 5 .8 7 2.3l-3.1 2c-1.2-.6-2.5-.9-3.9-.9-4.8-.1-8.7 3.8-8.7 8.6z" fill-rule="evenodd" clip-rule="evenodd" fill="#051842"/><path d="M19.8 8.1c.6 1.2.9 2.5.9 3.9 0 4.8-3.9 8.7-8.7 8.7-1.4 0-2.7-.3-3.9-.9l-3.1 2c2 1.4 4.4 2.2 7 2.2 6.6 0 12-5.4 12-12 0-2.6-.8-5-2.2-7l-2 3.1z" fill-rule="evenodd" clip-rule="evenodd" fill="#24d694"/><path d="M11.4 13.2c-2.5.7-4.4 2.2-4.4 2.2C8.1 17 9.9 18 12 18c3 0 5.4-2.1 5.9-4.9-1.1-.2-2.2-.3-3.2-.3-1.2 0-2.3.2-3.3.4z" fill-rule="evenodd" clip-rule="evenodd" fill="#10a1df"/></svg>