<svg version="1.1" id="Layer_1" xmlns="http://www.w3.org/2000/svg" x="0" y="0" viewBox="0 0 24 24" xml:space="preserve"><style>.st1{fill:#fff}</style><circle cx="12" cy="12" r="12" fill="#199248"/><path class="st1" d="M12 3a9 9 0 10.001 18.001A9 9 0 0012 3zm2.057 16.677a7.947 7.947 0 11-3.446-15.502 7.947 7.947 0 019.209 6.444 7.947 7.947 0 01-5.763 9.058z"/><path class="st1" d="M14.198 5.465c0 .388 0 .775.015 1.162a7.351 7.351 0 00-1.609-.422c-.023-.352.078-.738-.025-1.072a9.867 9.867 0 00-1.179-.014c-.02.361-.012.725 0 1.087a7.365 7.365 0 00-1.61.431c.011-.391.015-.782.01-1.174a6.9 6.9 0 000 13.078c0-.384-.004-.767-.011-1.149.515.201 1.052.34 1.6.412 0 .352 0 .703-.021 1.052.42.06.846.06 1.266 0a20.026 20.026 0 01-.03-1.04 7.607 7.607 0 001.605-.408c-.012.38-.012.76 0 1.14A6.9 6.9 0 0014.2 5.47l-.002-.005zm1.027 10.452c-.906.821-2.193 1.015-3.375.998-1.037 0-2.135-.281-2.884-1.032-.398-.384-.622-.897-.824-1.406.725-.188 1.472-.25 2.202-.406.092.449.418.814.853.958.662.207 1.483.236 2.035-.236.391-.325.403-1.035-.083-1.278-1.138-.588-2.555-.389-3.631-1.133-1.481-.934-1.591-3.41-.141-4.418 1.108-.778 2.59-.875 3.876-.563 1.162.294 1.991 1.28 2.39 2.371-.715.124-1.43.25-2.146.371-.188-1.136-1.779-1.406-2.569-.744-.45.374-.335 1.171.228 1.371 1.23.51 2.707.363 3.797 1.217 1.266.857 1.398 2.906.272 3.93z"/></svg>