<svg xmlns="http://www.w3.org/2000/svg" viewBox="0 0 21.4 24.1"><path d="M11.6.3l8.8 5.1c.6.3.9.9.9 1.6v10.1c0 .7-.3 1.3-.9 1.6l-8.8 5.1c-.6.3-1.3.3-1.9 0L1 18.7c-.6-.3-.9-.9-.9-1.6V7c0-.7.3-1.3.9-1.6L9.8.3c.6-.3 1.2-.3 1.8 0z" fill="#f5e902"/><path d="M19.3 14.5c0-1.8-1-2.9-3-3.4l-1.8-.5c-.9-.2-1.4-.6-1.4-1.3 0-.8.6-1.3 1.6-1.3 1.1 0 1.8.6 1.8 1.5H19c0-1.9-1.3-3.1-3.4-3.4V4.6H14V6c-2.1.3-3.4 1.6-3.4 3.5 0 1.7 1 2.8 3 3.3l1.9.5c.9.2 1.3.6 1.3 1.3 0 .9-.7 1.4-1.9 1.4-1.3 0-2.1-.6-2.1-1.8h-2.4c0 2.1 1.4 3.6 3.7 3.8v1.5h1.6V18c2.2-.2 3.6-1.5 3.6-3.5zM4.8 7.7L2.9 4.6h-.8v4.5h.8V6l1.9 3.1h.8V4.6h-.8v3.1zm1.6-3.1v.7h2.1L6.4 8.4v.7h3.1v-.7H7.4l2.1-3.1v-.7H6.4z" fill="#fff"/></svg>