<svg version="1.1" id="Layer_1" xmlns="http://www.w3.org/2000/svg" x="0" y="0" viewBox="0 0 24 24" xml:space="preserve"><style>.st0{fill:#00206b}</style><path class="st0" d="M11.4 0h1.3c1.3.1 2.6.3 3.8.8 3 1.2 5.5 3.6 6.7 6.6 1.7 4 .9 8.8-1.8 12.2-1.9 2.3-4.6 3.9-7.6 4.3-2.8.4-5.7-.2-8-1.7-1.8-1.1-3.3-2.8-4.3-4.7C.2 15.1-.1 12.2.4 9.6c.4-3 2.2-5.7 4.6-7.4C6.9.9 9.1.1 11.4 0m-.8.5c-3.6.5-7 2.8-8.7 6C.7 8.6.3 11.2.6 13.6c.4 2.9 2 5.7 4.3 7.5 1.8 1.4 4 2.3 6.2 2.4 2.6.2 5.2-.5 7.3-1.9 2.6-1.7 4.4-4.5 5-7.6.3-1.8.2-3.7-.4-5.4-.8-2.5-2.5-4.8-4.8-6.2C16 .9 13.3.2 10.6.5z"/><path class="st0" d="M10.9 5.3c2.1-.3 4.3.3 5.8 1.8 1.3 1.3 2.1 3.1 2.1 4.9 0 1.8-.8 3.6-2.1 4.9-1.4 1.4-3.6 2.1-5.6 1.9-1.9-.2-3.7-1.3-4.7-2.9-1.2-1.7-1.5-3.9-.9-5.9.7-2.5 2.9-4.4 5.4-4.7m.4.4v1.8h.9V5.7c-.3-.1-.6 0-.9 0m2.2 1.8c.8.1 1.6.2 2.3.8 1 .9.8 2.7-.3 3.3.7.2 1.4.6 1.6 1.4.2 1 0 2.1-.7 2.8-.8.6-1.8.7-2.8.8v1.7c2-.5 3.7-2 4.4-3.9.7-1.8.5-3.9-.5-5.5-.9-1.5-2.3-2.6-4-3v1.6m-6 0h2.6V5.9c-1 .3-1.8.9-2.6 1.6m-.1 0c-.2.3-.6.9-.9 1.3-1 1.7-1.1 4-.3 5.8.7 1.6 2.2 2.9 3.9 3.5v-1.6H7.5c0-.5.1-1 .3-1.4.4 0 .9.1 1.3-.1.2-.2.2-.5.2-.8V9.5c0-.3-.1-.5-.4-.6-.5-.1-.9-.1-1.4-.1V7.7s0-.1-.1-.2zm4 1.4v2.3c.8 0 1.6.1 2.3-.4.6-.4.5-1.3-.1-1.6-.7-.4-1.5-.3-2.2-.3m0 3.6v2.6c1-.1 2 .1 2.9-.5.6-.4.5-1.4-.1-1.7-.9-.6-1.9-.4-2.8-.4m-.1 4v1.8h.9v-1.8h-.9z"/><path d="M10.7 1.2c2.1-.2 4.3.1 6.2 1.1 2.4 1.2 4.4 3.3 5.3 5.9 1 2.5 1 5.4-.1 8-1.5 4-5.6 6.8-9.9 6.8-2.5.1-5-.8-7-2.3-2.1-1.6-3.5-4.1-4-6.7-.5-2.6.1-5.4 1.4-7.6 1.8-2.9 4.8-4.9 8.1-5.2m-.4 3.5C8.6 5.1 7.1 6.1 6 7.5 4.8 9 4.3 11 4.6 12.9c.2 2 1.3 3.9 3 5.1 1.5 1.2 3.5 1.7 5.5 1.4 2.4-.3 4.5-1.8 5.6-3.9.8-1.5 1.1-3.3.7-5-.4-2-1.7-3.9-3.4-5-1.7-.9-3.8-1.2-5.7-.8z" fill="#eba809"/></svg>