<svg xmlns="http://www.w3.org/2000/svg" viewBox="0 0 21.4 24.1"><path d="M11.6.3l8.8 5.1c.6.3.9.9.9 1.6v10.1c0 .7-.3 1.3-.9 1.6l-8.8 5.1c-.6.3-1.3.3-1.9 0L1 18.7c-.6-.3-.9-.9-.9-1.6V7c0-.7.3-1.3.9-1.6L9.8.3c.6-.3 1.2-.3 1.8 0z" fill="#039"/><path d="M9.4 8.9c.8-1.6 2.3-2.4 4.6-2.4.7 0 1.4 0 1.9.1v-3c-.8-.1-1.7-.2-2.5-.1-4.1.1-6.8 2.1-7.8 5.4H3.8v2.2h1.4v1.6H3.8v2.2h1.8c1 3.6 4 5.7 8.2 5.7.5 0 1.2 0 2.1-.1v-3c-.6.1-1.2.1-1.9.1-2.3 0-3.9-.9-4.6-2.6h4.5l.3-2.2H8.8v-1.6h5.4l.3-2.2-5.1-.1z" fill="#fff"/></svg>