<svg xmlns="http://www.w3.org/2000/svg" viewBox="0 0 24 23.6"><path d="M2.674 13.85c0-1.5.283-2.908.85-4.225.567-1.317 1.342-2.467 2.325-3.45s2.133-1.758 3.45-2.325 2.725-.851 4.225-.85c1.25 0 2.442.2 3.575.601 1.134.417 2.159.983 3.075 1.7s1.708 1.567 2.375 2.55c.65 1 1.133 2.075 1.45 3.225-.117-1.55-.517-3-1.2-4.35-.667-1.35-1.538-2.521-2.612-3.513S17.884 1.433 16.5.85A11.74 11.74 0 0012.05 0c-1.667 0-3.233.317-4.7.95-1.45.634-2.72 1.492-3.812 2.575S1.584 5.883.95 7.35C.317 8.8 0 10.35 0 12c0 1.383.217 2.7.65 3.95a12.548 12.548 0 001.85 3.375 12.19 12.19 0 002.775 2.625A12.408 12.408 0 008.8 23.6a10.069 10.069 0 01-2.5-1.675c-.75-.667-1.392-1.421-1.925-2.262s-.95-1.754-1.25-2.737a10.48 10.48 0 01-.45-3.075l-.001-.001zm10.85-8.051a7.807 7.807 0 00-3.125.625c-.984.434-1.838 1.013-2.562 1.738S6.533 9.733 6.099 10.7a7.981 7.981 0 00-.625 3.15c0 .417.029.825.087 1.225s.154.791.288 1.175V16c0-1.116.208-2.158.625-3.125a7.987 7.987 0 011.712-2.562 7.998 7.998 0 012.562-1.712 7.668 7.668 0 013.125-.65c.9 0 1.759.142 2.575.425a8.141 8.141 0 014 2.999c.484.683.85 1.442 1.1 2.275a7.764 7.764 0 00-.675-3.1 8.172 8.172 0 00-1.738-2.487A7.921 7.921 0 0016.598 6.4a7.958 7.958 0 00-3.075-.601h.001z" fill="#2e9f2b"/><path d="M15.999 16.674v-.075c.2-.033.387-.104.562-.212.175-.108.321-.254.437-.437.117-.166.204-.362.262-.588.058-.225.087-.463.087-.713 0-.4-.071-.742-.212-1.025a1.725 1.725 0 00-.662-.7c-.283-.183-.658-.325-1.125-.425-.467-.1-1.025-.15-1.675-.15h-2.8v9.05h3.375c.5 0 .954-.058 1.362-.175a3.387 3.387 0 001.062-.5c.3-.25.521-.534.662-.85.142-.316.212-.675.212-1.075 0-.283-.029-.542-.087-.775a2.103 2.103 0 00-.262-.625c-.1-.183-.25-.334-.45-.45-.2-.117-.45-.208-.75-.275h.002zm-3.15-2.724h1.001c.267 0 .5.021.7.063.2.042.367.105.5.188a.776.776 0 01.262.313c.058.125.087.271.087.437 0 .183-.029.346-.087.487a.616.616 0 01-.262.313 1.557 1.557 0 01-.475.188 2.933 2.933 0 01-.65.063H12.8v-2.05h.05l-.001-.002zm2.425 5.574c-.117.1-.275.18-.475.238-.2.058-.425.087-.675.087h-1.25v-2.375h1.2c.55 0 .954.092 1.213.275.259.183.388.467.387.85-.016.217-.058.4-.125.55-.067.15-.159.275-.275.375z"/></svg>