<svg xmlns="http://www.w3.org/2000/svg" viewBox="0 0 24 21.4"><path d="M5.5 7c-.1 0-.2.1-.3.2 0 0 0 .1-.1.1v-.1c0-.1 0-.1.1-.1l.9-.9c.1-.2.2-.2.3-.2l1.2.3h.1l-.3.3c-.1.1-.1.3-.1.5v.1c-.3.2-.4.5-.6.7V8c.2.2.3.4.5.5 0 0 .1.1 0 .1-.2.3-.1.6 0 .8.1.2.2.3.4.3.1 0 .1 0 .1.1v.2c0 .2.2.3.3.4.1 0 .1.1.1.2.1.4.5.6.9.7.3 0 .6 0 .9-.2 0 .3.1.6.2.9v.1c.3.6.6 1.1 1.1 1.4.4.3.9.5 1.4.3.4-.1.7-.4.9-.8.2-.3.4-.7.6-1 .2-.3.5-.5.8-.7h.2v.1c-.1.2-.1.4 0 .6.1.1.2.1.2 0 .1-.1.1-.3.3-.2.1 0 .2-.1.2-.2 0-.5.1-1 .4-1.4l.1-.1h.1v.6c0 .1 0 .1.1.1s.1-.1.1-.1c0-.1.1-.1.2-.1h.1c.1 0 .2-.3.2-.4-.1-.4-.1-.8.1-1.2 0-.1.1-.1.1-.2 0 0 0-.1.1 0v.3s0 .1.1.1c0 0 .1 0 .1-.1.3-.2.4-.2.4-.2 0-.1.1-.3.1-.4-.1-.4-.1-.7 0-1.1v-.1s0-.1.1-.1 0 .1 0 .1v.2s0 .1.1.1.1 0 .1-.1v-.1s0-.1.1-.1.1 0 .1-.1c.1-.2.1-.4 0-.6-.1-.4-.2-.7 0-1.1v-.1c0 .1 0 .2.1.2 0-.1.1-.1.1-.1v-.1c0-.2 0-.3-.1-.5-.1-.3-.1-.6 0-.9 0-.1.1-.2.1-.3.4.3.4.3.4.4 0 .3.1.5.3.6.2.3.4.6.5.9 0 .1.1.1.2.2.3.1.5.2.7.4.3.2.6.5.8.8 0 0 0 .1.1.1 0-.2.1-.3 0-.5v-.3c0-.2.1-.3.3-.2.1 0 .1 0 .1-.1s.1-.1.2-.2.1 0 .1.1v.4c.1.1.1.2 0 .3-.1.1-.1.3-.1.4.1-.1.1-.2.2-.4 0-.1 0-.1.1-.2s.2-.2.3-.1h.2c.2-.1.4 0 .5.2-.1 0-.2 0-.3.1 0 0-.1.1 0 .1.1.1 0 .1 0 .2l-.1.1c-.1.1-.2.1-.2.3.1-.1.3-.2.5-.2s.3.1.3.2.1.1.1.1v.5c-.1-.1-.2-.1-.2-.2h-.2c-.1.1-.1.1-.2.1-.2-.1-.4-.1-.5.1-.2 0-.3.1-.4.1.2 0 .3.1.5.1.2.1.3.2.3.4 0 .1.1.1.1.2.1.2.1.3-.1.5v-.1c0-.1-.1-.1-.2-.1s-.2 0-.3-.1c-.1-.3-.4-.5-.7-.6-.1 0-.2-.1-.3-.2v.3c0 .1-.1.2-.2.2-.1.1-.1.1-.1.2s.1.1.1.2c-.2 0-.4-.2-.5-.4 0 0 0-.1-.1-.1-.1-.1-.1-.3 0-.4.1-.1.1-.2.2-.3.1-.1.1-.1 0-.1-.2-.1-.4-.1-.7-.2v.2c.1.6.1 1.3 0 1.9-.1.8-.3 1.7-.7 2.4-.4.9-1 1.7-1.6 2.3-.9.9-1.9 1.5-3.1 1.9-.5.2-1.1.3-1.7.3-.2 0-.3.2-.3.3-.1.3-.3.6-.5.8-.1.1-.2.2-.4.2 0-.1 0-.1.1-.2 0-.1 0-.2-.1-.3-.1-.1-.2-.1-.3 0-.1.1-.2.1-.2.2 0 .3-.2.5-.5.6v-.3c.1.2 0 .2-.1.2-.2.1-.4.2-.5.3 0 0-.1 0-.1.1.1 0 .2.1.2.1.2.1.5.3.6.5.1.1.1.2.1.3-.1.1 0 .3 0 .4 0 .3-.1.6-.3.7v-.2c0-.1-.1-.3-.1-.4 0 0 0-.1-.1-.1-.2 0-.3 0-.4-.1-.1-.1-.2-.3-.3-.5 0 .2-.2.3-.3.4-.5.2-.7.5-.9 1 0 .1-.1.2-.1.3-.2.2-.3.3-.6.2h-.1v.3c-.1 0-.2-.2-.2-.4v-.2c-.1-.3 0-.5.1-.7l.3-.3c.1-.1.2-.3.3-.4v-.1c-.3.1-.6 0-.8 0h-.1c-.2 0-.4.1-.5.2l-.1.1c-.1.1-.3.1-.4 0-.1-.1-.1 0-.1 0 0 .1-.1.2-.1.3v.2c-.1-.2-.2-.4-.2-.6v-.1c-.1-.1-.1-.2 0-.2.1-.2.2-.3.4-.4.3-.1.6-.3.9-.3.2 0 .3 0 .5.1h.1v-.1l-.3-.3c-.4 0-.5-.1-.7-.1-.1 0-.1-.1-.2-.1s-.2-.1-.1-.2c0-.1 0-.1-.1-.1-.2 0-.3 0-.5.1.1-.3.4-.5.7-.4.1 0 .1 0 .2-.1s.2-.1.4-.1c.3.1.6.3.8.6.1.1.2.3.4.3H9v-.1c0-.2 0-.4-.1-.6 0-.1-.1-.2-.2-.3h-.1c-.2-.1-.3-.2-.2-.4 0-.1 0-.1-.1-.1-.2-.1-.3-.1-.5-.1.1-.2.3-.2.5-.2h.1c.1.1.2.2.4.1.1 0 .2 0 .3.1.1.1.2.3.2.5.1.2.3.4.3.7.1-.2.1-.3.2-.5l.3-.9c0-.1 0-.1-.1-.1-.8-.3-1.6-.7-2.4-1.2-.1.1-.2.1-.3.1-.1 0-.2.1-.1.2 0 .1.1.1.1.1s.1 0 .1.1-.1.1-.1 0c-.3 0-.5-.1-.6-.4-.2-.3-.3-.7-.3-1 0-.1 0-.2-.1-.2-.2-.2-.4-.4-.5-.6 0 0 0-.1-.1-.1v.5c0 .1.1.2 0 .2-.1.1-.1 0-.2-.1-.2-.2-.3-.5-.3-.7-.1-.2-.2-.5-.2-.8v-.1c-.1-.3-.2-.6-.3-1-.1.1-.1.2-.1.4v.3h-.1c-.1-.1-.1-.1-.1-.2-.1-.3-.1-.6-.1-.9 0-.5.2-1 .4-1.6V9c-.1 0-.1.1-.1.2 0 0 0 .1-.1.1s-.1-.1-.1-.1v-.3c.3-.6.6-1.2 1-1.7 0-.1.1-.1.1-.2zm10-1.9c-.2-.2-.4-.3-.6-.5-.9-.4-1.8-.6-2.7-.5-.4.1-.9.2-1.3.4h-.1c-.6-.4-1.2-.6-1.9-.7-.5-.1-1-.1-1.5-.2-.4-.1-.8-.3-1.3-.5-.2-.1-.2-.1 0-.3l.5-.5c.1-.1.1-.2 0-.2 0-.1-.1-.1-.2-.1 0 0 0 .1-.1 0v-.1c0-.2.2-.3.3-.4.3-.2.6-.2.9-.1h.2l.6-.3s.1 0 .1-.1 0-.1-.1-.1c-.1.1-.2 0-.3.1h-.1V.9c0-.1.1-.2.2-.2.4-.2.9-.1 1.2.1h.1c.2-.1.5-.1.7-.2.1 0 .1-.1 0-.1-.1-.1-.2-.1-.3-.1h-.1V.3c.1-.1.3-.2.4-.2.3 0 .6.1.8.3.1.1.2.1.3.1h.4V.4c0-.1-.2-.2-.3-.2V.1c.4-.1.5-.1.7-.1.3 0 .6.2.8.5 0 0 0 .1.1.1h.3c.1 0 .2 0 .2.1 0 0 .1.1.1 0V.6c0-.2-.1-.2-.3-.3V.2c.1-.1.1-.1.2-.1.4 0 .9.2 1 .8 0 .1 0 .1.1.1s.2 0 .3.1l.1.1h.1l.1-.1c0-.1-.1-.3-.2-.3h-.1c.1-.1.2-.1.3-.1.5 0 .7.3.9.7 0 .1.1.2.2.3.1 0 .2.1.2.2l.1.1c.1 0 .1-.1.1-.2 0-.2-.1-.3-.3-.4 0 0-.1 0-.1-.1h.1c.3 0 .4.2.6.4.1.1.2.3.3.5 0 .1 0 .1.1.1s.1.1.1.1.1.1.2.1 0-.1 0-.2-.1-.2-.1-.3c0 0-.1-.1 0-.1h.1c.2.1.4.2.5.4.1.2.2.4.3.5.2.3.2.7.1 1.1-.1.3-.2.6-.1 1 0 .1 0 .2-.1.3-.1.1-.1.2-.2.3-.1.3-.1.7-.1 1.1 0 .1 0 .1-.1.2-.3.2-.4.5-.4.8v.5s0 .1-.1.1c-.3.1-.4.3-.6.5-.1.1-.1.3-.2.5 0 .1-.1.1-.1.1-.1 0 0-.1 0-.1.1-.3.1-.7.1-1 0-.5-.1-.9-.3-1.4v-.1c.2-.2.3-.5.3-.8 0-.4.1-.8 0-1.2-.1-.3-.3-.5-.5-.5-.3 0-.6.1-.7.4-.1.2-.1.3-.1.5.2-.1.2 0 .2 0zM9.6 8c0-.2-.1-.3-.2-.5-.2-.2-.5-.3-.7-.4-.3 0-.5-.1-.7-.1h-.1v-.1c.1-.1.2-.1.3-.2.2 0 .3-.1.5-.1.1 0 .2-.1.3-.1.1-.1.1-.1 0-.2-.2-.1-.4-.2-.7-.4-.6-.2-1.2-.3-1.7-.4-.7-.2-1.3-.4-1.9-.8-.4-.3-.7-.6-1-1v-.5h.1c.2.1.3.2.4.4.6.6 1.3.9 2.2 1 .6.1 1.1.1 1.7.2.6.2 1.1.3 1.6.6.1-.1.3 0 .5-.2.1-.1 0-.1 0-.1-.2 0-.3-.1-.5-.2-.5-.2-1-.3-1.5-.4-.5-.1-1-.1-1.4-.2-.5-.1-.9-.2-1.2-.4-.3-.2-.6-.4-.8-.7-.1-.2-.2-.3-.2-.5 0-.1 0-.1.1-.2.1 0 .1 0 .1.1.2.2.3.4.5.6.6.5 1.3.8 2.1 1 .5.1 1 .1 1.4.2.5.1 1 .3 1.5.5.2.1.3.2.4.3.1 0 .1.1.2 0 .1 0 .3-.1.4 0 .1 0 .2.1.3.2.1.3.1.6 0 .9v.2c.1.2.1.2.3.2.3-.1.6 0 .9.2h.1c.2-.1.5-.2.7-.3l.1-.1c.1-.2.2-.3.3-.4.1-.1.3-.2.5-.2s.5.1.8.1h.3c.3-.1.5-.3.5-.6v-.7s0-.1.1-.1.1.1.1.1V5c0 .3 0 .6-.1.9 0 .1-.1.2-.2.2-.2.1-.4.1-.6.1h-.7c-.2 0-.4.2-.5.4v.2c.2.2.2.3.4.2.1 0 .2.1.2.2.1.2.2.4.4.4h.2c0 .1-.1.1-.1.1-.2.1-.3.1-.5-.1.1.2-.1.3 0 .5 0 .1 0 .1-.1.1-.1-.1-.2-.1-.2-.2-.1-.1-.1-.1-.2 0s-.1.2-.2.3c-.1.1-.1.1-.2 0l-.2-.2c0-.1-.1-.1-.1 0s-.2.2-.2.3c0 .1-.1 0-.1 0v-.1s0-.1-.1-.1 0 0-.1.1c-.1.2-.2.4-.5.5v-.1c0-.1.1-.1.1-.2s0-.1-.1-.2c-.1 0-.1.1-.1.1-.2.3-.2.7-.2 1 .1.4.3.8.4 1.2.2.4.3.8.4 1.2.1.3.1.7 0 1-.1.4-.7.7-1.2.5-.4-.2-.6-.5-.9-.8-.2-.2-.3-.4-.4-.7 0-.1 0-.1-.1-.1v-.2c.1 0 .1 0 .1.1.1.1.2.3.3.4.2.3.4.5.7.7.2.1.4.2.7.1.3-.1.4-.4.3-.8-.1-.4-.3-.8-.5-1.1-.3-.4-.5-.9-.6-1.4-.1-.2-.1-.4-.1-.6 0-.1 0-.1-.1-.1-.3.1-.5 0-.8-.1h-.1l-.1.1c.1-.3-.1-.4-.3-.5h-.2c-.1.1-.1.3 0 .5.2.3.4.4.7.6h.1l.1-.1c0-.1.1-.1.2-.1s.1 0 .1.1c.1.3.1.6.2.9v.1c-.2.3-.4.5-.8.5h-.2c0-.1.1-.1.1-.1.2-.1.3-.3.3-.5 0-.1 0-.1-.1-.1h-.2c-.1 0-.2 0-.3.1-.1.1-.3.2-.4.3-.4.2-.9.1-1.1-.3 0-.1-.1-.1-.1-.2s-.1-.1-.1 0c0 0 0 .1-.1 0v-.1c0-.2 0-.3.1-.4v-.1c.1-.2 0-.2-.1-.3-.1-.1-.2-.1-.3 0 0 0-.1.1-.1 0V9c0-.2.2-.4.4-.5 0 0 .1 0 .1-.1-.3.1-.5-.2-.8-.4v-.1c.5-.5 1.2-.6 1.8-.2l.3.3zm.3-1c.1.2.2.3.4.4.1.1.2.1.4 0s.3-.2.5-.3V7c-.1-.2-.3-.4-.5-.2s-.5.2-.8.2zm3.8.3h-.4s-.1 0-.1.1c0 0 0 .1.1.1s.1 0 .2.1c.1 0 .2.1.3.2h.1c.2 0 .4 0 .5-.1.1 0 .1-.1 0-.1 0-.1-.1-.2-.2-.2-.2-.1-.3-.1-.5-.1zM.5 10.5c.5.4 1.2.4 1.3 0-.4.1-.9.1-1.2-.2-.2-.2-.4-.4-.5-.7C-.1 9 .1 8.3.6 8c-.1.5-.1 1 .3 1.4.2.2.5.4.9.4.7.1 1.3-.5 1.5-.9-.2.1-.3.2-.4.3-.7.5-1.5.2-1.8-.3-.3-.3-.2-.9.2-1.1 0 .1.1.2.1.3.3.3.6.4 1 .3.5-.1.9-.4 1.1-.9.2-.4.3-.8.5-1.3.1-.3.3-.6.5-.9 0 0 .1-.1.1 0 .2.2.5.3.8.4.1 0 .1 0 0 .1-.5.5-.9 1-1.2 1.7-.4.7-.6 1.5-.9 2.4-.1.4-.3.7-.5 1-.3.4-.8.5-1.3.5-.2 0-.5 0-.7-.2-.2-.2-.3-.4-.3-.7zm12.3-1.2c.1 0 .1 0 0 0 .2.3.5.2.7.2.1 0 .1 0 .1-.1s0-.3-.1-.4v-.1c.1 0 .2.1.3.2.1.1.1.2.2.2s.1-.1.2-.1c0 0 .1 0 .1-.1v-.4c.2.1.3.2.4.3l.2.2c.2.1.4.4.3.6-.2-.1-.2-.1-.4-.1.1.1.1.2.1.4 0 .1-.1.1-.2 0s-.2-.1-.4-.1c-.1 0-.1 0-.1.1.1.2 0 .4-.1.5 0 0 0 .1-.1.1l-.1-.1c-.1-.3-.3-.4-.6-.2-.1.1-.1.1-.2-.1-.1-.3-.2-.7-.3-1zM1.6 7.4l.2.2c.2 0 .2 0 .2-.1s0-.2.2-.3c.2-.1.3 0 .4.1.1.1.2.3.2.4V8c0 .1-.1 0-.2 0h-.3c-.1 0-.2 0-.3-.1-.3 0-.5-.2-.4-.5zm4.8 10.3zm4.9.7zM9.6 8z" fill="#e8b321"/></svg>