<svg version="1.1" id="Layer_1" xmlns="http://www.w3.org/2000/svg" x="0" y="0" viewBox="0 0 19.1 24" xml:space="preserve"><style>.st2{fill:#5b6a72}</style><path d="M5.9 17.7c1.1.8 3-.2 4.4-2.1l.1-.1c.8-1.1.5-2.6-.6-3.4-1.1-.8-2.6-.5-3.3.6 0 0 0 .1-.1.1-1.3 2-1.5 4.2-.5 4.9" fill="#ed8117"/><path d="M7 16.3c.7.5 2.1-.1 3.1-1.5v-.1c.5-.7.4-1.8-.4-2.3-.8-.5-1.8-.3-2.3.4v.1c-1 1.4-1.1 2.8-.4 3.4" fill="#eebb18"/><path class="st2" d="M2.4 10c-.1.1-.2.4.1.3.9-.3 2.8-.6 5.1 1 3.1 2.1 2.8-3.4 2.8-3.4-.6-.5-4.3-2.6-8 2.1m11.7 8.4c0 .3.2.2.3 0 3.2-5 0-7.7-.7-8.2 0 0-5.3 1.6-2.2 3.8 2.2 1.6 2.6 3.5 2.6 4.4"/><path d="M10.9 14.8c.6.4 1 .5 1.4 0s2.7-3.2 5-6.2.9-8.1.6-8.3c-.3-.2-5.3.1-7.2 3.4s-3.5 6.5-3.9 7.1c-.3.6-.2 1 .5 1.4.3.2 1 .8 1.8 1.3s1.6 1.1 1.8 1.3" fill="#dcf2f9"/><path class="st2" d="M11.6 15.5c-.3 0-.6-.1-1-.4-.3-.2-1.1-.7-1.8-1.3l-1.2-.9-.7-.5c-.4-.3-.6-.5-.7-.8-.2-.4 0-.8.2-1 .1-.1.2-.4.4-.7.7-1.2 2.1-3.8 3.6-6.3.6-.9 1.4-1.7 2.5-2.3.6-.3 1.6-.8 3-1 .5-.2 1-.3 1.5-.3.7 0 .8 0 .9.1.1 0 .2.1.4.8.1.4.2 1 .3 1.5.2 1.5.3 4.3-1.3 6.3-1.9 2.3-3.8 4.5-4.7 5.6-.2.3-.4.5-.5.6-.1.2-.3.3-.4.4-.2.1-.3.2-.5.2M17.7.6c-.5 0-1.6.1-2.8.5-1.3.4-3.1 1.2-4.1 2.8-1.6 2.6-3 5.1-3.6 6.3-.2.3-.3.6-.4.7-.2.3-.1.4-.1.5.1.1.2.3.5.5l.7.5 1.2.9c.8.5 1.6 1.1 1.8 1.3.6.4.8.4 1.1 0 .1-.1.3-.3.5-.6.9-1 2.8-3.2 4.7-5.6C18.4 7 18.6 5 18.5 3.6c-.1-1.5-.4-2.7-.6-3h-.2"/><path d="M12.8 7.5c1 .7 2.3.4 3-.5.7-1 .4-2.3-.5-3s-2.3-.4-3 .5-.5 2.3.5 3" fill="#fefefe"/><path class="st2" d="M14 8.2c-1.3 0-2.4-1.1-2.4-2.4 0-.5.2-1 .4-1.4.8-1.1 2.3-1.4 3.4-.6 1.1.7 1.4 2.2.6 3.3-.4.5-.9.9-1.6 1-.1 0-.3.1-.4.1m0-4.3h-.3c-.5.1-.9.4-1.2.7-.6.8-.4 2 .4 2.5.8.6 2 .4 2.5-.4.6-.8.4-2-.4-2.5-.2-.2-.6-.3-1-.3"/><path d="M0 23.8l3.4-4.7.2.2L.2 24l-.2-.2zm1.9-.6l2-2.8.2.2-2 2.8-.2-.2z" fill="#979797"/></svg>