<svg xmlns="http://www.w3.org/2000/svg" viewBox="0 0 24 20.3"><path d="M20.6 2.7l-2.9 1.5-14 7.1c0-.4-.1-.7-.1-1.1 0-4.6 3.7-8.3 8.3-8.3 1.4 0 2.8.4 4 1.1l1.7-.8.4-.3C13.4-1.4 7.1-.3 3.8 4.2c-1.3 1.7-1.9 3.8-1.9 6v.8c.1.7-.3 1.4-1 1.8l-.9.4v2.1L2.6 14l.8-.4.8-.4 14.7-7.5 1.7-.8L24 3V.9l-3.4 1.8zM24 5.1L5.1 14.7l-1.7.8L0 17.3v2.1l3.4-1.7 2.9-1.5 14-7.1c0 .4.1.7.1 1.1 0 4.6-3.7 8.3-8.3 8.3-1.4 0-2.8-.4-4.1-1.1l-.1.1-1.9.9c4.5 3.3 10.9 2.3 14.2-2.3 1.3-1.7 1.9-3.8 1.9-6v-.8c-.1-.7.3-1.4 1-1.8l.9-.4v-2z" fill="#eebb18"/></svg>