<svg xmlns="http://www.w3.org/2000/svg" viewBox="0 0 24 19.2"><path d="M19.956 9.502c.876.235 1.74.508 2.518.986.346.212.668.462.96.743.432.48.403.986.01 1.494-.346.442-.816.724-1.316.959-1.267.611-2.611.959-3.984 1.165-1.115.168-2.248.264-3.372.404a.409.409 0 00-.259.179c-.787 1.174-1.565 2.348-2.352 3.523a2.118 2.118 0 00-.173.245 333.018 333.018 0 01-2.468-3.76.396.396 0 00-.336-.197c-2.248-.16-4.465-.451-6.588-1.212-.672-.235-1.315-.527-1.872-.968-.03-.029-.068-.048-.096-.076-.816-.685-.836-1.418-.048-2.124.622-.563 1.39-.882 2.187-1.127.797-.245 1.603-.423 2.411-.629.038-.01.077-.01.144-.029C3.583 6.419 1.865 3.787.107 1.118c.106-.01.182-.019.25-.019 1.086-.01 2.171 0 3.256-.01a.392.392 0 01.373.217c2.628 4.008 5.254 8.017 7.876 12.03.038.067.084.13.134.188.605-.912 1.19-1.786 1.766-2.66 2.112-3.192 4.225-6.381 6.339-9.567.077-.113.134-.198.307-.198 1.142.01 2.286.01 3.428.01.054 0 .108.002.163.01-1.783 2.69-3.57 5.378-5.359 8.064.452.112.884.206 1.316.319zM3.477 11.758c.223.248.486.462.778.629 1.2.64 2.526.874 3.9 1.08-.019-.065-.019-.094-.029-.112-.779-1.176-1.547-2.359-2.324-3.534a.28.28 0 00-.24-.076c-.456.15-.902.329-1.336.536-.28.155-.531.358-.739.601a.621.621 0 00-.01.874v.002zm15.125 1.014a3.203 3.203 0 001.392-.79c.385-.384.385-.817 0-1.212a1.475 1.475 0 00-.325-.264c-.413-.206-.845-.403-1.268-.61-.144-.076-.23-.019-.317.113-.451.696-.912 1.38-1.373 2.068-.288.432-.576.874-.874 1.325.077.01.154.01.23 0 .846-.207 1.7-.395 2.535-.63zM18.612 0l-6.577 10.479L5.37 0h13.242z" fill="#338be5"/></svg>