<svg xmlns="http://www.w3.org/2000/svg" viewBox="0 0 24 24.001"><circle cx="12" cy="12" r="12" fill="#377e96"/><path d="M17.719 22.552l.063-.047c-.174-.319-.456-.486-.773-.562-.453-.108-.913-.208-1.375-.24-1.027-.074-2.056-.092-3.084-.154-1.144-.07-2.287-.167-3.433-.241-.1-.007-.243.03-.3.101-.3.368-.59.745-.86 1.135-.132.191-.214.416-.316.622l.079.045a11.842 11.842 0 01-1.319-.598c.078.015.18.003.218-.035.469-.47.924-.955 1.381-1.435-.341-.273-.675-.515-.979-.79-.284-.257-.402-.596-.377-.985.037-.598.299-1.107.684-1.534.455-.505.966-.96 1.453-1.435.06-.058.122-.111.178-.162-.019-.033-.021-.043-.026-.046l-.142-.083c-1.566-.903-2.347-2.275-2.367-4.065-.02-1.533.632-2.774 1.786-3.754 1.125-.955 2.45-1.29 3.904-1.257 1.076.025 2.082.263 3.019.797.052.03.184-.005.232-.056.443-.464.892-.924 1.308-1.414.516-.607.952-1.267 1.133-2.064.141-.621.081-1.204-.369-1.689-.661-.712-1.798-.616-2.377.195-.114.159-.18.352-.292.515-.041.06-.146.077-.223.115-.018-.068-.06-.137-.05-.199.026-.171.058-.345.115-.507.285-.817.814-1.375 1.702-1.5.289-.04.589-.007.89-.007-.015-.02-.021-.037-.033-.043a3.847 3.847 0 00-.17-.085A12.388 12.388 0 0015.25.445c1.124.316 2.195.794 3.18 1.42.006.065.002.082.01.091.662.817.577 1.683.16 2.565-.354.746-.87 1.378-1.427 1.979-.51.55-1.023 1.099-1.537 1.65.021.014.033.029.045.029.785.001 1.57.012 2.355-.005.409-.007.773-.143 1.026-.505.048-.07.179-.082.271-.121l.052.073c-.218.627-.432 1.255-.661 1.876-.02.052-.135.095-.208.098-.278.012-.555.005-.833.005h-.997l.113.225c.54 1.057.683 2.179.41 3.322-.403 1.687-1.507 2.778-3.112 3.345-1.311.463-2.656.447-4.003.125-.119-.028-.304-.052-.367.011-.289.289-.595.581-.804.928-.43.714-.18 1.21.639 1.383l.023.003c.804.062 1.607.139 2.412.183 1.138.062 2.278.087 3.416.155.689.041 1.369.163 1.99.492.799.422 1.366 1.045 1.614 1.955l.175-.125c-.467.35-.96.667-1.477.948l.004.002zm-3.638 1.268a12.07 12.07 0 01-2.205.18 15.344 15.344 0 002.205-.18zM24 12.037V12c0-1.035-.131-2.039-.377-2.997.245.993.371 2.012.377 3.034zm-2.79-7.728a12.048 12.048 0 00-2.392-2.184c.913.66 1.713 1.387 2.392 2.184zM6.23 22.522c-.592-.325-1.155-.7-1.684-1.12.534.406 1.117.754 1.684 1.12zM0 12.023zm2.187-6.932c.471-.655 1-1.265 1.582-1.823a11.998 11.998 0 00-1.582 1.823zM8.35.566A12.727 12.727 0 0112 0a11.99 11.99 0 00-3.65.566zm6.325 11.926l-.045-.011c-.026-.363-.041-.727-.08-1.089-.089-.837-.326-1.627-.787-2.34-.683-1.056-1.823-1.482-2.916-1.059-.898.346-1.374 1.059-1.589 1.967-.204.859-.188 1.73-.084 2.597.1.825.335 1.61.81 2.308.61.896 1.462 1.288 2.52 1.111 1.005-.167 1.636-.817 1.894-1.783.148-.552.188-1.133.277-1.701z" fill="#fff"/></svg>