<svg version="1.1" id="Layer_1" xmlns="http://www.w3.org/2000/svg" x="0" y="0" viewBox="0 0 24 24" xml:space="preserve"><style>.st2{fill:#fff}.st7{fill:#ffc95b}</style><linearGradient id="SVGID_1_" gradientUnits="userSpaceOnUse" x1="-286.231" y1="312.274" x2="-286.274" y2="312.231" gradientTransform="matrix(400 0 0 -400 114513 124913)"><stop offset="0" stop-color="#ff2d55"/><stop offset="1" stop-color="#ffbc5b"/></linearGradient><circle cx="12" cy="12" r="12" fill="url(#SVGID_1_)"/><linearGradient id="SVGID_2_" gradientUnits="userSpaceOnUse" x1="-285.74" y1="311.901" x2="-285.74" y2="311.841" gradientTransform="matrix(125 0 0 -150 35729.7 46793)"><stop offset="0" stop-color="#a524b3"/><stop offset="1" stop-color="#ff2d55"/></linearGradient><path d="M8.5 7.8v9H16l-7.5-9z" fill="url(#SVGID_2_)"/><path class="st2" d="M1 16.8h7.5v-9l-7.5 9z"/><path d="M2.4 19.2c.7.9 1.5 1.7 2.4 2.4h14.4c.9-.7 1.7-1.5 2.4-2.4H2.4z" fill="#fc9965"/><path d="M4.8 21.6c2 1.5 4.5 2.4 7.2 2.4s5.2-.9 7.2-2.4H4.8z" fill="#ff2d55"/><linearGradient id="SVGID_3_" gradientUnits="userSpaceOnUse" x1="-286.591" y1="312.185" x2="-286.591" y2="312.125" gradientTransform="matrix(91.7 0 0 -110 26299.2 34353)"><stop offset="0" stop-color="#a524b3"/><stop offset="1" stop-color="#ff2d55"/></linearGradient><path d="M16.1 12.6v6.6h5.5l-5.5-6.6z" fill="url(#SVGID_3_)"/><path d="M16.1 16.8H1c.4.9.8 1.7 1.4 2.4h13.7v-2.4z" fill="#ffbc5b"/><path class="st2" d="M10.6 19.2h5.5v-6.6l-5.5 6.6z"/><circle class="st7" cx="16.1" cy="7.8" r="3"/><circle class="st7" cx="8.5" cy="4.5" r="1.5"/></svg>