<svg xmlns="http://www.w3.org/2000/svg" viewBox="0 0 24 24"><path d="M12 24C5.4 24 0 18.6 0 12S5.4 0 12 0s12 5.4 12 12-5.4 12-12 12zm10.6-10.1c-.3.6-1 .9-1.6.6.4.4.7 1 .7 1.7 0 .2 0 .4-.1.5.5-.8.9-1.8 1-2.8zm-1.1.1c.3 0 .6-.3.6-.6s-.3-.6-.6-.6-.6.3-.6.6.3.6.6.6zm.3-6.5c.6 1.7.3 3.6-.9 4.9.2-.1.4-.2.6-.2.6 0 1.1.5 1.2 1.1.1-.4.1-.9.1-1.3 0-1.6-.3-3.1-1-4.5zm-.6 1.6C21.2 6.8 19.3 5 17 5c-2.3 0-4.2 1.9-4.2 4.2 0 2.3 1.9 4.2 4.2 4.2 2.3-.1 4.2-2 4.2-4.3zm-4.4 7.1c0-.9.5-1.7 1.3-2.2-1 .2-2.1.2-3.1-.2.9.7 1.5 1.5 1.8 2.4.1.1 0 .1 0 0zm.3 1.7c0 .4 0 .8-.1 1.2.2-.4.6-.6 1-.6h.2c-.5-.3-.9-.7-1.1-1.2v.6zm2.2-.1c.9 0 1.5-.7 1.6-1.5 0-.9-.7-1.5-1.6-1.5-.9 0-1.5.7-1.5 1.5s.6 1.5 1.5 1.5zm1-4.4c0-.2.1-.4.2-.6-.4.4-.9.7-1.5 1h.3c.4 0 .9.1 1.3.3-.2-.2-.3-.4-.3-.7zm-8.3-.6c.7 0 1.3.1 1.9.4-1-.8-1.7-1.9-1.9-3.2-.2 1.3-.9 2.4-1.9 3.2.6-.3 1.2-.4 1.9-.4zM12 6c-.5 0-.9-.1-1.3-.4.7.7 1.1 1.6 1.3 2.6.2-1 .6-1.9 1.3-2.6-.4.3-.8.4-1.3.4zm2.5-2.4c0 .6-.2 1.1-.5 1.5.5-.4 1.1-.7 1.7-.8h-.1c-.5 0-.9-.4-1.1-.7 0-.1 0-.1 0 0zm1.9-1.5c.3.2.5.6.5.9 0 .5-.3.9-.7 1.1 1.8-.3 3.6.3 4.8 1.7-1.3-1.6-2.8-2.9-4.6-3.7zm-.8.4c-.3 0-.6.3-.6.6s.3.6.6.6.6-.3.6-.6-.3-.6-.6-.6zm-2.9-1.3c.8.3 1.4.9 1.6 1.7 0-.6.6-1.1 1.2-1.1h.1c-.8-.3-1.8-.5-2.9-.6zm-2.3 2.4c0 .9.7 1.5 1.6 1.5.8 0 1.5-.7 1.5-1.5 0-.9-.8-1.5-1.6-1.5s-1.4.7-1.5 1.5zM8.3 1.9h.1c.6-.1 1.2.4 1.2 1.1.2-.8.8-1.5 1.6-1.7-1 0-2 .2-2.9.6zm1.2 1.7c0-.1 0-.1 0 0-.2.4-.6.7-1.1.7h-.1c.7.1 1.2.4 1.8.8-.4-.4-.6-1-.6-1.5zm-1.7-.5c0 .3.3.6.6.6s.6-.3.6-.6-.3-.6-.6-.6-.6.2-.6.6zM3.1 5.9c1.2-1.4 3-2 4.8-1.7-.6-.3-.9-1-.6-1.6.1-.2.2-.3.3-.5-1.8.8-3.3 2.1-4.5 3.8zm-.3 3.2c0 2.3 1.9 4.2 4.2 4.2 2.3 0 4.2-1.9 4.2-4.2C11.2 6.8 9.3 5 7 5 4.7 5 2.8 6.8 2.8 9.1zm4.4 7.1c0 .1-.1.1 0 0 .3-.9.9-1.8 1.7-2.4-1 .4-2 .5-3.1.2.9.5 1.4 1.3 1.4 2.2zm-3.5-2.8c0 .3-.1.5-.2.7.4-.2.8-.3 1.3-.3h.3c-.6-.2-1.1-.6-1.5-1 0 .2.1.4.1.6zm-.5 2.8c0 .9.7 1.5 1.5 1.5.9 0 1.5-.7 1.5-1.5 0-.9-.7-1.5-1.5-1.5-.9 0-1.5.7-1.5 1.5zm2.6 2.2H6c.4 0 .8.3 1 .6-.1-.4-.1-.8-.1-1.2v-.7c-.2.6-.6 1.1-1.1 1.3zm-4.5-5.1c.1-.6.6-1.1 1.2-1.1.2 0 .4.1.6.2-1.2-1.4-1.5-3.3-.9-5-.9 1.9-1.2 3.9-.9 5.9zm1.2-.5c-.3 0-.6.3-.6.6s.3.6.6.6.6-.3.6-.6-.3-.6-.6-.6zm-.3 3.4c0-.6.2-1.2.7-1.7-.6.3-1.3 0-1.6-.6.2 1 .5 2 1 2.9 0-.2-.1-.4-.1-.6zm3.1 2.4c-.8.2-1.7 0-2.3-.6.6.9 1.3 1.6 2.1 2.3-.2-.2-.3-.5-.3-.7 0-.4.2-.8.5-1zm.1 1c0 .3.3.6.6.6s.6-.3.6-.6-.3-.6-.6-.6-.6.3-.6.6zm5.1 3.1C9 22.2 7.7 21 7.2 19.5v.1c0 .6-.5 1.2-1.2 1.2-.2 0-.4 0-.5-.1 1.5 1 3.2 1.8 5 2zm5.7-4.8c0-2.3-1.9-4.2-4.2-4.2s-4.2 1.9-4.2 4.2c0 2.3 1.9 4.2 4.2 4.2 2.3-.1 4.2-1.9 4.2-4.2zm2.3 2.7c-.4.2-.8.2-1.1-.1-.3-.2-.6-.6-.5-1v-.1c-.5 1.6-1.8 2.8-3.4 3.2 1.8-.1 3.5-.9 5-2zm.1-1c0-.3-.3-.6-.6-.6s-.6.3-.6.6.3.6.6.6c.3-.1.6-.3.6-.6zM21 18c-.6.6-1.5.8-2.3.6.3.2.5.6.5 1 0 .3-.1.5-.3.7.8-.6 1.5-1.4 2.1-2.3z" fill="#01e4b4"/></svg>