<svg xmlns="http://www.w3.org/2000/svg" viewBox="0 0 24 24"><path d="M12 24l-.1-.1C6.5 20.8 2.5 15.6.8 9.4c-.3-1-.5-2-.6-3-.1-1-.2-2-.2-3 0-.2 0-.1.1-.2 2-1.1 4.1-2 6.4-2.5C7.3.5 8.2.4 9 .3c1.2-.3 2.4-.3 3.6-.3.7 0 1.3.1 2 .1 3.3.4 6.4 1.3 9.3 3 0 0 .1 0 .1.1l.1.1v.2c0 .6 0 1.2-.1 1.8-.1.8-.2 1.7-.3 2.5-.3 1.8-.9 3.5-1.6 5.2-1.2 2.6-2.8 5-4.8 7.1-1.5 1.5-3.1 2.8-4.9 3.8-.3 0-.3 0-.4.1z"/><path d="M1.1 3.9c1.5-.8 3-1.5 4.6-2 2.2-.7 4.4-1 6.7-.9 1.1 0 2.8.2 3.1.3-.1 0-.2.1-.3.1C13.3 2.3 12 4 11.6 6c-.1.3-.1.7-.1 1 0 .5-.1 1-.2 1.5-.5 1.8-2 3.2-3.8 3.6-2.4.5-4.7-.6-5.8-2.8 0-.2 0-.3-.1-.5-.1-.7-.3-1.4-.4-2.2-.1-.8-.1-1.7-.1-2.5v-.2z" fill="#f7a800"/><path d="M18 17.7c0-.2 0-.4.1-.6.1-1.1-.2-2.2-.7-3.2-.5-1-1.2-1.7-2.2-2.3-.1-.1-.2-.1-.3-.2-1.3-.8-2.1-1.9-2.3-3.4-.5-2.7 1.2-5.2 3.8-5.9.9-.2 1.8-.2 2.7.1.7.2 1.5.5 2.2.9.5.2 1 .5 1.4.7.1 0 .1.1.2.1V4c0 .6 0 1.2-.1 1.8-.1.9-.2 1.8-.4 2.7-.6 2.6-1.6 5-3 7.2-.4.6-.8 1.2-1.3 1.8 0 .1 0 .1-.1.2z" fill="#67b2e8"/><path d="M12 22.8c-.2-.1-.7-.4-1.3-.8-1.2-.8-2.4-1.8-3.5-2.9s-2-2.3-2.8-3.5c-.8-1.2-1.4-2.4-1.9-3.7v-.1c.1 0 .1 0 .1.1.4.3.8.6 1.3.8.6.3 1.2.4 1.8.5 1.3.1 2.5-.1 3.7-.8.6-.3 1.2-.5 1.9-.6 2.4-.3 4.8 1.1 5.5 3.6.4 1.3.3 2.5-.3 3.7-.1.2-.1.3-.2.5 0 .1-.1.2-.2.3-1.2 1.1-2.5 2.2-4 3 0-.2 0-.1-.1-.1z" fill="#00c4b3"/></svg>