<svg xmlns="http://www.w3.org/2000/svg" viewBox="0 0 21.4 24.1"><path d="M11.6.3l8.8 5.1c.6.3.9.9.9 1.6v10.1c0 .7-.3 1.3-.9 1.6l-8.8 5.1c-.6.3-1.3.3-1.9 0L1 18.7c-.6-.3-.9-.9-.9-1.6V7c0-.7.3-1.3.9-1.6L9.8.3c.6-.3 1.2-.3 1.8 0z" fill="#1697d5"/><path d="M10.1 6.3c1.3 0 2.3.3 2.9 1 .6.7.9 1.7.9 3.2V14h-2.6v-3.4c0-.8-.2-1.3-.5-1.7-.2-.3-.8-.5-1.5-.5H5.7v9.4H3.1V6.3h7zM7.5 17.8v-7.7H10v5.6h3.6c.7 0 1.3-.2 1.6-.5.3-.3.5-.9.5-1.6V6.3h2.6v7.2c0 1.3-.4 2.4-1.3 3.1-.8.7-2 1.1-3.6 1.1H7.5z" fill="#fff"/></svg>