<svg version="1.1" id="Layer_1" xmlns="http://www.w3.org/2000/svg" x="0" y="0" viewBox="0 0 24.5 24" xml:space="preserve"><style>.st0{fill:#2b5eba}</style><circle class="st0" cx="19.3" cy="12" r="5.1"/><circle class="st0" cx="12.9" cy="2.5" r="2.5"/><circle class="st0" cx="12.9" cy="21.5" r="2.5"/><path class="st0" d="M11.7 15.7c.1 0 .3.1.5.1.9 0 1.5-.7 1.5-1.5 0-.9-.7-1.5-1.5-1.5-.5 0-1 .3-1.3.7 0 .1-.1.1-.1.2-1.7 3-5.1 1-5.1 1-.6-.3-1.2-.5-1.9-.5-2.1 0-3.7 1.7-3.7 3.7s1.7 3.7 3.7 3.7c1.4 0 2.7-.8 3.3-2 .1-.2.2-.4.3-.7 1.7-4.1 4.3-3.2 4.3-3.2zm-.8-5.5c.1.1.2.3.3.4.6.6 1.6.6 2.2 0 .6-.6.6-1.6 0-2.2-.5-.4-1-.5-1.5-.4-.1 0-.2 0-.2.1-3.4.9-4.4-2.9-4.4-2.9-.2-.6-.5-1.2-1-1.7C4.9 2 2.5 2 1.1 3.4s-1.5 3.8 0 5.3c1 1 2.5 1.3 3.8.9.2-.1.4-.2.7-.3 4.1-1.6 5.3.9 5.3.9z"/></svg>