<svg xmlns="http://www.w3.org/2000/svg" viewBox="0 0 24 14.174"><path d="M13.018 12.276L12 14.174l-1.018-1.897C4.829 11.799 0 7.211 0 7.211 0 7.2 4.692 2.755 10.719 2.169l.798-1.366L12 0l.82 1.366.461.803C19.306 2.744 24 7.211 24 7.211s-4.83 4.588-10.983 5.065h.001zm-12-5.065c-.011 0 4.64 3.178 9.312 3.85L8.053 6.799l.619-1.073.568 1.062-.011.011 2.215 4.36c.178.011.356.011.535.011.178 0 .346 0 .525-.011l1.627-3.243 1.187-2.212.619 1.073-2.277 4.273c4.672-.661 9.322-3.763 9.322-3.85 0-.076-4.429-3.036-8.986-3.795l.693 1.204-.579 1.16-1.502-2.516c-.202-.012-.405-.02-.608-.022-.2 0-.41.011-.62.022L9.847 5.769l-.566-1.106.723-1.247c-4.555.771-8.986 3.795-8.986 3.795z" fill="#b30d23"/></svg>