<svg width="156" height="153" fill="none" xmlns="http://www.w3.org/2000/svg"><path d="M20.854 44.801H8.38v58.334h12.474V44.801zM80.288 2.243c.734 1.468 0 2.935-1.468 3.67L18.652 39.664c-1.468.734-2.935 0-3.669-1.467-.734-1.468 0-2.935 1.468-3.67L76.619.777c1.1-.367 2.935 0 3.669 1.467z" fill="#3BEE81"/><path d="M75.152 2.243c-.734 1.468 0 2.935 1.468 3.67l60.168 33.752c1.467.734 2.935 0 3.669-1.467.734-1.468 0-2.935-1.468-3.67L78.821 1.144c-1.468-.734-2.935-.367-3.669 1.1z" fill="#3BEE81"/><path d="M77.721.776c1.468 0 2.935 1.1 2.935 2.935v40.357c0 1.467-1.1 2.935-2.935 2.935-1.467 0-2.935-1.1-2.935-2.935V3.344c0-1.468 1.1-2.568 2.935-2.568zm69.706 44.025h-12.474v58.334h12.474V44.801zM80.655 71.217l-5.87 11.006-69.34-36.688 5.87-11.006 69.34 36.688z" fill="#3BEE81"/><path d="M75.152 71.217l5.87 11.006 68.974-36.688-5.87-11.006-68.974 36.688zM14.25 55.808C6.546 55.808.309 49.57.309 41.866S6.546 27.925 14.25 27.925c7.704 0 13.942 6.237 13.942 13.941.366 7.705-6.238 13.942-13.942 13.942z" fill="#3BEE81"/><path d="M141.189 55.808c-7.704 0-13.941-6.237-13.941-13.942 0-7.704 6.237-13.941 13.941-13.941 7.705 0 13.942 6.237 13.942 13.941 0 7.705-6.237 13.942-13.942 13.942zM77.72 89.928c7.294 0 13.207-5.914 13.207-13.208 0-7.294-5.913-13.208-13.208-13.208-7.294 0-13.207 5.914-13.207 13.208 0 7.294 5.913 13.208 13.207 13.208zm-2.568 61.269c-.734-1.468 0-2.935 1.468-3.669l60.168-33.753c1.467-.734 2.935 0 3.669 1.467.734 1.468 0 2.935-1.468 3.669l-60.168 33.753c-1.468.367-2.935 0-3.669-1.467z" fill="#3BEE81"/><path d="M80.288 151.197c.734-1.468 0-2.935-1.468-3.669l-60.168-33.753c-1.468-.734-2.935 0-3.669 1.467-.734 1.468 0 2.935 1.468 3.669l60.168 33.753c1.1.367 2.935 0 3.669-1.467z" fill="#3BEE81"/><path d="M77.721 152.664c-1.467 0-2.935-1.1-2.935-2.935v-40.357c0-1.467 1.1-2.935 2.935-2.935 1.468 0 2.935 1.101 2.935 2.935v40.357c0 1.835-1.467 2.935-2.935 2.935zM14.25 125.515c-7.704 0-13.941-6.237-13.941-13.941 0-7.705 6.237-13.942 13.941-13.942 7.704 0 13.942 6.237 13.942 13.942.366 7.704-6.238 13.941-13.942 13.941zm126.939 0c-7.704 0-13.941-6.237-13.941-13.941 0-7.705 6.237-13.942 13.941-13.942 7.705 0 13.942 6.237 13.942 13.942 0 7.704-6.237 13.941-13.942 13.941z" fill="#3BEE81"/></svg>