<svg version="1.1" id="Layer_1" xmlns="http://www.w3.org/2000/svg" x="0" y="0" viewBox="0 0 24 24.871" xml:space="preserve"><style>.st2{fill:#2c398f}</style><g id="Layer_2"><g id="Layer_1-2"><path d="M23.853 10.093a7.81 7.81 0 00-.887-2.323c-.861-1.436-2.741-3.524-5.09-5.168 0 0-1.775-1.148-2.61-1.54-3.054-1.409-6.473-1.696-9.397.888C.962 6.309-1.491 12.39.962 18.446c.052.131 1.409 3.837 9.553 6.316 3.576.104 5.664-.104 7.961-1.436 3.002-1.723 4.75-4.855 5.377-8.039.183-.965.209-4.228 0-5.194" fill="#04ffcc"/><path d="M14.355 1.506v5.821l-6.734-.418-2.767 3.498-.339 6.603 2.297 2.453 3.445 1.723 4.515.496 4.907-1.253V8.292l-.94-5.037S16.103 1.193 14.38.697" fill="#7df8fb"/><path class="st2" d="M22.235 15.94c-.94-.052-.418-1.54-.835-3.237-.496-1.879.235-3.184 1.201-3.132.453.071.883.25 1.253.522a7.81 7.81 0 00-.887-2.323c-.861-1.436-2.741-3.524-5.09-5.168v15.739a1.59 1.59 0 01-3.028.678 6.194 6.194 0 11-.157-10.624V2.289a1.536 1.536 0 01.574-1.227C12.212-.347 8.793-.634 5.869 1.95.962 6.309-1.491 12.39.962 18.446c.052.131.104.261.157.365.071-.147.168-.28.287-.392 1.279-1.305 2.688 1.357 5.69 2.897 1.905.966 3.002 2.245 3.419 3.445 2.793.339 5.664-.104 7.961-1.436 3.002-1.723 4.75-4.855 5.377-8.039a2.648 2.648 0 01-1.618.654zM12.006 3.568c.705-.026 1.357.809 1.383 1.201.026.392-.6.235-1.279.47-.757.261-1.305.026-1.331-.365s.493-1.28 1.227-1.306z"/><path class="st2" d="M10.463 16.044c1.514.861 3.341.522 3.68-1.409.183-1.122.078-2.871-.914-3.419-3.288-1.88-6.054 2.949-2.766 4.828"/></g></g></svg>