<svg version="1.1" id="Layer_1" xmlns="http://www.w3.org/2000/svg" x="0" y="0" viewBox="0 0 24 24" xml:space="preserve"><style>.st0{fill:#ffd800}</style><circle id="b_1_" class="st0" cx="12" cy="12" r="12"/><path d="M12 4.8a7.2 7.2 0 010 14.4 7.2 7.2 0 010-14.4z" fill="#fff"/><path class="st0" d="M10.387 16.462a1.181 1.181 0 01-1.157-1.205 1.185 1.185 0 011.021-1.173c.265-.032.533.03.757.176a.416.416 0 00.224.066.456.456 0 00.453-.459l-.001-.023a1.186 1.186 0 011.036-1.27c.263-.03.528.033.75.177a.422.422 0 00.226.066.444.444 0 00.234-.067l.005-.003a.456.456 0 00.212-.411 1.187 1.187 0 011.164-1.278c.645.006 1.163.546 1.157 1.205a1.185 1.185 0 01-1.021 1.173 1.14 1.14 0 01-.758-.176.416.416 0 00-.224-.066.456.456 0 00-.451.482 1.181 1.181 0 01-1.035 1.269 1.143 1.143 0 01-.751-.176.416.416 0 00-.225-.066.442.442 0 00-.234.067l-.005.003a.455.455 0 00-.212.412 1.22 1.22 0 01-.002.191 1.179 1.179 0 01-1.163 1.086zm0-3.018a1.18 1.18 0 01-1.149-1.212 1.184 1.184 0 011.015-1.164c.265-.032.533.03.757.176a.406.406 0 00.224.065.454.454 0 00.451-.481 1.185 1.185 0 011.164-1.277 1.181 1.181 0 011.157 1.205 1.185 1.185 0 01-1.021 1.173 1.14 1.14 0 01-.758-.176.416.416 0 00-.224-.066.455.455 0 00-.452.459l.001.023c.004.064.004.127-.002.191a1.178 1.178 0 01-1.162 1.087l-.001-.003zm1.163-4.373a.164.164 0 11-.03.325h-.002l-.231.569a.143.143 0 01.031.2l-.012.015a.136.136 0 01-.192.003l-.003-.003-.007-.01a1.125 1.125 0 01-.716.254A1.18 1.18 0 019.22 9.231a1.184 1.184 0 01.235-.713l-.017-.012a.167.167 0 010-.233.16.16 0 01.251.031l.523-.231a.162.162 0 01.183-.2h.002a.164.164 0 01.129.192l.542.208a.16.16 0 01.276-.003.167.167 0 01-.052.227l.226.578a.465.465 0 01.032-.004zm-.457-.596a.163.163 0 01-.033-.049l-.217.052a.164.164 0 01-.03.103l.199.212a.163.163 0 01.088-.027l.047-.255a.139.139 0 01-.054-.036zm.308.827v-.001a.174.174 0 010-.127l-.185-.126a.16.16 0 01-.213.016l-.096.089a.164.164 0 010 .171l.097.09a.158.158 0 01.213.014c0-.002.184-.126.184-.126zm-.449-.307l-.001-.001a.17.17 0 01.019-.157l-.2-.212a.158.158 0 01-.17.004l-.094.109a.167.167 0 01.007.194l.166.169a.158.158 0 01.188.005l.096-.089a.113.113 0 01-.011-.022zm-.445-.871l-.001-.002a.154.154 0 01-.021.029l.129.186.006-.003a.161.161 0 01.21.085l.217-.052a.2.2 0 01.002-.035l-.542-.208zm-.137.079l-.001-.001a.156.156 0 01-.051-.011l-.124.19c.06.058.068.152.018.219l.085.096a.154.154 0 01.165 0l.094-.109a.166.166 0 01.01-.214l-.129-.185a.172.172 0 01-.067.015zm-.134-.072l-.525.232c.002.01.003.02.002.031l.222.046a.159.159 0 01.209-.089l.122-.187a.235.235 0 01-.03-.033zm-.569.378l-.001-.001a.138.138 0 01-.052.034l.044.223a.155.155 0 01.093.028l.199-.202a.166.166 0 01-.027-.094l-.22-.043a.17.17 0 01-.036.055zm1.564 1.435l.232-.565a.15.15 0 01-.027-.023l-.184.124v.002a.166.166 0 01-.087.214h-.004l.049.245.021.003zm.204-.821l-.001-.001a.156.156 0 01.028-.023l-.225-.577a.153.153 0 01-.03.003l-.047.254.004.002a.167.167 0 01.086.216l.185.126z"/></svg>