<svg xmlns="http://www.w3.org/2000/svg" viewBox="0 0 24 24"><circle cx="12" cy="12" r="12" fill="#ffd800"/><path d="M17.8 9.7h.2c1.3 0 2.3 1.1 2.3 2.4 0 1.2-.9 2.1-2 2.4H18c-.4 0-.8-.1-1.2-.3-.1-.1-.3-.1-.4-.1-.2 0-.3 0-.5.1-.3.2-.4.5-.4.8v.4c-.1 1.1-.9 2-2 2.1h-.3c-.4 0-.8-.1-1.2-.3-.2-.1-.3-.1-.5-.1s-.3 0-.5.1c-.3.2-.4.5-.4.8v.4c-.1 1.1-1 2-2.1 2.1h-.2C7 20.5 6 19.4 6 18.1c0-1.2.9-2.2 2-2.3h.3c.4 0 .8.1 1.2.3.2-.1.3 0 .5-.1.2 0 .3 0 .5-.1.3-.2.4-.5.4-.8-.1-1.2.8-2.4 2-2.5h.3c.4 0 .8.1 1.2.3.2.1.3.1.5.1s.3 0 .5-.1c.3-.2.4-.5.4-.8-.2-1.2.7-2.3 2-2.4zm-4.9-3h.3c1.3 0 2.3 1.1 2.3 2.4 0 1.2-.9 2.2-2 2.3h-.3c-.4 0-.8-.1-1.2-.3-.1-.1-.3-.1-.4-.1-.2 0-.3 0-.5.1-.3.2-.4.5-.4.8v.4c-.1 1.1-1 2-2.1 2.1h-.2c-1.3 0-2.3-1.1-2.3-2.4 0-1.2.8-2.1 2-2.3h.3c.4 0 .8.1 1.2.3.1.1.3.1.4.1.2 0 .3 0 .5-.1.3-.2.4-.5.4-.8-.1-1.2.8-2.4 2-2.5zM8.3 3.8c1.3 0 2.3 1 2.3 2.3s-1 2.3-2.3 2.3C7 8.4 6 7.3 6 6.1s1-2.3 2.3-2.3z" fill="#fff"/></svg>