<svg xmlns="http://www.w3.org/2000/svg" viewBox="0 0 24 24"><circle cx="12" cy="12" r="12" fill="#ed1968"/><path d="M9.525 20.175a7.252 7.252 0 01-2.625-1.35 8.676 8.676 0 01-1.95-2.1 8.415 8.415 0 01-1.2-2.775 8.312 8.312 0 010-3.6A9.824 9.824 0 014.875 7.5a7.748 7.748 0 013.15-2.85 8.1 8.1 0 011.425-.6c.75.9 1.5 1.875 2.25 2.85.075.15.225.225.3.375a5.788 5.788 0 00-2.175.525c-.605.316-1.14.75-1.575 1.275a6.313 6.313 0 00-.975 1.875c-.2.816-.174 1.672.075 2.475l3.225-2.55c.75.975 1.5 1.875 2.25 2.85-1.05.825-2.175 1.65-3.225 2.55 1.05 1.35 2.175 2.775 3.225 4.2a8.01 8.01 0 01-3.3-.3zm7.148-9.086a5.163 5.163 0 00-.097-.365c-.101.08-2.333 1.785-3.225 2.55-.75-.975-1.5-1.875-2.25-2.85 1.05-.825 2.175-1.65 3.225-2.55-1.05-1.35-2.1-2.7-3.225-4.125 0-.075-.075-.075-.075-.15h1.05a8.251 8.251 0 015.25 1.95 8.102 8.102 0 011.8 2.1c.56.859.919 1.833 1.05 2.85a9.27 9.27 0 01-.075 3.525 7.42 7.42 0 01-1.2 2.7 8.05 8.05 0 01-1.875 2.025 6.575 6.575 0 01-2.475 1.35 52.319 52.319 0 01-1.875-2.4 5.772 5.772 0 01-.6-.825 4.621 4.621 0 003.675-1.8 4.854 4.854 0 00.9-1.875c.138-.568.146-1.272.022-2.11zm-3.543 6.28a46.86 46.86 0 001.613 2.077 6.102 6.102 0 001.941-1.144 7.539 7.539 0 001.758-1.905 6.83 6.83 0 001.108-2.492 8.754 8.754 0 00.068-3.335 6.292 6.292 0 00-.976-2.634 7.54 7.54 0 00-1.68-1.958 7.685 7.685 0 00-4.82-1.817 813.63 813.63 0 012.627 3.367l.33.423-.408.349c-.533.454-1.078.894-1.634 1.321-.052.041-.69.531-1.168.901.197.251.426.538.775.975.345.431.574.719.771.97.348-.287.727-.589 1.182-.941.073-.057 1.272-.979 1.61-1.245l.642-.505.242.78c.28.899.309 1.857.086 2.771a5.397 5.397 0 01-1.002 2.089 5.18 5.18 0 01-3.092 1.919c0 .003.027.034.027.034z" fill="#fff"/></svg>