<svg xmlns="http://www.w3.org/2000/svg" viewBox="0 0 24 23.948"><path d="M1.357 12.008c0 .656.061 1.311.181 1.956l-1.334.249c.136.727.339 1.44.607 2.13l1.265-.492c.238.611.531 1.199.877 1.756l-1.153.716c.39.628.838 1.219 1.336 1.765l1.002-.915c.442.484.928.927 1.452 1.323l-.818 1.083c.59.446 1.22.836 1.882 1.166l.606-1.215c.587.292 1.2.529 1.831.708l-.37 1.307c.712.201 1.44.336 2.177.403l.123-1.352a10.982 10.982 0 001.965-.001l.124 1.352a11.93 11.93 0 002.177-.405l-.371-1.306a10.533 10.533 0 001.83-.71l.606 1.215a11.92 11.92 0 001.881-1.168l-.819-1.082a10.71 10.71 0 001.451-1.324l1.003.915c.498-.546.945-1.138 1.335-1.766l-1.153-.715c.346-.557.639-1.146.876-1.757l1.266.49c.267-.69.47-1.403.605-2.13l-1.332-.248c.12-.645.181-1.3.182-1.956v-.019L24 11.977a12.059 12.059 0 00-.207-2.203l-1.335.25a10.586 10.586 0 00-.54-1.887l1.265-.493c-.269-.689-.6-1.352-.991-1.98l-1.152.718a10.686 10.686 0 00-1.187-1.565l1.001-.916a11.981 11.981 0 00-1.638-1.489l-.817 1.084a10.631 10.631 0 00-1.671-1.033l.604-1.216A11.962 11.962 0 0015.265.45l-.369 1.306a10.632 10.632 0 00-1.93-.356l.122-1.352A13.048 13.048 0 0011.999 0c-.379 0-.753.017-1.122.052l.126 1.352c-.653.061-1.299.182-1.929.361L8.7.459c-.711.203-1.402.472-2.064.803l.607 1.214c-.586.294-1.144.641-1.666 1.037l-.82-1.082a12.05 12.05 0 00-1.634 1.494l1.004.914c-.442.485-.838 1.01-1.183 1.568L1.79 5.692c-.39.629-.72 1.293-.987 1.983l1.266.489a10.602 10.602 0 00-.534 1.888L.2 9.806c-.133.723-.2 1.457-.2 2.193v.011l1.357-.002zm11.855 8.406l-.072-.505a7.94 7.94 0 002.181-.64l.212.464a8.454 8.454 0 01-2.321.681zm7.288-8.416a8.512 8.512 0 01-.342 2.395l-.49-.144a7.974 7.974 0 00.321-2.251v-.013l.51-.001.001.014zm-1.356-4.606c.44.681.78 1.421 1.01 2.199l-.49.144a7.933 7.933 0 00-.949-2.066l.429-.277zm-.421 8.926l.429.276a8.513 8.513 0 01-1.585 1.828l-.334-.385a8.044 8.044 0 001.49-1.719zM15.52 4.259a8.467 8.467 0 012.036 1.307l-.334.386a7.977 7.977 0 00-1.914-1.228l.212-.465zm-1.286 5.643h1.189l1.547 2.281V9.902h1.212v4.128h-1.206l-1.542-2.268v2.268h-1.2V9.902zm-2.235-6.404c.401 0 .801.028 1.199.084l-.071.505a8.102 8.102 0 00-2.275.003l-.073-.505a8.588 8.588 0 011.22-.087zM9.542 9.902h1.272v2.515c0 .225.063.4.188.527.125.126.298.19.519.19.219 0 .394-.062.519-.187s.19-.301.19-.53V9.902h1.272v2.456c.001.235-.039.468-.117.69a1.489 1.489 0 01-.359.568 1.418 1.418 0 01-.511.341 2.564 2.564 0 01-.892.138 5.546 5.546 0 01-.657-.042 1.73 1.73 0 01-.595-.167 1.48 1.48 0 01-.437-.356 1.32 1.32 0 01-.273-.475 2.462 2.462 0 01-.12-.697l.001-2.456zm1.323 10.007l-.072.505a8.434 8.434 0 01-2.322-.68l.212-.464a7.92 7.92 0 002.182.639zM8.458 4.268l.213.464A7.99 7.99 0 006.76 5.965l-.335-.385a8.5 8.5 0 012.033-1.312zM5.823 9.902h3.144v.888h-1.86v.72h1.596v.828H7.106v1.692H5.823V9.902zm.947 8.139l-.334.386A8.592 8.592 0 014.85 16.6l.429-.277a8.02 8.02 0 001.491 1.718zM4.842 7.41l.429.276a7.997 7.997 0 00-.943 2.069l-.49-.144A8.444 8.444 0 014.842 7.41zm-.833 4.596c0 .762.109 1.52.323 2.251l-.49.143a8.512 8.512 0 01-.344-2.394h.511z" fill="#f1385b"/></svg>