<svg xmlns="http://www.w3.org/2000/svg" viewBox="0 0 24 18.5"><linearGradient id="a" gradientUnits="userSpaceOnUse" x1="-7592.64" y1="-860.734" x2="-7579.217" y2="-860.734" gradientTransform="matrix(1 0 0 -1 7603.2 -851.485)"><stop offset="0" stop-color="#62d0c9"/><stop offset="1" stop-color="#7de2ac"/></linearGradient><path d="M10.6 11.5h5.9c2.2 0 4-1.8 4-4s-1.8-4-4-4h-1.9l-4-3.5h5.9C20.6 0 24 3.3 24 7.5c0 3.1-1.8 5.8-4.7 7l4.7 4.1h-5.3l-8.1-7.1z" fill="url(#a)"/><path d="M13.5 7h-6c-2.2 0-4 1.8-4 4s1.8 4 4 4h1.9l4 3.5H7.5C3.4 18.5 0 15.2 0 11c0-3.1 1.8-5.9 4.7-7L0 0h5.4l8.1 7z" fill="#4971fa"/><linearGradient id="b" gradientUnits="userSpaceOnUse" x1="-7603.158" y1="-860.757" x2="-7589.735" y2="-860.757" gradientTransform="matrix(1 0 0 -1 7603.2 -851.485)"><stop offset="0" stop-color="#3268fb"/><stop offset="1" stop-color="#4795fa"/></linearGradient><path d="M13.5 7h-6c-2.2 0-4 1.8-4 4s1.8 4 4 4h1.9l4 3.5H7.5C3.4 18.5 0 15.2 0 11c0-3.1 1.8-5.9 4.7-7L0 0h5.4l8.1 7z" fill="url(#b)"/></svg>