<svg xmlns="http://www.w3.org/2000/svg" viewBox="0 0 21.4 24.1"><path d="M11.6.3l8.8 5.1c.6.3.9.9.9 1.6v10.1c0 .7-.3 1.3-.9 1.6l-8.8 5.1c-.6.3-1.3.3-1.9 0L1 18.7c-.6-.3-.9-.9-.9-1.6V7c0-.7.3-1.3.9-1.6L9.8.3c.6-.3 1.2-.3 1.8 0z" fill="#0900a2"/><path d="M11.7 18.8c2.6-.3 4.2-1.7 4.2-4.1 0-2-1-3.4-3.5-4l-2.1-.5c-.8-.2-1.2-.5-1.2-1.3 0-.9.6-1.4 1.6-1.4 1.1 0 1.8.6 1.8 1.5h3.1c0-2.1-1.5-3.6-3.8-3.9V3.7h-2v1.5c-2.5.3-4 1.8-4 4 0 1.8 1 3.2 3.4 3.9l2.2.6c.9.2 1.2.6 1.2 1.3 0 .9-.7 1.4-1.9 1.4-1.4 0-2.2-.6-2.2-1.9h-3c0 2.4 1.5 4 4.2 4.4v1.7h2v-1.8z" fill="#fff"/></svg>