<svg xmlns="http://www.w3.org/2000/svg" viewBox="0 0 24 16.562"><g transform="translate(4.123 6.184)"><path fill="#0b76ff" d="M7.878 7.613h4.959L7.879-.978v.001-5.207l9.717 16.562H7.878z"/><path fill="#24c1ff" d="M7.877 7.613l.001 2.765h-9.72L7.876-6.184v5.207-.001L2.917 7.613z"/><path fill="#39fff2" d="M7.878 1.154v5.45l-3.075.005z"/><path fill="#00e2c2" d="M7.878 1.154l3.074 5.455-3.074-.005z"/><linearGradient id="a" gradientUnits="userSpaceOnUse" x1="-276.649" y1="275.307" x2="-276.208" y2="275.307" gradientTransform="matrix(19.0431 0 0 -8.9701 5264.128 2471.83)"><stop offset="0" stop-color="#fff" stop-opacity="0"/><stop offset="1" stop-color="#fff"/></linearGradient><path fill="url(#a)" d="M-4.123-.531L7.878 4.428v.693L-4.123 2.146z"/><linearGradient id="b" gradientUnits="userSpaceOnUse" x1="-276.402" y1="281.962" x2="-276.811" y2="281.941" gradientTransform="matrix(19.042 0 0 -11.471 5282.85 3235.214)"><stop offset="0" stop-color="#fd76fd" stop-opacity="0"/><stop offset="1" stop-color="#ff51ff"/></linearGradient><path fill="url(#b)" d="M19.877-2.611L7.878 4.428v.19L19.877-.333z"/><linearGradient id="c" gradientUnits="userSpaceOnUse" x1="-276.402" y1="251.415" x2="-276.723" y2="251.415" gradientTransform="matrix(19.027 0 0 -5.035 5278.477 1269.407)"><stop offset="0" stop-color="#5300ff" stop-opacity="0"/><stop offset="1" stop-color="#9d6eff"/></linearGradient><path fill="url(#c)" d="M19.868 4.229l-11.99.892v-.197l11.99-2.976z"/><linearGradient id="d" gradientUnits="userSpaceOnUse" x1="-276.4" y1="272.42" x2="-276.733" y2="272.377" gradientTransform="matrix(19.042 0 0 -8.1898 5282.85 2233.085)"><stop offset="0" stop-color="#ae60d6" stop-opacity="0"/><stop offset="1" stop-color="#ab38e6"/></linearGradient><path fill="url(#d)" d="M19.877-.237L7.878 4.629v.295l11.999-3.075z"/></g></svg>