<svg version="1.1" id="Laag_1" xmlns="http://www.w3.org/2000/svg" x="0" y="0" viewBox="0 0 24 24" xml:space="preserve"><style>.st0{fill:#598282}.st2{fill:#326464}</style><g id="Laag_3"><g id="Layer_1-2"><g id="Layer_1-3"><g id="_898344032"><path class="st0" d="M3.3 20l.6.6c2.7 1.1 5.4 2.3 8.1 3.4v-4.9L7 17l-2.1-5L7 7 3.3 4 0 12l3.3 8z"/><path d="M12 0C9.3 1.1 6.6 2.2 3.9 3.4l-.6.6L7 7l5-2.1V0z" fill="#fbbb31"/><path class="st0" d="M12 7L8.4 8.5 7 12l1.4 3.6L12 17z"/><path class="st2" d="M12 24c2.7-1.1 5.4-2.2 8-3.4l.6-.6 3.3-8-3.3-8L17 7l2.1 5-2.1 5-5 2.1V24z"/><path d="M20.7 4l-.6-.6C17.4 2.2 14.7 1.1 12 0v4.9L17 7l3.7-3z" fill="#faaa00"/><path class="st2" d="M12 17l3.6-1.4L17 12l-1.4-3.5L12 7z"/></g></g></g></g></svg>