<svg xmlns="http://www.w3.org/2000/svg" viewBox="0 0 24 24"><linearGradient id="a" gradientUnits="userSpaceOnUse" x1="20.93" y1="453.181" x2="3.099" y2="470.768" gradientTransform="translate(0 -450)"><stop offset=".09" stop-color="#00edd3"/><stop offset=".41" stop-color="#1b456e"/></linearGradient><path d="M0 12c0 6.6 5.4 12 12 12s12-5.4 12-12v-.1c0-.9-.1-1.8-.3-2.7-.2-.7-.9-1.1-1.6-.9-.7.2-1.1.8-.9 1.5 1.2 5.1-1.9 10.2-6.9 11.4S4 19.3 2.8 14.2s1.9-10.1 7-11.4c1.5-.4 3-.4 4.4 0 .7.2 1.4-.3 1.5-1 .2-.7-.3-1.4-.9-1.5C8.3-1.2 1.9 2.8.3 9.2.1 10.1 0 11 0 12z" fill="url(#a)"/><linearGradient id="b" gradientUnits="userSpaceOnUse" x1="20.935" y1="452.944" x2="8.454" y2="465.588" gradientTransform="translate(0 -450)"><stop offset=".4" stop-color="#00edd3"/><stop offset=".89" stop-color="#1b456e"/></linearGradient><path d="M18.1 3.2c-.3.4-.5.8-.6 1.2v.3c-.2 1.9-1.9 3.3-3.8 3.1-.2 0-.3 0-.5-.1-.1 0-.2 0-.3-.1-.4-.1-.7-.1-1.1-.1-1.1 0-2.2.4-3 1.2l-.1.1c-1.8 1.7-1.9 4.5-.3 6.4s4.5 1.9 6.4.3l.2-.2c.2-.2.4-.4.5-.6.7-1.1 1-2.4.7-3.6 0-.1 0-.2-.1-.2-.3-2.1.9-3.9 2.7-4.4.2 0 .3-.1.5-.1h.3c.4 0 .9-.2 1.2-.6.1 0 .2-.1.2-.2.6-.9.4-2.1-.4-2.7-.8-.5-1.8-.4-2.5.3z" fill="url(#b)"/></svg>