<svg xmlns="http://www.w3.org/2000/svg" viewBox="0 0 21.3 24"><path d="M11.6.3l8.8 5.1c.6.3.9.9.9 1.6v10.1c0 .7-.3 1.3-.9 1.6l-8.8 5.1c-.6.3-1.3.3-1.9 0L.9 18.7c-.6-.4-.9-1-.9-1.6V6.9c0-.7.3-1.3.9-1.6L9.7.2c.6-.3 1.3-.3 1.9.1z" fill="#005c14"/><path d="M18.2 14.7c0-2-1.1-3.3-3.3-3.8l-2-.5c-1-.3-1.6-.6-1.6-1.5s.7-1.5 1.8-1.5c1.2 0 2 .7 2 1.7h2.7c0-2.1-1.5-3.5-3.7-3.8V3.7h-1.8v1.6C10 5.6 8.5 7 8.5 9.1c0 1.9 1.1 3.1 3.3 3.7l2.1.5c1 .3 1.4.7 1.4 1.5 0 1-.8 1.6-2.1 1.6-1.5 0-2.4-.7-2.4-2H8.2c0 2.3 1.5 4 4.1 4.2v1.7h1.8v-1.7c2.5-.3 4.1-1.7 4.1-3.9zM7.4 8.6L5.7 3.7h-1L3 8.6h1l.4-1.2H6l.4 1.2h1zM5.2 4.8l.6 1.9H4.6l.6-1.9z" fill="#fff"/></svg>