<svg xmlns="http://www.w3.org/2000/svg" viewBox="0 0 26.2 26.2"><circle cx="13.1" cy="13.1" r="12" fill="#002352" stroke="#06c" stroke-width="2.231" stroke-miterlimit="10"/><path d="M6.4 10h8.5s2.9 0 .9 3.7c0 0-1.5 3-5.1 2.9l2-5c.1-.2 0-.4-.2-.5H9.8l-3.3 8s1.1.1 1.7.1l-.3.8h1.5c.1 0 .2-.1.2-.1l.2-.9.7-.1-.5 1h1.5c.1 0 .2-.1.3-.2l.4-1.1s4.6-.8 6.7-4.5c0 0 2.8-4.3-.5-5.8-.6-.3-1.3-.5-2-.5l.4-.9c0-.1 0-.2-.1-.2h-1.5l-.4 1.1h-.6l.3-.9c0-.1 0-.2-.1-.2h-1.5l-.4 1.1H8c-.2-.1-.5 0-.6.2l-1 2z" fill="#fff"/></svg>