<svg version="1.1" id="Layer_1" xmlns="http://www.w3.org/2000/svg" x="0" y="0" viewBox="0 0 21.401 24" xml:space="preserve"><style>.st0{fill:#2683ff}</style><path class="st0" d="M2.123 16.321a.656.656 0 10.656.656.721.721 0 00-.085-.328.666.666 0 00-.571-.328m9.272-14.278a.656.656 0 10-1.313 0 .656.656 0 001.313 0m8.002 5.694a.656.656 0 10-.656-.656c0 .111.03.221.085.318a.651.651 0 00.571.338M2.429 6.478a.646.646 0 00-.889.243c-.18.318-.074.709.243.889s.709.074.889-.243a.646.646 0 00-.243-.889m17.232 9.97a.695.695 0 00-.328-.095.656.656 0 00-.018 1.312h.018a.682.682 0 00.572-.328.65.65 0 00-.244-.889m-9.579 5.472a.67.67 0 00.423.688.687.687 0 00.201.042.69.69 0 00.677-.561.653.653 0 00-1.291-.191.044.044 0 00-.01.022"/><path class="st0" d="M20.307 15.241a1.69 1.69 0 00-.243-.116V8.997c.095-.032.191-.085.286-.127.984-.55 1.344-1.799.794-2.784s-1.799-1.344-2.784-.794a1.63 1.63 0 00-.234.148l-5.398-3.122c.011-.095.021-.18.021-.275C12.749.91 11.829 0 10.707 0S8.643.931 8.643 2.053c0 .095.011.18.021.275L3.308 5.43A2.046 2.046 0 10.821 8.68c.074.053.148.106.233.159.086.052.179.094.275.126v6.118A2.04 2.04 0 00.196 17.74a2.04 2.04 0 002.657 1.133c.095-.032.18-.085.265-.127.085-.053.169-.106.254-.169l5.303 3.059c-.18 1.111.582 2.159 1.694 2.339s2.159-.582 2.339-1.694c.021-.116.021-.222.021-.339a2.44 2.44 0 00-.021-.296l5.271-3.038c.085.063.169.127.265.18.984.55 2.233.201 2.784-.783.528-.985.21-2.192-.721-2.764zm.37 2.562a1.569 1.569 0 01-2.138.561 1.556 1.556 0 01-.73-1.704l-2.477-1.45a2.76 2.76 0 01-2.995.624c-.37.116-1.164.191-1.164.191v4.361a1.639 1.639 0 011.08 2.053 1.639 1.639 0 01-2.053 1.08c-.011 0-.021-.011-.032-.011a1.639 1.639 0 01-.931-2.287c.201-.402.561-.699.984-.836V15.94a7.359 7.359 0 01-.91-.349 3.288 3.288 0 01-2.71-.667l-2.953 1.704a1.572 1.572 0 11-.455-.783l2.763-1.598a3.311 3.311 0 01.36-4.255l-3.145-1.8a1.548 1.548 0 01-2.202-.074 1.56 1.56 0 01.067-2.205l.008-.007a1.546 1.546 0 012.201.074c.36.381.498.91.381 1.418l3.482 2c.456-.245.964-.38 1.482-.392.487-.402 1.735-.815 1.735-.815V3.429c-.773-.232-1.207-1.047-.974-1.82S10.399.413 11.172.646a1.46 1.46 0 010 2.794v4.668s2.286.572 3.006 1.429l3.704-2.106a1.568 1.568 0 011.175-1.884c.847-.19 1.694.328 1.884 1.175s-.328 1.694-1.175 1.884a1.579 1.579 0 01-1.429-.392l-3.662 2.074c.106.222.201.444.265.677a2.76 2.76 0 01.931 3.493l2.424 1.408a1.548 1.548 0 011.842-.201 1.56 1.56 0 01.54 2.138z"/><path class="st0" d="M13.85 11.791l-.032-.243a1.39 1.39 0 00-.042-.169c0-.021-.011-.042-.011-.063-.021-.063-.042-.138-.063-.201v-.011a2.827 2.827 0 00-.794-1.133l-.01-.011a1.353 1.353 0 00-.201-.148l-.011-.011c-.063-.042-.138-.095-.201-.127l-.011-.011a1.996 1.996 0 00-.212-.106l-.021-.011a5.078 5.078 0 00-.233-.095l-.011-.011c-.085-.021-.159-.053-.243-.063h-.011a2.205 2.205 0 00-.254-.042h-.011a2.618 2.618 0 00-1.334.159l-.053.042a2.498 2.498 0 00-.231.107.478.478 0 01-.106.053c-.032.01-.085.052-.116.073a7.371 7.371 0 00-.148.106l-.032.021c-.063.042-.116.095-.18.148l-.053.053c-.063.063-.116.116-.169.18a2.314 2.314 0 00-.381-.032c-.042 0-.074 0-.106.011a2.12 2.12 0 00-1.756 1.122l-.012.022a1.422 1.422 0 00-.085.191c-.011.021-.011.032-.021.053-.022.055-.04.111-.053.169-.011.021-.011.053-.021.074l-.032.169c0 .021-.011.042-.011.074a1.976 1.976 0 00-.011.243c-.002.067.002.134.011.201 0 .021.011.042.011.074.011.043.011.085.021.128s.011.053.021.085c.012.03.019.063.021.095 0 .032.021.063.032.095.009.025.019.05.032.074.016.035.03.07.042.106.011.021.021.032.021.053.149.349.4.644.72.847.159.095.318.18.487.233.066.023.133.04.201.053l.021.011.191.032.042.011c.075.009.149.009.234.009.286 0 .561-.053.815-.169.063.042.116.085.18.127l.021.011c.053.032.116.063.18.095h.01a2.73 2.73 0 001.958.201h.011a1.26 1.26 0 00.275-.095l.286-.127c.272.212.607.328.953.328.074 0 .138-.011.212-.011l.053-.011c.068-.01.135-.024.201-.042.065-.02.129-.045.191-.074l.032-.011c.063-.032.116-.063.18-.095.265-.169.466-.423.582-.709.042-.095.063-.191.085-.286v-.032c.011-.042.011-.085.021-.127 0-.053.011-.106.011-.159-.002-.698-.436-1.302-1.082-1.503"/></svg>