<svg version="1.1" id="Layer_1" xmlns="http://www.w3.org/2000/svg" x="0" y="0" viewBox="0 0 24 18.7" xml:space="preserve"><style>.st0{fill:#2bbdf7}.st1{fill:#2891f9}.st2{fill:#2b6def}</style><g id="Group-6"><path id="Path" class="st0" d="M9.3 7.8l2.7 5.8 4-2.2V6.8z"/><path id="Path-2" class="st1" d="M21.2 3.4l-2.5-.9-2.7-.2v14.1l4 2.3 3.2-6.4-2-6.2z"/><path id="Path-3" class="st0" d="M20.9 2.3L20 4.5v14.2l4-2.3V2.3z"/><path id="Path-4" class="st2" d="M20 0l-4 2.3 4 2.2 4-2.2z"/><path id="Path-5" class="st1" d="M12 9.1L8 4.7 0 2.3v14.1l4 2.3 1.1-7.9 2.9.6 4 2.2V9.1z"/><path id="Path-6" class="st2" d="M4 0L0 2.3l12 6.8 1.8-1L16 6.8z"/><path id="Path-7" class="st0" d="M4 9.1v9.6l4-2.3v-5z"/></g></svg>