<svg xmlns="http://www.w3.org/2000/svg" viewBox="0 0 24 24"><path d="M11.293.038c-1.011.196-1.515 1.608-.874 2.445.355.463.686.598 1.652.671.364.028.779.075.922.104.143.03.401.071.572.092.171.021.506.103.744.182s.448.144.466.144c.155 0 1.313.576 1.871.93 1.177.747 1.524 1.18 1.524 1.899 0 1.439-1.611 2.02-2.953 1.064-1.747-1.245-3.898-1.519-5.695-.725a6.145 6.145 0 01-.354.148c-.034 0-.704.409-.847.517-1.04.787-1.907 2.062-2.096 3.083-.028.151-.078.396-.112.545-.073.322-.087 1.247-.023 1.55.222 1.064.368 1.489.698 2.041 2.292 3.833 7.919 3.711 10.021-.217.211-.394.174-.709-.102-.873-.109-.064-.25-.069-2.706-.086l-2.592-.018-.32-.151c-.542-.255-.795-.569-.89-1.099-.155-.872.274-1.558 1.138-1.82.347-.105 8.468-.103 8.746.002.264.1.486.314.556.54.174.553.079 2.282-.171 3.117a8.42 8.42 0 00-.144.515c0 .084-.388 1.006-.565 1.342-1.462 2.783-4.434 4.677-7.504 4.781-.837.028-.967.054-1.342.262-1.088.604-1.028 2.252.1 2.772.495.228.833.254 1.829.136 1.139-.134 1.474-.189 1.893-.308.233-.066.481-.132.551-.145.504-.096 1.998-.751 2.803-1.227 2.514-1.49 4.551-4.023 5.358-6.663.213-.696.26-.892.404-1.676l.149-.811v-1.14c0-1.121-.002-1.149-.113-1.712-.062-.315-.135-.71-.163-.879a4.232 4.232 0 00-.146-.577 7.175 7.175 0 01-.152-.487c-.198-.764-.918-2.195-1.582-3.141-1.65-2.353-4.507-4.299-7.109-4.842a49.756 49.756 0 01-.717-.159c-.595-.137-2.264-.215-2.725-.126z" fill="#23297c"/><path d="M6.276 1.596c-.932.319-1.236 1.526-.568 2.251.647.701 1.93.542 2.334-.29.573-1.177-.519-2.389-1.766-1.961zM2.672 5.481a1.248 1.248 0 00-.893.546c-.855 1.238.468 2.705 1.844 2.045 1.003-.481.997-1.975-.01-2.477-.121-.061-.604-.163-.702-.148l-.239.034zm-1.524 5.117c-1.574.201-1.51 2.481.077 2.747 1.528.257 2.262-1.943.88-2.634-.112-.056-.687-.172-.724-.146a5.302 5.302 0 01-.233.033zm1.262 5.166c-1.434.516-1.006 2.724.528 2.724 1.483 0 1.989-2.035.665-2.674-.214-.103-.957-.135-1.193-.05zm4.088 3.879c-1.058.097-1.535 1.584-.754 2.35.713.699 1.909.507 2.318-.372.504-1.084-.295-2.095-1.564-1.978z" fill="#008bcc"/></svg>