<svg version="1.1" id="Layer_1" xmlns="http://www.w3.org/2000/svg" x="0" y="0" viewBox="0 0 24 11.3" xml:space="preserve"><style>.st0{fill:#de3f6b}</style><path class="st0" d="M5.2 0h1c1.5.2 3 .9 4 2 2.2 2.3 3.4 5.5 6.2 7.3 2 1.2 4.8.2 5.8-1.9h1.5c-.7 2.1-2.7 3.7-4.9 3.9H18c-1.4-.1-2.7-.6-3.7-1.5-1.5-1.3-2.5-3-3.6-4.6-1-1.4-2-2.9-3.7-3.5-2-.8-4.5.4-5.3 2.5C1 5.8 1.6 7.9 3 9c1.1.8 2.7 1.1 4 .6 1.5-.5 2.6-1.7 3.4-3 .3.5.6.9 1 1.4-1.3 1.6-3.1 3-5.2 3.2h-1C2.5 11 .2 8.7 0 6v-.8C.2 2.5 2.5.2 5.2 0"/><path class="st0" d="M17.9 0h.8c2.7.2 5 2.5 5.3 5.2v1.4h-6.7V5.4h5.3c-.1-.7-.3-1.5-.7-2.1-1-1.6-3.2-2.2-5-1.5-1.4.5-2.4 1.7-3.3 2.9-.3-.4-.6-.9-.9-1.4C14 1.6 15.8.2 17.9 0"/></svg>