<svg version="1.1" id="Layer_1" xmlns="http://www.w3.org/2000/svg" x="0" y="0" viewBox="0 0 20.4 24" xml:space="preserve"><style>.st0{fill:#f0b90b}</style><path class="st0" d="M2.3 12v4.6l4 2.4v2.7L0 18v-7.4L2.3 12zm0-4.6v2.7L0 8.7V6l2.3-1.4L4.6 6 2.3 7.4zM7.9 6l2.3-1.4L12.5 6l-2.3 1.4L7.9 6z"/><path class="st0" d="M4 15.7V13l2.3 1.4V17L4 15.7zm3.9 4.2l2.3 1.4 2.3-1.4v2.7L10.2 24l-2.3-1.4v-2.7zM15.8 6l2.3-1.4L20.4 6v2.7l-2.3 1.4V7.4L15.8 6zm2.3 10.6V12l2.3-1.4V18l-6.3 3.7V19l4-2.4z"/><path class="st0" d="M16.4 15.7L14.2 17v-2.7l2.3-1.4v2.8z"/><path class="st0" d="M16.4 8.3V11l-4 2.3V18l-2.3 1.3L7.9 18v-4.7L4 11V8.3L6.3 7l3.9 2.3 4-2.3 2.2 1.3zM4 3.7L10.2 0l6.3 3.7L14.2 5l-4-2.3L6.3 5 4 3.7z"/></svg>