<svg version="1.1" id="Layer_1" xmlns="http://www.w3.org/2000/svg" x="0" y="0" viewBox="0 0 23.936 24" xml:space="preserve"><style>.st0{fill:#05bca9}</style><path class="st0" d="M12.139.024c.742.826 1.543 1.579 2.309 2.369.144.144.287.108.443.06.933-.239 1.878-.479 2.812-.742.275-.084.359-.024.431.251.227.933.491 1.842.73 2.776.06.251.167.395.443.455.969.239 1.914.526 2.871.766.251.06.287.156.215.383-.263.933-.502 1.866-.778 2.8a.546.546 0 00.167.646c.67.646 1.304 1.328 1.974 1.974.227.227.251.347 0 .586-.694.658-1.364 1.352-2.046 2.01a.479.479 0 00-.144.562c.263.945.502 1.902.766 2.835.084.287 0 .395-.275.455-.933.227-1.842.491-2.776.718-.263.06-.395.167-.455.443-.227.921-.514 1.842-.742 2.764-.072.275-.179.323-.443.251-.921-.263-1.842-.491-2.764-.766a.553.553 0 00-.646.179c-.67.694-1.364 1.352-2.022 2.046-.215.215-.335.203-.538-.012-.658-.682-1.328-1.34-1.986-2.022a.597.597 0 00-.682-.191c-.921.263-1.854.479-2.776.742-.239.072-.323.012-.383-.227-.239-.945-.502-1.866-.742-2.812-.06-.251-.167-.395-.443-.455-.933-.227-1.842-.502-2.776-.73-.347-.084-.395-.215-.299-.538.275-.921.502-1.842.766-2.764a.465.465 0 00-.156-.55C1.5 13.604.83 12.91.136 12.228c-.179-.179-.191-.287 0-.467.706-.682 1.388-1.388 2.094-2.07a.479.479 0 00.144-.562c-.263-.933-.479-1.878-.754-2.8-.093-.323-.009-.431.302-.503.945-.227 1.866-.491 2.812-.73a.442.442 0 00.37-.382c.239-.933.514-1.866.754-2.8.072-.275.179-.323.443-.251.933.263 1.866.502 2.8.766a.485.485 0 00.561-.144c.706-.718 1.424-1.424 2.142-2.13A.161.161 0 0011.888 0c.082.018.167.026.251.024zM7.186 4.69a9.35 9.35 0 01-.79.191.24.24 0 00-.216.287c.012.191 0 .383 0 .61.384-.37.719-.705 1.054-1.028a.119.119 0 01.048-.06.258.258 0 00-.096 0zM1.12 11.617c.455-.108.909-.215 1.364-.335.515-.132.526-.167.251-.682l-1.651.969m-.215 1.077c.502.586 1.053 1.113 1.603 1.663.227-.455.263-.67.108-.754-.562-.311-1.089-.694-1.699-.921M6.995 2.106c.407.335.897.562 1.34.837.514.311.55.299.909-.287-.749-.144-1.467-.455-2.249-.55m-.084 19.872c.778-.096 1.496-.371 2.369-.574-.311-.167-.383-.586-.694-.443-.575.299-1.161.598-1.675 1.017-.036.012-.072.024-.12.036m16.247-9.308c-.419.227-.849.455-1.268.682-.55.299-.538.299-.359.885a.24.24 0 00.036.048c.55-.526 1.089-1.053 1.639-1.579m-21.08 4.474c.263-.371.538-.742.802-1.125.491-.706.491-.706-.132-1.304-.012-.012-.048-.012-.084-.024l-.646 2.405m.012-10.851c-.036 0-.06-.012-.096-.012.012.036.012.06.024.096.251.957.49 1.902.742 2.859a.63.63 0 00.132.06c.479-.514.957-1.029 1.448-1.531.12-.132.012-.156-.06-.203-.743-.42-1.473-.85-2.19-1.269zM12.773 14.5c.132.06.191-.06.275-.156.467-.55.921-1.113 1.388-1.651a.368.368 0 00.072-.431c-.251-.658-.491-1.328-.73-1.986a.383.383 0 00-.335-.287c-.718-.12-1.448-.251-2.165-.383a.29.29 0 00-.323.12 63.734 63.734 0 01-1.436 1.711.31.31 0 00-.06.371c.251.682.502 1.376.754 2.058.048.12.096.215.251.239.766.132 1.52.264 2.309.395zm-5.192 1.663c.347-1.292.682-2.548 1.029-3.805.06-.203-.036-.227-.203-.227-.646 0-1.292.012-1.938-.012-.263-.012-.299.084-.299.311.012.634.012 1.268-.012 1.902-.024 1.005-.024 1.005.861 1.507.167.097.346.193.562.324zm2.828-1.172c-.395.67-.754 1.304-1.137 1.938-.096.156-.048.227.096.311.79.455 1.567.909 2.345 1.376a.38.38 0 00.419.024c.359-.203.706-.419 1.065-.61.144-.084.132-.132.024-.239-.938-.922-1.855-1.843-2.812-2.8zm.191-8.794c.969.945 1.89 1.842 2.812 2.752.167.167.227.096.311-.06.323-.562.634-1.125.981-1.675.108-.179.096-.263-.096-.371a89.567 89.567 0 01-2.309-1.364.378.378 0 00-.443-.012c-.388.239-.782.455-1.261.73h.005zm5.815 1.747a832.92 832.92 0 01-1.041 3.828c-.048.191.036.203.191.203.634 0 1.268-.024 1.902.012.299.012.359-.108.347-.359 0-.861 0-1.711.012-2.572a.395.395 0 00-.203-.395 20.55 20.55 0 00-1.213-.718l.005.001zm1.34 6.808c0-.287-.012-.479 0-.658.024-.227-.048-.263-.275-.203a167.23 167.23 0 01-3.493.921c-.179.048-.251.108-.132.299.335.55.658 1.113.957 1.687.12.215.215.203.407.096.598-.347 1.196-.718 1.819-1.029.55-.251.916-.55.713-1.113h.004zM6.241 9.344c0 .275.012.455 0 .622-.036.275.06.299.311.227 1.137-.311 2.273-.622 3.41-.909.239-.06.275-.12.144-.335a26.189 26.189 0 01-.922-1.615c-.108-.203-.191-.275-.419-.132-.598.359-1.184.718-1.818 1.029-.539.252-.91.551-.706 1.113zm6.903 5.18c.395.227.778.144 1.161.036.897-.251 1.795-.491 2.692-.73.742-.203.742-.191.754-.945 0-.144.024-.299.036-.443.024-.215-.036-.311-.275-.311-.562.012-1.125 0-1.675 0s-.55 0-.706.538c-.048.167-.012.443-.215.479s-.12-.287-.287-.395l-1.485 1.771zm-.443.156c-.754-.132-1.507-.263-2.273-.395 0 .467.251.73.514.993.682.67 1.352 1.352 2.034 2.034.514.514.514.514 1.172.156.132-.071.268-.135.407-.191.215-.084.239-.191.12-.395-.287-.479-.586-.957-.826-1.46-.191-.383-.407-.538-.826-.347-.156.072-.383.215-.514.06s.192-.252.192-.455zm-1.854-5.109c-.395-.191-.754-.144-1.125-.036-.921.263-1.842.502-2.764.742-.706.191-.706.191-.718.945 0 .156-.024.323-.036.479-.024.179.036.263.251.263.682-.012 1.364 0 2.046.012a.25.25 0 00.286-.205l.001-.01c.021-.122.053-.243.096-.359.06-.156.012-.419.191-.443.203-.024.132.287.299.407.48-.598.97-1.197 1.473-1.795zM9.28 11.809a1.444 1.444 0 00-.586.909c-.203.873-.455 1.723-.694 2.584-.084.299-.263.622-.203.885.06.287.479.323.73.502.096.06.179.132.275.191.156.12.251.096.347-.084.215-.395.443-.778.67-1.161.144-.251.371-.491.395-.742.024-.299-.359-.431-.526-.658-.048-.072-.156-.12-.108-.215s.156-.06.239-.048c.251.048.263-.036.191-.251-.264-.608-.491-1.254-.73-1.912zm4.654-1.663c.263.706.514 1.412.79 2.154.287-.227.467-.443.55-.778.227-.933.502-1.866.742-2.8.072-.275.239-.574.179-.826s-.455-.299-.67-.467a2.354 2.354 0 01-.215-.156c-.215-.167-.359-.191-.502.096-.239.479-.526.921-.802 1.388-.287.502-.287.491.108.897.12.12.359.227.299.383-.056.204-.312-.011-.479.109zm-.359-.335a1.376 1.376 0 00-.443-.909c-.682-.646-1.34-1.328-2.005-1.998-.215-.203-.383-.526-.658-.586-.239-.048-.467.239-.718.347-.108.047-.215.107-.335.155-.203.083-.215.179-.108.37.287.467.55.945.814 1.424.311.538.299.526.897.383.144-.036.335-.191.455-.048.132.167-.144.251-.179.395-.012.024 0 .048 0 .072.748.143 1.507.263 2.28.395zm6.197 6.652c.754.443 1.543.909 2.405 1.424-.287-1.065-.55-2.046-.802-3.015-.55.526-1.064 1.052-1.603 1.591zM4.961 18.796c-.203-.754-.383-1.424-.562-2.106-.036-.12-.084-.132-.179-.072-.766.431-1.519.861-2.357 1.34 1.064.275 2.033.538 3.098.838zM19.629 7.561c.826-.467 1.627-.921 2.5-1.412-1.077-.287-2.058-.562-3.099-.837.204.778.395 1.508.599 2.249zM11.924.443c-.036-.024-.06-.048-.096-.072-.67.694-1.34 1.388-2.017 2.082a1.05 1.05 0 00-.096.143c.682.191 1.34.371 1.986.55.156.048.227 0 .227-.179L11.924.443zm.143 23.21l.108.072c.646-.682 1.304-1.352 1.95-2.034.084-.084.227-.179-.024-.239-.61-.156-1.22-.335-1.83-.502-.132-.036-.215-.024-.215.144.011.86.011 1.709.011 2.559zm5.911-12.885v.933c0 .084-.072.203.06.251s.227-.024.299-.144c.407-.61.826-1.208 1.244-1.807.096-.144.096-.227-.072-.311a21.311 21.311 0 01-1.256-.718c-.203-.12-.251-.048-.251.156m-11.989 4.14c0-.299.012-.598 0-.897 0-.084.084-.215-.084-.239a.25.25 0 00-.275.144c-.407.61-.826 1.208-1.244 1.807-.108.156-.108.239.072.335.419.215.826.455 1.232.694.227.144.263.048.263-.167m.216-7.515c0 .239.012.467 0 .706-.012.203.012.311.251.167l2.261-1.292c.072-.048.203-.06.167-.203-.035-.144-.138-.144-.258-.156-.526-.036-1.064-.096-1.591-.132-.826-.06-.826-.06-.826.79l-.004.12zm11.605 9.212c0-.227-.012-.443 0-.67.024-.251-.048-.311-.275-.179-.742.431-1.484.849-2.237 1.268-.084.048-.215.06-.179.203s.132.156.251.167c.479.036.969.084 1.448.12.992.084.992.084.992-.909zm-6.03 2.225c-.861-.502-1.675-.993-2.5-1.472-.072-.036-.144-.12-.227-.036-.108.096-.072.191-.012.299.323.658.646 1.316.945 1.974.096.227.203.191.359.084.454-.274.921-.55 1.435-.849zm.455-13.639c.849.502 1.651.981 2.465 1.448.084.048.167.179.287.048.096-.108.036-.215-.012-.311-.311-.658-.634-1.316-.945-1.974-.06-.132-.12-.191-.275-.096-.479.287-.982.574-1.52.885zm2.991 14.561c-.55-.55-1.089-1.077-1.615-1.603a.166.166 0 00-.227-.024c-.407.239-.802.467-1.232.706.467.275.933.502 1.34.802.526.407 1.065.455 1.651.191a.598.598 0 01.083-.072zM11.852 5.228c-.538-.311-1.065-.562-1.507-.909-.527-.407-1.006-.251-1.58-.024.562.562 1.101 1.089 1.627 1.627.096.096.167.06.263 0 .383-.227.766-.442 1.197-.694zm6.149 10.086c.383-.215.742-.407 1.089-.61.275-.156.538-.311.814-.455a.406.406 0 00.227-.275c.06-.263.132-.514.215-.826-.383.096-.718.167-1.053.275-.443.144-1.077.072-1.28.443M3.68 10.959c.766-.203 1.496-.395 2.225-.586a.15.15 0 00.12-.167V8.77c-.514.287-.945.598-1.423.789-.634.252-.874.706-.922 1.4zm14.166-2.441c0-.646-.06-1.22.012-1.783.084-.658-.299-.993-.754-1.364-.203.766-.395 1.496-.598 2.213a.162.162 0 00.084.216c.399.216.789.455 1.256.718zM6.145 15.577c0 .706.048 1.34-.012 1.962s.407.826.754 1.208c.203-.766.383-1.46.574-2.154.036-.108.072-.203-.06-.287-.395-.226-.789-.454-1.256-.729zM4.53 11.952h.742a.735.735 0 00.742-.727v-.002c0-.144-.012-.299 0-.443.024-.215-.06-.239-.263-.191-.574.167-1.137.371-1.723.455-.455.072-.538.347-.622.694-.036.167.012.227.179.227.323-.013.634-.013.945-.013zm10.169 5.623c-.335-.072-.538.167-.802.287-.215.096-.227.167-.06.335.419.407.849.802 1.232 1.244.275.323.55.359.909.215.179-.072.191-.132.108-.287a35.737 35.737 0 01-.826-1.448c-.13-.25-.274-.418-.561-.346zm4.224-5.408c-.479-.156-.718.096-.885.443-.12.227-.024.467-.06.694s.072.263.275.203c.574-.167 1.149-.347 1.723-.455.407-.072.514-.299.586-.634.036-.179 0-.251-.191-.251-.503.012-.989 0-1.448 0zM7.059 18.796c-.036.191.132.251.215.371.203.275.347.299.526-.048.213-.436.457-.856.73-1.256.227-.311.156-.574-.024-.837-.179-.263-.479-.335-.73-.491-.072-.048-.108.012-.12.072-.207.729-.398 1.459-.597 2.189zm.737-14.25c.311.55.622 1.089.933 1.639a.69.69 0 00.897.311c.239-.123.47-.259.694-.407-.49-.478-.933-.921-1.387-1.363-.455-.443-.455-.455-1.137-.18zM5.523 12.12H3.621c-.096 0-.263-.048-.203.144.144.574.299 1.149.467 1.723.048.167.191.251.323.048.43-.611.848-1.233 1.315-1.915zm3.302 5.575c-.335.586-.658 1.125-.969 1.663-.048.084-.132.179.036.227.574.156 1.149.323 1.723.455.191.048.311-.036.191-.275-.311-.67-.634-1.34-.981-2.07zm6.341-11.282c.347-.586.658-1.125.969-1.663.048-.084.12-.191-.036-.227-.574-.156-1.149-.323-1.723-.455-.203-.048-.299.048-.191.275.311.658.622 1.34.981 2.07zm3.29 5.563h1.902c.108 0 .251.024.191-.167-.144-.562-.287-1.125-.455-1.687-.06-.191-.191-.275-.347-.06a48.086 48.086 0 01-1.291 1.914zm-2.058 7.573c.467-.502.897-.969 1.316-1.424.108-.12.203-.287-.06-.311-.754-.072-1.519-.12-2.357-.191.383.646.706 1.232 1.101 1.926zM7.617 4.618c-.479.491-.922.933-1.352 1.388-.096.096-.192.263.036.287.766.084 1.543.132 2.393.191-.383-.646-.706-1.22-1.077-1.866zM.57 12.12a.637.637 0 01-.012.06c.431.239.849.502 1.28.73.299.156.646.55.897.419.215-.108.203-.622.323-.945.084-.239 0-.275-.203-.275-.766.011-1.519.011-2.285.011zm5.671-9.907a.158.158 0 01-.072.024c0 .502-.012.993.012 1.496.012.335-.168.813.096.957.227.12.646-.132.981-.215.012 0 .024-.012.036-.012.156-.024.179-.096.096-.227a325.04 325.04 0 00-1.149-2.023zM17.75 21.882c.024-.012.036-.012.06-.024v-2.512c-.383.096-.742.203-1.101.287-.179.036-.191.108-.108.251.388.67.766 1.34 1.149 1.998zm5.623-9.906a.624.624 0 00.036-.084c-.67-.383-1.34-.754-2.01-1.149-.144-.084-.191-.036-.227.108-.072.299-.144.598-.239.897-.072.215.024.227.191.227l2.249.001zM6.013 8.483V6.7c0-.084.048-.191-.048-.227a.21.21 0 00-.263.071c-.311.323-.622.634-.945.945-.131.132-.095.204.036.276.383.227.778.466 1.22.718zm11.953 7.13v1.783c0 .084-.06.203.084.251a.282.282 0 00.263-.108c.299-.311.61-.622.921-.921.12-.12.108-.191-.036-.275-.395-.227-.773-.467-1.232-.73zM12.091 5.097c.574-.335 1.089-.646 1.615-.945.06-.036.108-.072.096-.144-.024-.12-.12-.144-.215-.167-.419-.108-.837-.215-1.256-.347-.179-.06-.251-.012-.239.179v1.424zM11.9 19.824v-.514c.012-.191-.012-.299-.239-.156-.443.275-.897.526-1.34.79-.06.036-.144.06-.132.156s.084.144.179.167c.239.06.479.132.718.191.814.216.814.216.814-.634zm8.506-2.775c-.814-.479-.802-.479-1.041.431-.06.239.024.287.215.299.73.048 1.472.108 2.261.167m-3.768-9.284c.538.311 1.041.598 1.543.873.072.036.132.132.227.072a.238.238 0 00.06-.275c-.108-.431-.239-.861-.347-1.292-.036-.144-.072-.191-.215-.108-.406.239-.813.467-1.268.73zM5.93 15.446c-.562-.311-1.053-.598-1.543-.873-.072-.036-.144-.12-.239-.06s-.084.179-.06.275c.108.431.239.861.347 1.292.036.144.072.179.215.096.406-.252.825-.479 1.28-.73zm-3.896 2.105a.275.275 0 00.048.06c.682-.383 1.376-.778 2.058-1.161.156-.096.036-.156-.024-.227a6.648 6.648 0 01-.491-.502c-.167-.203-.251-.132-.371.048-.411.598-.818 1.184-1.22 1.782zM21.978 6.544c-.108 0-.132-.012-.156 0-.419.239-.837.467-1.256.706-.885.502-.873.491-.12 1.184.12.108.167.108.251-.024.402-.598.821-1.208 1.275-1.866h.006zm-3.965-.203v1.878c0 .191.072.203.227.12.383-.215.766-.431 1.161-.658-.454-.443-.897-.861-1.388-1.34zM2.209 6.245c.491.287.945.55 1.388.814.849.502.837.502 1.053-.479.036-.167 0-.227-.167-.239-.731-.036-1.473-.168-2.274-.096zm3.673 2.381c-.455-.263-.85-.502-1.256-.742-.06-.036-.144-.06-.167.048a133.29 133.29 0 00-.479 1.759c.67-.359 1.256-.694 1.902-1.065zm.096 9.129c0-.622-.012-1.22 0-1.807 0-.251-.072-.275-.275-.156-.359.215-.73.419-1.113.634.455.431.897.861 1.393 1.328h-.005zm12.131-2.274c.443.263.814.491 1.196.706.072.048.179.144.227-.024.156-.562.311-1.125.479-1.759-.67.372-1.256.707-1.902 1.077zm-6.042 3.566v1.436c0 .144.048.179.179.144.55-.144 1.101-.299 1.723-.455-.657-.395-1.244-.742-1.902-1.125zM10.021 3.936c.658.383 1.256.742 1.902 1.113V3.625c0-.167-.072-.179-.203-.144-.55.144-1.088.288-1.699.455zm1.771 19.525c.024 0 .036-.012.06-.012v-.814c0-.275.012-.538.012-.814 0-.957 0-.945-.909-.682-.203.06-.227.12-.144.299.335.672.658 1.354.981 2.023zm-8.865-13.16c.275-.191.694-.239.814-.538.215-.526.323-1.101.491-1.699a.515.515 0 00-.097.048c-.335.335-.67.658-1.005.993-.478.49-.478.49-.203 1.196zM12.211.658c-.036 0-.06.012-.096.012v1.627c0 .981.048 1.005.981.634.156-.06.144-.131.084-.251-.323-.658-.646-1.34-.969-2.022zm7.573 15.254c.144.036.203-.06.275-.12.335-.323.67-.658 1.005-.993.191-.191.215-.706.036-.909a.152.152 0 00-.084-.048c-.167-.012-.79.467-.837.658-.132.455-.263.922-.395 1.412zM5.966 19.011c-.096-.347.144-.718-.108-1.017-.347-.419-.754-.778-1.137-1.161.048.479.191.909.263 1.364.072.538.359.802.885.837.001.001.013-.011.097-.023zM19.27 7.25a.245.245 0 00.06-.036c-.144-.55-.287-1.101-.431-1.639-.072-.275-.479-.538-.754-.478a.103.103 0 00-.084.048c-.072.096-.024.873.06.969.383.371.766.753 1.149 1.136zm-7.801-3.888v-.084c-.598-.167-1.208-.323-1.807-.478-.131-.036-.634.347-.646.478 0 .024.012.084.036.096.311.144.55.491.957.395.491-.144.982-.276 1.46-.407zm1.053 17.384a.202.202 0 01-.012.084c.586.156 1.184.323 1.771.479.156.036.658-.311.682-.467a.23.23 0 00-.024-.096c-.311-.144-.538-.479-.921-.395-.498.108-1.006.263-1.496.395zM2.376 5.934a.105.105 0 01-.012.06c.706.06 1.412.108 2.106.167.132.012.275.048.323-.144.06-.239.12-.467.191-.754-.897.228-1.753.456-2.608.671zm19.251 12.227c-.012-.012-.012-.036-.024-.048-.694-.06-1.376-.108-2.07-.156-.132-.012-.287-.06-.335.132-.06.239-.12.491-.191.778.909-.251 1.758-.478 2.62-.706zM11.505 23.33c-.227-.491-.467-.981-.694-1.472-.287-.61-.287-.598-.945-.419-.227.06-.239.12-.072.263.562.527 1.137 1.066 1.711 1.628zM22.033 6.987c-.036-.012-.072-.036-.108-.048-.263.371-.514.742-.778 1.113-.479.694-.479.694.156 1.268.012.012.048.012.084.024.228-.79.431-1.579.646-2.357zm-7.728-4.403c-.191-.335-1.46-1.579-1.759-1.699.203.443.395.837.586 1.244.359.754.371.754 1.161.479 0-.009.005-.018.012-.024zm3.684 15.984c.012.586-.096.562.538.407.215-.06.586-.73.491-.969-.096-.239-.371-.12-.562-.132-.371-.036-.467.132-.467.694zM6.002 5.539v-.143c.036-.299-.036-.455-.383-.311-.204.083-.443.048-.491.359-.036.215-.108.43-.155.646-.012.071.035.095.107.119.598.216.922-.024.922-.67zm15.313 4.092c-.132-.203-.359-.359-.526-.562-.132-.156-.239-.203-.347.024-.06.108-.132.203-.203.311a.36.36 0 00.071.527c.212.15.436.282.67.395.084.048.144.024.167-.06.061-.216.109-.408.168-.635zM9.555 21.332c.251-.06.514-.132.778-.203.06-.012.12-.072.072-.144-.167-.239-.144-.634-.538-.682-.108-.012-.861.347-.909.443a.08.08 0 00-.012.072c-.001.083.489.502.609.514zM14.46 2.764c-.275.072-.526.132-.778.203-.036.012-.096.048-.096.084-.06.215.431.814.634.742a5.22 5.22 0 00.802-.443c.024-.025.033-.062.024-.096-.191-.155-.323-.407-.586-.49zm3.529 18.735c.024 0 .06.012.084.012.215-.778.419-1.567.646-2.393a2.953 2.953 0 01-.395.096c-.287.024-.359.167-.347.443.024.61.012 1.232.012 1.842zM6.002 2.608c-.024-.012-.06-.012-.084-.024-.216.778-.431 1.568-.646 2.369.73-.096.73-.096.73-.754V2.608zM3.829 14.56c0-.275-.538-.778-.837-.766-.263.012-.167.323-.251.491-.012.024-.012.048-.024.072-.024.132.562.849.682.826.012 0 .024-.012.036-.012.155-.216.317-.407.394-.611zM18.114 2.596h-.072c0 .598.036 1.196-.012 1.795-.036.407.132.538.479.598.179.036.239.012.191-.167-.196-.742-.388-1.484-.591-2.225l.005-.001zM5.241 19.107c.215.802.419 1.579.634 2.357.024 0 .048-.012.072-.012v-1.627c0-.598 0-.598-.574-.73-.029-.012-.053 0-.136.012h.004zm11.844-16.93l-.036-.072c-.646.167-1.28.323-1.914.502-.096.024-.359-.012-.263.179.096.191.251.502.491.383.581-.299 1.149-.67 1.718-.993h.004zM.917 11.426c.455-.251.873-.479 1.28-.718.55-.311.55-.311.383-.921 0-.012-.036-.024-.072-.06-.526.55-1.041 1.1-1.591 1.699zm15.96 10.576a.435.435 0 01.048-.108l-1.292-.754c-.479-.287-.622-.239-.873.299.705.192 1.411.371 2.117.563zm6.149-10.528c.012-.012.012-.036.024-.048a198.133 198.133 0 00-1.591-1.579c0 .227-.323.502-.06.694.515.346 1.077.621 1.627.933zm.048.741a.088.088 0 01-.024-.048h-1.926c-.108 0-.299-.036-.227.167.048.144-.036.455.263.383.646-.155 1.28-.334 1.914-.502zM.977 11.868c0 .024.012.06.012.084h1.95c.144 0 .227-.06.167-.191-.06-.132.036-.455-.275-.383-.634.155-1.244.335-1.854.49zm5.132 9.584c.012 0 .024.012.036.012.132-.502.275-1.017.407-1.519s.144-.514-.383-.622c-.012 0-.036.024-.072.036.012.693.012 1.387.012 2.093zM17.882 2.704h-.055c-.156.598-.323 1.184-.479 1.783-.084.335.227.215.359.275.215.108.167-.096.167-.203.008-.623.008-1.233.008-1.855zM6.791 2.536c-.036.024-.072.06-.108.084.299.526.598 1.041.897 1.567.072.132.156.12.215.012.073-.131.408-.179.204-.418-.382-.431-.801-.838-1.208-1.245zM6.36 21.368c.144.012.156-.084.203-.156.263-.443.514-.873.766-1.316.048-.084.215-.239-.024-.275-.144-.012-.383-.299-.479.048-.166.562-.31 1.136-.466 1.699zM17.619 2.764a.266.266 0 00-.096-.024c-.299.514-.598 1.017-.897 1.531-.048.084-.12.215.048.215.167 0 .383.263.467-.012.19-.562.327-1.148.478-1.71zm-.431 18.771a.31.31 0 00-.048-.347l-.682-1.184c-.048-.084-.108-.299-.239-.096-.096.12-.419.179-.191.443.37.395.753.789 1.16 1.184zm-1.874-.801c.598.347 1.125.67 1.663.993.06-.179-.072-.239-.156-.323-.275-.287-.574-.55-.837-.849-.179-.191-.299-.215-.455 0-.04.059-.112.095-.215.179zm7.574-8.172c-.598.024-1.149.191-1.699.359-.215.072-.048.275-.036.407.012.084.048.179.167.108.522-.287 1.036-.586 1.563-.873h.005zM7.059 2.453c-.012.024-.024.06-.036.084.323.322.658.633.957.968.203.227.347.215.502-.012.036-.06.12-.084.108-.191-.507-.251-.973-.634-1.531-.849zM3.302 12.502c-.419 1.208-.538.957.371 1.4-.136-.491-.256-.945-.376-1.4h.005zm17.008-2.333c.144.526.263.981.407 1.531.407-1.112.407-1.112-.407-1.531zM9.471 20.195c-.514-.144-.993-.263-1.507-.407.694.922.717.934 1.507.407zm6.592-15.876c-1.005-1.065-.67-.945-1.531-.419.502.144.969.275 1.531.419zm1.747 14.153c-.287.287-.61.598-.909.885.861-.011.945-.095.909-.885zm-11.629-.143c-.156.682-.108.778.347.873.072.012.191.132.239-.036.036-.108.072-.203-.036-.299-.179-.167-.359-.347-.55-.538zM17.786 5.862c.167-.778.132-.885-.311-.969-.084-.012-.191-.084-.251.06a.255.255 0 00.048.299c.167.18.315.371.514.61zM9.507 3.876c-.658-.478-.67-.478-.957-.167-.06.06-.191.108-.108.239a.25.25 0 00.311.132c.228-.084.479-.132.754-.204zM20.37 13.938c.634-.215.706-.311.562-.718-.024-.084-.024-.203-.167-.191-.108.012-.203.048-.227.156-.06.239-.18.478-.168.753zM3.657 10.146c-.718.299-.742.323-.61.718.024.084.024.215.156.215a.248.248 0 00.268-.215c.054-.216.119-.443.186-.718zm.263 4.713c-.491.55-.467.622.311 1.172-.108-.406-.204-.789-.311-1.172zm10.564 5.36c.658.479.658.479.945.167.06-.072.191-.12.12-.239a.263.263 0 00-.323-.12c-.228.073-.467.12-.742.192zm-4.092.228c.215.658.359.694 1.137.299-.383-.096-.73-.192-1.137-.299zM4.685 7.19c.251-.227.526-.467.802-.718-.622-.191-.682-.131-.802.718zm14.632 9.596c-.299.311-.586.538-.814.861.671.12.599.251.814-.861z"/><path d="M16.303 7.621c-.359-.239-.802-.335-.957-.802a.468.468 0 01.012-.419c.311-.514.61-1.029.897-1.543.12-.203.191-.167.347-.036.263.227.359.455.239.802-.203.658-.359 1.328-.538 1.998zm1.292-5.503c-.012.275-.203.467-.323.682-.287.502-.586 1.005-.873 1.507-.323-.335-.61-.646-.921-.969.681-.395 1.375-.861 2.117-1.22zM6.372 21.954c.407-.718.814-1.448 1.22-2.177.371.299.646.634.969.969-.742.419-1.424.873-2.165 1.232l-.024-.024z" fill="#fff"/><path class="st0" d="M13.563 3.613c-.371-.012-.694-.167-1.053-.251.622-.443.921-.359 1.053.251zm6.281 4.546c.072.06.156.12.227.191.407.407.407.407.036.885-.132-.144-.12-.335-.179-.491a4.537 4.537 0 01-.12-.538.179.179 0 01.036-.047zM6.341 22.002c.012-.012.024-.036.036-.048l.024.024M1.886 6.401c-.012-.036-.012-.06-.024-.096.036 0 .06.012.096.012-.024.024-.043.06-.072.084z"/></svg>