<svg xmlns="http://www.w3.org/2000/svg" viewBox="0 0 24 24"><path d="M12 24C5.4 24 0 18.6 0 12S5.4 0 12 0s12 5.4 12 12c0 6.5-5.3 12-12 12zm-4.9-6.5c0-.1.1-.1.1-.2 1.1-1.9 2.2-3.8 3.2-5.7.9-1.7 1.9-3.3 2.8-5 0-.1.1-.1.2-.1h3.5c-1.5 2.7-3 5.3-4.6 8h8.3c.1 0 .1 0 .1-.1.4-1.5.5-3 .1-4.5-.4-1.8-1.3-3.3-2.6-4.6-.6-.6-1.3-1-2-1.4-1.8-.9-3.7-1.2-5.8-.9-2 .4-3.7 1.3-5.1 2.8-.1.3-.2.6-.4.8h7.8c0 .1-.1.1-.1.2-.5.8-1 1.7-1.4 2.5-.1.1-.1.1-.2.1H3.4c-1.3 3.9.5 8.8 4.9 10.8 4.3 1.9 8.8.2 10.9-2.8-4 .1-8 .1-12.1.1zm13.8 2c1.5-1.7 2.9-4.5 2.8-7.8-.1-2.7-1-5.2-2.8-7.3-.5.6-1.1 1.1-1.6 1.6 2.8 3.4 2.9 8.3 0 11.9l1.6 1.6z" fill="#3555f9"/></svg>