<svg xmlns="http://www.w3.org/2000/svg" viewBox="0 0 24 20.7"><path d="M10.2.1C11.1 0 12.1 0 13 0c1.1.1 2.2.4 3.2.8 2 .8 3.7 2.3 4.8 4.1.4.6.7 1.3 1 2 .3-.4.5-.9.7-1.3.1-.2.3-.4.6-.4s.6.2.7.6c0 .3-.1.5-.2.7-.3.7-.8 1.3-1.2 1.9-.1.1 0 .2 0 .3.5 3-.5 6.2-2.5 8.4-1.2 1.3-2.7 2.3-4.3 2.9-1.9.7-4 .8-6 .4-2.9-.6-5.4-2.5-6.9-5-.3-.5-.5-1.1-.8-1.6-.3.4-.5.9-.7 1.3-.1.2-.3.4-.6.4-.4 0-.8-.4-.6-.8.4-.8.8-1.6 1.4-2.3.1-.1.1-.3.1-.5-.4-1.3-.3-2.7 0-3.9.8-3.6 3.9-6.7 7.5-7.6.3-.1.7-.2 1-.3zM7.6 2.3C5.7 3.3 4.1 5 3.3 7.1c-.5 1.2-.7 2.5-.6 3.8.2-.2.4-.3.6-.5 1.1-1 2.4-1.7 3.7-2.3 2.5-1.1 5.2-1.6 7.9-1.7-1-1-1.9-1.9-2.9-2.8l.9-.9c.4.3.7.7 1 1C15 4.8 16.2 5.9 17.3 7c-1.2 1.2-2.4 2.3-3.6 3.5l-.3.3-.9-.9c.7-.8 1.5-1.4 2.2-2.2-1.2 0-2.5.2-3.7.4-1 .2-1.9.5-2.9.8-2 .7-3.8 1.9-5.2 3.5.1.1.1.2.1.3.2.7.5 1.4.8 2 1.1 2 3.1 3.6 5.3 4.3 1.3.4 2.7.6 4.1.4 1.9-.2 3.7-1.1 5.1-2.3 2-1.8 3.2-4.5 3-7.2-.2.2-.4.4-.6.5-1.4 1.2-2.9 2.1-4.6 2.7-2.2.8-4.6 1.2-6.9 1.3.2.3.5.5.7.7l2.1 2.1-.9.9c-.3-.2-.6-.5-.9-.8-1.1-1-2.1-2.1-3.2-3.1l-.4-.4c.5-.5 1-.9 1.5-1.4l2.4-2.4.9.9c-.7.8-1.5 1.5-2.2 2.2.8 0 1.6-.1 2.4-.2.6-.1 1.1-.2 1.7-.3 2.9-.7 5.8-2.1 7.7-4.4-.8-3.3-3.5-5.9-6.8-6.7-2.2-.5-4.6-.2-6.6.8z" fill="#3555f9"/></svg>