<svg xmlns="http://www.w3.org/2000/svg" viewBox="0 0 24 24"><path d="M12.1 22.1c-5.5 0-9.9-4.5-9.9-9.9 0-5.5 4.5-9.9 9.9-9.9 5.5 0 9.9 4.5 9.9 9.9.1 5.4-4.4 9.9-9.9 9.9z" fill="#fdce58"/><path d="M12 24C5.4 24 0 18.6 0 12S5.4 0 12 0s12 5.4 12 12-5.4 12-12 12zm0-21.3c-5.1 0-9.3 4.2-9.3 9.3s4.2 9.3 9.3 9.3 9.3-4.2 9.3-9.3-4.2-9.3-9.3-9.3z" fill="#edb127"/><path d="M11.7 15.3h5.2v2.6h-3.1v2.2h-2.7V18H8c0-.9-.1-1.7.1-2.5.1-.4.5-.8.9-1.2 1-1.2 2-2.4 3.1-3.6.4-.5.8-.9 1.3-1.4h-5V6.6h2.9V4.4h2.6v2.1H17c0 .9.1 1.7-.1 2.5-.1.4-.5.8-.9 1.2-1 1.2-2 2.4-3.1 3.6-.3.5-.7 1-1.2 1.5z"/></svg>