<svg version="1.1" id="Layer_1" xmlns="http://www.w3.org/2000/svg" x="0" y="0" viewBox="0 0 24 16.394" xml:space="preserve"><style>.st0{fill:#8400fd}.st1{fill:#fff}.st2{fill:#02ffdb}</style><path class="st0" d="M6.476 10.87L.762 12.584.571 1.727 6.285.394l.191 10.476z"/><path class="st1" d="M1.143 12.966c-.248 0-.476-.076-.686-.21A.99.99 0 010 11.937V2.07c0-.476.362-.876.857-.99L5.524.032a1.356 1.356 0 011.048.19c.305.21.476.533.476.876v9.581c0 .476-.362.914-.876 1.048l-4.705 1.2c-.115.02-.21.039-.324.039zM5.314 1.194c-.057 0-.133 0-.19.019l-3.619.914a.756.756 0 00-.572.724v8.571c0 .229.114.457.305.59.19.133.419.19.648.114l3.657-1.048a.816.816 0 00.59-.781V1.994a.804.804 0 00-.305-.629.92.92 0 00-.514-.171z"/><path class="st2" d="M10.476 14.489l-5.714 1.714-.191-10.856 5.714-1.333.191 10.475z"/><path class="st1" d="M5.276 16.375c-.229 0-.457-.076-.648-.21-.267-.19-.438-.476-.438-.8V5.823c0-.457.343-.857.819-.952l4.419-1.01c.343-.076.705 0 .99.19.286.21.438.514.438.838v9.276c0 .476-.343.895-.838 1.01l-4.457 1.162c-.094.019-.19.038-.285.038zM9.314 4.623c-.057 0-.133 0-.19.019l-3.619.914a.755.755 0 00-.572.724v8.571c0 .229.114.457.305.59.19.133.419.19.648.114l3.657-1.048a.816.816 0 00.59-.781V5.423a.804.804 0 00-.305-.629.92.92 0 00-.514-.171z"/><path class="st0" d="M14.857 11.061l-5.714 1.714-.191-10.857L14.666.585l.191 10.476z"/><path class="st1" d="M9.657 12.966c-.229 0-.457-.076-.648-.21-.267-.19-.438-.476-.438-.8V2.375c0-.457.343-.857.819-.952l4.4-1.01c.343-.076.705 0 .99.19.286.21.438.514.438.838v9.295c0 .476-.343.895-.838 1.01l-4.438 1.162a.741.741 0 01-.285.058zm4.038-11.772c-.057 0-.133 0-.19.019l-3.638.914a.756.756 0 00-.572.724v8.571c0 .229.114.457.305.59.19.133.438.19.667.114l3.638-1.048a.816.816 0 00.59-.781V1.994a.804.804 0 00-.8-.8z"/><path class="st2" d="M19.238 14.489l-5.714 1.714-.19-10.857 5.714-1.333.19 10.476z"/><path class="st1" d="M13.905 16.394c-.248 0-.476-.076-.686-.21a.99.99 0 01-.457-.819V5.499c0-.476.362-.876.857-.99l4.667-1.048a1.356 1.356 0 011.048.19c.305.21.476.533.476.857v9.581c0 .476-.362.914-.876 1.048l-4.705 1.2a.975.975 0 01-.324.057zm4.171-11.771c-.057 0-.133 0-.19.019l-3.619.914a.754.754 0 00-.571.724v8.571c0 .229.114.457.305.59.19.133.419.19.648.114l3.657-1.048a.816.816 0 00.59-.781V5.423a.804.804 0 00-.305-.629.925.925 0 00-.515-.171z"/><path class="st0" d="M23.619 10.87l-5.714 1.714-.19-10.857L23.429.394l.19 10.476z"/><path class="st1" d="M18.095 12.966c-.248 0-.476-.076-.686-.21a.99.99 0 01-.457-.819V2.07c0-.476.362-.876.857-.99L22.476.032c.362-.076.743-.019 1.048.19S24 .756 24 1.08v9.581c0 .476-.362.914-.876 1.048l-4.705 1.2a.966.966 0 01-.324.057zm4.172-11.772c-.057 0-.133 0-.19.019l-3.619.914a.754.754 0 00-.571.724v8.571c0 .229.114.457.305.59.19.133.419.19.648.114l3.657-1.048a.816.816 0 00.59-.781V1.994a.804.804 0 00-.305-.629.928.928 0 00-.515-.171z"/></svg>