<svg xmlns="http://www.w3.org/2000/svg" viewBox="0 0 24 14.182"><path d="M24 7.107v.009a.574.574 0 01-.069.249c-.153.278-3.808 6.817-11.93 6.817S.221 7.643.07 7.365A.575.575 0 010 7.116v-.049l.001-.025a.549.549 0 01.059-.206l.002-.004.007-.013C.221 6.539 3.878 0 12 0s11.779 6.54 11.93 6.818l.007.013.003.005a.567.567 0 01.058.205v.05l.002.016zm-1.211-.016c-.614-.953-2.923-4.138-7.107-5.419a6.627 6.627 0 012.659 3.96.648.648 0 01.499.622.647.647 0 01-.477.639.637.637 0 01-.725-.316.656.656 0 01.13-.79c-.539-2.425-2.533-4.298-4.99-4.624a.257.257 0 01-.055-.012 13.395 13.395 0 00-1.445 0 .257.257 0 01-.055.012 5.862 5.862 0 00-2.651 1.058.297.297 0 01-.456-.153.303.303 0 01.11-.336l.08-.057C4.128 2.96 1.824 6.137 1.211 7.091c.608.946 2.88 4.08 6.993 5.384a6.59 6.59 0 01-2.591-4.113.65.65 0 01-.415-.683.646.646 0 01.554-.573.642.642 0 01.681.411.657.657 0 01-.231.767c.469 2.411 2.343 4.284 4.726 4.724.714.059 1.432.059 2.147 0a5.86 5.86 0 002.449-1.082.295.295 0 01.297-.038.303.303 0 01.057.521l-.095.071c4.121-1.301 6.397-4.442 7.006-5.389zm-5.531.018c0 2.942-2.359 5.337-5.258 5.337s-5.258-2.395-5.258-5.337S9.1 1.774 12 1.774s5.258 2.392 5.258 5.335zm-.593 0c0-2.609-2.092-4.733-4.665-4.733S7.334 4.499 7.334 7.111 9.428 11.843 12 11.843s4.665-2.123 4.665-4.734zm-2.946-1.465c0 .572-.283 1.104-.753 1.418l.469 2.866a.343.343 0 01-.346.413h-2.095a.343.343 0 01-.347-.413l.467-2.866c-.668-.448-.929-1.315-.625-2.066s1.091-1.179 1.876-1.022a1.697 1.697 0 011.354 1.67zm4.742 2.229a6.586 6.586 0 01-1.647 3.674.295.295 0 01-.504-.109.307.307 0 01.065-.297 5.992 5.992 0 001.497-3.338.299.299 0 01.328-.264.3.3 0 01.261.334zM7.694 2.563a.303.303 0 01.011.425 5.985 5.985 0 00-1.552 3.24.3.3 0 01-.338.252.3.3 0 01-.25-.341 6.584 6.584 0 011.709-3.564.294.294 0 01.416-.015l.004.004v-.001z" fill="#3c5be0"/></svg>