<svg version="1.1" id="Layer_1" xmlns="http://www.w3.org/2000/svg" x="0" y="0" viewBox="0 0 24 24" xml:space="preserve"><style>.st0{fill:#004651}.st1{fill:#00bfec}</style><path class="st0" d="M17.5 2.9c0 .1-.1.1-.2.1-1.6-1-3.5-1.5-5.4-1.5-1.7 0-3.4.4-5 1.2-.1 0-.2 0-.2-.1l-.6-1c0-.1 0-.2.1-.2C8 .5 9.9 0 11.9 0c2.2 0 4.3.6 6.2 1.7.1 0 .1.2.1.2l-.7 1z"/><path class="st1" d="M22.2 9c-.4-1.3-1-2.6-1.9-3.6-.1-.1 0-.2 0-.2l.7-.7c.1-.1.2-.1.2 0 1 1.2 1.7 2.6 2.2 4.1 0 .1 0 .2-.1.2l-.9.2c-.1.1-.2.1-.2 0z"/><path class="st0" d="M19.6 21l-.8-.9c-.1-.1-.1-.2 0-.2 2.2-2 3.5-4.7 3.6-7.7 0-.1.1-.2.2-.2h1.2c.1 0 .2.1.2.2-.1 3.4-1.5 6.6-4.1 8.9-.1 0-.2 0-.3-.1m-7.7 3c-2.7 0-5.4-.9-7.5-2.6-.1-.1-.1-.2 0-.2l.8-.9c.1-.1.2-.1.2 0 1.9 1.5 4.2 2.3 6.6 2.3 1.7 0 3.2-.4 4.7-1.1.1 0 .2 0 .2.1l.5 1.1c0 .1 0 .2-.1.2-1.6.7-3.5 1.1-5.4 1.1z"/><path class="st1" d="M2.1 18.4c-.1.1-.2 0-.2-.1C.6 16.5 0 14.3 0 12c0-3.2 1.2-6.2 3.5-8.4.1-.1.2-.1.2 0l.6.7c.1.1.1.2 0 .2-2 2-3.1 4.7-3.1 7.5 0 2 .6 4 1.7 5.7.1.1 0 .2 0 .2l-.8.5z"/><path class="st0" d="M11.9 19.8C7.6 19.8 4 16.3 4 12s3.5-7.8 7.9-7.8 7.9 3.5 7.9 7.8-3.5 7.8-7.9 7.8zm0-14.1c-3.5 0-6.3 2.8-6.3 6.3s2.8 6.3 6.3 6.3 6.3-2.8 6.3-6.3-2.8-6.3-6.3-6.3z"/></svg>