<svg xmlns="http://www.w3.org/2000/svg" viewBox="0 0 24 24"><circle cx="12" cy="12" r="12" fill="#c1a05c"/><path d="M12.207 19.5c-1.739-.005-3.296-.538-4.687-1.56-.37-.271-.381-.427-.066-.766l.029-.03c.385-.417.382-.415.839-.086a6.425 6.425 0 003.617 1.235c1.385.048 2.656-.283 3.806-1.024 1.379-.889 2.32-2.128 2.714-3.71.494-1.986.127-3.825-1.175-5.441-.912-1.133-2.097-1.862-3.529-2.208-1.278-.311-2.533-.235-3.767.19a6.195 6.195 0 00-1.802.982c-.269.21-.371.206-.6-.051a4.439 4.439 0 01-.309-.376c-.141-.199-.122-.318.069-.47a7.735 7.735 0 013.086-1.481 7.576 7.576 0 013.109-.082c1.401.253 2.648.829 3.718 1.762.792.692 1.432 1.5 1.878 2.445.614 1.302.863 2.665.679 4.104a7.346 7.346 0 01-1.492 3.6c-.83 1.081-1.893 1.87-3.164 2.389a7.593 7.593 0 01-2.953.578zm-.477-4.787c-.05.076-.076.134-.118.177a1.32 1.32 0 01-.937.438c-.259.008-.518-.014-.777-.008a.581.581 0 00-.286.072c-1.196.75-2.483.86-3.839.571-.446-.094-.846-.266-1.187-.559-.256-.22-.437-.479-.459-.844-.037-.635.433-1.069.917-1.21.895-.262 1.746-.103 2.56.292.372.18.72.409 1.076.623.204.121.265.116.367-.092.461-.942.164-1.981-.963-2.365-.988-.337-1.955-.304-2.907.135-.139.064-.293.188-.457.056-.17-.138-.056-.302-.013-.448.313-1.053.63-2.104.952-3.154.07-.23.254-.349.523-.335.395.022.788.081 1.184.09.592.015 1.187.02 1.779-.009.44-.022.827-.216 1.166-.496.041-.034.125-.073.152-.055.04.026.064.1.067.155.028.454-.167.805-.529 1.077a2.438 2.438 0 01-1.449.486c-.553.013-1.105.02-1.657.022-.125.002-.19.047-.22.164-.05.195-.102.391-.158.585-.043.145.012.203.158.197.348-.013.696-.036 1.043-.034a3.179 3.179 0 012.162.83c.58.516.814 1.182.85 1.926.028.596-.086 1.167-.414 1.681-.089.14-.049.201.102.241.401.106.77.034 1.123-.164.03-.016.058-.035.089-.05.011-.005.026 0 .1.005zm-3.426.169l-.012-.073c-.05-.031-.097-.069-.152-.093-.397-.176-.79-.371-1.198-.52-.416-.152-.849-.261-1.302-.155-.204.047-.408.099-.467.334-.066.259.092.42.277.561a.827.827 0 00.198.103c.7.27 1.411.278 2.126.066.182-.054.354-.148.53-.223z" fill="#fff"/></svg>