<svg xmlns="http://www.w3.org/2000/svg" viewBox="0 0 24 23.894"><path d="M11.363.016c-.372.011-.575.026-.624.047-.044.019-.224.037-.456.046-.334.013-.404.023-.54.076-.086.033-.383.126-.66.207C4.461 1.731 1.239 5.126.252 9.701l-.084.388c-.025.116-.061.365-.08.553s-.045.371-.06.407c-.041.103-.035 1.737.007 1.873.018.058.04.212.049.341.009.129.037.336.062.458.025.123.056.292.069.376s.053.259.088.388c.454 1.672.811 2.525 1.605 3.832.149.246.334.552.41.681.236.4 1.831 1.971 2.526 2.49 1.224.912 2.849 1.683 4.393 2.084a.679.679 0 01.156.06.847.847 0 00.23.058c.099.014.223.04.276.058a.648.648 0 00.144.031c.026 0 .161.011.3.025.139.014.33.025.425.026.095 0 .26.018.367.039.172.034.198.034.234.003.034-.029.161-.037.705-.047.618-.011.671-.015.771-.062.107-.051.249-.082.545-.119.683-.086 1.976-.58 2.771-1.058.535-.321 1.227-.933 1.692-1.495.39-.472.415-.487 1.163-.721 1.65-.517 3.076-1.518 4.012-2.818.27-.375.676-1.08.751-1.305a1.47 1.47 0 01.073-.173.732.732 0 00.058-.205c.009-.067.031-.135.05-.15.051-.041.05-1.742-.001-1.784-.019-.015-.042-.085-.051-.155a.465.465 0 00-.074-.203c-.032-.042-.057-.091-.057-.109s-.031-.077-.068-.131l-.186-.273c-.722-1.076-2.195-1.502-3.56-1.03-1.559.539-2.201 1.718-2.533 4.65-.178 1.572-.356 2.123-.723 2.229-.339.098-1.285.144-1.64.079a6.052 6.052 0 00-.54-.051c-1.119-.066-2.74-.51-3.851-1.056-2.177-1.069-3.733-2.984-3.993-4.915-.02-.149-.053-.376-.073-.505-.151-.993.27-2.614.928-3.567.395-.571 1.598-1.596 2.217-1.889 2.521-1.192 5.296-.529 7.046 1.682 1.158 1.464 2.726 1.783 4.471.911 1.21-.605 1.844-2.333 1.367-3.729-.561-1.643-3.333-4.051-5.721-4.97-.576-.222-1.826-.586-2.159-.629a1.236 1.236 0 01-.288-.069.836.836 0 00-.24-.06 1.497 1.497 0 01-.288-.064c-.203-.073-1.329-.101-2.58-.065zm1.572 1.879c.086.011.296.038.468.058.509.061.655.084 1.005.159 2.415.511 4.747 2.004 6.063 3.881.643.917.353 1.875-.658 2.178-.576.173-1.017-.054-1.642-.842-1.118-1.409-2.931-2.447-4.662-2.668a5.791 5.791 0 01-.456-.078c-.697-.166-2.499.044-3.453.401-2.984 1.118-4.856 3.688-4.959 6.809-.05 1.508.457 3.246 1.221 4.186.089.109.259.35.377.534 1.021 1.585 2.445 2.665 4.639 3.518.771.3 2.236.663 2.941.729.858.08 1.119.252.764.501-.295.207-1.159.514-1.6.57-.112.014-.328.049-.48.077-1.731.322-4.489-.483-6.367-1.857-5.061-3.7-5.574-10.96-1.08-15.265C6.774 3.14 8.817 2.218 11.447 1.9c.235-.028 1.287-.032 1.488-.005zm8.367 11.79c1.064.329 1.073 1.523.022 2.892-.519.676-1.416 1.399-1.736 1.399-.227 0-.257-.147-.15-.752.042-.239.091-.551.11-.694.018-.142.049-.338.069-.435.019-.097.052-.306.072-.465.208-1.616.712-2.224 1.613-1.945z" fill="#99f4ff"/></svg>