<svg xmlns="http://www.w3.org/2000/svg" viewBox="0 0 21.4 24.1"><path d="M11.6.3l8.8 5.1c.6.3.9.9.9 1.6v10.1c0 .7-.3 1.3-.9 1.6l-8.8 5.1c-.6.3-1.3.3-1.9 0L1 18.7c-.6-.3-.9-.9-.9-1.6V7c0-.7.3-1.3.9-1.6L9.8.3c.6-.3 1.2-.3 1.8 0z" fill="#c9132a" stroke="#e31e24" stroke-width=".128" stroke-linecap="round" stroke-linejoin="round" stroke-miterlimit="22.926"/><path d="M9.8 17.9c1.1-1 1.3-2.5.5-4.7H14v-2H9.6c-.5-1.1-.7-2-.7-2.6 0-1.6 1.2-2.5 3.1-2.5 1.2 0 2.4.2 3.7.7V4.4l-.6-.2c-.4-.1-.6-.2-.7-.2l-.6-.1c-.6-.1-1.1-.2-1.8-.2-3.7 0-6 1.7-6 4.8 0 .8.2 1.7.6 2.7H5.1v2h2.4c.4 1 .6 1.8.6 2.4 0 1.5-1.2 2.2-3.2 2.2v2.5h11.5v-2.5H9.8z" fill="#fff"/></svg>