<svg xmlns="http://www.w3.org/2000/svg" viewBox="0 0 24 24"><path d="M18.5 16.2c.9 1.2 1.8 2.4 2.7 3.5-1.8 2.1-4 3.5-6.7 4-3 .6-5.8.2-8.5-1.4l7.2-5.4c.5.5 1.1 1 1.6 1.5.6.5.4.6 1.1.2 1-.6 1.8-1.4 2.5-2.3l.1-.1c-.1 0-.1 0 0 0zM7.9 18.5c-.7.5-1.3 1-1.9 1.5-.5.4-.9.7-1.4 1-.2.2-.3.2-.5 0C2 19.2.7 16.9.3 14.2c-.5-2.7-.1-5.3 1.2-7.8 0-.1.1-.1.1-.2l.1-.1c1.8 2.4 3.6 4.7 5.4 7.1-.1.1-.1.1-.1.2-.5.6-1.1 1.1-1.7 1.7-.2.2-.2.3-.1.5.6 1.1 1.4 2 2.3 2.7.1 0 .2.1.4.2zM18 1.7c-.9.6-1.7 1.2-2.6 1.8-1.5 1.1-3 2.1-4.4 3.2-.2.1-.3.2-.5 0L9 5.2c-.2-.1-.3-.1-.5 0-1.2.6-2.1 1.4-2.8 2.5-.1 0-.1.1-.2.2-.4-.6-.8-1.1-1.2-1.7-.5-.5-.9-1.1-1.3-1.6-.1-.2-.2-.4 0-.5C5.1 1.8 7.7.4 10.7.1c2.4-.3 4.8.2 6.9 1.4.1.1.2.1.2.1l.2.1zM22.4 18c-.6-.7-1.1-1.4-1.6-2.1-1.2-1.6-2.4-3.2-3.6-4.7-.2-.2-.2-.4 0-.5l1.5-1.5c.1-.1.2-.3.1-.5-.6-1.1-1.4-2.1-2.5-2.8-.1-.1-.2-.1-.3-.2.1-.1.2-.1.2-.2 1-.8 2.1-1.5 3.1-2.3.2-.1.3-.2.5 0 2.6 2.3 4 5.2 4.1 8.7.1 2-.4 4-1.3 5.8 0-.1-.1.1-.2.3z" fill="#004264"/></svg>