<svg xmlns="http://www.w3.org/2000/svg" width="24" height="24"><path d="M13.195 10.688v1.875q-.047 0-.387.023t-.949.023q-.539 0-.914-.023t-.492-.023v-1.875q-2.063.094-3.445.422t-1.383.75 1.371.75 3.434.398q.141 0 .492.023t.891.023q.68 0 1.008-.023t.375-.023q2.063-.07 3.434-.398t1.371-.75-1.371-.75-3.434-.422zM12 .75q-2.344 0-4.383.891-2.063.867-3.586 2.391T1.64 7.618Q.749 9.657.749 12.001t.891 4.383q.867 2.039 2.391 3.574t3.586 2.402q2.039.891 4.383.891t4.383-.891q2.039-.867 3.574-2.391t2.402-3.586q.891-2.039.891-4.383t-.891-4.383q-.867-2.039-2.391-3.574t-3.586-2.402Q14.343.75 11.999.75zm1.195 12.75v5.367h-2.766V13.5q-2.344-.117-3.891-.527T4.991 12t1.547-.973 3.891-.527V8.812h-3.82V6.257h10.406v2.555h-3.82V10.5q2.344.117 3.891.527t1.547.973-1.547.973-3.891.527z"/></svg>