<svg version="1.1" id="Layer_1" xmlns="http://www.w3.org/2000/svg" x="0" y="0" viewBox="0 0 23.642 24" xml:space="preserve"><style>.st0{fill:#fe5943}</style><path class="st0" d="M11.821 3.068c-4.873 0-8.753 3.97-8.753 8.932s3.97 8.932 8.753 8.932c4.873 0 8.753-3.97 8.753-8.932s-3.88-8.932-8.753-8.932zm0 20.932C5.324 24 0 18.586 0 12S5.324 0 11.821 0s11.821 5.414 11.821 12-5.324 12-11.821 12z"/><path class="st0" d="M9.204 12l2.617 2.617L14.438 12l-2.617-2.617L9.204 12zm2.617 6.406c-.361 0-.812-.18-1.083-.451l-4.782-4.872c-.632-.632-.632-1.534 0-2.165l4.782-4.872c.632-.632 1.534-.632 2.166 0l4.783 4.872c.632.632.632 1.534 0 2.165l-4.783 4.872a1.664 1.664 0 01-1.083.451z"/></svg>