<svg xmlns="http://www.w3.org/2000/svg" viewBox="0 0 24 24"><circle cx="12" cy="12" r="12" fill="#399b32"/><path d="M16.417 5.601c-.081.326-.067.743.023.78.09.038.316-.177.449-.421.128-.225.241-.292.398-.234.208.081.175.153-.251.521-.354.307-.425.417-.33.512.056.058.098.048.302-.062.255-.134.398-.125.398.029 0 .071-.094.129-.44.263-.246.096-.487.22-.544.283-.113.125-.312.517-.548 1.097-.203.502-.398.871-.525 1.015-.104.115-.454.188-1.191.245-.345.028-.388.024-.406-.058a7.364 7.364 0 01-.128-.675c0-.014.175-.01.392.005.388.028.775.134.955.258.137.096.151.082.213-.187.075-.306.236-.708.482-1.206.184-.369.19-.397.17-.747-.023-.388-.09-.555-.321-.809-.085-.09-.137-.191-.123-.229a.48.48 0 00.028-.091c0-.01.042-.02.09-.02.056 0 .155.086.245.215.25.355.326.287.326-.302 0-.268.019-.382.08-.45.094-.105.17-.109.25-.014.049.057.049.119.006.282zm-3.758 2.006c.033.355.099.479.312.555.085.034.202.082.26.101.137.057.175.262.322 1.604.156 1.455.189 1.661.336 2.111.222.684.203 1.479-.057 2.278-.133.412-.279.599-.581.761-.605.32-1.23.086-1.716-.642a2.362 2.362 0 01-.369-1.805c.071-.335.109-.842.075-.967-.013-.061-.165-.253-.335-.435-.53-.55-1.088-1.537-.978-1.714.032-.048.055-.196.055-.325 0-.263-.075-.369-.406-.555-.218-.124-.232-.249-.052-.594.099-.201.156-.244.653-.498.505-.258.733-.33 1.484-.464.312-.058.538-.052.709.02.198.085.255.195.288.569zM8.187 9.392c0 .244.08.484.137.422.024-.024.075-.158.123-.297.075-.24.213-.382.307-.321.08.052.052.33-.052.503-.142.235-.142.68.005.977.146.287.448.603.581.603.08-.005.175-.12.435-.565l.33-.56.052.335c.052.378.028.493-.184.862-.236.416-.501.742-.6.742-.113 0-.369-.253-.587-.579-.085-.135-.321-.393-.52-.58l-.364-.34-.22.038c-.136.025-.274.04-.412.043-.17.005-.189-.005-.203-.125-.015-.104.009-.138.108-.162a1.02 1.02 0 01.326-.005c.132.02.232.01.284-.028.08-.058.076-.068-.004-.163-.047-.058-.189-.134-.322-.177-.33-.105-.544-.249-.544-.36 0-.143.18-.177.326-.058.487.403.624.46.752.33.09-.09.066-.263-.085-.564-.132-.268-.18-.517-.109-.589.047-.052.17-.038.255.029.1.081.185.346.185.589zm8.646 4.313c-.118.125-.458.523-.756.881-.88 1.063-.969 1.177-.931 1.216.037.037.785-.292.955-.422.213-.168.6-.579.671-.719a2.01 2.01 0 00.114-.388c.056-.287.212-.507.354-.507.094 0 .137.11.1.253a2.901 2.901 0 01-.236.465c-.118.196-.199.373-.19.392.047.071.223.037.426-.082.118-.068.288-.244.416-.426.25-.354.421-.507.572-.507.128 0 .279.163.246.258-.015.038-.233.225-.478.412-.425.32-.558.487-.482.612.043.072.435-.024.851-.21.709-.321.903-.341 1.016-.125.094.178-.137.287-1.045.488-.25.058-.525.148-.61.201l-.156.096.109.091c.094.077.193.092.661.092.421 0 .578.019.648.071.09.072.085.077-.047.196-.086.072-.165.11-.213.091-.208-.086-.912-.215-1.168-.215-.458 0-.497.168-.08.33.189.077.26.164.222.264-.042.115-.156.095-.567-.096-.833-.388-.983-.407-1.98-.278-.473.062-.61.068-.662.019-.104-.086-.085-.167.062-.296.118-.101 1.031-1.8.988-1.838-.024-.024-.945.306-1.613.583-.085.034-.085.029 0-.105.313-.512 1.215-1.087 2.265-1.446.544-.187.577-.191.803-.187.151.01.194.029.203.105.015.123-.175.42-.468.731zM5.994 15.396c.175.249.577.67.638.67.062 0 .01-.417-.103-.853-.104-.398-.113-.589-.033-.67.061-.062.27-.076.355-.019.033.019.07.292.099.704.052.752.09.89.274 1.01.119.082.128.082.185.005.028-.043.061-.22.067-.397.013-.474.128-.685.33-.617.157.047.171.244.052.617a2.39 2.39 0 00-.099 1.177c.09.58.307 1.096.415.986.024-.019.038-.665.043-1.431.004-1.197.014-1.436.085-1.661.132-.412.161-.431.68-.431.856 0 2.444.23 2.656.383.227.163.18.221-.269.365-.979.302-1.456.359-2.047.244-.193-.039-.369-.062-.388-.052-.019.009 0 .119.038.244.118.388.085.627-.194 1.479-.146.436-.283.943-.302 1.125-.019.182-.071.364-.1.402-.123.149-.259.082-.482-.229-.278-.382-.719-.804-.974-.938-.109-.058-.468-.163-.794-.24-.586-.133-.775-.225-.704-.339.024-.044.128-.048.355-.029.416.043.449-.014.17-.278a3.541 3.541 0 00-1.031-.637c-.355-.145-.416-.192-.416-.307 0-.091.132-.188.26-.188.042 0 .232.13.416.292.388.33.657.488.804.465.27-.039-.053-.666-.558-1.087-.184-.153-.364-.34-.402-.412-.062-.12-.062-.133.024-.196a.436.436 0 01.26-.058c.147.015.18.043.355.349.103.188.254.436.335.552zm6.779-8.22c.241-.037.292.158.292.154.128.33.052.742.052.742-.17-.034-.298-.245-.298-.245-.098-.234-.046-.65-.046-.651zM9.365 8.541s.364.201.501.416c0 0 .095.225.023.388 0 0-.378-.177-.567-.474 0 .005-.123-.153.043-.33z" fill="#fff"/></svg>