<svg version="1.1" id="Layer_1" xmlns="http://www.w3.org/2000/svg" x="0" y="0" viewBox="0 0 24 22.7" xml:space="preserve"><style>.st1{opacity:.1;fill:#fff;enable-background:new}</style><g id="Layer_2"><g id="Layer_1-2"><linearGradient id="SVGID_1_" gradientUnits="userSpaceOnUse" x1="0" y1="1285.353" x2="24" y2="1285.353" gradientTransform="matrix(1 0 0 -1 0 1296.68)"><stop offset="0" stop-color="#9d4abe"/><stop offset=".03" stop-color="#9055c4"/><stop offset=".15" stop-color="#6b74d6"/><stop offset=".26" stop-color="#4c8fe5"/><stop offset=".39" stop-color="#34a3f0"/><stop offset=".52" stop-color="#22b2f9"/><stop offset=".66" stop-color="#18bafd"/><stop offset=".83" stop-color="#15bdff"/><stop offset="1" stop-color="#28bad5"/></linearGradient><path d="M10.3 21.6L.1.7C-.1.4.1 0 .5 0h3.6c.2 0 .4.1.5.3L12 15.4c.7 1.4 2.6 1.4 3.3 0L22.8.2c0-.1.2-.2.4-.2h.4c.3 0 .4.3.3.5L13.6 21.6c-.7 1.4-2.6 1.4-3.3 0z" fill="url(#SVGID_1_)"/><path class="st1" d="M10.3 21.6L4.5.3C4.4.1 4.2 0 4.1 0H.5C.1 0-.1.4.1.7l10.2 20.9z"/><path class="st1" d="M12 15.5L.1.7C-.1.4.1 0 .5 0h3.6c.2 0 .4.1.4.3L12 15.5z"/></g></g></svg>