<svg version="1.1" id="Layer_1" xmlns="http://www.w3.org/2000/svg" x="0" y="0" viewBox="0 0 24 18.4" xml:space="preserve"><style>.st0{fill:#56428e}</style><path class="st0" d="M6.3 0H11c-.6.9-.9 1.9-.9 3h4.2c0-1.1-.3-2.1-.9-3h4.8c-.3.7-.9 1.3-.8 2.1v10.8h1.4c.3-.7.7-1.4.9-2.1 1.4 0 2.8 0 4.3.1-1.4 1.2-2.1 2.9-3 4.5H10.2c-.2 1.3.6 2.2 1.6 3H5.6c.5-.7 1.6-1.1 1.5-2.2V5.7h3.1V8h4.1V5.5H5.7C5 6.7 4.3 8 3.6 9.2c.7 1.2 1.4 2.5 2.1 3.7h1.1v2.5H3.5c-1.1-2-2.4-4.1-3.5-6.2C1.2 7.1 2.4 5.1 3.5 3h3.7c0-1.1-.3-2.1-.9-3m3.9 10.5V13h4.1v-2.5h-4.1z" transform="translate(0 -240)"/><path class="st0" d="M17.7 3H21c.9 1.4 1.5 3 2.8 4.2 0 .1.1.3.1.3-1.4.2-2.7 0-4.1.1-.2-.8-.5-1.4-.9-2.1h-1.1L17.7 3zm-3.3 12.8h2.9c0 1.2.8 2 1.7 2.7h-6.1c.7-.8 1.6-1.5 1.5-2.7" transform="translate(0 -240)"/></svg>