<svg version="1.1" id="Layer_1" xmlns="http://www.w3.org/2000/svg" x="0" y="0" viewBox="0 0 24 24" xml:space="preserve"><style>.st3{fill:#cfb66c}.st5{fill:#f1d789}.st23{fill:#caa13e}.st31{fill:#a88f33}.st52{fill:#8c6228}.st64{fill:#585136}.st65{fill:#252211}.st84{fill:#6e6342}.st89{fill:#82764f}.st91{fill:#574f35}</style><g id="Layer_2"><g id="Layer_1-2"><g id="Layer_1-3"><circle cx="12" cy="12" r="12" fill="#988430"/><circle cx="12" cy="12" r="11.6" fill="#7a6a2a"/><circle cx="12" cy="12" r="11.4" fill="#ba9f33"/><path class="st3" d="M5.2 10.7l-.2-.2-.2-.2-.2-.2-.1-.1-.1-.1c-.2-.2-.5-.4-.8-.7.3.3.6.5.8.8l.1.1.1.1.2.2c.1 0 .2.1.2.1l.2.2zm-3.5 0s1 .1 1.5.2c.4 0 1.8.2 1.8.2l-3.3-.4zm0 0c.3 0 .5.1.8.1h.8l.8.2.4.1c.1 0 .3 0 .4.1-.1 0-.3 0-.4-.1l-.4-.1-.8-.1h-.8c-.3-.1-.5-.2-.8-.2zm3.2.7s-1 .3-1.4.4c-.3.1-1.4.4-1.4.4l2.8-.8z"/><path class="st3" d="M4.9 11.4c-.2.1-.5.1-.7.2l-.7.2c-.3 0-.5.1-.7.2l-.3.1c-.1 0-.2.1-.3.1.1 0 .2-.1.3-.1l.3-.1c.2-.1.5-.1.7-.2.2-.1.5-.1.7-.2.2-.1.4-.2.7-.2zm-2.7 1.4c.1 0 1.4-.7 1.7-.8.2-.1.6-.2.6-.2l-2.3 1z"/><path class="st3" d="M2.2 12.8c.1 0 .2-.1.3-.1l.3-.1.6-.3.6-.3c.1 0 .2-.1.3-.1h.4c-.3 0-.5 0-.7.1l-.6.3-.6.3c-.2 0-.4.1-.6.2zm.2.5s1.2-.7 1.6-.9c.2-.1.9-.5.9-.5l-2.5 1.4z"/><path class="st3" d="M2.4 13.3L3 13l.3-.2c.1-.1.2-.1.3-.2.1-.1.2-.1.3-.2.1 0 .1-.1.2-.1l.2-.1c.2-.1.4-.2.7-.3-.2.1-.4.2-.6.4-.1.1-.2.1-.3.2-.1.1-.2.1-.3.2-.1.1-.2.1-.3.2L3 13l-.6.3zm2.5-1.2s-.7.6-1 .8-.9.7-.9.7l1.9-1.5z"/><path fill="#e2cc85" d="M9.1 16.7l-.4-.7.3-.9 1.5-.6-.6-1.4.3-1.4.6-1.2 2-.4 1.4-1.3 3 .2.6 3.3-1.1 4.1-.7 2.1-2.7.1-1.2-.8-1.4-.6z"/><path class="st5" d="M13.8 16.7s-.4.2-1 .1c-.2-.2-1.5-.4-1.5-.4s-.2 0-.4.1c-.3.1-.6.1-.8.2-.3.1-.5-.3-.7-.3-.2-.1-.4-.3-.4-.3l-.6-.1-1.1-.5-1.7-1.7-.5.7-.1 1 .5 1.1 1.4 1.3 2.7.7 1.6-.5 2-.9.6-.5z"/><path fill="#f4ecb4" d="M4.1 10.6l.4-1 .4-.7 1.3-.1-.4 1.2-1.1 1.9.5 1.8-.8.4-.3-.4-.2-.9v-.9z"/><path d="M5.6 16.6l-.3-.4s-.1-.2 0-.3v-.2s-.2-.3-.2-.4c0-.2 0-.2.1-.4.1-.1.1-.4.1-.4l.2.1v-.1s.1 0 .1.1c0-.1 0-.6.1-.7s.4.5.4.5l-.1-.7-.4-.9-.6-.9v-1s-.3.5-.4.8c-.1.2.1.5.1.9 0 .3-.1.3 0 .5.1.1.3.4.2.6-.1.2-.3.1-.3.1s0 .1-.1.2c0-.1 0-.1-.1-.2v.1s0-.1-.1-.3c-.1-.2-.1-.5-.2-.7-.1 0-.1.3-.1.3v.4l.2.6.2.4.1.4.1.3.1.2.1.5.4.5.2.1h.2z" fill="#f3e19d"/><path d="M4.4 9.8s-.3.5-.4 1.1-.2 1.1-.2 1.8c.1.7.2 1.2.3 1.5.2.5.6 1.3.6 1.3-.1-.1-.1-.3-.2-.4-.1-.2-.1-.5-.1-.6 0-.1-.1-.2-.1-.3 0-.1 0-.3-.1-.5 0-.1-.1-.2-.1-.4v-.7c0-.4-.1-.6 0-.8s.2-.8.4-1.2c.1-.3 0-.5.2-.8.1-.2.2-.5.3-.6-.2-.2-.6.6-.6.6z" fill="#f2e8b0"/><path d="M5.9 9.6s-.2 0-.2.1l-.3.3c-.1.1-.1.3-.2.4-.1.2-.3.4-.3.5 0 .1-.1.5-.1.7v.5h.1s0 .1.1.2c.2.1.2-.3.2-.3l.4-1.4.6-.4.1-.3-.4-.3z" fill="#f5eec0"/><path d="M6.2 10.2s-.3 0-.4.1c-.1 0-.1.1-.1.1l-.3.3c-.1.1-.1.3-.2.7v.8c0 .2.2.3.2.5l.4-.2.3-1.5.8-.5-.5-.5-.2.2z" fill="#e6db9d"/><path d="M4.1 20.2c0-.1 0-.1 0 0 .1-.5.1-.9.1-1.2.1-.3.1-.5.1-.6v-.5c0-.2.2-.5.2-.6 0-.1-.1-.2-.1-.3l-.1-.1s.4-.3.4-1.4l.2.5.1.2.5 1 .7.6 1 .7.6.7.1 1.8-.8 1-.1.2c-1.1-.6-2.1-1.2-2.9-2z" fill="#e5cb7a"/><path d="M6.5 21.9s0-.2.2-.4v.1c0-.1.3-.4.8-.5.5-.1.6-.5.6-.5l1.1-1 1.3-1.2 1.5-.5.7-.2v.2c.1 0 .4-.1.7-.2.1 0 .2-.1.3 0 .3.1.3.3.3.4.1 0 .3-.2.5-.2s.4.3.6.3c.3 0 .4-.2.6-.3.1-.1.3-.2.4-.3.2-.2 2.8-1 2.8-1l.9.1.1 1-.1 2.5-4.1 2.1-5.6.9c-1.2-.2-2.4-.6-3.5-1.2l-.1-.1z" fill="#d8c173"/><path class="st5" d="M4.4 20.5c.1-.2.2-.3.2-.4 0 .1 0 .3.1.6-.1-.1-.2-.2-.3-.2z"/><path d="M8.5 22.8l.7-.2h.1v.1c.1-.1.2 0 .2-.1 0 .1.1.3.2.3s.3-.1.4-.2c.1-.1.3-.3.4-.3 0 .1.1.2.1.3.2-.1.4-.7.9-.6.1-.3.3-.5.6-.7.4-.3.6-.3.9-.3.1-.2.3-.3.4-.4 0 0 .2.1.3 0 .2-.1.4-.4.6-.4.1 0 .3 0 .4.1 0 0 .7-.7 1.2-1 0-.1-.1-.3.5-.8v.1s.2-.1.3-.2c.2-.2.5-.3.7-.4.3-.1.6.1.6.1h.3c0 .1.1.3 0 .4.1 0 .1.1.2.1 0 .1-.1.3-.2.3.1 0 .1.1.3.2-.1.1-.2.2-.2.3 0 .1-.2.5-.3.6-.1.1-.2.4-.2.5s-.2.3-.3.4c.1 0 .6-.2.8-.2-.1.1-.4.5-.7 1-2.7 1.6-6.1 2-9.2 1z" fill="#e0cd81"/><path d="M6.2 10.1H6l.2.1c.1 0 .2.1.2.2s1.2.6 1.2.6h.8l.3-.4-.5-.5.5-1.1-.6.1-1.2.7-.6.2-.1.1z" fill="#dfc57c"/><path d="M8.1 10.5l.1.1c.2 0 .3 0 .4.1.1.2.4.6.4.6l.7.3v-.9l-.7-.6-.9.4z" fill="#e5cc7c"/><path d="M7.9 10.8s.1 0 .3-.1c.2-.1.4-.2.6-.1.2.1.1.3.3.5.1.1.3.1.4.3s.5.1.5.1l.1.8-.5.7-.2 1h-.8l-.7-.3-.4-.9.2-.9.2-1.1z" fill="#d2c281"/><path d="M9.5 10.9v.2c0 .1.1.3 0 .3 0 0 .1.1.1.2s0 .2.3.2c0 0-.1 0-.1.1 0 0 .1.1.2.3.1 0 .3-.1.3-.1h.1s-.1 0 0-.2l.1-.2v-.3c0-.1.1-.4.1-.4l-.1-.7-.3-.3-.3-.3-.3.5-.2.2.1.5z" fill="#e2c270"/><path d="M10.3 10.3s.1.2.1.3v-.1s0 .3.1.4v.4l.3-.3c.1 0 .2-.1.3-.1.1 0 .3.1.4.1.4 0 .8-.3 1.1-.4.2-.1.4-.1.5-.2l.3-.3c.1-.2.3-.4.4-.5h-.2l.1-.1c.1-.1.2-.1.3-.1h.7s.1.1.4.1h1.4c.1 0 .2 0 .3.1l-.5-1.4-1.7-1.5-1 .7L12 9l-1.5.6-.3.4.1.3z" fill="#ccb360"/><path d="M13.7 9.5l.1-.1c.1-.1.2-.1.3-.1h.7s.1.1.4.1h1.4c.1 0 .2 0 .3.1l-.2-.6-.3-.5-.7-.8-.9-.5-.3-.1-.8.5-.7 1.8v.4l.5.2c.1-.2.2-.3.4-.4h-.2z" fill="#d5b457"/><path d="M13.7 9.7c-.1 0-.1 0-.1-.1-.1-.2-.1-.2-.2-.2s-.1.1-.2.1l-.1-.1s-.3.2-.4.4l-.6.6c-.1.1-.6.1-.7.1-.2 0-.3.1-.3.2l.1.1H11s0 .1.1.2h.1c.1 0 .3.1.4.1.4 0 .8-.3 1.1-.4.2-.1.4-.1.5-.2l.3-.3c.1-.4.1-.5.2-.5z" fill="#d2b257"/><path d="M7.5 19.3s0-.1-.4-.5c-.1-.2-.1-.2-.2-.3-.2-.2-.3-.2-.4-.3-.3-.2-.5-.2-.8-.4-.2-.2-.5-.7-.7-1.2-.1-.5-.1-.6-.1-.6s0-.1.1-.1v.1l.1.1c.1.1.2.2.3.4 0-.2-.1-.3-.1-.3l.6.4c.3.2.4.3.5.4.1.1.3.5.4.6.1.1 1.4.5 1.4.5l.6.5.3.7-.1.5-.5.1-.8-.3-.2-.3z" fill="#d2b159"/><path d="M5.8 16.9s.2.3.5.5.9.4 1.4.5c.4.1.6.1.9.1.7 0 1.2-.2 1.7-.3.3 0 .7-.1 1.1-.2.5-.1.8-.3 1.2-.5.3-.1.6-.2.8-.4.3-.2.5-.4.8-.5 0 .1-.1.3-.3.4h.3s-.2.1-.5.4c-.2.2-.5.4-.7.6-.2.1-.4.2-.5.3-.3.2-.4.3-.6.5h.1s-.3 0-.4.1h-.2c-.1 0-.2.1-.3.1-.2.1-.2 0-.2 0v.1h-.3s-.1 0-.1.1h-.1l.1.2-.5.3v.2c0 .1.1.1.1.1H10c-.1 0-.2.1-.3.1h-.1s.1.2-.1.4l-.3.3h-.1c-.1 0-.1-.1-.1-.1 0 .1 0 .1-.1.2 0 .1-.1.3-.1.4-.1-.1-.1-.2-.3-.1-.1 0-.2.2-.3.3 0 0 0-.1 0 0 0 0-.1.5-.5.9v-.4s-.1.1-.4.2c-.3.2-.2.3-.2.3s0-.2.1-.4.2-.3.2-.3-.1 0-.1-.1c0 0 .3-.1.2-.3 0-.2-.1-.3-.2-.4l.1-.1s-.1-.1-.1-.2V20l-.1-.2h.1s-.1-.1-.1-.2 0-.2-.1-.2h.1s-.1-.1 0-.1c0 0 .1 0 .1.1 0-.1-.1-.2-.1-.2h.3c.1 0 .2.2.2.2s.1.1.2.1c.1.1.3.2.5.3h.4s0-.1-.1-.1h.1s0-.1-.1-.2c0 0 .1 0 .1-.1l-.1-.1s0-.1.1-.1l-.1-.1h.1s-.2 0-.2-.1c-.1 0-.1-.1-.2-.1 0 0-.1 0-.2-.1h.2l.1-.1h.1s-.1 0-.2-.1-.1-.1-.2-.1h-.3s-.3 0-.8-.3-.7-.6-.7-.6-.1 0-.1-.1c-.2-.1-.5-.3-.5-.6z" fill="#c2a44d"/><path class="st23" d="M13 5.2s.1 0 .1.1c.1.1.1.3-.1.5h.2c-.1.2-.2.3-.2.5v.2s-.1.1-.1.4c.1-.1.1-.2.2-.2.1-.1.3-.2.5-.3v.1s.3-.2.5-.1c.1 0 .1.2.1.2h.2c.1.1.2.3.3.4 0 0 .1.1.2.3l.3.6c0-.1 0-.3.3-.2.3.1.6.3.9.7.3.4.3.9.5 1.1 0 .1.1.4.1.5 0 .1 0 .5.2 1.6.1-.3.2-1.1.2-1.1l.1-.6.1-2-2.1-1.7L14 5l-1.1.1.1.1z"/><path d="M16.8 8.2s0-.2-.5-.5-.9-.3-1.2-.6c-.3-.2-.5-.7-.7-.9-.2-.2-.2-.6-.2-.6l.6-.5.9-1.3.7-.8.4.5.5.6.3 1.2V7l-.8 1.2z" fill="#b59544"/><path d="M17.4 10.3c0-.3 0-.5-.1-.8-.1-.4-.4-1.1-.5-1.4-.1-.3 0-.3 0-.3s.3-.2.4-.6c.1-.4.5-.4.5-.4l.2-.2.3.8.3.8.1.6.1.5-.2 1-.8.7-.3-.7z" fill="#c89d3a"/><path d="M6.4 21.9c.1 0 .1 0 0 0l.1-.1h.2l.2.1c.1 0 .3-.1.6-.1.4.1.5.3.7.5.2.1.3.1.3.1h.1l.1-.1c.1 0 .1.1.1.1.1 0 .3-.1.4 0 .1 0 .1.1.1.1 0 .1 0 .2-.1.2l-.3.3s.1 0 .1.1c-.8-.3-1.7-.7-2.6-1.2z" fill="#ceb052"/><path d="M16.8 18s.3-.4.4-.6c.1-.2-.3-2.8-.3-2.8l.9-2.9v-.9s0-.9.1-1.2c.1.2.5.5.6.6 0-.3.2-.8.1-1.4.1.1.2 1.2.2 1.2l.2.7.2.8.3.8.1.6.1.1.1.2.1.3.2.6.1.5.1.9v.8c0 .2 0 .3-.1.4-.2.2-.2.9-.2.9l-.2-.1s0-.2-.1-.4-.3-.2-.4-.2c-.1 0-.3.1-.4.1-.1.1-.2.3-.4.3-.2.1-.5.1-.7.2-.2 0-.4.2-.6.3-.1.1-.3.2-.4.2z" fill="#cca847"/><path d="M16.8 22.3c1.4-.6 2.7-1.5 3.7-2.7v-1.7c0-.2-.1-.9-.2-1.1-.1-.2-.2-.3-.2-.3s-.1.4-.1.5v.3s0 .1-.1.1 0-.1 0-.1v-.2s-.1.1-.1.3c0 .2 0 .2-.1.2l-.1.1c0 .1.1.1.1.1s-.1.3-.1.4v.4c0 .1 0 .2-.1.2h.1s.1.3-.1.5c-.1.1-.1.1-.1.2-.1.1-.2.3-.2.4v-.1s-.2.2-.3.4c-.1.2-.3.2-.3.2s-.1.1 0 .2c0 0-.1 0-.2.2 0 .1-.1.2-.2.2-.1.1-.2.1-.3.1h.1s-.2.1-.3.2l-.3.3c0 .1-.1.1-.2.1l.1.1s-.1 0-.2.1c-.2.3-.3.4-.3.4z" fill="#c39d3c"/><path d="M14.1 23.2c.1-.1.2-.1.2-.1.3-.1.6-.1.7-.2.1 0 .2-.1.4-.1v.1c-.4.1-.9.2-1.3.3z" fill="#d2ba6b"/><path d="M19.7 15.2s-.1.3-.2.5-.2.5-.2.5V16c-.1.1-.5.3-.6.4l-.3.3c.1-.3.2-.5.2-.6-.1.1-.8.6-1.1 1l-1.1.9c-.1.1-.2.1-.4.2s-.4.1-.6.2c0-.1.1-.2.2-.3.1-.1.4-.4.5-.6 0-.2.1-.3 0-.4h-.3c-.1 0-.2.1-.2.1s.1-.4.2-.7h-.3s.2-.4.7-.7c-.1 0-.2.1-.4.1-.2.1-.5.3-.7.3.1-.2.9-1.3 1.3-2.3.5-1 .6-1.3.7-1.8.1-.3 0-.7.1-1 0-.4.1-.7 0-.9.1.1.6.6.6 1.5s-.4 2.2-.9 2.9c.1 0 .4.1.7-.5.3-.5.3-.7.4-.9v.1s.4-.5.7-1.2c0 .3.2.6 0 1.1-.2.5-.4.6-.4.6s.1 0 .3-.1c0 .1 0 .2.1.2l.1.1c.1-.1.1-.2.2-.3v1.2c.1 0 .3 0 .4-.3-.1.3-.1.4 0 .6.2.1.3 0 .3 0z" fill="#c0993a"/><path class="st31" d="M14.6 4.5s-.1.1-.4.1c-.2 0-.2-.1-.5-.1-.5 0-2.4.3-2.7.3-.2 0 .7.1.7.1h2.9l.2-.4h-.2z"/><path d="M8.5 9.1s-.3.2-.4.4c-.2.2-.2.3-.4.5h.2s-.2.1-.1.3l.2.2s0 .1.1.1c.3 0 .6-.1.8-.1.2 0 .2.1.3.2.1.2.2.2.2.2s.1-.2.1-.4c.1-.1.1-.3.1-.4l-.1-.8-.4-.6-.6.3v.1z" fill="#e3c571"/><path d="M9 9s0 .1.2.1v.2h.1v.3s0 .1.1.2v.1s0 .3.1.5v.4l.1-.1c.1 0 .2-.1.2-.3 0-.1.1-.2.1-.3v.1h.1V10l.1-.5.2-.5.5-.8.9-.7.8.2.7-.9-1.2-.7-1 .1-1 1.4-.8 1.2L9 9z" fill="#d8b65b"/><path d="M14.8 7s-.1 0-.3.1-.3.1-.4.3c-.1.2-.1.3-.1.3s.1-.1.2-.1h.2v.1s.2 0 .1.1c0 .1 0 .2-.1.2 0 0-.1.1-.2.1v.2c0 .1-.1.2-.3.5-.2.2-.3.4-.3.4s0-.2-.1-.4l-.2.1-.5-1.7v-.1s0-.1.1-.1c-.1 0-.1 0-.2-.1l-.3-.3s-.1-.1-.2-.1H12s.1 0 .1-.1h-.6c-.1 0-.2.1-.2-.1 0 0-.1 0-.2.1s-.1.2-.3.3c0 .1 0 .1-.1.2 0 .1-.1.1-.2.3-.1.2-.1.4-.3.7-.2.2 0-.6 0-.6l.4-.9 1.1-1 1.6-.1.2.7.8.3.5.7z" fill="#d3ae4d"/><path class="st23" d="M15 7.2l-.7-1-.5-.4s-.3-.6-.4-.6c0 0-.3 0-.5-.1v.1s.1 0 .1.1c.1.1.1.3-.1.5h.2c0 .2-.1.3-.1.5v.2s-.1.1-.1.4c.1-.1.1-.2.2-.2.1-.1.3-.2.5-.3v.1s.3-.2.5-.1c.1 0 .1.2.1.2h.2c.1.1.2.3.3.4 0 0 .1.1.2.3l.3.6c0-.1 0-.2.2-.2l-.4-.5z"/><path d="M4.7 10v-.4c0-.2.1-.3.1-.7 0-.3.3-.8.3-.8l.6-.3.5.2.1.6-.5.3s0 .1-.2.2c-.2.2-.4.3-.4.4 0 .1-.1.1-.1.2 0 0-.2 0-.3.1-.1.1-.1.2-.1.2z" fill="#f4efc8"/><path d="M6 9.9s-.1 0-.1.1c0-.1-.1-.4-.1-.8 0-.3 0-.4.1-.5.1-.1.4-.2.3-.4-.1-.2-.3-.3-.5-.3s-.3.4-.4.5c-.1.2-.3.2-.3.2-.1.1 0 .2 0 .3 0 0-.1.1-.1.3-.2.3-.5.6-.5.9 0-.2 0-.2.1-.4l.2-.6.1-.5.3-.9.5-.9.5-.5h.5l.1.7.3 1.4.6.7-1 .6-.6.1z" fill="#ebcc73"/><path d="M6.3 10.1h-.1s-.1 0 0-.1l.1-.1v-.1h-.2.1H6s.1-.1.2-.1h.1s-.2 0-.2-.1v-.4l.1-.1s0-.1.1-.1c0 0 .1 0 .1-.1 0 .1.1.1.1.1v.1h.3c.1.1.4.1.4.1l.1.2-.7.6-.3.1z" fill="#e5c66b"/><path d="M7.3 9.2s-.2.1-.3.2c0 0 .1 0 .1.1 0 0-.2.1-.2.2-.2 0-.2.2-.3.2 0 .1-.3.2-.3.2.2 0 .5-.2.6-.2 0 .1 0 .1.1.1s.3 0 .5-.1c.3-.2.2-.3.3-.4.2 0 .3-.2.4-.2s.2-.1.2-.1v-.1s.2-.1.5-.2c.1 0 .1.1.1.1l.1-.2.2-.6v-.5h-.2L8 8.3l-.7.7v.2z" fill="#e6bd62"/><path d="M10.6 6.6c.1 0 .1 0 .2-.1 0 .1 0 .1-.1.3s-.2.2-.3.4c-.1.2-.1.4-.2.5h.1l-.1.1c0 .1-.1.2-.2.3-.1.1-.3.1-.5.4L9 9c.1-.1.1-.3.1-.4v-.4c0-.2 0-.3.2-.6s.4-1.2.4-1.2l.6-.2.3.4z" fill="#b6933f"/><path d="M10.2 6.3s-.2.3-.2.5v.5c0-.1 0-.2.1-.2.2-.1.3-.2.4-.3.1-.1.1-.2.3-.4h-.2c.1-.1.3-.2.5-.4s.2-.2.6-.4h-.3c0-.1.2-.1.3-.3.1-.1-.1-.3-.1-.3l-1 .6-.4.7z" fill="#c49937"/><path fill="#dfc068" d="M7.4 5.8v-.2l.3-.4.3-.9V2.1l.1-.1.2.1.4.5v.9l-.3 1.4-1 1z"/><path class="st31" d="M8.1 1.9s-.2 0-.2.6 0 1-.1 1.3c0 .3-.1.5-.1.7 0 .2 0 .4-.1.6 0 .1-.1.3-.3.5-.2.2-.5.3-.6.3 0 0-.5.1-.7.2 0 0-.1 0-.2.2-.3.2-.6.6-.8 1-.4.7-.7 2.6-.7 2.6l.1-.1s0-.2.2-.5c.1-.3.1-.6.3-1.2.1-.2.2-.5.4-.8.2-.4.4-.7.7-.9.5-.3.9-.4.9-.4l.5-.3.2-.4c.2-.3.5-.6.5-1 .1-.7-.1-1.2-.1-1.6 0-.4 0-.7.1-.8.1 0 0 0 0 0z"/><path d="M8.1 4.9s.2-.6.3-1.1c0-.1.1-.2.1-.3 0-.5.1-.7 0-.9 0-.2-.2-.4-.3-.5-.1-.1-.1-.1-.1-.2 0 0 .1-.1.2-.1.2 0 .3.1.4.2.1.2.3.8.3.8l.1.8.3 1-1.3.3z" fill="#c99e3d"/><path d="M10.3 4.4h-.1c0 .1 0 .1-.1.2h-.8s-.4-.1-.5-.6c-.1-.3.1-.7 0-1-.1-.4-.2-.5-.2-.6v-.2h-.1v-.1s.2 0 .4.2c.1 0 .1.1.1.1s.3.2.4.4.3.8.3.9c0 0 0 .1.1.2.2.2.3.4.5.5z" fill="#b58634"/><path class="st31" d="M9 2.4c.2.2.3.4.4.6.1.3.2.5.3.6-.1-.2-.2-.6-.3-.8-.1-.2-.3-.3-.4-.4z"/><path d="M7.7 5.6s-.2 0-.6.2c-.1.1-.2.1-.3.2-.3.1-.6.2-.8.3s0 .1.1.1c0 0-.4.3-.3 1.2.1 0 .2-.1.2-.1s0 .1.1.1c0 0 .1 0 .2-.2 0 .1-.1.6.3.9.1-.1.2-.3.2-.3v-.1s0-.3.1-.5l.1-.2.8-1.2-.1-.4z" fill="#e6c367"/><path d="M6.9 7.3s-.1 0-.1.1c0 0 0-.2.1-.4s.4-.4.5-.6c.1-.1 0-.5.5-.9s.6-.6.6-.6l.8-.4.9.4-.4 1.8-.4.9L8 7.3H6.9z" fill="#dcba5a"/><path d="M7.5 6.8l.2-.2v-.1s.2-.1.4-.3c.2-.2.5-.6.7-.6.3 0 .3.6.3.7 0 .1 0 .5.1.7.1.2-.6.9-.6.9l-.5.3-.6-1.4z" fill="#e9ce77"/><path d="M8 8.7s.1-.2 0-.3c.1-.1.2-.3.2-.3s.1-.2.3-.5c.4-.2.5-.3.6-.5v-.3s.1 0 .1.1c0 0 .2.2.2.5s-.1.4-.1.4-.2.1-.2.2c-.1.1-.2.1-.3.1h.1s-.2 0-.2.1c-.2.1-.4.3-.5.4-.1 0-.2.1-.2.1z" fill="#cdae50"/><path d="M14.5 4.9c-.2-.1-.5-.1-.7-.1h-1.6c-.6 0-1.2-.2-2-.3-.1-.1-.5-.4-1.5.3.1 0 .7-.2 1 .1.2.3.2.8.1.9 0 .4-.2.8-.3 1-.1.3-.1.4-.1.6s-.2.3-.1.5c.1-.1.2-.1.3-.4.2-.4.1-.6.4-1 .3-.3.7-.8.9-.9.2-.1 1.5-.8 3-.1.3 0 .6-.6.6-.6z" fill="#d2a83e"/><path d="M9.3 4.6c0-.1 0-.1-.1-.1 0 0-.3-.1-.5 0-.3 0-.6.4-.7.6-.1.2-.3.5-.5.6 0 0 .3-.1.6-.5.5-.2.8-.4.9-.5.1 0 .2 0 .3-.1z" fill="#c29637"/><path d="M15.9 3.2s-.1.1-.1.2l-.6.6-.6.6c-.2.3-.5.6-.6.6-.1.1-.1.2-.1.3h-.1s0 .1.1.1c0 .1.1.2.2.2 0 .1.1.1.1.2 0 0 .2 0 .4-.3l.4-.6.4-.6.2-.5.3-.5v-.3z" fill="#ac8132"/><path class="st31" d="M16.3 2.8l-.3.3c-.1.1-.3.4-.3.4h.1l.4-.3.1-.4z"/><path d="M16.2 18.2s0-.2.1-.3c.1-.1.3-.2.5-.8.2-.5.3-.6.3-.6s-.4.3-.7.4c.1-.1.1-.2.1-.3l-.2-.1c.1-.1.1-.3.3-.4.2-.2.6-.4.9-.7.3-.2.9-.8.9-.9 0 .1.1.1.1.1s-.3.4-.4.6c-.1.4-.1.5-.1.5l.3-.1s.1.3-.3.7c.2-.1.2 0 .3-.1-.1.1-.3.2-.5.6-.2.3-.4.7-.9 1-.4.2-.7.4-.7.4z" fill="#a67a2e"/><path class="st52" d="M15.2 5.1s-.2.3-.2.6v.7c0 .1-.1.3-.1.4 0-.1-.1-.3-.1-.5v-.4c0 .1-.1.2-.1.2 0-.1-.1-.1-.1-.2l-.1.1v-.5c0-.1.1-.3.3-.4.2-.2.4-.7.5-.8.1-.1.3-.7.3-.7h.2l-.3.7s-.2.4-.3.5c-.1.1-.3.5-.4.7l.2-.2.2-.2z"/><path d="M16.3 2.8c0 .1-.1.2-.2.3-.1.1-.4.3-.5.5-.1.1-.3.6-.2 1 0-.1.1-.3.3-.5.2-.2.4-.5.5-.7.1-.2.1-.4.1-.4v-.2z" fill="#cba94c"/><path class="st31" d="M20.2 15.6s-.1-.2-.1-.4v-.5c0-.1-.1-.1-.1-.1V14l-.1-.2c0-.1-.1-.2-.1-.3l-.1-.1c0-.1.1-.1.1-.2h-.1V13s-.1.1-.1 0c0 0 0-.3-.1-.4 0-.1-.1-.3-.1-.3s-.3-.8-.3-1c-.1 0-.1-.2-.1-.3v-.3.1s-.1-.3-.1-.4c0-.1-.1-.2-.1-.4 0-.1-.1-.5-.1-.7v-.8c0-.2-.1-.5-.2-.7-.1-.3-.5-1.2-.5-1.4 0-.1.1 0 .1 0s.2.4.3.7c.1.3.2.6.3.6 0 0 .2.3.3.9.1.5.1 1 .2 1.3 0 .2 0 .3.1.5s.1.4.2.6c.1.2.2.4.2.6 0 .2 0 .4.1.5 0 .1.1.3.1.5.1.3.2.6.3.8.2.4.2.8.3 1-.3.4-.2 1-.3 1.2z"/><path d="M16.3 2.7c0 .1 0 .1 0 0v.4c0 .1 0 .2-.1.5 0 .1-.1.1-.1.2s-.1.1-.1.2c.1 0 .3-.2.4-.2-.1 0-.2.1-.3.3h.2c.2 0 .5-.1.7-.1.2 0 .1-.3.1-.3l-.3-.6-.5-.4z" fill="#be9c44"/><path d="M17.6 7.1s-.2-.2-.3-1c-.1-.8-.1-1.9-.1-1.9l-.2-.4s0-.3-.1-.4l-.4-.4-.2-.2s.2-.3.7-.3c.5 0 .7.3.7.4s.3.5.4 1.4c.1.8.1.9.1 1.2 0 .2-.1.5-.2.9-.1.2-.2.6-.4.7z" fill="#a17c34"/><path class="st52" d="M16.9 7.8h.2c.1 0 .3 0 .5-.2V8l.1-.1c0 .1.1.3-.2.8.1-.1.2-.1.3-.1 0 .1.1.4-.1.6-.1.1-.3.1-.3.1v-.2c-.1 0-.1-.1-.2-.1-.2-.2-.4-.4-.4-.6 0-.4.2-.4.2-.4v-.1s0-.1-.1-.1z"/><path d="M15.4 5.4s0-.1 0 0c-.1 0 0-.1 0-.1 0-.1.1-.1.1-.1v.1l.2-.2c.1-.1.2-.1.2-.1v-.1l.2-.2.1-.1s.1 0 .2-.1.2-.1.3-.2c.1-.1.3-.1.3-.1s.1-.2.1-.3c.1 0 .4.3.6.8.1.4-.1.9-.1 1.2-.1.3-.1.5-.2.6-.1.2-.5.4-.6.5-.1.1-.3.3-.3.5 0 .1.2.2.2.2s0 .1.1 0h.1s0 .2-.4.2h-.1s.1 0 .1-.1h-.3l.1-.1c-.1 0-.1.1-.1.1L16 8c0-.1 0-.2.1-.3l-.1.1v-.2c0-.4.1-.6.1-.6l.6-1.1.1-.8-1.4.3z" fill="#92723a"/><path d="M15.4 5.4v.2l-.1.1c0 .1-.1.1-.1.1s0 .2-.1.3c0 0-.1.1-.1.2v.5s0-.1.1-.1c0 0 0 .1-.1.1l.2-.2c.2-.1.4-.4.7-.5h-.2s.5-.6.7-.6v-.1h-.2l-.4.1-.1-.3-.3.2z" fill="#b18e3e"/><path d="M16 7.2s-.1.1-.1.2l-.1-.1c-.1-.1-.2-.3-.4-.2v-.2s.2-.1.3-.3c.1-.1.2-.2.2-.4 0 0 .1-.1.2-.1.1-.1.3-.2.3-.3-.1 0-.2.1-.4.1.1 0 .2-.1.2-.2h-.1s-.1.1-.2.1v-.1h-.2c-.1 0-.3.1-.4.2v-.1c0-.1.1-.2.2-.3.1-.1.1-.2.1-.2l.3-.1.8-.2h.5l-.1.4-.2.6-.3.6-.3.4-.3.2z" fill="#543e26"/><path d="M17.4 5.5s-.3.4-.4.5c.1-.1.4-.9.5-1.1 0 0-.1 0 0-.4-.1.2-.1.3-.2.3h-.6c-.2 0-.4.1-.7.2-.2.1-.3.1-.3.1-.1 0-.1.1-.1.1s-.1 0-.2.1l-.1.1s.1 0 .2-.1.2-.1.3-.2c.4-.1.5 0 .6-.1h.8v.2c-.1.2-.2.4-.2.6-.1.2-.2.3-.2.4 0 .1-.2.3-.3.5l-.2.2s-.3.2-.3.3c0 0 .3-.1.5-.3.2-.2.2-.4.4-.5s.3-.3.3-.5l.2-.4z" fill="#806031"/><path d="M10.4 8.5s0 .2-.1.3c-.2.1-.3.2-.4.3 0 .1.2.2.2.2s-.1.2-.1.3v.3s0 .1.1.2.2.1.2.1.1-.2.1-.3c0-.2.1-.1.1-.4s.3-.5.3-.5l.1-.3-.2-.2h-.3z" fill="#b6903c"/><path d="M10.8 8.9s-.1.1-.1.2c-.1.1-.1.2-.2.2s-.1 0-.1.1.1.1.1.2c.1 0 .1.1.1.2 0 0 .1 0 .1-.1s.4-.7.4-.7l-.3-.1z" fill="#685026"/><path d="M12.1 7.4v-.1c0-.1-.2-.1-.3-.1-.1-.2-.2-.2-.3-.2 0 0 .1-.1 0-.1l-.2.1s-.1.1-.2.1c0 0-.1.1-.1 0h-.1s-.2.1-.2.2-.1.2-.3.4c-.2.2-.3.3-.2.4.1.1.1 0 .1.1v.2c0 .1-.1.2 0 .2h.3c.1.1 0 .2.1.3h.3l.5-.3.5-.3.3-.5-.2-.4z" fill="#d4b968"/><path d="M11.7 8.6s-.1-.1 0-.2.3-.2.3-.2c0-.2 0-.3.1-.3l-.1-.1c-.1 0-.2.1-.2.1h-.1s.1 0 .1-.1v-.1s.3-.1.3-.2 0-.1.1-.2c0 0 .2-.1.3-.1.1 0 0 .2 0 .2l.4-.4c.1 0 .2-.1.2-.1.1 0 .2.1.3.4v1.2c0 .1.1.1.1.1s0 .1-.1.1-.1.2-.1.2V9l-.1.1-.1.1h-.2s-.1 0-.1-.2c0-.1-.5-.4-.5-.4h-.6z" fill="#cca849"/><path class="st64" d="M10.7 9.8s.2.2.9.2c.3 0 .5 0 .5-.1.1 0 .4-.1.7-.5.3-.2.2-.3.2-.3h-.2l-.5.1-1.5.6h-.1z"/><path class="st65" d="M11.3 9.9s-.6.1-.6-.3.4-.8.5-.9c.1-.1.3-.2.3-.2h.5l.1.3v.6l-.8.5z"/><path d="M11.9 8.7s-.1-.1-.4 0-.5.5-.6.8c0 .3.2.4.5.4h.5l-.1-.1.1-1.1z" fill="#c3b378"/><path d="M11.7 8.8h-.1c-.1 0-.2.1-.3.2-.1 0-.1.1-.1.1-.1.1-.2.4-.2.5.1.1.3.3.7.2v-1z" fill="#e6d89c"/><path class="st65" d="M11.6 9s-.1.1-.1.3c0 .2.1.5.5.5.3 0 .5-.5.7-.6.2-.1.3-.1.3-.1s-.2-.2-.6-.4c-.5-.3-1-.3-1.3.1.1 0 .6-.1.6-.1l.2.1-.3.2z"/><path d="M12.2 9.3c0-.1 0-.1 0 0 .1-.1.1-.1.1 0v.1c0-.1-.1-.1-.1-.1zm-.1-.3c0-.1 0-.1 0 0 .1-.1.1 0 .1 0h-.1z" fill="#6f674d"/><path d="M6.8 9.1s.2.1.3.1c.2 0 .4-.2.5-.3l.2-.2.1-.1c.1 0 .1-.1.1-.1s-.1.1-.2.1-.2.1-.3.1c.1.1-.5.3-.5.3l-.2.1z" fill="#ac924c"/><path d="M7.1 7.7s.1-.1.3-.1c.2 0 .5-.1.5-.1l.3.1V8l-.2.4-.3.2-.2-.5-.4-.4z" fill="#9f8e57"/><path d="M6.7 8c-.1.1-.1 0 0-.1 0-.1.1-.4.3-.6s.1-.2.1-.2H7s.1-.2.3-.3c.1-.1.2-.1.3 0 .1.1.2.1.3.1l.1-.1V7c-.1.2-.4.5-.4.5l-.6.4-.3.1z" fill="#eac970"/><path d="M7.2 7.6s.4.1.6-.1h.1v.1h-.1v.1c.1.2.1.3.3.3 0 0 .1.1-.2.5l-.1.1v.1s.4-.2.5-.5c.1-.4.1-.7.1-1.1v-.2c-.1-.1-.3-.1-.4 0-.1.1-.2.3-.4.5-.3.1-.3.1-.4.2z" fill="#d7bc6b"/><path class="st64" d="M6.6 8.1s-.1 0-.1.2 0 .4.1.5.2.3.4.3h.2s.1-.1.2-.1c.1-.1.2-.1.2-.1L7 8.4l-.4-.3z"/><path d="M7.2 8.9s.1 0 .2-.1L7 8.4v.5h.2z" fill="#453a25"/><path d="M6.7 8.1l-.1.1v.5c.1.1.2.3.4.3.1 0 .2-.1.2-.1s-.1 0-.2-.1v-.4c.1-.1.1-.2.1-.2l.2-.3H7l-.3.2z" fill="#84754b"/><path class="st65" d="M6.6 8.2s.2-.3.4-.3c.2-.1.3 0 .3 0l-.2.2-.1.2v.1s0 .2.1.4.3.1.3.1.2-.1.3-.3c.1-.2.1-.5 0-.7-.1-.3-.4-.3-.4-.3s-.5.1-.7.6z"/><path d="M11.5 9.1c-.1 0 0-.2.1-.3.1-.1.2-.1.3-.1.1 0 .1 0 .1.1s-.1.2-.2.2c-.1.1-.2.1-.3.1z" fill="#f7f7e7"/><path d="M7.7 8c.1 0 .1 0 .1.1s0 .2-.1.2-.1-.1-.1-.1v-.1s0-.1.1-.1z" fill="#f8f6de"/><path d="M6.9 8l-.2.2c0 .1-.1.2 0 .3l.1.2.1.1.1-.1v-.4c.1-.2-.1-.3-.1-.3z" fill="#d4c38b"/><path d="M6.9 8c0 .1 0 .1.1.2v.1h.1l.1-.1h.1s.1 0 .1-.1-.1-.1-.1-.1v-.1h-.2c-.1 0-.2.1-.2.1z" fill="#e2d59d"/><path d="M10 12.1l.3-.1.1.1.1.1c0 .1-.1.1-.1.2v.1s-.3.4.3.9c-.1 0-.3.1-.4.2.1 0 .2 0 .2.1s.1.1.1.1l.1.1s-.1-.1-.2 0-.5 0-.5 0l-.8.1s0-.1-.1-.1c-.1-.1-.2 0-.3-.1-.2-.1-.2-.3-.2-.3.1 0 .2-.1.4-.1v-.1c0-.1.1-.1.1-.2 0 0 .1 0 .2-.1l.2-.2c.1 0 .1 0 .3-.1.1-.1.1-.2.1-.2s.1-.3.1-.4z" fill="#cbac5a"/><path d="M9.2 12.1h.1c.1 0 .8-.1.9-.1.2 0 .8 0 1.1.1s.6.1.8.2c.2 0 .2.1.2.1h-.1s-.5-.2-.7-.2-.7-.1-1-.1h-.6c-.2 0-.5.1-.7 0-.1.1 0 .1 0 0z" fill="#d6bc6f"/><path d="M10.7 13.7s.4.2.5.5c.1.2-.1.3-.1.3s.2 0 .2.1-.4.3-.6.4c-.3.1-.2.1-.4.1-.1 0-.5 0-.5.1-.1.1 0 .2 0 .2h.2s0 .1-.4.1c-.3 0-.4 0-.4.1h.6s-.1.1-.2.1c-.2.1-.5.1-.6.2 0 0 .1.1.2.1-.2 0-.3 0-.3.1H9s-.2.2-.3.2c-.1 0-.6.3-.8.3-.5-.1-.5-.6-.6-.7-.2-.1-.3.1-.4 0 .1 0 .1-.1.2-.1-.1 0-.5-.3-.5-.3 0-.1-.1-.2-.1-.3-.1-.1-.2-.3-.3-.5-.2-.3-.2-.5-.4-.7h.1l1.4.5 2.5.1.7-.9h.2z" fill="#dfc677"/><path d="M7 15.1c.1.1.2.1.2.2 0 0 .1-.1.2 0s.2 0 .3 0h.1l.1-.1c.1 0 .1 0 .2-.1h.2s.2.2.8 0c.6-.2.7-.3.8-.2 0 0 0-.1.2-.1 0-.1-.1-.3-.1-.3l-.7-.2h-.5l-1.1.2-.6.4-.1.2z" fill="#c4a859"/><path d="M6.6 14.7s0 .1.2.2.2.2.2.2l.1-.1s0-.1.1-.1h.3s0-.1.1-.1.1.1.2.1h.1s0-.2.1-.3c.1-.1.3 0 .3 0s0 .1.1.1h.2c.1 0 .1 0 .2.1 0 0 .1 0 .1-.1 0 0 .1 0 .2-.2l.1-.1c.1 0 .1 0 .3.1 0 0-.1 0-.1.1l.1.1s0 .1.1.1h.4c.1 0 .3.1.3.1h.1s.1 0 0 0h.1l.1-.1c.1 0 .1 0 .1-.1s-.1-.1-.1-.1l.1-.1c.1-.1.2-.2.2-.3 0-.3-.2-.3-.2-.3l-1.2.4-1.5-.1-1.4.5z" fill="#927d49"/><path class="st84" d="M5.6 11.3l-.1.2v.2c0 .1-.3.9-.2 1.2s.2.4.3.6v.5s0 .1.1.2.3.2.4.3c.1.1.3.4.5.4.1 0 .3 0 .4-.1.1-.1.2-.2.3-.2.1 0 .2-.1.3-.1H8c.1 0 .5.1.7.1.1 0 .3 0 .4-.1.3-.1.6-.2.8-.3.1 0 .2 0 .3-.1.2 0 .3-.1.4-.2-.1-.1-.1-.2-.5-.2s-.9.3-1.2.3-.4.1-.6 0c-.3-.1-.3-.2-.3-.2s-.2-.3-.3-.8 0-.9.3-1.2c.1-.1.1-.2.1-.2s.2-.3.1-.5c-.1-.3-.5-.2-.5-.2l-2.1.4z"/><path d="M5.9 12.1v.1c0 .1 0 .1.2.3.1.1.1.3.1.3s.1 0 .3-.1c.1-.1.2.1.2.1h.2l.3.3c.1-.1.2 0 .2-.1.1 0 .1-.1.1-.2 0 0 0-.1-.1-.1 0-.1-.1-.1-.1-.2s.1-.3.1-.3h-.3c-.2.1-1.2-.1-1.2-.1z" fill="#39331f"/><path d="M6.4 13s-.1-.1-.1-.6h.1c.1 0 .1.4 0 .6z" fill="#292311"/><path class="st65" d="M5.6 10.9s0-.1 0 0c0 0-.2.3 0 .8.1.5.5.8.9.8s.7-.2.9-.5c.1-.1.2-.3.3-.4.2-.2.3-.2.3-.4 0-.3-.3-.5-.9-.6-.5-.2-1-.1-1.2 0-.1 0-.2.1-.3.3z"/><path d="M7.3 13.1s0-.2.1-.2.1.1.1.1 0 .1-.1.1c-.1.1-.1 0-.1 0z" fill="#3f3824"/><path d="M7.1 12.5h.3c.1 0 .1.1.1.1h-.3c-.1 0-.1-.1-.1-.1z" fill="#2d2815"/><path class="st89" d="M8 12.5s-.1-.1-.2-.1h-.1s.1 0 .1.1v.1l.2-.1c-.1.1 0 0 0 0z"/><path d="M7 12.9s0-.1.1-.1.2.1.2.1l-.1.1s0-.1-.2-.1z" fill="#2d2816"/><path class="st91" d="M7.8 12.3s-.1.1-.2.1v-.1s.1-.1.2 0z"/><path class="st89" d="M8.1 12.4s.1 0 0 0c.1 0 .1 0 0 0 .1 0 .1.1 0 0 .1.1 0 .1 0 0 0 .1 0 .1 0 0 0 .1 0 0 0 0zm.3-.2s.1 0 0 0c.1 0 .1 0 0 0h.1v.1c0 .1 0 0-.1 0 .1 0 .1-.1 0-.1z"/><path class="st84" d="M7.8 12.5l.1.1c0-.1-.1 0-.1-.1 0 .1 0 0 0 0z"/><path class="st64" d="M7.7 12h.2v.1h-.1l.1.1h-.1c.1 0-.1-.1-.1-.2zm.2-.3c-.1 0 0 .2 0 .2.1.1.1.2.2.2h.1v-.6h-.1c-.1 0-.2.2-.2.2z"/><path class="st91" d="M7.8 12.7h-.1c-.1 0-.1.1-.1.1h.1s.1 0 .1-.1z"/><path class="st89" d="M7.9 12.9c0-.1 0-.1 0 0 0-.1 0-.1 0 0 0-.1 0-.1 0 0H8s0 .1-.1.1 0-.1 0-.1zm.4-.1s-.1 0 0 0c-.1 0-.1 0 0 0s.1-.1.1-.1v.1c0 .1 0 .1-.1 0 0 .1 0 0 0 0zm.4-.1l-.1.1h-.1s0-.1.1-.1h.1c.1 0 .1 0 0 0 .1 0 0 0 0 0zm.2-.6s-.1.1 0 0c-.1.1-.1.1 0 0-.1.1-.1 0 0 0-.1 0-.1 0 0 0-.1 0-.1-.1 0 0V12H9c0 .1-.1.1-.1.1s0 .1 0 0zm-.5 1.2h.1c.1-.1 0-.1-.1 0 .1-.1.1-.1 0 0 .1-.1.1-.1 0 0 0-.1 0-.1 0 0zm-.2.2c.1 0 .1.1.1.1l-.1-.1c0 .1 0 0 0 0zm-.2-.3c.1 0 .1 0 0 0 .1 0 .1 0 0 0 .1 0 .1 0 0 0 .1-.1.1-.1.1 0v.1s0 .1-.1.1h-.1c.1-.1.1-.1.1-.2z"/><path class="st84" d="M8.1 13.2c0 .1 0 .1 0 0 0 .1 0 .1 0 0 0 .1 0 0 0 0z"/><path class="st64" d="M7.8 13.1s.1 0 0 0c.1 0 .1.1 0 0 .1.1.1.1 0 .1 0 0-.1 0 0-.1-.1.1-.1 0 0 0z"/><path class="st91" d="M7.8 13.1s-.1.1 0 0l-.2.2-.1.1c0 .1.1.1.2.1h.1c0-.1-.1-.1-.1-.2s-.1-.1 0-.1c.1.1.1 0 .1-.1 0 .1 0 0 0 0z"/><path class="st65" d="M5.6 13.3c.1 0 .4-.1.7-.1.2 0 .5.1.7.1.4.1.9.3 1.2.4.1 0 .2.1.2.1.3.2.3.2.4.2.2 0 .3 0 .5-.1.2 0 .6-.1.9-.1.1 0 .2 0 .3-.1 0 0-.3.3-.9.4h-.8c-.2 0-.3 0-.4-.1-.1 0-.3-.1-.6-.2-.2-.1-.4-.1-.7-.1-.6-.1-1.3-.3-1.5-.4z"/><path fill="none" d="M5.2 10.8L3.6 9.3"/><path class="st3" d="M4.9 12.1c-.2.1-.3.3-.5.4l-.5.4c-.2.1-.3.2-.5.4-.2.1-.3.2-.5.3.2-.1.3-.3.5-.4.2-.1.3-.2.5-.4l.5-.4c.1-.1.3-.2.5-.3zM4 13.5s.2-.1.4-.3c.3-.3.6-.6.7-.6l-1.1.9z"/><path class="st3" d="M4 13.5l.3-.3.1-.1.1-.1.3-.3.1-.1.1-.1h.1l-.1.1-.1.1-.1.1c-.1.1-.2.2-.3.2l-.3.3-.2.2zm1.2-.8s-.6.6-.8.7l.8-.7z"/><path class="st3" d="M5.2 12.7l-.2.2-.2.1-.2.2-.2.2.2-.2.2-.2.2-.1c0-.1.1-.2.2-.2zm0 .3c-.1.2-.1.3-.2.5-.2.3-.4.7-.5.9l.7-1.4z"/><path class="st3" d="M5.2 13v.2c0 .1 0 .1-.1.2 0 .1-.1.1-.1.2s-.1.1-.1.2l-.2.3c-.1.1-.1.2-.2.3 0-.1.1-.2.2-.4.1-.1.1-.2.2-.3 0-.1.1-.1.1-.2v-.1c0-.1.1-.1.1-.2s.1-.1.1-.2z"/><path d="M5.9 14.6s-.2.3-.2.6c.1-.2.1-.4.2-.6zm.2.3s-.1.7-.1 1c0-.4 0-.4.1-1zm1.2 1S7 16.7 7 17c.1-.2.2-.7.3-1.1z" fill="#dec270"/><path d="M8 14.6s.5.8.8 1.4c-.1-.4-.3-1-.8-1.4z" fill="#cbaf59"/><path d="M9.3 15.7c.3.5.5.9.7 1.4-.1-.3-.2-.9-.7-1.4z" fill="#e3c677"/><path d="M13 16.8c.1 0 .2-.3.4-.4.1-.1.2-.1.4-.2.1-.1.2-.2.4-.3.4-.2.1-.4.1-.4l.1-.1c.1-.1.2-.2.2-.3 0-.3-.1-.6-.3-.9.2 0 .6-.1.8-.1.3-.1.4-.2.4-.2s-.2-.3.1-.6c.3-.3.5-.4.6-.8-.2 0-.5-.1-1.2.1 0 0 .1 0 .1.1 0 0-.4.1-.6.3-.3.2-.3.4-.6.6s-.6.1-.9.2c-.3.1-.3.2-.4.3v.1s-.2.3-.3.3c0 .1.1.1.1.1s-.1.1-.3.1c.1.1.2.2.5.4 0 0-.1.1-.1.2s.2.2.6.3c-.2 0-.5.1-.8 0-.4 0-.4-.1-.6 0 0 0 .1 0 .1.1-.1 0-.4 0-.5.1-.1.2-.2.4-.2.6-.1 0-.1.1-.1.2s.2.2.3.2c.1.1.1.1.2.1s.3-.1.4-.1.2.1.2.1l.3-.1v.2c.2 0 .5-.1.6-.2z" fill="#ecd592"/><path d="M18.6 9c-1.2-3.1-4.2-3.7-4.2-3.7H5.8v3.2h1.7v7.1H5.8v3.2h8.3c2 0 3.6-2 3.6-2 2.6-3.6.9-7.8.9-7.8zm-4.4 5.7s-.7.9-1.4.9h-1.4V8.5h1.8s.8.2 1.4 1.8c0 .1.8 2.5-.4 4.4z" fill="#fff" fill-opacity=".8"/></g></g></g></svg>