<svg xmlns="http://www.w3.org/2000/svg" viewBox="0 0 21.599 24"><path d="M10.575.058a.454.454 0 01.446 0l9.87 5.541a.432.432 0 01.001.754l-8.586 4.841a1.989 1.989 0 00-1.168-.648V7.914c.93-.155 1.639-.942 1.639-1.894 0-1.062-.883-1.924-1.974-1.924S8.83 4.959 8.83 6.021c0 .946.702 1.73 1.625 1.891v2.637a1.988 1.988 0 00-1.152.643L.719 6.372a.43.43 0 01-.002-.754L10.576.061M20.92 7.042a.454.454 0 01.446-.001c.137.076.223.22.224.377l.008 10.759a.431.431 0 01-.223.377l-9.558 5.388c-.296.168-.668-.042-.668-.377l-.008-9.231a1.982 1.982 0 001.184-.666l2.388 1.338a1.862 1.862 0 00-.044.754c.151 1.052 1.151 1.784 2.23 1.637 1.08-.149 1.831-1.122 1.68-2.174s-1.152-1.784-2.231-1.636a1.97 1.97 0 00-1.346.812l-2.34-1.312a1.845 1.845 0 00-.03-1.374l8.289-4.673M.01 7.416c0-.254.214-.436.446-.436.078 0 .156.02.223.06l8.298 4.677a1.853 1.853 0 00-.028 1.368L6.61 14.397a1.969 1.969 0 00-1.346-.812c-1.08-.149-2.077.584-2.23 1.636-.152 1.051.6 2.024 1.68 2.173 1.08.149 2.076-.584 2.23-1.636a1.867 1.867 0 00-.044-.755l2.387-1.338c.299.35.714.586 1.172.665l-.007 9.234c0 .335-.372.544-.67.376L.223 18.552A.434.434 0 010 18.175L.01 7.416" fill="#f55749"/></svg>