<svg xmlns="http://www.w3.org/2000/svg" viewBox="0 0 24 21.402"><path d="M24 7.125L12 0 0 7.1l11.875 7.2L24 7.125zM12 1.151l10.05 5.975-10.175 6-9.95-6L12 1.151zM23.2 14.15l-1.325-.8a.506.506 0 00-.2-.05.356.356 0 00-.238.1.317.317 0 00-.112.25.31.31 0 00.05.175.45.45 0 00.125.125l.8.5-10.425 6.175L1.65 14.45l.8-.475a.29.29 0 00.138-.125.386.386 0 00.037-.175c0-.1-.033-.188-.1-.262a.32.32 0 00-.25-.112.381.381 0 00-.1.013.175.175 0 00-.075.037l-1.3.8a.45.45 0 00-.125.125.31.31 0 00-.05.175.31.31 0 00.05.175.45.45 0 00.125.125l10.9 6.601a.155.155 0 00.075.037.381.381 0 00.2 0 .175.175 0 00.075-.037l11.15-6.601a.23.23 0 00.125-.112.375.375 0 00.05-.188.31.31 0 00-.05-.175.45.45 0 00-.125-.125v-.001zm0-3.624l-1.325-.8a.506.506 0 00-.2-.05.356.356 0 00-.238.1.317.317 0 00-.112.25c0 .067.017.125.05.175s.075.091.125.125l.8.5-10.425 6.175L1.65 10.826l.8-.475a.273.273 0 00.138-.138.41.41 0 00.037-.162c0-.1-.033-.188-.1-.262a.32.32 0 00-.25-.112.381.381 0 00-.1.013.165.165 0 00-.075.037l-1.3.8a.45.45 0 00-.125.125.31.31 0 00-.05.175.31.31 0 00.05.175.45.45 0 00.125.125l10.9 6.601a.155.155 0 00.075.037.381.381 0 00.2 0 .175.175 0 00.075-.037l11.15-6.601a.45.45 0 00.125-.125.31.31 0 00.05-.175.31.31 0 00-.05-.175.45.45 0 00-.125-.125v-.001z" fill="#32c6f4"/></svg>