<svg xmlns="http://www.w3.org/2000/svg" viewBox="0 0 24 22.299"><path d="M1.63 7.924l10.501 6.617a.02.02 0 00.023 0l10.713-6.767a.02.02 0 00.007-.028l-.001-.001a.009.009 0 00-.006-.006L12.252.974a.02.02 0 00-.023 0L1.63 7.888a.02.02 0 00-.004.03l.001.001c0 .002.002.003.003.005zm10.501 14.375a.722.722 0 01-.393-.116L.492 14.941a.023.023 0 010-.029l.479-.745a.023.023 0 01.029 0l11.126 7.166a.02.02 0 00.023 0l10.545-6.775a.835.835 0 00.387-.708v-1.668a.023.023 0 00-.023-.021.036.036 0 00-.01.002l-10.65 6.783a.728.728 0 01-.78 0L.856 12.099A1.823 1.823 0 010 10.553V8.219c0-.189.073-.37.204-.505l.036-.03.207-.141L11.863.103l.012-.007a.725.725 0 01.75.018l11.037 7.031a.728.728 0 010 1.23l-11.131 7.028a.73.73 0 01-.774 0L.959 8.604a.021.021 0 00-.029.007.014.014 0 00-.002.011v1.929a.905.905 0 00.418.765l10.652 6.771a.02.02 0 00.023 0l10.865-6.931a.724.724 0 01.876.072c.155.147.24.354.233.567v2.047a1.766 1.766 0 01-.813 1.492l-10.664 6.852a.746.746 0 01-.387.113z" fill="#32c6f4"/></svg>