<svg xmlns="http://www.w3.org/2000/svg" viewBox="0 0 17.3 24"><path d="M14.1 11.1c.7-.3 1.2-.8 1.5-1.4s.5-1.4.4-2.3c-.1-1.3-.7-2.2-1.7-2.8-1-.5-2.2-.9-3.7-1V0H8.5v3.5H6.7V0H4.5v3.6H0V6h1.6c.5 0 .8.1 1 .3.2.2.3.5.3.7v9.9c0 .2-.1.4-.3.5-.2.1-.3.2-.5.2H.5L0 20.3h4.5V24h2.2v-3.7h1.8V24h2.2v-3.7c.9 0 1.8-.2 2.6-.3.8-.2 1.5-.4 2-.8s1-.8 1.4-1.4c.4-.6.6-1.3.7-2.2.1-1.4-.1-2.4-.7-3.1-.7-.6-1.5-1.1-2.6-1.4zM6.8 6.2h1.3c.6 0 1.2 0 1.7.2.6.1 1.1.3 1.5.7.4.3.7.8.7 1.5 0 .6-.2 1.1-.7 1.4-.4.3-.9.5-1.5.7-.6.1-1.1.2-1.7.2H6.7l.1-4.7zm-.1 11.5v-4.9h1.6c.7 0 1.4 0 2.1.2s1.3.4 1.8.7c.5.3.8.9.8 1.6 0 .7-.3 1.2-.8 1.5-.5.4-1.1.6-1.8.7-.7.1-1.4.2-2.1.2H6.7z" fill="#f7931a"/></svg>