<svg version="1.1" id="Layer_1" xmlns="http://www.w3.org/2000/svg" x="0" y="0" viewBox="0 0 1953 2500" xml:space="preserve"><style>.st0{fill:#00b6d0}</style><path class="st0" d="M1139.8 2467.4c-1.5 0-3-.5-4.4-1.5-1-1-2-2.5-2.5-4l-32.6-128.9c-.5-1.5-.5-3 0-4 .5-1.5 1-2.5 2.5-3.5 1-1 2.5-1.5 3.5-1.5 1.5 0 2.5 0 4 .5l205.5 109.7c1.5.5 2.5 1.5 3 3s1 3 .5 4.4c-.5 1.5-1 3-2 4s-2.5 1.5-4 2l-172.9 19.8h-.6zm-21.8-123.6l27.7 108.2 144.3-16.8-172-91.4zm85-302.8c-1.5 0-3-.5-4.4-1.5l-296.9-252c-1-1-2-2.5-2.5-4s0-3 .5-4.4c.5-1.5 1.5-2.5 3-3.5s3-1 4.4-.5l387.8 63.2c1 0 2 .5 3 1.5 1 .5 1.5 1.5 2 2.5s1 2 1 3-.5 2.5-1 3L1209 2037c-.5 1-1 2-2 2.5l-3 1.5h-1zm-272.7-247l270.7 229.7 83-171.9-353.7-57.8zM210 1140.3c-1 0-2.5-.5-3.5-1s-2-1.5-2.5-2.5-1-2.5-1-3.5.5-2.5 1-3.5L342.8 866c.5-1.5 1.5-2.5 2.5-3s2.5-1 4-.5c1.5 0 2.5.5 3.5 1.5s2 2 2.5 3l90.4 247.5c.5 1 .5 2 .5 3.5 0 1-.5 2-1 3s-1.5 1.5-2.5 2.5c-1 .5-2 1-3 1l-229.2 16.3h-.5v-.5zm137.8-253.9L222.3 1125l208-14.8-82.5-223.8z"/><path class="st0" d="M349.3 876h-1.5l-233.7-45.9c-1.5-.5-2.5-1-3.5-2s-1.5-2.5-1.5-4 0-3 1-4.4c1-1.5 2-2.5 3-3l183.3-78.1L330 377c0-2 1-3.5 2.5-4.4s3-2 4.4-2 3.5.5 4.4 2c1.5 1.5 2 3 2 4.4l15.3 200.6v2.5l-48.9 163 45 123.5c.5 1 .5 2.5.5 3.5 0 1.5-.5 2.5-1.5 3.5-.5 1-1.5 1.5-2.5 1.5.1.9-.9.9-1.9.9m-209.5-55.3l198.6 39-39.5-107.2-159.1 68.2zM336.5 457l-20.8 218.4 29.6-98.3-8.8-120.1z"/><path class="st0" d="M210 1140.8c-1.5 0-3-.5-4-1.5s-2-2-2.5-3.5L110.1 825c-.5-1.5-.5-3 0-4 .5-1.5 1-2.5 2-3.5s2-1.5 3.5-1.5 2.5 0 4 .5l181.3 91.4c1.5 1 3 2 3.5 4 .5 1.5.5 3.5 0 5.4L217 1136.2c-.5 1.5-1.5 2.5-3 3.5-1.1.6-2.5 1.1-4 1.1m-82.5-304.3l83.5 275.7 77.6-194.7-161.1-81zM302.4 750c-1.5 0-3.5-.5-4.4-2-1-1-1.5-2-2-3.5s-.5-3 0-4l50.4-165c0-1 .5-2 1.5-2.5.5-1 1.5-1.5 2.5-1.5L507.9 502c1.5-.5 3-1 4.4-.5 1.5.5 2.5 1 3.5 2.5s1.5 2.5 1.5 4.4c0 1.5-.5 3-1 4.4L394.3 711c-.5 1.5-1.5 2-3 2.5l-85 37.5c-1.5-1-2.5-1-3.9-1zm55.8-167l-44 147.7 70.2-30.6 108.7-176.4L358.2 583z"/><path class="st0" d="M297.4 921.5c-1 0-2 0-3-.5l-181.3-91.4c-1.5-1-2.5-2-3.5-3.5-.5-1.5-1-3.5 0-4.9.5-1.5 1.5-3 3-4s3-1.5 4.4-1l233.7 45.9c1.5 0 2.5 1 3.5 2s1.5 2 2 3.5.5 2.5 0 4-1 2.5-2 3.5L302.4 921c-1.5 0-3.5.9-5 .5M165 839.9l131.4 66.2L334 873l-169-33.1z"/><path class="st0" d="M929.3 2221.8h-2.5L672.9 2122c-1-.5-2-1-2.5-2-1-1-1.5-1.5-1.5-3-.5-1-.5-2 0-3.5s.5-2 1.5-3l153.7-216.9c1-1.5 2-2 3.5-2.5s3-.5 4.4 0l372.5 134.9c1 .5 2.5 1 3 2 1 1 1.5 2.5 1.5 3.5 0 1.5 0 3-.5 4s-1.5 2-2.5 3l-272.7 180.8c-1.5 2-2.5 2.5-4 2.5m-242.6-110.2l242.1 95.4 256.9-170.9-353.7-128-145.3 203.5zm-57.3-399.7h-2l-330-97.3c-1-.5-2-1-2.5-2l-1-1c-1-1.5-1-3-1-4.4 0-1.5 1-3 1.5-4L495.5 1374c.5-.5 1.5-1 2-1.5 1-.5 1.5-.5 2.5-.5l148.7-8.4c1 0 2 0 3 .5s1.5 1 2.5 1.5c1.5 1.5 2 3 2 4.9v212.9L636.3 1706c0 1-.5 2-1 3s-1 1.5-2 2c-.9.4-2.4.9-3.9.9m-290-99.8l285.1 83.5 17.3-105.7-302.4 22.2zm164.5-226.7l-187.7 213.9 327.1-24.2v-197.6l-139.4 7.9zM210 1140.3c-1 0-2 0-3-.5-1.5-1-3-2-3.5-4-.5-1.5-.5-3.5 0-5.4L291 911.6c.5-1 1-1.5 1.5-2.5l51.9-45.9c1.5-1 3-1.5 4.4-1.5 1.5 0 3 .5 4.4 1.5 1.5 1 2 2.5 2.5 4s0 3.5-.5 4.9l-139.3 264.3c-.5 1-1.5 2.5-2.5 3-1 .4-2.4.9-3.4.9m93.3-220.8l-38 94.9 60.8-114.6-22.8 19.7z"/><path class="st0" d="M788.5 2412.5c-2 0-3.5-1-4.9-2l-210.5-218.9c-.5-1-1-1.5-1.5-2.5s-.5-2-.5-3 .5-2 1-3 1-1.5 2-2.5l91.9-68.7c0-1.5 0-3 1-4.4 1-1.5 2-2.5 4-3 1.5-.5 3-.5 4.4 0L931.3 2208c1 .5 2 1 3 2s1.5 2 1.5 3.5v3.5c-.5 1-1 2.5-2 3l-63.2 63.2-75.6 126c-.5 1-1.5 1.5-2 2.5-1 .5-2 1-3 1l-1.5-.2zm-199.1-224.8L788 2394.2l68.7-114.6L676.9 2123l-87.5 64.7zm120.6-54.3l155.6 135.4 51.9-51.4-207.5-84z"/><path class="st0" d="M1030.6 2500h-2.5l-241.6-87.4c-1.5-.5-3-1.5-3.5-3-1-1.5-1-3-1-4.4 0-1.5 1-3 2-4.4 1-1 2.5-1.5 4-2l193.7-18.3c1.5 0 3 0 4 1 1.5 1 2 2 3 3l47.9 105.7c.5 1.5 1 3 .5 4 0 1.5-1 2.5-1.5 3.5-.5.5-1.5 1.5-2.5 1.5-1 .8-1.5.8-2.5.8m-209.5-90.5l196.1 71.1-39-85-157.1 13.9zm318.7 57.9c-1.5 0-2.5-.5-3.5-1.5l-274.7-182.3c-1-.5-1.5-1.5-2-2-.5-1-1-2-1-3s0-2 .5-3l1.5-3 64.2-63.7c1-1 2.5-2 4-2s3 .5 4.4 1l177.4 117.1c1.5 1 2.5 2.5 3 4l32.6 128.9v3.5c0 1-.5 2-1.5 3-.5 1-1.5 1.5-2.5 2-.4.5-1.9 1-2.4 1zm-262.9-190.3l252.5 167-27.7-108.7-170.9-112.2-53.9 53.9z"/><path class="st0" d="M788.5 2412.5c-1 0-2.5-.5-3.5-1s-2-1.5-2.5-3c-.5-1-1-2.5-1-3.5 0-1.5.5-2.5 1-3.5l76.6-127c.5-1 1-1.5 2-2.5 1-.5 1.5-1 3-1h3c1 .5 2 1 2.5 1.5l117.1 109.2c1 1 1.5 2 2 3.5s0 3 0 4c-.5 1.5-1 2.5-2 3-1 1-2.5 1.5-3.5 1.5l-194.7 18.8zm78.1-123.5l-64.7 107.7 164.5-15.3-99.8-92.4z"/><path class="st0" d="M1139.8 2467.4c-1 0-2 0-3-.5l-157.1-73.1c-.5-.5-1.5-.5-1.5-1l-117.1-109.7c-1.5-1-2-3-2-4.4 0-2 .5-3.5 1.5-4.9 1-1.5 2.5-2.5 4-3s3.5 0 4.9 1l274.7 182.3c1.5 1 2 2 3 3.5.5 1.5.5 3 0 4.4-.5 1.5-1.5 3-2.5 4s-2.5 1.5-4 1.5h-.9v-.1zm-153.7-86.5l72.1 33.6-125.4-82.5 53.3 48.9z"/><path class="st0" d="M1030.6 2500c-1.5 0-2.5-.5-4-1-1-1-2-2-2.5-3l-47.9-105.7c-.5-1.5-.5-3-.5-4 .5-1.5 1-3 2-4s2-1.5 3.5-2c1.5 0 3 0 4 .5l157.6 73.1c1.5.5 2.5 1.5 3 3 1 1.5 1 3 1 4.4s-.5 3-1.5 4-2 2-3.5 2.5l-109.2 32.1h-2zm-34.1-98.4l37.5 82.5 86-25.7-123.5-56.8zm-838.9-704h-2c-1 0-1.5-.5-2.5-1.5-.5-.5-1.5-1.5-1.5-2l-19.8-40c-.5-1-.5-2-.5-3s0-2 .5-3 1-2 2-2.5 1.5-1.5 3-1.5l161.6-42.5c1.5-.5 3.5 0 4.9.5 1.5 1 2.5 2 3.5 3.5.5 1.5.5 3.5 0 4.9-.5 1.5-1.5 3-3 4l-141.8 83c-2.4.1-3.4.6-4.4.1m-9.9-42l12.4 25.2 90.4-52.9c0 .1-102.8 27.7-102.8 27.7z"/><path class="st0" d="M524.2 1889.3c-1 0-2 0-3-.5l-367.1-191.7c-1-.5-2-1.5-3-2.5-.5-1-1-2.5-1-3.5 0-1.5.5-2.5 1-3.5s1.5-2 2.5-2.5l142.3-82.5c1.5-1 3.5-1 4.9-1l330.5 96.3 3 1.5c1 1 1.5 1.5 2 3 .5 1 .5 2 .5 3s-.5 2-1 3l-105.2 178.4c-.5 1-1.5 2-2.5 2.5-.9.5-2.9 0-3.9 0m-352.3-199.1l349.8 182.3 96.8-164.5-318.2-92.9-128.4 75.1z"/><path class="st0" d="M295.4 2090.9H294c-1 0-2-1-3-1.5-1-1-1.5-2-2-3l-138.3-393.8c-.5-1.5-.5-3 0-4.4.5-1.5 1.5-2.5 2.5-3.5s2.5-1.5 4-1.5 3 .5 4 1.5l306.3 238.6c1 .5 1.5 1.5 2 2.5s1 2 1 3 0 2-.5 3-1 2-1.5 2.5L300 2088.4c-1.1 1.5-3.1 2.5-4.6 2.5m-124-380.4l127 361.2 154.1-141.8-281.1-219.4z"/><path class="st0" d="M463.4 1936.2c-1.5 0-3-.5-4-1.5l-306.3-238.6c-1.5-1-2.5-2.5-2.5-4.4-.5-2 0-3.5 1-4.9 1-1.5 2.5-2.5 4-3s3.5 0 4.9.5L527.7 1876c1 .5 2 1.5 2.5 2.5s1 2 1 3.5 0 2.5-.5 3.5-1.5 2-2.5 3l-61.3 46.9c-1 .3-2.5.8-3.5.8m-241.1-203.5l240.6 187.7 47.9-36.6-288.5-151.1z"/><path class="st0" d="M578.5 2194.6c-1.5 0-2.5-.5-3.5-1s-2-2-2.5-3L457 1932.8c-.5-1.5-1-3-.5-4.9.5-1.5 1.5-3 2.5-4l61.3-46.9 3-1.5c1 0 2.5 0 3.5.5s2 1 3 2c.5 1 1 2 1.5 3.5l54.3 304.8c0 1.5 0 3.5-1 4.9s-2 2.5-4 3c-.6-.1-1.1.4-2.1.4m-106.7-263.3l90.4 202.1-42.5-239.1-47.9 37z"/><path class="st0" d="M1106.2 2339.9c-2 0-3.5-1-4.9-2-1-1-1.5-2-2-3.5s0-2.5 0-4l95.4-299.4c.5-1 .5-1.5 1.5-2.5.5-.5 1.5-1.5 2-1.5 1-.5 1.5-.5 2.5-1 1 0 2 0 3 .5l392.8 127.5c1.5.5 2.5 1.5 3.5 2.5s1.5 2.5 1.5 4.4c0 1.5-.5 3-1.5 4-1 1.5-2 2-3.5 2.5l-488.1 171.9c-.7.1-1.2.6-2.2.6M1206 2042l-88.9 279.6 455-160.1L1206 2042zm-627 151.6h-2l-283.6-102.8c-1-.5-2-1-3-2s-1.5-2-1.5-3.5v-3.5c.5-1 1-2.5 2-3l167.5-154.6c1-1 2-1.5 3-1.5h3c1 0 2 .5 3 1.5 1 .5 1.5 1.5 2 2.5l115.1 256.9c.5 1.5 1 3 .5 4 0 1.5-1 2.5-2 4-.5.5-1.5 1.5-2 1.5-.5.5-1 .5-2 .5M308.8 2081l256.9 93.4-105.2-233.7L308.8 2081z"/><path class="st0" d="M1567.1 2372c-1.5 0-3-.5-4-1.5-1-.5-2-1.5-2.5-3-.5-1-.5-2.5-.5-4l26.2-198.1-387.2-125.4c-1.5-.5-3-1.5-3.5-3-1-1.5-1.5-3-1-4.4 0-1.5 1-3 2-4.4 1-1 2.5-2 4-2l303.8-34.1c1.5 0 2.5 0 4 .5 1 .5 2 1.5 3 3l87 158.1 347.3-14.3c1.5 0 3 .5 4 1.5 1.5 1 2 2.5 2.5 4 0 1.5 0 3-.5 4.4-.5 1.5-1.5 3-3 3.5l-378.9 218.9c-.2.3-1.2.3-2.7.3m33.6-204.5l-24.7 184.3 341.9-197.6-317.2 13.3zm-365.6-131l344.9 111.7-78.6-141.8-266.3 30.1z"/><path class="st0" d="M1312.7 2447.1c-1.5 0-2.5-.5-3.5-1s-2-1.5-2.5-3-1-3-.5-4.4c.5-1.5 1-3 2.5-4l128-107.7c1-1 1.5-1.5 3-1.5 1-.5 2 0 3 0l127 32.1c1.5.5 3 1 4 2.5 1 1 1.5 3 1.5 4.4 0 1.5-.5 3-1.5 4.4-1 1.5-2 2-3.5 2.5l-254.9 75.1c-1.6.6-2.1.6-2.6.6m129.4-106.7l-99.3 83.5 197.6-58.3-98.3-25.2zm-335.9 0c-1.5 0-2.5-.5-3.5-1.5l-177.4-118.6c-1-.5-2-1.5-2.5-2.5s-1-2.5-1-3.5c0-1.5 0-2.5 1-3.5.5-1 1.5-2 2.5-2.5l272.2-180.8c1-1 2.5-1.5 4-1.5s3 .5 4 1.5 2 2 2.5 3.5.5 3 0 4.4l-95.4 298.9-1.5 3c-.5 1-1.5 1.5-2.5 1.5-1 .5-1.5.5-2.5.5v1.1zm-164-126l160.6 107.7 86.5-271.2-247.1 163.5zm652.1-46.4c-1.5 0-2.5-.5-3.5-1s-2-1.5-2.5-2.5l-89.4-161.6c-.5-1.5-1-3-1-4 0-1.5.5-3 1.5-4s2-2 3.5-2.5 3-.5 4 0l441.2 145.7c1.5.5 3 1.5 3.5 3 1 1.5 1.5 3 1 4.9 0 1.5-1 3-2 4.4-1 1-3 2-4.4 2l-351.8 14.8v.8zm-74.6-156.7l78.6 141.8 308.8-12.8-387.4-129z"/><path class="st0" d="M1567.1 2372h-1.5l-127-32.1c-1.5 0-2.5-1-3.5-1.5-1-1-1.5-2-2-3.5s-.5-2.5 0-4 1-2.5 2-3.5l154.1-171.9c1-1 2.5-2 4-2 1.5-.5 3 0 4.4.5s2.5 1.5 3 3 1 3 .5 4.4l-27.2 204c0 1-.5 2-1 3s-1 1.5-2 2c-.8 1.1-2.3 1.6-3.8 1.6m-113.6-43.5l108.2 27.7 23.2-173.9-131.4 146.2z"/><path class="st0" d="M1312.7 2447.1c-1 0-2-.5-3-.5l-208-107.7c-1.5-1-2.5-2-3-3.5s-1-3-.5-4.9c.5-1.5 1-3 2.5-4s2.5-1.5 4.4-1.5h1l487.1-171.4c1.5-.5 3-.5 4.4 0 1.5.5 3 1.5 3.5 3 1 1.5 1.5 3 1 4.4 0 1.5-1 3-1.5 4.4l-154.1 171.9-.5.5-128.9 107.7c-1.4 1.1-2.9 1.6-4.4 1.6m-178.8-107.2l178.4 91.9 109.7-91.9h-288.1zm14.3-14.3h289.5l133.4-149.2-422.9 149.2zm55.3-284.1h-2.5l-374-135.9c-1-.5-2-1-2.5-2-1-1-1.5-1.5-1.5-3-.5-1-.5-2 0-3.5 0-1 .5-2 1-3l76.6-116.6c.5-1 1.5-1.5 2-2 1-.5 1.5-1 2.5-1h3c1 0 1.5.5 2.5 1l296.9 252c1 1 1.5 2 2 3.5 0 1.5 0 2.5-.5 4s-1.5 2.5-2.5 3c-1 1-2.5 1.5-3.5 1.5l.5 2zm-362.1-146.3l327.6 119.1L907.6 1793l-66.2 102.2z"/><path class="st0" d="M829.5 1906.1c-1 0-1.5 0-2.5-.5s-1.5-1-2-1.5l-200.6-194.7c-1-1-2-2.5-2-4s0-3 1-4.4c.5-1.5 2-2.5 3.5-3s3-.5 4.4-.5l277.2 78.6 3 1.5c1 1 1.5 1.5 2 3 .5 1 .5 2.5.5 3.5s-.5 2-1 3l-78 116c-.5 1-1.5 1.5-2 2-1 .5-2 .5-3 1h-.5zm-175.4-187.2l174.4 169.5 66.7-100.8-241.1-68.7z"/><path class="st0" d="M675.9 2121.5h-2c-1.5-.5-2.5-1-3.5-2.5s-1.5-2.5-1.5-4l-46.4-410.6c0-1.5 0-3 .5-4.4.5-1.5 1.5-2.5 3-3s3-1 4-.5c1.5 0 3 1 4 2l200.6 195.2c1 1.5 2 3 2 4.4 0 1.5-.5 3.5-1.5 4.9L681 2118.4c-.5 1-1.5 1.5-2.5 2-.7 1.1-1.6 1.1-2.6 1.1m-38.1-399.7l42.5 374 139.8-196.1-182.3-177.9z"/><path class="st0" d="M675.9 2121.5c-1 0-2 0-3-1-1-.5-2-1.5-2.5-2.5l-151.7-232.2c-.5-1-1-2.5-1-4s.5-3 1-4L624 1699.6c.5-1.5 2-2.5 3-3 1.5-.5 3-.5 4-.5 1.5.5 2.5 1 3.5 2s1.5 2.5 1.5 4l46.9 411.1c0 1.5 0 3-1 4.4-1 1.5-2 2.5-3.5 3-.6.9-1.5.9-2.5.9m-143.3-239.6l133.4 204-41.5-361.6-91.9 157.6z"/><path class="st0" d="M578.5 2194.1H576c-1-.5-2-1-3-2s-1.5-2-1.5-3l-54.8-304.8v-2c0-1.5.5-3 1-4 1-1 2-2 3-2.5 1.5-.5 3-.5 4.4 0 1.5.5 3 1.5 3.5 3L680.8 2111c1 1 1 2.5 1 4 0 1-.5 2.5-1 3.5s-1 2-2 2.5l-95.8 72.6c-1.5.5-3 1-4.5.5M537 1914.5l46.9 260.9 83-62.3L537 1914.5zm-399.2-256.4h-2c-1-.5-2-1-2.5-2-.5-.5-.5-.5-1-1.5v-1L.5 1271.2c-.5-1.5-.5-3 0-4.4s1.5-3 2.5-3.5l130.4-106.7c1.5-1 3-1.5 4.4-1.5 1.5 0 3 .5 4.4 1.5l195.2 186.8.5 1c.5.5 1 1.5 1.5 2.5v3l-33.1 258.9c0 1.5-1 3-2 4s-2 2-3.5 2.5l-161.1 43h-1.9v-.2zm184.3-279.6l-168.5 260.4 140.3-36.6 28.2-223.8zM15.3 1271.2l124.5 364.1 184.3-285.1-186.8-178.8-122 99.8z"/><path class="st0" d="M299.4 1614.6c-1 0-2 0-3-.5-1.5-.5-2.5-1.5-3-3s-1-3-.5-4.4l33.1-258.9c0-1 .5-2 1-2.5.5-1 1-1.5 2-2 1.5-1 3.5-1.5 5.4-1.5l168 30.1c1 0 2.5 1 3 1.5 1 1 1.5 2 2 3 .5 1.5.5 2.5 0 4s-1 2.5-1.5 3.5l-201.6 229.2c-.5.5-1.5 1-2 1.5h-2.9m39-257.9L308.8 1586l177.9-202.6-148.3-26.7z"/><path class="st0" d="M501 1386.4h-1l-168.5-30.1c-1.5-.5-2.5-1-3.5-2L132.9 1167c-1-1-2-3-2-4.4 0-1.5.5-3.5 1.5-4.9 1-1.5 2.5-2.5 4-3s3.5 0 4.9 1l363.6 216.9c1.5 1 2.5 2 3 3.5s.5 3 0 4.9c-.5 1.5-1.5 2.5-2.5 3.5-1.5 1.4-2.9 1.9-4.4 1.9m-165-44l128.5 22.7-277.2-165.5L336 1342.4z"/><path class="st0" d="M501 1386.4c-1 0-2.5-.5-3.5-1l-363.6-216.9c-1-.5-2-1.5-2.5-3-.5-1-1-2.5-1-4s.5-2.5 1.5-4c1-1 2-2 3-2.5l71.6-29.1h2l229.7-16.3h3l200.6 73.6c1 .5 2 1 3 2 .5 1 1.5 2 1.5 3s.5 2 0 3.5c0 1-.5 2-1.5 3l-138.3 188.7c-.5 1-1.5 1.5-2.5 2s-2 1-3 1M153.7 1163l345.8 206.5 129.4-176.4-190.7-69.7-227.8 16.3-56.7 23.3z"/><path class="st0" d="M1203 2041.5c-1 0-2.5-.5-3.5-1s-2-1.5-2.5-2.5-1-2-1-3.5 0-2.5.5-3.5l91.4-188.7c.5-1 1-1.5 2-2.5 1-.5 1.5-1 2.5-1.5l267.3-67.2c1.5-.5 3 0 4.4.5 1.5.5 2.5 2 3 3.5s1 3 .5 4.4c-.5 1.5-1.5 3-2.5 4L1206.5 2039c-.5 2-2 2.5-3.5 2.5m95.9-189.7l-77.6 161.1 305.8-218.9-228.2 57.8zM137.8 1169c-1.5 0-2.5-.5-3.5-1s-1.5-1.5-2.5-2.5c-.5-1-1-2-1-3l-21.7-337.9c0-1.5.5-3.5 1.5-4.9 1-1.5 2.5-2.5 4-2.5 1.5-.5 3.5 0 4.9 1s2.5 2.5 3 4l93.9 309.3c.5 1.5.5 3.5-.5 5.4-1 1.5-2 3-4 3.5l-71.6 28.7c-.5-.1-1.5.4-2.5-.1M127 882.4l17.3 269.8 57.3-23.7L127 882.4z"/><path class="st0" d="M1201.5 2040c-1.5 0-3-.5-4-1.5s-2-2-2.5-3.5-.5-3 0-4.4c.5-1.5 1.5-3 2.5-3.5l359.7-254.4c1-1 2.5-1 4-1s3 .5 4 1.5 2 2 2.5 3.5.5 3 0 4l-56.8 221.3c-.5 1.5-1 2.5-2 3.5s-2.5 1.5-4 2l-302.4 33.1h-1v-.6zm348.4-245.1l-321.6 227.8 270.7-29.6 50.9-198.2zm-769.8-154.1c-1.5 0-2.5-.5-3.5-1s-2-1.5-2.5-3L643.3 1374c-.5-1.5-1-3-.5-4.4 0-1.5 1-3 2-4 1.5-1 2.5-1.5 4-1.5s3 .5 4 1.5l173.9 118.6c1.5 1 2 2 3 3.5.5 1.5.5 3 0 4.4L786 1636.8c-.5 1.5-1 2.5-2.5 3.5-1 1-2.5 1.5-3.5 1.5v-1h.1zm-112.6-250l111.2 224.3 37.1-123-148.3-101.3z"/><path class="st0" d="M823.6 1496c-1.5 0-2.5-.5-4-1l-173.9-118.6c-1-.5-1.5-1.5-2-2-.5-1-.5-2-1-3l-9.4-179.8c0-1.5.5-3 1-4.4 1-1.5 2-2.5 3.5-3s3-.5 4.4 0c1.5.5 2.5 1.5 3.5 3l183.8 298.4c1 1.5 1 3 1 4.4 0 1.5-1 3-2 4.4-1 .5-1.5 1-2.5 1.5-.4.1-1.4.6-2.4.1m-167.5-129.4l144.3 98.3-152.2-248 7.9 149.7z"/><path class="st0" d="M501 1385.9c-1.5 0-2.5-.5-3.5-1s-2-1.5-2.5-3-1-2.5-.5-4c0-1.5.5-2.5 1.5-4l138.8-189.2c1-1 2-2 3.5-2.5s3-.5 4 0c1.5.5 2.5 1.5 3.5 2.5s1.5 2.5 1.5 4l9.4 180.3c0 1 0 2-.5 3s-.5 1.5-1.5 2.5c-.5.5-1.5 1.5-2 1.5-1 .5-1.5.5-2.5.5l-149.2 9.4zm133.4-176.4l-119.1 162.1 127-7.4-7.9-154.7z"/><path class="st0" d="M640.3 1197.6h-2.5l-201.6-74.1c-1.5-.5-2.5-1.5-3-2.5-1-1-1.5-2.5-1.5-4s.5-3 1-4c1-1.5 2-2 3-3l237.7-111c1-.5 2-1 3.5-1s2.5.5 3.5 1 1.5 1.5 2.5 2.5c.5 1 1 2 1 3.5v1.5l-36.1 184.8c0 1-.5 2-1 3s-1.5 1.5-2 2c-2 .3-3.5 1.3-4.5 1.3M457 1116.1l177.9 65.2 31.6-164-209.5 98.8z"/><path class="st0" d="M639.8 1198.1c-1 0-2 0-3-.5-1.5-.5-2.5-2-3-3.5s-1-3-.5-4.4c0 0 6.4-32.1 12.8-63.2l23.2-121.5c0-1.5 1-3 2-4s2.5-1.5 4-2l119.1-8.4c1.5 0 2.5.5 3.5 1s2 1.5 2.5 3 1 2.5 1 4-.5 3-1.5 4l-155.1 194.7c-2 .3-3.5.8-5 .8m42-185.7L658.6 1129l-6.9 35.6 127.5-159.1-97.4 6.9z"/><path class="st0" d="M676.4 1012.9c-1 0-2 0-3-.5s-1.5-1-2.5-2c-.5-1-1.5-2-1.5-3v-3.5l32.1-129.4c.5-1.5 1-2.5 2-3.5s2-1.5 3.5-2c1.5 0 2.5 0 4 .5 1 .5 2 1.5 3 2.5l86.5 120.5c.5 1 1 2.5 1.5 3.5 0 1.5 0 2.5-.5 3.5s-1.5 2-2.5 3c-1 .5-2 1-3.5 1.5l-119.1 8.9zm35-120.1L685.3 998l96.8-6.9-70.7-98.3z"/><path class="st0" d="M439.7 1123.5c-1 0-2.5 0-3.5-1-1-.5-2-1.5-2.5-2.5-1-1.5-1.5-3-1-4.9.5-1.5 1-3 2.5-4.4L704 870.1c1-1 2.5-1.5 4-1.5s3 0 4 1c1.5 1 2 2 3 3.5.5 1.5.5 3 .5 4.4l-32.1 128.9c0 1-.5 2-1.5 3-.5 1-1.5 1.5-2.5 2l-236.7 111.2c-1 .4-2 .9-3 .9m256.9-226.7L480.2 1090l190.2-89.4 26.2-103.8z"/><path class="st0" d="M439.7 1123.5h-2.5c-1-.5-2-1-3-2s-1.5-2-1.5-3.5l-8.9-50.4v-3c0-1 .5-2 1.5-2.5L752.9 614c1-1 2.5-1.5 3.5-2 1.5 0 3 0 4 .5 1.5.5 2.5 1.5 3 3s1 3 1 4.4L713.9 878c0 1.5-1 3-2 4l-267.3 240c-.5.5-1.5 1-2.5 1.5h-2.4m-1.5-55.8l5.9 35.1 258-230.8 44-224.8-307.9 420.5z"/><path class="st0" d="M780.1 1640.8h-2.5l-130.4-51.9c-1.5-.5-2.5-1.5-3-2.5-1-1-1.5-2.5-1.5-4v-211.9c0-1.5.5-3 1.5-4.4 1-1.5 2.5-2 4-2.5s3 0 4.4.5c1.5.5 2.5 2 3 3L786 1630.4c.5 1.5 1 3 .5 4 0 1.5-1 3-2 4-.5 1-1.5 1.5-2 2-.4.4-1.4.4-2.4.4m-124-63.7l109.7 43.5-109.2-220.8v177.4l-.5-.1zm138.3-571.7c-1 0-2-.5-3-1s-2-1.5-2.5-2L703 880c-.5-1-1-1.5-1.5-2.5v-3l48.9-253.9c0-1 1-2.5 1.5-3.5 1-1 2-1.5 3-2h.5l274.7-85c1.5-.5 3.5-.5 4.9.5 1.5.5 3 2 3.5 3.5s1 3.5 0 4.9c-.5 1.5-1.5 3-3 4L817.2 672.4 800.9 999c0 1.5-.5 3-1.5 4s-2 2-3.5 2.5c0 .4-1 .4-1.5-.1zm-78.5-130.9l72.6 103.8 15.3-306.8-42-36.6-45.9 239.6zm55.8-249l39.5 34.1 165.5-97.3-205 63.2z"/><path class="st0" d="M629.4 1711.9c-1.5 0-3-.5-4.4-1.5-1-1-1.5-2-2-3s-.5-2.5-.5-3.5l20.3-123c0-1 .5-2 1-3s1.5-1.5 2-2c1-.5 2-.5 3-.5s2 0 3 .5l129.9 51.4c1.5.5 2.5 1.5 3 2.5 1 1.5 1 2.5 1 4s-.5 3-1 4-2 2-3 2.5L631 1710.5c.4.5-.6.9-1.6 1.4m25.2-120.5l-16.3 100.8 124-57.8-107.7-43z"/><path class="st0" d="M906.1 1790h-2l-276.2-78.6c-1.5-.5-2.5-1-3.5-2.5-1-1-1.5-2.5-1.5-4s0-3 1-4.4c1-1 2-2.5 3-3l150.7-70.2c1.5-.5 3-1 4.4-.5 1.5.5 3 1 4 2L912 1778c1 1 1.5 2.5 1.5 4s0 3-1 4.4c-.5 1-1.5 1.5-2.5 2.5s-2.9 1.1-3.9 1.1m-256.4-87.4l236.2 67.2-107.7-127.5-128.5 60.3zm-218.9-629c-1 0-2 0-3-.5s-1.5-1-2.5-2l-1.5-3v-3l85.5-361.2 1.5-3c1-1 2-1.5 3-2l241.1-82.5c1.5-.5 3-.5 4.4 0 1.5.5 2.5 1.5 3.5 2.5s1.5 3 1.5 4.4-.5 3-1.5 4.4l-327.1 443.2c-.5 1-1.5 1.5-2 2-.9.2-1.9.7-2.9.7M522.2 711l-76.6 324.1 293.5-397.7L522.2 711z"/><path class="st0" d="M430.8 1073.6c-1.5 0-3-1-4.4-2-1-1-2-2.5-2-4.4L381.9 706v-3c0-1 1-2 1.5-2.5.5-1 1.5-1.5 2.5-1.5 1-.5 2-.5 3-.5h128c1 0 2 0 3 .5s1.5 1 2.5 2l1.5 3v3l-85.5 360.7c-.5 1.5-1 3-2.5 4.4-1.6.5-3.1 1.5-5.1 1.5m-35.1-361.1l37.1 314.7 74.6-314.7H395.7z"/><path class="st0" d="M439.2 1123.5c-1.5 0-3-.5-4-1.5s-2-2-2.5-3.5l-136.4-373c-.5-1.5-.5-3.5 0-5.4s2-3 3.5-4l84-36.6 108.7-175.9-137.3 60.8c-1.5.5-3.5 1-4.9 0-1.5-.5-3-1.5-4-3.5-1-1.5-1-3.5-1-4.9.5-1.5 1.5-3.5 2.5-4.4l307.8-240.1 3-1.5h3c1 .5 2 1 2.5 1.5 1 1 1.5 1.5 2 2.5l35.1 87c.5 1 .5 2 .5 3s0 2-.5 3-1 1.5-1.5 2.5c-.5.5-1.5 1-2.5 1.5l-180.8 80.5 5.9 192.2c0 2-.5 4-2 5.4s-3 2-4.9 2H396.2l49.9 403.1c0 1.5 0 3.5-1 4.9-1 1.5-2.5 2.5-4 3l-1.9 1.4zM311.3 746.6l113.6 310.3-42-341.9-71.6 31.6zm89.9-49h108.2l-5.4-167-102.8 167zm256.9-348.3L402.2 548.4 686.7 422l-28.6-72.7z"/><path class="st0" d="M516.3 712.5c-1.5 0-3-.5-4-1.5-1-.5-1.5-1.5-2-2.5s-1-2-1-3l-6.4-197.1c0-1 0-2.5 1-3.5.5-1 1.5-2 2.5-2.5s2-1 3.5-1 2.5.5 3.5 1L760.9 618c1.5.5 2.5 1.5 3 3s1 2.5 1 4c0 1-.5 2-1.5 3-.5 1-1.5 1.5-2.5 2l-242.1 82c-1 .5-1.5.5-2.5.5m1-193.7l5.9 176.9 215.9-73.1-221.8-103.8z"/><path class="st0" d="M757.9 630.9c-1 0-2 0-3-.5l-248-115.6c-1-.5-2-1.5-3-2.5-.5-1-1-2.5-1.5-3.5 0-1.5.5-3 1-4 1-1 2-2 3-2.5L685.3 422l-31.1-80c-.5-2-.5-4 0-5.4l117-274.8c.5-1.5 2-3 3.5-3.5s3.5-.5 4.9 0 3 1.5 4 3.5c1 1.5 1 3.5.5 4.9l-82.5 357.7 62.7 197.1c.5 1.5.5 3 0 4-.5 1.5-1 2.5-2 3.5-1.5 1-2.9 1.9-4.4 1.9M526.2 508.4L746 610.7l-55.8-176.4-164 74.1zM668 339l25.2 62.7L754 137.9 668 339z"/><path class="st0" d="M337.4 384.4c-1.5 0-3-.5-4-1.5s-2-2-2.5-3.5-.5-3 0-4.4 1.5-3 3-3.5L774.7 58.3c1-1 2.5-1 4-1s3 .5 4 1.5 2 2.5 2.5 4 0 3-.5 4.4L667 341.4c-.5 1-1 2-2 3-1 .5-2 1-3.5 1.5l-323.1 38.5h-1zM761.8 84.5L364.1 367.1l292-34.6 105.7-248z"/><path class="st0" d="M352.8 585c-2 0-3.5-.5-4.9-2-1-1.5-1.5-3-1.5-4.4 0-1.5.5-3.5 1.5-4.4l87-116.1c.5-1 1.5-1.5 2-2l220.3-123.5c.5-.5 1.5-1 2.5-1h2.5c1 0 1.5.5 2.5 1l2 2c.5 1 1 1.5 1 2.5v3c0 1-.5 2-1 2.5-.5 1-1 1.5-2 2L356.7 584c-1 1-2.5 1-3.9 1m91.8-117.1L389.8 541l192.7-150.2-137.9 77.1z"/><path class="st0" d="M439.7 469.4c-1.5 0-3-.5-4.4-1.5l-102.3-85c-1-1-1.5-2-2-3.5s-.5-2.5 0-4 1-2.5 2-3.5 2-1.5 3.5-1.5L660.1 332c1.5 0 3 .5 4.4 1.5 1.5 1 2.5 2 3 4 .5 1.5.5 3.5 0 4.9s-1.5 3-3 3.5L443.2 468.4c-1 .5-2.5 1-3.5 1m-85.5-87l86 71.1 185.3-103.3-271.3 32.2z"/><path class="st0" d="M352.8 586.5h-2c-1.5-.5-2.5-1.5-3.5-2.5s-1.5-2.5-1.5-4l-15.3-201.6c0-1.5 0-3 1-4 .5-1.5 1.5-2.5 3-3 1-.5 2.5-1 4-1s2.5.5 3.5 1.5l102.3 85c1.5 1 2.5 3 2.5 4.4 0 2-.5 4-1.5 5.4l-87 117.1c-.5 1-1.5 1.5-2.5 1.5-1.1 1.2-2.1 1.2-3 1.2m-7.5-193.2l12.8 167 71.6-97.3-84.4-69.7zM1497 446.7c-1.5 0-2.5-.5-4-1.5l-285-197.1c-1-1-2-2-2.5-3.5s-.5-3-.5-4.4c.5-1.5 1.5-3 2.5-3.5 1-1 2.5-1.5 4-1.5l398.7-30.6c1.5 0 2.5 0 3.5.5s2 1.5 2.5 2.5 1 2.5 1 3.5-.5 2.5-1 3.5l-113.1 228.3c-.5 1-1 1.5-2 2.5-.5.5-1.5 1-2.5 1.5l-1.6-.2zm-264.8-198.6l262.3 181.3 104.2-210-366.5 28.7z"/><path class="st0" d="M1211.9 249.5c-2 0-3.5-.5-4.9-2L1093.8 128c-1-1-1.5-2-2-3.5s0-2.5 0-4c.5-1.5 1.5-2.5 2.5-3 1-1 2.5-1.5 3.5-1.5l525.7-42.5c1 0 2 0 3 .5s2 1 2.5 2 1 1.5 1.5 2.5.5 2 .5 3l-14 131c0 1.5-1 3-2 4.4-1 1-2.5 2-4.4 2l-398.7 30.6zM1114.1 129l100.3 106.2 389.8-30.6L1616.1 88l-502 41z"/><path class="st0" d="M1458 695.2c-1.5 0-3-.5-4-1-1-1-2-2-2.5-3-.5-1.5-.5-3-.5-4s1-3 2-3.5l247-267.3c1-1 2-1.5 3-2s2.5-.5 3.5-.5 2 1 3 1.5c1 1 1.5 1.5 2 3l76.6 191.2c.5 1 .5 2 .5 3s0 2-.5 3-1 1.5-2 2.5l-3 1.5-323.1 76.1-2-.5zm245.5-261.4l-224.8 242.6 293-69.2-68.2-173.4zm-313.2 87.5h-1.5l-206-38c-1.5-.5-3-1.5-4.4-3-1-1.5-1.5-3.5-1-4.9l27.7-234.2c0-1 .5-2.5 1.5-3.5.5-1 1.5-2 2.5-2.5s2-1 3.5-1c1 0 2.5.5 3.5 1l284.6 197.1c1 .5 1.5 1.5 2.5 2.5.5 1 1 2 1 3.5 0 1-.5 2.5-1 3.5s-1.5 2-2.5 2.5l-107.2 76.1c-1 .5-2.5 1-4 .5h1v.4zm-198.6-50.9l196.6 36.6 95.8-67.7-266.8-184.8-25.6 215.9zM1098.8 130c-1.5 0-3-.5-4-1.5s-2-2.5-2.5-4 0-3 .5-4.4c.5-1.5 1.5-2.5 3-3.5L1296.4 1c.5-.5 1.5-.5 2.5-1h2.5l325.1 73.1c1.5 0 3 1.5 4.4 2.5 1 1.5 1.5 3 1.5 4.9 0 1.5-1 3.5-2 4.4-1 1-3 2-4.4 2L1098.8 130zm202-115.1l-170.9 98.8 447.6-36.6-276.7-62.2z"/><path class="st0" d="M1458 695.7c-1 0-2.5 0-3.5-1-1-.5-2-1.5-2.5-2.5s-1-2-1-3.5 0-2.5.5-3.5L1689.6 163c.5-1.5 2-2.5 3-3.5 1.5-.5 3-1 4.4-.5 1.5.5 3 1 4 2.5 1 1 1.5 3 1.5 4.4l9.4 255.9c0 1 0 2-.5 3 0 1-.5 1.5-1.5 2.5l-247.5 267.3c-1 .6-2.5 1.1-4.4 1.1m232.2-500.5l-208 457 216.4-233.7-8.4-223.3z"/><path class="st0" d="M1458 695.7h-2c-1.5-.5-3-1.5-4-3s-1.5-3-1-4.9l39-249c0-1 .5-1.5.5-2l113.6-228.3c.5-1.5 1.5-2.5 3-3l85.5-45c1-.5 2.5-1 4-.5 1.5 0 3 1 3.5 2 1 1 1.5 2.5 2 4 0 1.5 0 3-.5 4.4L1464 691.6c-.5 1.5-1.5 2-2.5 3-1.1.6-2.6 1.1-3.5 1.1m45.4-254l-30.6 198.6 209-458.5-66.2 35.1-112.2 224.8z"/><path class="st0" d="M1458 695.7c-1.5 0-3-.5-4-1-1-1-2-2-2.5-3l-68.2-174.9c-.5-1.5-.5-3-.5-4.9.5-1.5 1.5-3 3-4l107.2-75.1c1-1 2.5-1 4-1s2.5.5 4 1c1 1 2 2 2.5 3 .5 1.5.5 2.5.5 4l-39 249.5c0 1.5-1 3-2 4s-2.5 2-4 2l-1 .4zm-59.8-178.9l57.3 145.7 32.6-208-89.9 62.3zM1033.1 545c-1 0-2.5-.5-3.5-1L868 446.2c-1.5-1-2.5-2-3-3.5s-.5-3 0-4.9c.5-1.5 1.5-3 2.5-4 1.5-1 3-1.5 4.4-1l312.7 36.6c1.5 0 3 1 4 2s1.5 2.5 2 4c0 1.5 0 3-1 4.4-1 1.5-2 2.5-3.5 3L1035 545h-1.9m-130.5-94.4l130.9 79.5 122.5-50.4-253.4-29.1z"/><path class="st0" d="M757.4 630h-1c-1.5 0-2.5-.5-3.5-1.5s-1.5-2-2-3l-63.2-199.6c-.5-1.5-.5-3 0-4 .5-1.5 1-2.5 2-3.5l130.4-115.1c1-1 2-1.5 3-1.5 1-.5 2 0 3.5 0l3 1.5c1 .5 1.5 1.5 2 3l45.9 128.9 159.6 97.3c1 1 2 2 2.5 3 .5 1.5 1 2.5.5 4 0 1.5-.5 2.5-1.5 3.5s-2 2-3 2.5l-273.2 84c-2 1-3.5 1-5 .5m116.1-180.9l-99.8 161.1 242.1-74.1-142.3-87zm-171.9-23.2l58.3 180.8 103.8-167.5-41.5-118.1-120.6 104.8zm1080 193.2h-.5c-1.5 0-2.5-.5-3.5-1.5-1-.5-2-2-2.5-3l-76.6-191.2c-.5-1.5-.5-3 0-4.4.5-1.5 1.5-3 2.5-4 1.5-1 3-1.5 4.4-1.5 1.5 0 3 .5 4.4 1.5l128 111.7c1 1 2 3 2.5 4.4.5 1.5 0 3.5-1 4.9l-51.9 80c-.5 1-1.5 2-2.5 2.5-.9.6-2.3.6-3.3.6m-59.3-174.4l60.8 152.7 40.5-64.2-101.3-88.5z"/><path class="st0" d="M1832.9 539.1c-1.5 0-3-.5-4.4-1.5L1701 426.4c-1-1-1.5-2-2-3.5s-.5-2.5 0-4 1-2.5 2-3c1-1 2-1.5 3.5-1.5l201.1-19.8c1.5 0 2.5 0 3.5 1 1 .5 2 1.5 3 2.5.5 1 1 2.5 1 3.5 0 1.5-.5 2.5-1 4l-73.6 130.9c-.5 1-1 1.5-2 2.5-1 .5-2 1-3 1l-.6-.9zm-110.6-112.7l108.7 94.9 62.7-111.7-171.4 16.8z"/><path class="st0" d="M1705.5 427.9h-1c-1.5 0-3-1-4-2.5s-1.5-3-2-4.4l-9.4-255.4c0-1 0-2 .5-3s1-2 2-2.5l3-1.5c1-.5 2 0 3.5 0l87 26.7c1 .5 1.5.5 2.5 1.5 1 .5 1.5 1.5 2 2.5s.5 2 .5 3 0 2-.5 3L1712 424c-.5 1.5-1.5 2.5-2.5 3.5-1.1-.1-2.5.4-4 .4m-2-252.5l7.4 208.5 63.2-186.3-70.6-22.2z"/><path class="st0" d="M1705.5 427.9c-1 0-2 0-3-.5s-1.5-1-2.5-2c-.5-1-1-2-1.5-3.5 0-1 0-2.5.5-3.5l75.6-221.3-80.5-24.2c-1.5-.5-2.5-1-3.5-2L1619 86c-1-1.5-1.5-3-1.5-4.4 0-2 .5-3.5 1.5-4.4 1-1.5 2.5-2 4.4-2.5 1.5 0 3.5 0 4.4 1L1787 187.8c1 1 2 2 2.5 3.5l123 207.5c.5 1 1 2.5 1 3.5 0 1.5 0 2.5-.5 3.5s-1.5 2-2.5 2.5l-3 1.5-201.5 19.6-.5-1.5zM1785 209l-69.7 204 179.8-17.8L1785 209zm-85-49.4l43.5 13.3-79-55.8 35.5 42.5z"/><path class="st0" d="M1610.6 218.4c-1.5 0-2.5-.5-4-1.5-1-.5-2-1.5-2.5-3-.5-1-1-2.5-.5-4L1617.4 79c0-1.5.5-3 1.5-4s2-2 3-2.5c1.5-.5 2.5-.5 4 0s2.5 1 3.5 2.5l71.6 85c.5 1 1.5 2 1.5 3v3.5c0 1-.5 2-1 3s-1.5 1.5-2.5 2l-85 45.9c-.9.5-1.9 1-3.4 1m18.8-121.5l-10.9 101.8 66.2-35.1-55.3-66.7zm-445.1 387.3h-.5l-313.2-36.6c-1.5 0-2.5-.5-3.5-1.5s-2-2-2-3l-46.4-131.4c-.5-1-.5-2-.5-3s0-2 .5-3 1-2 2-2.5l3-1.5 233.7-42c1.5 0 3 0 4 .5 1.5.5 2.5 1.5 3 3l126.5 209c.5 1 1 2.5 1 3.5 0 1.5-.5 2.5-1 3.5s-1.5 2-2.5 2.5-2 1-3.5 1l-.6 1.5zM876 433.3l294.5 34.6-116.1-192.2-220.8 39.5L876 433.3z"/><path class="st0" d="M1184.3 484.2c-1 0-2.5-.5-3.5-1s-2-1.5-2.5-2.5l-126-209.5c-.5-1-1-2-1-3v-3l41-144.3c.5-1.5 1-2.5 2-3 1-1 2-1.5 3-2 1.5-.5 2.5-.5 3.5 0s2 1 3 2L1217.4 237c1 1 1.5 1.5 1.5 3 .5 1 .5 2 .5 3l-28.7 234.2c0 1.5-1 3-1.5 4-1 1-2 2-3.5 2l-1.4 1zm-119.1-217.9l114.1 189.2 25.7-211-102.8-108.2-37 130z"/><path class="st0" d="M824.1 316.2c-1 0-2 0-3-.5s-2-1.5-2.5-2c-.5-1-1-2-1-3s0-2 .5-3.5l38-116.1c0-1 1-2 1.5-3 1-1 1.5-1.5 3-1.5l236.7-70.2c1.5-.5 2.5-.5 3.5 0 1 0 2.5 1 3 2 1 1 1.5 2 1.5 3v3.5l-41 144.8c-.5 1.5-1 2.5-2 3.5s-2 1.5-3.5 1.5l-233.7 41.5h-1zm43.5-117.1l-33.1 101.3 217.9-39 36.6-128-221.4 65.7z"/><path class="st0" d="M862.1 200.6c-1 0-2.5-.5-3-1-1-.5-2-1.5-2.5-2.5l-84-128.9c-1-1-1-2.5-1-4s.5-3 1-4 1.5-2 3-2.5 2.5-1 4-.5l321.1 58.3c1.5.5 3 1 4 2.5s1.5 3 2 4.4c0 1.5-.5 3-1.5 4.4s-2 2.5-4 2.5l-237.1 70.2c-.5 1.1-1.5 1.1-2 1.1m-69.6-126l72.6 110.7 203.6-60.8c-.1 0-276.2-49.9-276.2-49.9z"/><path class="st0" d="M823.6 320.2c-1.5 0-3-.5-4-2-1-1-2-2.5-2.5-4L771.7 65.7c0-1.5 0-3 1-4.4.5-1.5 2-2.5 3.5-3s3-.5 4.4 0c1.5.5 3 1.5 3.5 3l84.5 128.9c.5 1 1 2 1 3s0 2-.5 3.5l-39 118.6c-.5 1.5-1.5 3-2.5 3.5-1 .9-2.5 1.4-4 1.4M791 96.9l35.1 188.2 29.1-90.4L791 96.9z"/><path class="st0" d="M694.6 430.9c-1.5 0-2.5-.5-3.5-1-1-1-2-2-2.5-3.5s-.5-3 0-4.4l83.5-359.7c.5-1.5 1-3 2.5-4s3-1.5 4.4-1.5c1.5 0 3 .5 4.4 1.5 1 1 2 2.5 2.5 4l44 249c0 1.5 0 2.5-.5 4-.5 1-1 2.5-2 3L699.1 429.4c-1 1-3 1.5-4.5 1.5m82.5-332.5L706 405.2l110.2-94.9-39.1-211.9zm1169 2054.7c-1.5 0-3-.5-4.4-1.5l-293-240.1c-.5-.5-1.5-1.5-2-2.5s-.5-2-.5-3l-9.4-190.7c0-1 0-2 .5-3s1-2 1.5-2.5c1-.5 1.5-1 2.5-1.5s2-.5 3-.5l203.1 29.1c1.5 0 2.5 1 3.5 1.5 1 1 2 2.5 2 3.5l99.3 401.7c.5 1.5.5 3 0 4.4-.5 1.5-1.5 2.5-2.5 3.5-.7 1.1-2.1 1.6-3.6 1.6M1660 1902.2l274.2 225.3-92.9-377-190.2-27.7 8.9 179.4z"/><path class="st0" d="M1504.4 2007.4c-1 0-2 0-3-1-1-.5-1.5-1-2.5-2l-1.5-3v-3.5l57.3-221.3c.5-1.5 1-3 2.5-4l83-63.7c1-1 2-1.5 3.5-1.5 1 0 2.5 0 3.5.5s2 1.5 3 2.5c.5 1 1 2.5 1 3.5l9.4 190.7c0 1.5 0 2.5-.5 3.5s-1.5 2-2.5 3l-149.2 94.4c-1.5 1.4-3 1.9-4 1.9m62.7-224.3l-51.9 202.1 130.9-83-8.4-173.4-70.6 54.3z"/><path class="st0" d="M1946.1 2153.1h-2l-441.7-145.7c-1.5-.5-2.5-1-3-2s-1.5-2.5-1.5-4 0-3 .5-4 1.5-2 2.5-3l148.7-93.9c1-1 2.5-1 4-1s3 .5 4 1l292.5 240.1c1.5 1 2 2.5 2.5 4s0 3.5-.5 4.9c-.5 1-1.5 2-2.5 2.5s-2 1.1-3.5 1.1m-424.9-155.6l391.3 129.9-259.4-212.9-131.9 83zm325.6-246h-1l-203.1-29.1c-1 0-2-.5-3-1s-1.5-1-2-2-1-2-1-3v-3l11.9-48.4c0-1 .5-2 1.5-3l2-2c1-.5 2-.5 3-.5s2 0 3 .5l190.7 77.6c1.5.5 3 2 3.5 3.5s1 3.5.5 4.9c-.5 1.5-1 3-2.5 3.5-.6 1-2 1.5-3.5 2m-194.2-42.5l137.8 19.8-129.4-52.4-8.4 32.6z"/><path class="st0" d="M1561.2 1786c-1 0-2 0-3-.5s-1.5-1-2.5-2c-1-1.5-2-3-2-4.4 0-2 .5-3.5 2-4.9l94.9-112.2c1-1 2.5-2 4-2.5 1.5 0 3 0 4.4.5 1.5 1 2.5 2 3 3.5s.5 3 .5 4.4l-11.9 48.9c-.5 1.5-1.5 3-2.5 4l-83.5 63.7c-.4 1.1-1.9 1.5-3.4 1.5m81-92.3l-33.1 39 29.1-22.2 4-16.8z"/><path class="st0" d="M1030.6 2499.5h-2.5l-241.6-87c-1-.5-2-1-2.5-2l-209-218.4-282.6-102.3c-1-.5-2-1-2.5-1.5s-1.5-1.5-1.5-2.5L151.1 1693l-19.3-39.5L.5 1271.2c-.5-1.5-.5-3 0-4.4s1.5-3 2.5-3.5l127.5-104.2-20.8-335.5c0-1.5.5-3 1-4.4.5-1.5 2-2 3-3l182.8-78.1L331 376.5c0-1 .5-2 1-3s1-1.5 2-2.5L774.7 58.3c1.5-1 3.5-1.5 4.9-1l318.7 58.3L1296.9 1c1.5-1 3-1 4.9-1l325.1 73.1c1 0 1.5.5 2.5 1l158.1 112.2c1 .5 1.5 1.5 2 2l123.5 208c.5 1 1 2.5 1 3.5 0 1.5-.5 2.5-1 3.5l-125.5 211.9c-1 1.5-2.5 3-4.4 3.5L1460 694.8c-1.5.5-3.5 0-4.9-.5-1.5-.5-2.5-2-3-3.5l-66.7-170-200.6-37.1-150.2 61.8-216.9 127.4-16.3 324.6c0 1.5-.5 3-1.5 4.4l-152.2 188.7 182.3 294c.5 1 1 2 1 3v3l-42.5 141.8L910 1776.2l384.9 62.3 262.8-65.7 93.4-109.7c1-1 2.5-1.5 3.5-2 1.5-.5 3 0 4 0l190.7 77.1c1 .5 2 1 2.5 2 1 1 1.5 2 1.5 3l99.3 401.2c.5 1.5 0 3-.5 4.4-.5 1.5-1.5 2.5-3 3.5l-378.4 219.4-255.4 75.6-174.4 20.8-108.2 32.1h-2v-.7zm-238.1-100.3l238.1 85 107.2-31.1 174.4-20.8 253-74.6 373-215.9-96.8-392.8-182.8-74.1-92.4 108.2c-1 1-2 2-3.5 2.5l-266.8 67.2h-2.5l-388.8-63.2c-1.5-.5-3-1-4-2.5l-125.5-148.2c-1-1-1.5-2-1.5-3v-3.5l42.5-142.3-181.8-295.9c-1-1-1.5-2.5-1.5-4s.5-3 1.5-4.4L788 995.1l16.3-326.6c0-1 .5-2.5 1-3.5s1.5-2 2.5-2.5l221.3-130.9 152.2-62.3c1-.5 2.5-.5 3.5 0l206 38c1 0 2 1 3 1.5 1 1 1.5 1.5 2 3l66.2 168.5 314.2-74.1 121.5-205-119.6-203.6L1622.5 87l-321.6-72.6L1101.7 129c-1.5.5-3 1-4.4 1L779.6 72.2 343.9 381.5l-34.1 362.1c0 1.5-.5 2.5-1.5 3.5s-1.5 2-3 2.5l-181.8 78.1 21.2 334c0 1 0 2.5-.5 3.5s-1 2-2 2.5L15.8 1271.2l128.5 377 20.3 39.5L301.9 2078l280.6 101.8c1 .5 2 1 2.5 2l207.5 217.4z"/></svg>