<svg version="1.1" id="Layer_1" xmlns="http://www.w3.org/2000/svg" x="0" y="0" viewBox="0 0 20 24" xml:space="preserve"><style>.st0{fill:#00b6d0}</style><path class="st0" d="M11.4 23.6l1.7-.2-2-1 .3 1.2zm1.7-.2l-1.7.2-.3-1.3 2 1.1zm-.2-5.7l-3.8-.6 2.9 2.4.9-1.8zM9 17.1l3.9.6-.9 1.8-3-2.4zM3.5 8.3l-1.4 2.5 2.3-.2-.9-2.3zm-1.4 2.6l1.4-2.6.9 2.4-2.3.2zm-.9-3L3 7.1l.5 1.2-2.3-.4zm2.3.4L3 7.1l-1.8.8 2.3.4zm.1-2.8L3 7.2l.3-3.6.3 1.9zm-.2-1.8l-.3 3.4.5-1.5-.2-1.9z"/><path class="st0" d="M3.1 7.1l.8-.3 1.2-1.9-1.5.6-.5 1.6zm2-2.2L3.9 6.8l-.9.3.5-1.6 1.6-.6zm-3.9 3l1.8.9-.9 2.1-.9-3zm.9 2.9l.9-2-1.8-.9.9 2.9z"/><path class="st0" d="M3 8.8l.5-.4-2.3-.5 1.8.9zm.5-.5l-.5.5-1.9-.9 2.4.4z"/><path class="st0" d="M2.1 10.9L3 8.8l.5-.5-1.4 2.6zm1.4-2.5l-.5.4-.8 2c0-.1 1.3-2.4 1.3-2.4zm3 6.8v-2H5l-2 2.2 3.5-.2zm-1.5-2l1.5-.1v2l-3.5.3 2-2.2zm-2 2.2l3.5-.3-.2 1.2-3.3-.9zm.1 0l3.2.9.2-1.2c0 .1-3.4.3-3.4.3zm3.7 4.9l1.5-2.1 3.7 1.3-2.7 1.7-2.5-.9zm2.5.9l2.7-1.7-3.7-1.3-1.5 2.1 2.5.9z"/><path class="st0" d="M7.9 23l.8-1.2-1.9-1.6-1 .7L7.9 23zm-1.1-2.7l1.9 1.6-.8 1.2L5.8 21l1-.7zm-.1-.1l2.6 1-.6.6-2-1.6zm2 1.6l.6-.6-2.5-1 1.9 1.6z"/><path class="st0" d="M11.1 22.3l.3 1.3-2.8-1.8.6-.6 1.9 1.1zm-1.8-1.1l-.6.6 2.7 1.7-.3-1.2-1.8-1.1zm-1.4 1.9l2.4.8-.5-1-1.9.2zm1.9-.2l.5 1-2.4-.9 1.9-.1z"/><path class="st0" d="M9.8 22.9l-2 .2.8-1.2 1.2 1zm-1.1-1.1L7.9 23l1.9-.2-1.1-1z"/><path class="st0" d="M11.3 23.5l-2.6-1.6 1.1 1 1.5.6zm-1.5-.6zm0 0l-1.2-1 2.7 1.7-1.5-.7z"/><path class="st0" d="M9.8 22.9l1.6.7-1.1.3-.5-1zm.5 1l1.1-.3-1.5-.7.4 1zm-7.2-8.5l-1.5.8-.2-.4 1.7-.4zm-1.7.4l.2.4 1.4-.8-1.6.4z"/><path class="st0" d="M3 15.4l3.3.9-1 1.7-3.7-1.8 1.4-.8zm-1.4.8L5.3 18l1-1.7-3.3-.9-1.4.8z"/><path class="st0" d="M3 20l-1.4-3.8 3.1 2.3L3 20zm1.6-1.5l-3-2.3L3 20l1.6-1.5z"/><path class="st0" d="M1.7 16.2l3 2.2.5-.4-3.5-1.8zm2.9 2.3l-3.1-2.3L5.3 18l-.7.5z"/><path class="st0" d="M5.3 18l.6 3-1.2-2.5c-.1 0 .6-.5.6-.5zm-.6.5l1.1 2.4-.5-2.9-.6.5z"/><path class="st0" d="M5.8 20.9l-1.1-2.4L3 20l2.8.9zm-1.2-2.4L5.8 21 3 20l1.6-1.5zm7.4 1l-.9 2.8 4.8-1.6-3.9-1.2zm-1 2.9l1-2.9 3.9 1.2-4.9 1.7z"/><path class="st0" d="M15.9 20.7l-4-1.2 3.1-.3.9 1.5zm-.9-1.5l-3 .3 3.9 1.2-.9-1.5zm.9 1.5l3.5-.1-3.8 2.1.3-2zm-.2 1.9l3.7-2.1-3.5.1-.2 2z"/><path class="st0" d="M19.4 20.6L15 19.2l.9 1.5 3.5-.1zM15 19.1l4.4 1.4-3.5.1-.9-1.5zm-5.7 2.1l1.7 1.1.9-2.8-2.6 1.7zm1.8 1.2l-1.8-1.1 2.7-1.7-.9 2.8zm2 1l1.3-1.1 1.3.3-2.6.8zm2.5-.7l-1.2-.3-1.2 1c-.1 0 2.4-.7 2.4-.7z"/><path class="st0" d="M14.4 22.3l1.2.3.3-1.9-1.5 1.6zm1.3.4l-1.3-.3 1.6-1.7-.3 2z"/><path class="st0" d="M15.9 20.7l-1.6 1.7h-3.4c.1 0 5-1.7 5-1.7zm-4.8 1.6h3.3l1.5-1.6-4.8 1.6zm3.3.1h-3.3l2 1 1.3-1zm-3.4-.1h3.4l-1.3 1-2.1-1zm1.1-2.8l-3.8-1.3.8-1.1 3 2.4zm-3-2.4l-.8 1.1 3.7 1.3-2.9-2.4z"/><path class="st0" d="M8.3 18.2l.7-1.1-2.7-.7 2 1.8zm.8-1.1l-.8 1.1-2-1.9 2.8.8z"/><path class="st0" d="M8.3 18.2l-2-1.9.5 3.9 1.5-2zm-2-1.9l2 1.9-1.5 2.1-.5-4z"/><path class="st0" d="M6.8 20.3L5.2 18l1.1-1.7.5 4zm0-.1l-.5-3.9-1 1.7 1.5 2.2z"/><path class="st0" d="M5.3 18.1l.5 2.9 1-.7-1.5-2.2zm1.5 2.2l-1 .7-.6-3 1.6 2.3zm-1.5-2.2l.5 2.9 1-.7-1.5-2.2zm1.5 2.2l-1 .7-.6-3 1.6 2.3zm-5.4-9.2l2 1.8-2 2.9-1.3-3.7 1.3-1zM.1 12.2l1.3 3.6 1.9-2.9-1.9-1.8-1.3 1.1zm3.2.8l-1.9 2.8 1.6-.4.3-2.4zM3 15.4zm0 0l-1.6.4 2-2.9-.4 2.5z"/><path class="st0" d="M3 15.4l.3-2.5 1.7.3-2 2.2zm2-2.2l-1.7-.3-.3 2.5 2-2.2z"/><path class="st0" d="M3.3 12.9l1.7.3-3.5-2 1.8 1.7zm1.8.3l-1.7-.3-2-1.8 3.7 2.1z"/><path class="st0" d="M2.1 10.9l2.3-.2 2 .7L5 13.2l-3.6-2.1.7-.2zm0 0l-.7.3 3.6 2 1.4-1.8-2-.7-2.3.2z"/><path class="st0" d="M1.4 11.1l-.2-3.3 1 3-.8.3zm.7-.2L1.2 8l.2 3.2.7-.3zm13.5 6.2l-2.6.6-1 1.8 3.6-2.4zm-2.7.6l2.7-.7-3.6 2.5.9-1.8z"/><path class="st0" d="M12 19.5l3-.3.6-2.1-3.6 2.4zm3-.3zm0 0l-3 .3 3.6-2.5-.6 2.2zm-8.5-6l1.3 2.5.4-1.4-1.7-1.1zm1.7 1.1l-.4 1.4-1.3-2.6 1.7 1.2z"/><path class="st0" d="M8.3 14.3l-1.8-1.2-.1-1.8 1.9 3zm-1.9-2.9l.1 1.7 1.7 1.1-1.8-2.8z"/><path class="st0" d="M6.5 13.1l-.1-1.7L5 13.2l1.5-.1zm-.1-1.7l.1 1.7-1.5.1 1.4-1.8zm-2-.7l2 .7.1-.6.2-1.2-2.3 1.1zm2.4-1.1zm0 0l-.2 1.2-.1.6-2-.7 2.3-1.1z"/><path class="st0" d="M6.8 9.6H8l-1.6 1.9c-.1.7-.1.5 0 .3l.2-.9.2-1.3zm-.3 1.2c-.2 1-.2 1.2-.3 1.4l.1-.8 1.5-1.8h-1l-.3 1.2z"/><path class="st0" d="M7.9 9.6l-.8-1.2-.3 1.2h1.1zm-.8-1.2L8 9.6H6.8l.3-1.2z"/><path class="st0" d="M6.8 9.6l-2.4 1.1 2.7-2.3-.3 1.2zm.3-1.2l-2.6 2.3 2.3-1 .3-1.3z"/><path class="st0" d="M4.4 10.7l2.7-2.3.5-2.4-3.2 4.3v.4zm3.2-4.8l-.5 2.5-2.7 2.3-.1-.5 3.3-4.3z"/><path class="st0" d="M8.1 6.4L8 9.6l-.9-1.2.5-2.4.5.4zM7.6 6l-.5 2.4.8 1.2.2-3.1c0-.1-.5-.5-.5-.5zm.5.4L7.6 6l2.8-.8-2.3 1.2zm2.2-1.2L7.6 6l.5.4 2.2-1.2zm-3.8 10v-2.1l1.3 2.6-1.3-.5zm1.3.4l-1.3-2.5v2l1.3.5z"/><path class="st0" d="M6.3 16.3l1.5-.7-1.3-.5-.2 1.2zm1.5-.6l-1.5.7.2-1.2 1.3.5z"/><path class="st0" d="M9.1 17.1l-2.8-.8 1.5-.7 1.3 1.5zm-1.3-1.4l-1.5.7 2.7.7-1.2-1.4zm-3.5-5.5L7.6 6l-2.4.8-.9 3.4zM7.6 6l-3.3 4.3.9-3.5L7.6 6z"/><path class="st0" d="M5.2 6.8l-.9 3.5-.4-3.5h1.3zm-1.3 0l.4 3.4.8-3.4H3.9z"/><path class="st0" d="M3.1 7.1l1.3 3.5-.5-3.8-.8.3zm-.1 0l.9-.4.5 4L3 7.1zm.5-1.5l3.1-2.3.4.8-3.5 1.5zm.1-.1L7 4.1l-.4-.8-3 2.2zm1.6 1.3l-.1-1.9-1.2 1.9h1.3zm0 0H3.9l1.2-1.9.1 1.9z"/><path class="st0" d="M5.2 6.8l-.1-1.9L7.6 6l-2.4.8zm0 0L7.6 6 5.1 4.9l.1 1.9z"/><path class="st0" d="M5.1 4.9L7.6 6l-.7-1.9-1.8.8zM7 4.1L7.6 6 5.1 4.9 7 4.1zM7.8.7L6.6 3.3l.4.8.8-3.4zM6.6 3.3L7.8.7 7 4.1l-.4-.8z"/><path class="st0" d="M3.4 3.6l4.4-3-1.2 2.7-3.2.3zm3.2-.3L7.8.7l-4.3 3 3.1-.4z"/><path class="st0" d="M6.5 3.3L4.4 4.4l-.8 1.1 2.9-2.2zm-3 2.2l.9-1.1 2.2-1.2-3.1 2.3z"/><path class="st0" d="M6.6 3.3l-3.2.3 1 .8 2.2-1.1zM4.4 4.4l-1-.8 3.3-.4-2.3 1.2z"/><path class="st0" d="M3.5 5.6l-.2-2 1 .8-.8 1.2zm.9-1.2l-1-.8.2 1.9.8-1.1zM16.1 2L15 4.2l-2.9-1.9 4-.3zm0 0l-3.9.3L15 4.2 16.1 2z"/><path class="st0" d="M16.2.8l-5.2.4 1.1 1.1 4-.3.1-1.2zM16.1 2l-4 .3L11 1.2l5.3-.4-.2 1.2z"/><path class="st0" d="M16.3.8l-5.3.4 2-1.1 3.3.7zM13 .1l-2 1.1 5.2-.4L13 .1zm4.8 5.8l-3.3.7L17 4l.8 1.9zM17 4.1l-2.4 2.5 3.2-.7-.8-1.8zm-2 .1l-1.1.7-2.1-.4.3-2.3 2.9 2zm-2.9-1.9l-.3 2.2 2 .4 1.1-.7-2.8-1.9z"/><path class="st0" d="M14.5 6.6l2.4-5.1L17 4l-2.5 2.6zM17 4l-.1-2.4-2.3 4.9L17 4z"/><path class="st0" d="M16.9 1.6l-.8.4L15 4.2l-.4 2.3 2.3-4.9zm-2.3 5l.4-2.4L16.1 2l.9-.4-2.4 5c-.1.1 0 0 0 0z"/><path class="st0" d="M15 4.2l-.4 2.4-.7-1.7 1.1-.7zm-1.1.7l.7 1.6.4-2.3-1.1.7zm-2.1-.3l-3.1-.4 1.6.9 1.5-.5zm-3.1-.4l3.2.4-1.5.6-1.7-1zm1.6 1L7.6 6l1.1-1.8 1.6 1zm-1.6-1L7.6 6l2.7-.8-1.6-1zM7.6 6l-.7-1.9L8.2 3l.5 1.3L7.6 6zm1.1-1.8L8.2 3 7 4.1 7.6 6l1.1-1.8zm9.6.9l-1.2-1 .7 1.8.5-.8zM17 4l1.3 1.1-.5.8L17 4z"/><path class="st0" d="M19 3.9L17 4l1.3 1 .7-1.1zM17 4l2-.2-.7 1.3L17 4z"/><path class="st0" d="M17.8 1.9l-.9-.3L17 4l.8-2.1zm0 0L17 4.1l-.1-2.5.9.3z"/><path class="st0" d="M17.8 1.8l1.2 2-2 .2.8-2.2zM17 4l2-.2-1.2-2L17 4zm.8-2.1l-.9-.3-.8-.9c.1 0 1.7 1.2 1.7 1.2zM16.3.8l.7.8.8.2-1.5-1z"/><path class="st0" d="M16.9 1.6l-.7-.8-.1 1.2.8-.4zm-.7-.8l.7.8-.8.4.1-1.2zM8.3 3l.5 1.2 3.1.3-1.2-2-2.4.5zm3.5 1.6l-3.1-.4L8.2 3l2.3-.4 1.3 2z"/><path class="st0" d="M10.6 2.6l.4-1.4 1.1 1.2-.3 2.3-1.2-2.1zm1.2 2l.3-2.2L11 1.2l-.4 1.4 1.2 2z"/><path class="st0" d="M11 1.2l-2.4.7L8.3 3l2.3-.4.4-1.4zm-.4 1.4L8.2 3l.4-1.1 2.4-.7-.4 1.4z"/><path class="st0" d="M7.8.6l3.2.6-2.4.7L7.8.6zm.8 1.3l2.3-.7L7.8.6l.8 1.3z"/><path class="st0" d="M7.8.7L8.2 3l.4-1.1L7.8.7zm.8 1.2L8.2 3 7.8.6l.8 1.3z"/><path class="st0" d="M7.8.6L8.2 3 6.9 4.1 7.8.6zm0 .1L7 4.1l1.3-1L7.8.7zm8.6 15.7l.1 1.8 2.9 2.3-1-3.8-2-.3zm3 4.2l-2.9-2.3-.1-1.8 2 .3 1 3.8z"/><path class="st0" d="M15.6 17l.8-.6.1 1.8-1.5 1 .6-2.2zm-.6 2.2l1.5-.9-.1-1.8-.8.6-.6 2.1z"/><path class="st0" d="M15 19.2l1.5-.9 3 2.3-4.5-1.4zm4.4 1.3l-2.9-2.3-1.5 1 4.4 1.3zm-.9-3.8l-2.1-.3.1-.5 2 .8zm-2-.7l-.1.4 2 .3-1.9-.7z"/><path class="st0" d="M16.4 16.4l.1-.4-.9 1 .8-.6zm.1-.5l-.1.5-.9.7 1-1.2z"/></svg>