<svg version="1.1" id="Layer_1" xmlns="http://www.w3.org/2000/svg" x="0" y="0" viewBox="0 0 24 21.7" xml:space="preserve"><style>.st0{fill:#2e9ad0}</style><g id="Lines"><path class="st0" d="M14.5 21H8l-5.3-3.9-2-6.3 2-6.3L8 .6h6.6l5.3 3.9 2 6.3-2 6.3-.1.1-5.3 3.8zm-6.4-.5h6.3l5.1-3.7 2-6-2-6-5.1-3.7H8.1L3 4.8l-2 6 2 6 5.1 3.7z"/><path class="st0" d="M22.7 20l-3.1-2.8-3-1.1-5.3.7-5.4-.8-3 1.1-.1-.4 3.1-1.2H6l5.4.8 5.4-.8.1.1 3.2 1.2 3.1 2.8-.5.4z"/><path class="st0" d="M14.4 21.2l-3.2-4.4L8 21.2l-2.4-5.3.4-.2 2.1 4.7 3.2-4.3 3.1 4.3 2.1-4.7 2.8-5.7.7 7h-.4l-.6-5.4-2.1 4.3-2.5 5.3z"/><path class="st0" d="M.9 10.6h20.8v.4H.9v-.4z"/><path class="st0" d="M19.3 11.6l-2.6-5.2-2.3 4.9-3.2-5.6L8 11.3 5.8 6.4l-2.6 5.2-.7-6.9H3l.5 5.3 2.3-4.6 2.2 5 3.2-5.6 3.1 5.6 2.3-4.9L19 10l.4-5.3h.5l-.6 6.9z"/><path class="st0" d="M16.4 6.1l-2.1-4.7-3.1 4.4-3.1-4.5L6 6.1l-.4-.2L8 .4l3.3 4.4L14.5.4 17 5.8l-.6.3zm3.1 10.8l-.5-5.3-2.3 4.7-2.3-5-3.1 5.6L8 11.3l-2.3 5-2.3-4.7-.4 5.3h-.5l.6-7 2.6 5.2L8 10.4l3.2 5.6 3.2-5.6 2.3 4.9 2.6-5.3.7 7h-.5z"/><path class="st0" d="M16.7 6.2l-5.5-.8-5.4.8-3.1-1.3.1-.4 3 1.3 5.4-.8 5.5.7 2.9-1.3.2.4-3.1 1.4z"/></g><g id="Circles"><circle class="st0" cx="8" cy="20.8" r=".9"/><circle class="st0" cx="14.3" cy="20.8" r=".9"/><circle class="st0" cx="8" cy=".9" r=".9"/><circle class="st0" cx="14.3" cy=".9" r=".9"/><circle class="st0" cx="19.6" cy="4.7" r=".9"/><circle class="st0" cx="2.8" cy="4.7" r=".9"/><circle class="st0" cx="2.8" cy="17" r=".9"/><circle class="st0" cx=".9" cy="10.8" r=".9"/><circle class="st0" cx="21.7" cy="10.8" r=".9"/><circle class="st0" cx="19.1" cy="10.8" r=".9"/><circle class="st0" cx="3.3" cy="10.8" r=".9"/><circle class="st0" cx="8" cy="10.8" r=".9"/><circle class="st0" cx="14.3" cy="10.8" r=".9"/><circle transform="rotate(-80.781 11.25 5.25)" class="st0" cx="11.2" cy="5.3" r=".9"/><circle class="st0" cx="5.8" cy="6" r=".9"/><circle class="st0" cx="16.7" cy="6" r=".9"/><circle class="st0" cx="11.2" cy="16.5" r=".9"/><circle class="st0" cx="5.8" cy="15.7" r=".9"/><circle class="st0" cx="16.7" cy="15.7" r=".9"/><circle class="st0" cx="22.8" cy="19.8" r="1.2"/></g></svg>