<svg xmlns="http://www.w3.org/2000/svg" viewBox="0 0 21.4 24.1"><path d="M11.6.3l8.8 5.1c.6.3.9.9.9 1.6v10.1c0 .7-.3 1.3-.9 1.6l-8.8 5.1c-.6.3-1.3.3-1.9 0L1 18.7c-.6-.3-.9-.9-.9-1.6V7c0-.7.3-1.3.9-1.6L9.8.3c.6-.3 1.2-.3 1.8 0z" fill="#94e469"/><path d="M3.2 9.8h1.1l-.9-5.2h2.4l.8 5.2h1.9l.9-5.2H12l.9 5.2h1.9l.8-5.2H18l-.9 5.2h1.1v1.5h-1.3l-.3 1.5h1.6v1.5h-1.8l-.9 5.2h-2.9l-.9-5.2h-2l-.9 5.2H5.9L5 14.4H3.2v-1.5h1.5l-.3-1.5H3.2V9.8zm10.3 3h1l.2-1.5h-1.4l.2 1.5zm-6.5 0h1l.3-1.5H6.8l.2 1.5zm3 0h1.3l-.3-1.5h-.8l-.2 1.5zm4.2 1.6h-.5l.3 2.1.2-2.1zm-6.7 2c0-.5.1-1.2.3-2.1h-.6l.3 2.1zm3-6.6h.4l-.2-1.9-.2 1.9z" fill="#fff"/></svg>