<svg xmlns="http://www.w3.org/2000/svg" viewBox="0 0 24 24"><path d="M12 24c6.6 0 12-5.4 12-12S18.6 0 12 0 0 5.4 0 12s5.4 12 12 12zm5.5-18.4c.4.1.9.1 1.3.2.8.2 1.1.6 1 1.4-.1.3-.3.6-.6.6h-8.9c-.5.1-.9.1-1.3.2-1.4.2-1.9.8-2 2.2-.1.6-.1.6.6.6H19c.2 0 .4 0 .5.1.5.3.4.8.4 1.3 0 .4-.2.6-.6.7h-12c-.4 0-.4 0-.4.4s.1.8.1 1.1c.2.7.6 1.1 1.3 1.3.8.2 1.5.3 2.3.3h8.1c.3 0 .7 0 .9.4.4.6.1 1.5-.6 1.7-.6.2-1.2.2-1.8.2-2.5 0-5.1.1-7.6 0-.8 0-1.6-.1-2.3-.3-1.8-.4-2.7-1.3-3-3.1-.1-.4-.1-.8-.2-1.3v-3.3c0-.3.1-.7.1-1 .2-2.1 1.2-3.1 3.2-3.5.7-.2 1.5-.2 2.2-.3 2.6.1 5.3.1 7.9.1z" fill="#bc87ed"/></svg>