<svg version="1.1" id="Layer_1" xmlns="http://www.w3.org/2000/svg" x="0" y="0" viewBox="0 0 23.8 24" xml:space="preserve"><style>.st5{fill:#fff}</style><radialGradient id="SVGID_1_" cx="6.23" cy="24.805" r="12.863" gradientTransform="matrix(1 0 0 -1 0 29.372)" gradientUnits="userSpaceOnUse"><stop offset="0" stop-color="#21ffe3"/><stop offset="1" stop-color="#8549df"/></radialGradient><circle cx="11.9" cy="11.9" r="11.9" fill="url(#SVGID_1_)"/><linearGradient id="SVGID_2_" gradientUnits="userSpaceOnUse" x1="12.756" y1="7.696" x2="12.056" y2="22.575" gradientTransform="matrix(1 0 0 -1 0 29.372)"><stop offset="0" stop-color="#21ffe3"/><stop offset="1" stop-color="#8549df"/></linearGradient><ellipse cx="12.4" cy="13.5" rx="8.7" ry="8.2" fill="url(#SVGID_2_)"/><radialGradient id="SVGID_3_" cx="12.002" cy="14.207" r="11.152" gradientTransform="matrix(1 0 0 -1 0 29.372)" gradientUnits="userSpaceOnUse"><stop offset="0" stop-color="#21ffe3"/><stop offset=".192" stop-color="#23fce3" stop-opacity=".808"/><stop offset=".342" stop-color="#28f2e3" stop-opacity=".658"/><stop offset=".478" stop-color="#31e1e2" stop-opacity=".522"/><stop offset=".606" stop-color="#3ecae2" stop-opacity=".394"/><stop offset=".728" stop-color="#4face1" stop-opacity=".272"/><stop offset=".846" stop-color="#6386e0" stop-opacity=".154"/><stop offset=".958" stop-color="#7b5bdf" stop-opacity=".042"/><stop offset="1" stop-color="#8549df" stop-opacity="0"/></radialGradient><ellipse cx="12" cy="15.2" rx="9.4" ry="8.8" fill="url(#SVGID_3_)"/><linearGradient id="SVGID_4_" gradientUnits="userSpaceOnUse" x1="3.874" y1="23.147" x2="19.131" y2="14.18" gradientTransform="matrix(1 0 0 -1 0 29.372)"><stop offset="0" stop-color="#21ffe3"/><stop offset="1" stop-color="#f8fffb"/></linearGradient><path d="M9.4 20.1s-1.1-.1-1.6-.4c-.1-.1-2.2-1.3-3.1-2.8-.7-1.3-1.9-3.6-2-4.7-.1-1 0-3.2.3-3.9 0 0 .1-.1.1-.2.2-.5.7-1.6 1.7-2.5C6 4.3 7.5 3.7 9.4 3.7h5c2 0 3.6.2 4.3.3h.1c.5.1.7.1.8.5 0 .3.3 2.7.3 2.7v.1l-1.8 1.1h2l.2 3.7-2.1 1.6h1.9l-.7 3.9-3.6 2.1-6.4.4z" fill="url(#SVGID_4_)"/><path d="M12.2 3.8h2.2c2.1 0 3.7.2 4.3.3.6.1.8.1.8.4 0 .3.3 2.7.3 2.7l-2.1 1.3H20l.2 3.5-2.3 1.7H20l-.6 3.7-3.6 2-6.4.6s-1-.1-1.6-.4c-.5-.3-2.3-1.4-3-2.8-.7-1.3-1.9-3.6-2-4.7s0-3.2.3-3.8 1.7-4.5 6.2-4.5h2.9m0-.2H9.4c-1.9 0-3.4.6-4.7 1.8C3.8 6.4 3.3 7.5 3 8c0 .1 0 .1-.1.2-.4.7-.4 2.9-.4 3.9.1 1.1 1.3 3.5 2 4.8.9 1.6 3 2.8 3.1 2.8.5.3 1.6.4 1.6.4l6.4-.4 3.6-2h.1v-.1l.6-3.7v-.2h.1-1.5l1.8-1.3.1-.1v-.1l-.2-3.5v-.2h-1.7l1.5-1 .1-.1v-.1s-.3-2.4-.3-2.7c-.1-.5-.3-.5-.8-.6h-.1c-.8-.1-2.3-.3-4.3-.3-.8-.1-1.5-.1-2.4-.1z" fill="#692cc2"/><path class="st5" d="M2.9 12.1s.1 1.3.6 2.5 1.8 3.1 2.3 3.6c.7.7 2 1.6 2.9 1.7s3.1-.1 3.6-.1c.3 0 3.1-.3 3.4-.3.4-.1 3.5-1.9 3.6-2 .1-.1.1-.7.1-.7l-2.5.6-7.7.4c-.3 0-.6 0-.9-.1-.4 0-.7-.1-1.2-.2s-1-.4-1.5-.8c-.7-.5-1.5-1.3-1.9-2.4-.3-.8-.8-2.2-.8-2.2z"/><linearGradient id="SVGID_5_" gradientUnits="userSpaceOnUse" x1="6.599" y1="21.575" x2="19.456" y2="21.575" gradientTransform="matrix(1 0 0 -1 0 29.372)"><stop offset="0" stop-color="#692cc2"/><stop offset=".519" stop-color="#3e5bde"/><stop offset="1" stop-color="#229ee7"/></linearGradient><path d="M6.6 8.6l.9-1.3s0-.3 1.7-.4 10.2.3 10.2.3l-1.7 1.4H6.6z" fill="url(#SVGID_5_)"/><linearGradient id="SVGID_6_" gradientUnits="userSpaceOnUse" x1="6.599" y1="16.272" x2="19.752" y2="16.272" gradientTransform="matrix(1 0 0 -1 0 29.372)"><stop offset="0" stop-color="#692cc2"/><stop offset=".519" stop-color="#3e5bde"/><stop offset="1" stop-color="#229ee7"/></linearGradient><path d="M19.8 12.1l-2.2 1.7-9.6.3s-.8-.7-1-1c-.1-.3-.3-.6-.3-.6s10-.1 11-.1c.9-.1 2.1-.3 2.1-.3z" fill="url(#SVGID_6_)"/><linearGradient id="SVGID_7_" gradientUnits="userSpaceOnUse" x1="5.158" y1="11.118" x2="18.643" y2="11.118" gradientTransform="matrix(1 0 0 -1 0 29.372)"><stop offset="0" stop-color="#677cf4"/><stop offset=".276" stop-color="#374cd7"/><stop offset=".363" stop-color="#3752d8"/><stop offset=".475" stop-color="#3562db"/><stop offset=".6" stop-color="#337ce1"/><stop offset=".735" stop-color="#30a1e9"/><stop offset=".877" stop-color="#2dd0f2"/><stop offset="1" stop-color="#29fffc"/></linearGradient><path d="M18.6 17.6s-2.8 1.7-3 1.7-5.6.4-6.1.4c-.7 0-1.5-.2-2.1-.6-.5-.3-1.4-1.1-1.5-1.5-.2-.3-.7-.9-.7-.9s1.3.8 2.1 1.1c.9.3 2.8.2 3.6.2.9-.1 7.7-.4 7.7-.4z" fill="url(#SVGID_7_)"/><path class="st5" d="M17.6 3s-2-.6-3.2-.6c-1.3 0-2.9.1-3.7.4s-1.3.5-1.3.5.6.6.5 1.2-.7 1.4-1.4 1.6-1.5.3-2 .2c-.6-.1-1.9-.9-1.9-.9l-1-.7s1-1.4 2.6-2.1 3.3-1.5 5.4-1.5 3.6.5 4.4.9c1 .5 1.6 1 1.6 1z"/><linearGradient id="SVGID_8_" gradientUnits="userSpaceOnUse" x1="3.498" y1="22.558" x2="1.211" y2="16.736" gradientTransform="matrix(1 0 0 -1 0 29.372)"><stop offset="0" stop-color="#f8fffb"/><stop offset="1" stop-color="#f8fffb" stop-opacity="0"/></linearGradient><path d="M3.6 4.7s-.7.9-.9 1.4c-.2.4-.8 1.6-.9 2.8-.1 1.2-.1 2.1 0 2.8.1.6.4 1.5.4 1.5s.7-3.2.8-4c.1-.8.7-2.4 1.1-3 .5-.6.9-1.3.9-1.3l-1.4-.2z" fill="url(#SVGID_8_)"/><linearGradient id="SVGID_9_" gradientUnits="userSpaceOnUse" x1="4.536" y1="22.242" x2="4.155" y2="17.011" gradientTransform="matrix(1 0 0 -1 0 29.372)"><stop offset="0" stop-color="#f8fffb"/><stop offset="1" stop-color="#f8fffb" stop-opacity="0"/></linearGradient><path d="M5.1 4.9s-.8 1.1-1 1.4c-.2.3-.9 1.5-1 2.1 0 .6-.2 1.9-.2 1.9s1.3-2.4 1.7-2.8C5 7.1 6 5.7 6 5.7l-.9-.8z" fill="url(#SVGID_9_)"/></svg>