<svg version="1.1" id="Layer_1" xmlns="http://www.w3.org/2000/svg" x="0" y="0" viewBox="0 0 24 10.3" xml:space="preserve"><style>.st0{fill:#4a90e2}</style><circle class="st0" cx="1.7" cy="8.6" r="1.7"/><path class="st0" d="M22.3 0c-.9 0-1.7.8-1.7 1.7 0 1.4-.2 1.7-1.7 1.7h-.1c-.9.1-1.5.8-1.5 1.7 0 1.3-.3 1.7-1.7 1.7h-.2c-.9.1-1.5.8-1.5 1.7 0 .9.8 1.7 1.7 1.7.9 0 1.7-.7 1.7-1.6 0-1.2.4-1.7 1.7-1.7.9 0 1.7-.7 1.7-1.6v-.2c0-1.3.4-1.7 1.7-1.7.9 0 1.7-.8 1.7-1.7C24 .8 23.2 0 22.3 0zM12.2 3.5H12c-1.5 0-1.7-.4-1.7-1.7 0-1-.8-1.8-1.7-1.8-1 0-1.8.8-1.8 1.7 0 1.4-.2 1.7-1.7 1.7H5c-.9.1-1.6.8-1.6 1.7 0 .9.8 1.7 1.7 1.7.9 0 1.7-.7 1.7-1.6v-.1c0-1.3.4-1.7 1.7-1.7s1.7.5 1.7 1.7c.1.9.8 1.7 1.8 1.7s1.7-.8 1.7-1.7c0-.9-.7-1.6-1.5-1.6z"/></svg>