<svg xmlns="http://www.w3.org/2000/svg" viewBox="0 0 21.4 24.1"><path d="M11.6.3l8.8 5.1c.6.3.9.9.9 1.6v10.1c0 .7-.3 1.3-.9 1.6l-8.8 5.1c-.6.3-1.3.3-1.9 0L1 18.7c-.6-.3-.9-.9-.9-1.6V7c0-.7.3-1.3.9-1.6L9.8.3c.6-.3 1.2-.3 1.8 0z" fill="#7b00d0"/><path d="M11.7 4.6c1.3 0 2.6.3 3.9.8l-.9 2.3c-.5-.2-1-.3-1.4-.5-.4-.1-.9-.2-1.3-.2-.5 0-.9.1-1.2.4-.3.3-.4.7-.4 1.3V10H14v1.8h-3.6V13H14v1.8h-3.6c0 .5-.2.9-.4 1.3s-.6.7-1.1.9H16v2.6H5.4V17c.7-.3 1.1-.6 1.4-1 .3-.4.4-.8.4-1.4H5.5v-1.8h1.8v-1.2H5.5V10h1.8V8.8c0-1.4.4-2.4 1.1-3.1.8-.7 1.9-1.1 3.3-1.1z" fill="#fff"/></svg>