<svg xmlns="http://www.w3.org/2000/svg" viewBox="0 0 21.6 24"><path d="M5.712 9.122L10.85.076c.01-.017.029-.028.096 0l4.889 8.881a1.171 1.171 0 00.03 1.838l-4.516 8.146a1.21 1.21 0 00-1.032-.007L5.67 10.656a1.166 1.166 0 00.041-1.534h.001zm-.492 1.841l4.666 8.31a1.166 1.166 0 00-.216.427c-3.767-.902-6.107-1.46-7.022-1.675A11.432 11.432 0 011.634 16.3l2.99-5.263c.201.026.406.001.595-.072v-.002zm-.647-2.259l-3.704-6.6C3.393.763 6.526.06 10.27 0L5.276 8.791a1.203 1.203 0 00-.703-.087zm-.504.211a1.173 1.173 0 00.04 1.93L1.362 15.68a11.35 11.35 0 01-.804-3.545L.002 3.277A1.067 1.067 0 01.4 2.38l3.669 6.535zm7.92 10.797c-.04-.155-.112-.3-.21-.426l4.582-8.264c.198.04.402.03.595-.029l2.969 5.393a11.601 11.601 0 01-.869 1.494l-7.067 1.832zm-.889 1.44c.444-.1.791-.444.896-.887l6.547-1.698a11.566 11.566 0 01-2.803 2.51l-4.348 2.777a1.09 1.09 0 01-.293.132v-2.834zm-.545 0V24a1.098 1.098 0 01-.348-.145l-4.348-2.777A11.582 11.582 0 013.164 18.7c1.188.282 3.352.798 6.491 1.549.096.448.449.802.9.905v-.002zm6.444-12.4a1.22 1.22 0 00-.677-.034L11.526.004c3.638.08 6.696.775 9.169 2.082l-3.696 6.666zm.459.289l3.708-6.686c.291.215.453.562.432.923l-.556 8.86a11.351 11.351 0 01-.84 3.63l-2.777-5.044a1.17 1.17 0 00.062-1.652l-.029-.031zM10.8 5.681a.66.66 0 00-.649.641v2.345L6.687 10.8l.371.8 3.092-1.013v2.345l-.866.64v.64l1.516-.427 1.516.426v-.64l-.866-.64v-2.345l3.04 1.068.424-.854-3.463-2.134V6.322a.661.661 0 00-.648-.64l-.003-.001z" fill="#0092b5"/></svg>