<svg xmlns="http://www.w3.org/2000/svg" viewBox="0 0 24 24"><circle cx="12" cy="12" r="12" fill="#fe5d86"/><path d="M6 6.779c0-.43.354-.779.79-.779h5.691c3.357 0 4.541.396 5.357 1.201.51.518.777 1.228.735 1.954 0 1.388-.748 2.33-2.765 2.743 1.949.34 2.938 1.132 2.938 2.726a2.705 2.705 0 01-.765 2.022c-.799.787-2.103 1.354-5.616 1.354H6.79a.785.785 0 01-.79-.779V6.779zm4.321 4.472c0-.287.236-.52.527-.52h1.832c1.045 0 1.828-.051 2.19-.426a.883.883 0 00.242-.668.84.84 0 00-.225-.656c-.368-.362-1.149-.425-2.207-.425H9.27v6.924h3.375c1.149 0 2-.086 2.398-.482a.916.916 0 00.26-.703.966.966 0 00-.26-.72c-.402-.395-1.253-.425-2.398-.425H10.86a.529.529 0 01-.54-.536l.001-1.363z" fill="#fff"/></svg>