<svg xmlns="http://www.w3.org/2000/svg" viewBox="0 0 24 24"><path d="M22.1 24H1.9c-1 0-1.9-.9-1.9-1.9V1.9C0 .9.9 0 1.9 0h20.2c1 0 1.9.9 1.9 1.9v20.2c0 1-.9 1.9-1.9 1.9zM5.5 21.6c.1 0 .1-.1.1-.1v-3.2c0-.1.1-.1.1-.1h1.1c.1 0 .1-.1.1-.1v-.6c0-.1-.1-.1-.1-.1H3.3c-.1 0-.1.1-.1.1v.5c0 .1.1.1.1.1h1.1c.1 0 .1.1.1.1v3.2c0 .1.1.1.1.1h.9zm4.9-4.2v2.2c0 .6-.3 1.1-.9 1.1s-.9-.5-.9-1.1v-2.2c0-.1-.1-.1-.1-.1h-.8c-.1 0-.1.1-.1.1v2.2c0 1.3.7 2.1 1.9 2.1s1.9-.8 1.9-2.1v-2.2c0-.1-.1-.1-.1-.1h-.8s-.1 0-.1.1zm4.5 1.3h.7c.1 0 .1-.1.1-.1-.1-.8-.8-1.3-1.8-1.3-1.1 0-1.8.6-1.8 1.4s.6 1.1 1.5 1.2c.8.1 1.1.2 1.1.6 0 .3-.4.5-.8.5-.5 0-.8-.2-.9-.5 0-.1-.1-.1-.2-.1h-.7c-.1 0-.1 0-.1.1.1.9.9 1.4 1.8 1.4 1 0 1.9-.5 1.9-1.4 0-.8-.6-1.1-1.6-1.3-.7-.1-1-.2-1-.5s.3-.4.7-.4c.4 0 .7.2.9.5.1-.2.1-.1.2-.1zm1.8 2.9h1.7c1.3 0 2.3-.9 2.3-2.1 0-1.3-1-2.2-2.3-2.2h-1.7c-.1 0-.1.1-.1.1v4.1s0 .1.1.1zm1.7-.9c.7 0 1.2-.5 1.2-1.3s-.5-1.3-1.2-1.3h-.7c-.1 0-.1.1-.1.1v2.4c0 .1.1.1.1.1h.7zm5.3-6.1V1.9c0-.9-.7-1.6-1.6-1.6H1.9C1 .3.3 1 .3 1.9v12.6c0 .2.1.3.3.3h22.7c.2.1.4-.1.4-.2zM16.7 3H7.3c-.2 0-.3.1-.3.2v2.1c0 .1.1.2.2.2h3.6V12c0 .1.1.2.2.2h2.1c.1 0 .2-.1.2-.2V5.6h3.3c.1 0 .2-.1.2-.2V3.2c.2-.1.1-.2-.1-.2z" fill="#002868"/></svg>