<svg version="1.1" id="Layer_1" xmlns="http://www.w3.org/2000/svg" x="0" y="0" viewBox="0 0 22.6 24" xml:space="preserve"><style>.st0{fill-rule:evenodd;clip-rule:evenodd;fill:#5b5c5c}</style><path class="st0" d="M9.9 9.4v9.2c1.4-.5 2.5-1.6 2.5-2.8V9.4h.9c2 0 2.9-1.5 3.2-2.4H9.3c-.9 0-2.8.4-3.5 2.4h4.1z"/><path class="st0" d="M5.3 18.9C-.9 15.4-1.1 9 1.8 4.7 6.1-1.5 17.5-2.1 22 6.3 16.1-.3 7.2 1.8 3.7 7.1 1.6 10.3 1.4 15 5.3 18.9"/><path d="M17.3 5.1c6.2 3.5 6.4 9.9 3.5 14.2-4.3 6.2-15.7 6.9-20.2-1.6 5.9 6.6 14.8 4.6 18.3-.7 2.1-3.3 2.4-8-1.6-11.9" fill-rule="evenodd" clip-rule="evenodd" fill="#63beb3"/></svg>