<svg xmlns="http://www.w3.org/2000/svg" viewBox="0 0 24 24"><path d="M.337 0h23.327c.185 0 .336.151.336.337v23.327a.337.337 0 01-.337.336H.337A.337.337 0 010 23.663V.337C0 .151.151 0 .337 0z" fill="#322a3f"/><path d="M11.854 6.392L7.24 16.014h7.66c.222 0 .422.132.51.336l.008.019a.465.465 0 01-.023.414.728.728 0 01-.633.366H6.621a.634.634 0 01-.353-.107l-.043-.028a.638.638 0 01-.22-.807L11.45 5.002a.917.917 0 01.238-.304.532.532 0 01.675-.006.366.366 0 01.102.126L17.988 16.1c.075.153.09.329.044.493a.43.43 0 01-.415.313h-.063a.666.666 0 01-.602-.382l-4.763-10.13a.184.184 0 00-.245-.09.183.183 0 00-.09.088z" fill="#f4ae95"/></svg>