<svg xmlns="http://www.w3.org/2000/svg" viewBox="0 0 24 23.792"><path d="M11.284.58v.512c.179-.072.347-.168.5-.285-.171 0-.341-.226-.512-.226l.012-.001z"/><path d="M11.888.617c-.182 0-.371-.03-.545-.033h-.056C5.04.92.248 6.258.584 12.505a11.327 11.327 0 004.858 8.701 3.48 3.48 0 01-1.145-2.595 3.529 3.529 0 013.507-3.507l.701-.022v-.152a3.48 3.48 0 013.484-3.484A3.487 3.487 0 0115.17 13.5 7.08 7.08 0 0011.888.617z" fill="#b4e1ff"/><path d="M12.259.58c6.124.741 8.018 5.238 8.022 9.297 0 4.152-3.488 7.181-6.539 7.981a28.294 28.294 0 01-3.455.623l-.463.056a2.275 2.275 0 00-1.961 2.254 2.28 2.28 0 001.527 2.154c.159.037.323.067.489.1.665.118 1.338.177 2.013.178 6.255-.021 11.308-5.108 11.288-11.362C23.16 5.779 18.34.799 12.263.58h-.004z" fill="#90d595"/><path d="M12.259.58h-.916c.185 0 .371.019.545.037a7.077 7.077 0 013.281 12.889 3.486 3.486 0 00-6.673 1.431v.148l-.704.026a3.503 3.503 0 00-2.35 6.094c.222.156.449.297.682.437a11.039 11.039 0 003.266 1.297 2.274 2.274 0 01-1.356-3.017 2.294 2.294 0 011.464-1.32 2.77 2.77 0 01.326-.067l.463-.052a29.125 29.125 0 003.455-.626c3.051-.804 6.543-3.829 6.539-7.981 0-4.076-1.898-8.569-8.022-9.296z" fill="#fff"/><path d="M15.57 13.915l-.408-.408.408.408z"/><path d="M11.892.002h-.597C4.735.332-.315 5.917.015 12.477a11.892 11.892 0 005.089 9.167c.218.194.455.366.708.512a.59.59 0 00.204.063c1.008.576 2.096.999 3.229 1.257.184.064.374.108.567.13a12.03 12.03 0 002.083.185c6.569.115 11.987-5.117 12.102-11.686C24.112 5.536 18.88.118 12.311.003a8.359 8.359 0 00-.419-.001zM7.444 21.685a10.591 10.591 0 01-1.694-.96 2.94 2.94 0 012.057-5.049c.23 0 .493 0 .712-.022a.57.57 0 00.545-.567v-.148a2.921 2.921 0 015.586-1.197c.127.283.458.41.741.285a7.623 7.623 0 002.544-9.906c1.512 1.961 1.765 4.382 1.765 5.75 0 3.781-3.151 6.651-6.117 7.414-1.27.304-2.557.525-3.855.664a2.854 2.854 0 00-2.45 2.817c.006.304.058.605.156.893l.01.026zm-6.302-9.787a10.75 10.75 0 0110.32-10.751 6.502 6.502 0 013.885 11.492 4.051 4.051 0 00-7.384 1.876h-.178a4.078 4.078 0 00-4.078 4.078c0 .1 0 .196.022.297a10.705 10.705 0 01-2.595-6.992h.008zm10.75 10.75a10.757 10.757 0 01-2.365-.271 1.71 1.71 0 01.352-3.289 31.262 31.262 0 004.007-.697c3.373-.886 6.962-4.178 6.958-8.526a10.628 10.628 0 00-1.52-5.746c4.299 4.095 4.465 10.9.371 15.199a10.749 10.749 0 01-7.785 3.336l-.018-.006z" fill="#41474e"/></svg>