<svg version="1.1" id="Layer_1" xmlns="http://www.w3.org/2000/svg" x="0" y="0" viewBox="0 0 24 23.958" xml:space="preserve"><style>.st0{fill:#ffa1a1}</style><path class="st0" d="M12.002.13C5.446.13.13 5.437.13 11.979c0 6.543 5.316 11.849 11.872 11.849s11.867-5.306 11.867-11.849C23.87 5.437 18.554.13 12.002.13zM.874 11.979C.874 5.883 5.795.934 11.891.873c4.582.144 8.039 3.578 8.039 8.09 0 4.702-3.22 7.788-8.829 8.475-1.747.214-3.443.669-4.019 2.537-.121.386-.283 1.152.005 1.966C3.401 20.129.874 16.352.874 11.979zm11.128 11.11c-1.394 0-2.728-.26-3.954-.725-.609-.822-.423-1.78-.302-2.179.437-1.408 1.691-1.84 3.439-2.054 6.003-.734 9.442-4.07 9.442-9.163 0-2.579-1.045-4.837-2.751-6.422 3.155 1.961 5.255 5.451 5.255 9.433-.005 6.134-4.986 11.11-11.129 11.11z"/><path class="st0" d="M0 11.979C0 5.364 5.374 0 12.002 0 18.626 0 24 5.365 24 11.979c0 6.615-5.37 11.979-11.998 11.979C5.374 23.958 0 18.594 0 11.979zM12.002.26C5.517.26.26 5.509.26 11.979s5.257 11.719 11.742 11.719c6.485 0 11.737-5.248 11.737-11.719C23.74 5.509 18.482.26 12.002.26zm-.107.484c4.648.146 8.165 3.634 8.165 8.22 0 2.383-.817 4.365-2.351 5.837-1.532 1.47-3.768 2.421-6.592 2.768-1.747.214-3.361.662-3.911 2.446-.117.374-.272 1.109.003 1.884l.107.301-.287-.141C3.301 20.226.744 16.404.744 11.98.744 5.812 5.723.806 11.89.744h.005zm-.006.26C5.865 1.065 1.004 5.955 1.004 11.979c0 4.214 2.376 7.87 5.873 9.71-.175-.736-.029-1.4.081-1.751.602-1.952 2.381-2.414 4.128-2.628 2.785-.341 4.963-1.277 6.443-2.697 1.478-1.418 2.271-3.33 2.271-5.649-.001-4.438-3.397-7.817-7.911-7.96zm0 0h.003l-.001-.13-.004.13h.002zm5.898 1.638l.157-.206c3.192 1.984 5.317 5.514 5.317 9.543-.005 6.205-5.044 11.24-11.259 11.24-1.41 0-2.759-.263-4-.733l-.036-.013-.023-.031c-.647-.874-.446-1.884-.322-2.294a2.524 2.524 0 011.292-1.552c.608-.322 1.378-.486 2.256-.593 2.982-.365 5.313-1.374 6.897-2.911 1.582-1.535 2.43-3.608 2.43-6.123 0-2.543-1.03-4.767-2.709-6.327zm1.03.724c1.221 1.514 1.94 3.449 1.94 5.602 0 2.578-.871 4.72-2.509 6.309-1.636 1.588-4.026 2.614-7.047 2.983-.87.106-1.601.266-2.166.565-.558.296-.957.729-1.164 1.398-.116.384-.284 1.269.26 2.033 1.203.451 2.508.703 3.872.703 6.071 0 10.994-4.918 10.999-10.98a10.945 10.945 0 00-4.185-8.613z"/></svg>