<svg xmlns="http://www.w3.org/2000/svg" viewBox="0 0 15.6 24"><path d="M13.396 2.39C14.855 3.95 15.6 5.909 15.6 8.198c0 2.324-.745 4.284-2.206 5.844-1.167 1.228-2.562 1.958-4.183 2.224v1.361h3.307v1.494h-3.34v.797h3.341v1.393H9.211V24H6.389v-2.688H3.113v-1.394h3.308v-.797H3.114v-1.494H6.39v-1.394c-1.59-.265-2.984-.996-4.152-2.224C.746 12.449 0 10.489 0 8.166c0-2.357.714-4.315 2.206-5.843C3.696.763 5.546 0 7.817 0c2.238 0 4.086.763 5.579 2.39zm-3.05 8.864c.616-.797.941-1.826.941-3.088 0-1.228-.324-2.256-1.006-3.054-.647-.829-1.491-1.228-2.464-1.228-1.006 0-1.848.398-2.497 1.195-.65.797-.974 1.792-.974 3.054 0 1.294.325 2.323.974 3.12s1.492 1.195 2.496 1.195c1.039.001 1.914-.398 2.53-1.194z" fill="#01a64f"/></svg>