<svg xmlns="http://www.w3.org/2000/svg" viewBox="0 0 24 24"><circle cx="12" cy="12" r="12" fill="#7f27ff"/><path d="M11.532 10.5H6.015v5.417c-.006.554.216 1.088.615 1.479s.943.609 1.508.604h3.395l-.001-7.5zm.128-2.834h.594c.588-1.012 1.127-1.701 1.633-2.073.624-.46 1.263-.464 1.764.029.468.459.556 1.035.248 1.59a2.203 2.203 0 01-.347.454h2.181c.509 0 1.018.418 1.018 1 0 .5-.427 1-1.018 1h-5.351V8.332h-.849v1.333H6.268c-.509 0-1.018-.418-1.018-1 0-.5.427-1 1.018-1h2.205a2.489 2.489 0 01-.365-.428c-.366-.558-.322-1.148.155-1.616.501-.492 1.14-.488 1.765-.029.505.373 1.043 1.062 1.632 2.074zm-.987 0c-.435-.693-.823-1.163-1.155-1.407-.306-.225-.474-.226-.655-.049-.185.182-.197.338-.041.575.177.271.55.576 1.087.88h.764zm2.567 0h.915c.512-.294.851-.591.998-.855.127-.228.101-.401-.102-.6-.181-.178-.349-.177-.655.049-.333.243-.722.713-1.156 1.406zm-.859 2.833h5.518v5.417a2.042 2.042 0 01-.615 1.479 2.12 2.12 0 01-1.508.604h-3.395v-7.5z" fill="#fff"/></svg>