<svg xmlns="http://www.w3.org/2000/svg" viewBox="0 0 24 23.9"><path d="M19.8 6.7l-5.9-6c-1-1-2.7-1-3.7 0l-6 6c-.3.4-.3.9 0 1.3L6 9.8l1.2 1.1c.4.3.9.3 1.3 0l2.4-2.2c.7-.6 1.7-.6 2.3 0l2.4 2.2c.4.3.9.3 1.3 0L18 9.8 19.8 8c.4-.4.4-.9 0-1.3" fill="#3db6d3"/><path d="M.8 13.8l9.3 9.3c1 1 2.7 1 3.7 0l9.3-9.3c1.6-1.6.5-2.1-.7-3.2L21 9.2c-.4-.3-.9-.3-1.3 0l-2.4 2.2c-.7.6-1.7.6-2.3 0l-2.4-2.2c-.4-.3-.9-.3-1.3 0L9 11.5c-.7.6-1.7.6-2.3 0L4.3 9.2c-.4-.3-.9-.3-1.3 0l-1.3 1.2C.4 11.6-.9 12.2.8 13.8" fill="#e2e1e1"/></svg>