<svg data-name="Layer 1" xmlns="http://www.w3.org/2000/svg" viewBox="0 0 49.48 42.86"><path d="M12.84.28l24.26 14v14.28L0 7.14 11.89.28a1 1 0 01.95 0z" fill="#3ca9e5"/><path fill="#2853c3" d="M37.1 0L24.73 7.14l12.37 7.14V0z"/><path d="M37.1 0L49 6.86a1 1 0 01.48.83v28L37.1 28.56V0z" fill="#1a4199"/><path d="M49.47 35.7l-11.89 6.86a1 1 0 01-1 0l-24.25-14v-14.3z" fill="#2853c3"/><path d="M0 7.14v28a1 1 0 00.48.86l11.89 6.86v-28.6z" fill="#60beff"/><path fill="#3ca9e5" d="M12.37 42.84l12.36-7.14-12.36-7.14v14.28z"/></svg>