<svg xmlns="http://www.w3.org/2000/svg" viewBox="0 0 18.481 24.04"><path d="M14.372 15.486L1.306 2.228v7.194c0 2.192.889 4.177 2.325 5.613a7.912 7.912 0 005.613 2.325 7.902 7.902 0 005.128-1.874zM6.195 1.918a7.967 7.967 0 00-2.114 1.297l13.093 13.287V9.255a7.914 7.914 0 00-2.325-5.613 7.912 7.912 0 00-5.613-2.325 7.888 7.888 0 00-3.041.601zM3.178 2.3A9.188 9.188 0 019.236.03a9.2 9.2 0 016.523 2.702 9.198 9.198 0 012.702 6.523v8.813a.643.643 0 01-1.133.416l-2.053-2.083a9.195 9.195 0 01-6.03 2.245 9.2 9.2 0 01-6.523-2.702A9.194 9.194 0 01.02 9.422V.661h.002A.641.641 0 011.121.212L3.178 2.3zM18.46 22.058v-2.159a.643.643 0 00-1.286 0v2.159a.643.643 0 001.286 0zm-8.574 1.319v-3.234a.643.643 0 00-1.286 0v3.234a.643.643 0 001.286 0zm-8.575-3.27v-3.234a.643.643 0 00-1.286 0v3.234a.643.643 0 001.286 0z" fill="#48a3ff"/></svg>