<svg xmlns="http://www.w3.org/2000/svg" viewBox="0 0 23.616 24"><path d="M0 0v24h23.616V0H0zm8.256 2.784h2.208v2.304H8.256V2.784zm-5.568 0h2.304v2.304H2.688V2.784zm2.208 5.568v2.304H2.592V8.352h2.304zM4.32 21.024h-.96v-.864h.864v.864h.096zm.672-4.608H2.688v-2.208h2.304v2.208zm4.896 4.608h-.864v-.864h.864v.864zm0-5.376h-.864v-.864h.864v.864zm.672-4.896H8.256V8.448h2.304v2.304zm4.896 10.272h-.864v-.864h.864v.864zm0-5.376h-.864v-.864h.864v.864zm0-5.664h-.864V9.12h.864v.864zm.768-4.896H13.92V2.784h2.304v2.304zm4.896 15.936h-.864v-.864h.864v.864zm0-5.376h-.864v-.864h.864v.864zm0-5.664h-.864V9.12h.864v.864zm0-5.568h-.864v-.864h.864v.864z" fill="#202944"/></svg>