<svg xmlns="http://www.w3.org/2000/svg" viewBox="0 0 24 23.553"><path d="M0 11.776v11.776h24V0H0v11.776zm21.093-9.913c.018.03-5.123 5.183-5.153 5.164-.023-.014-.026-5.152-.003-5.175.029-.028 5.138-.018 5.156.011zM5.77 2.614c.03.018.036.093.036.429v.407l-1.314.012c-1.134.01-1.317.017-1.336.047-.029.047-.03.828 0 .905l.023.06 2.015.012.006.398c.004.273-.002.408-.021.43-.022.027-.202.033-1.01.033-.792 0-.988.006-1.01.032-.018.02-.028.297-.032.865l-.006.834H2.037l-.006-2.212c-.004-1.614.001-2.22.021-2.243.032-.039 3.657-.048 3.718-.009zm7.406-.009c.032.012.037.073.037.436v.421h-1.246c-.686 0-1.263.006-1.284.014-.032.012-.037.074-.037.447v.433h.998c.889 0 1 .004 1.013.037.019.049.019.748 0 .797-.013.033-.122.037-.983.038-.533 0-.983.009-.999.019-.023.015-.028.129-.024.488l.006.469 1.302.012c1.123.01 1.305.017 1.324.047.027.043.03.753.004.795-.015.023-.409.028-1.89.024l-1.87-.004-.006-2.214c-.006-2.061-.003-2.216.034-2.244.042-.031 3.541-.045 3.621-.015zm8.751 2.648v2.568l-.06.023c-.066.025-5.019.034-5.084.009-.02-.008-.037-.026-.037-.041 0-.041 5.104-5.126 5.145-5.126.033-.001.036.266.036 2.567zm-8.643 4.875c.013.02.02.204.017.424l-.006.389-.647.006c-.405.004-.656.015-.671.031-.016.016-.028.631-.036 1.819l-.012 1.795-1.019.013-.014-.053c-.008-.029-.014-.846-.015-1.814s-.003-1.763-.006-1.766a22.303 22.303 0 00-.677-.018l-.671-.014-.006-.407c-.006-.404-.006-.407.047-.429.1-.04 3.69-.018 3.716.024zm6.053-.013c.522.085.889.269 1.313.659.108.099.099.129-.098.336a6.176 6.176 0 00-.226.248c-.105.133-.125.13-.324-.051-.95-.867-2.385-.274-2.385.985 0 1.313 1.471 1.903 2.457.985.176-.164.15-.164.305 0 .466.494.446.447.267.628-1.169 1.188-3.232.789-3.836-.74-.64-1.622.778-3.336 2.527-3.05zm-1.349 8.365c.006.815.009.875.048.886.023.006.434.007.912.002l.871-.008.012-.877c.007-.482.015-.88.018-.883.038-.044.924.001.936.047.007.029.01 1.039.006 2.243l-.006 2.19h-.942l-.024-1.814h-1.814l-.024 1.814-.93.013v-4.501l.93.013.007.875z" fill="#202944"/></svg>