<svg xmlns="http://www.w3.org/2000/svg" viewBox="0 0 24 24"><circle cx="12" cy="12" r="12" fill="#71aff3"/><path d="M11.8 10.1c.2.1.5 0 .6 0 .1.5.4.9.6 1.1-.1 1.2-.6 1.6-1 1.6-.6 0-1-1.4-1-1.6.2-.1.6-.4.8-1.1zm-.7 4.1c.3-.2.5-.6.7-1.2.2.1.5 0 .6 0 .1.7.3 1.1.6 1.3-.1.7-.6 1.3-1 1.3-.5-.1-.8-1-.9-1.4zm-3.7 1.4c.2-.2.2-.6.1-1.3h.4c.3.7.5 1.1.9 1.3 0 .3 0 .7-.1.7-.6.3-1-.3-1.3-.7zm-1.9-1.2h.2c.3.8.9 1.3.9 1.3.2.4.3.7.1.7-.4 0-.7-.2-1.1-.8.1-.1.1-.2-.1-1.2zm-1.2 0c.5 2 1.3 1.9 1.3 1.8-.2-.3-.4-.5-.6-.6-.4-.5-.7-1.4-.7-1.2zm5.6 1.2c.3-.2.4-.7.4-1.4h.6c.1.4.2 1 .6 1.3 0 .5-.2.8-.5.8-.3.2-.9.2-1.1-.7zm-4-1.4c.2-.2.2-.6.3-1.1h.4c.1.6.4 1 .6 1.2.1 1 0 1.3-.2 1.3-.4-.1-.9-.9-1.1-1.4zm-1.4 0c0-.1 0-.7.1-1.1h.2c.2.9.5 1.1.5 1.1.2 1.1.2 1.4 0 1.3-.4-.1-.7-.9-.8-1.3zm3.7 0c.2-.2.4-.5.5-1.1.2.1.5 0 .6 0 .1.6.4 1 .7 1.2 0 .5 0 1.4-.7 1.2-.6-.2-1.1-1.1-1.1-1.3zm-.5-.1c-.6 0-.9-.9-.9-1.2.3-.3.4-.8.6-1.7h.4c0 1 .3 1.4.6 1.6-.1.8-.4 1.3-.7 1.3zm-2.8-1.2c.1-.2.1-.3.4-1.7h.2c0 1 .3 1.4.4 1.6 0 .5 0 1.2-.4 1.2-.1.1-.4-.2-.6-1.1zM4 11.2c.1 0 0 1.3.2 1.7 0 0 0 1.2-.1 1.1-.7-.8-.2-2.8-.1-2.8zm5.5 1.7c.3-.2.5-.7.8-1.7h.6c.1.7.3 1.2.6 1.6-.1.7-.5 1.3-.9 1.3-.8 0-1.1-1.1-1.1-1.2zm-3.8-1.8c.4-.1.6-.9.6-1 .1.1.3.1.4 0 0 .6.2.9.3 1-.1.8-.3 1.7-.7 1.7-.3-.1-.5-.9-.6-1.7zm-1.1 1.7c-.3 0-.4-1.2-.3-1.7 0 0 .3-.4.5-1H5c0 .6 0 .9.1 1-.1 0-.3 1.7-.5 1.7zm3.5-1.7c.2-.1.5-.7.7-1.1.2.1.4.1.6 0 .1.5.2.8.6 1-.1.8-.4 1.7-1 1.7s-.9-1.1-.9-1.6zm.4-1.3c-.3.7-.6 1.2-.9 1.2-.5 0-.5-1-.5-1.1.3-.3.6-.9.8-1.3h.3c0 .7.1 1 .3 1.2zM6.2 8.6c-.2.7-.1 1 0 1.2-.4 1-.6 1.2-.8 1.2-.3 0-.3-.6-.2-1.1.3-.2.9-1.3.9-1.3h.1zm-1.3.1c.1 0-.4.7-.3 1 0 .5-.5 1.3-.6 1.2-.2-.1.2-1.8.9-2.2zm6.5 1.1c-.1.5-.3 1.2-1.1 1.2-.4 0-.6-.6-.7-1.1.4-.3.7-.9.8-1.3h.5c.1.7.3 1 .5 1.2zM5.2 8.5c.1 0 .7-.8 1-.8.2 0-.3.5-.3.7-.1.2-.8 1.4-1 1.4-.2 0-.2-.6.3-1.3zm11.3 5.8c0 .7 0 1.1.1 1.3-.2.4-.7.9-1.2.7-.2 0-.2-.4-.1-.7.4-.2.7-.7.9-1.3 0 .1.1.1.3 0zm1.8 0h.2c-.2 1-.2 1.1-.2 1.3-.3.6-.6.8-1.1.8-.2 0-.1-.3.1-.7.1-.1.7-.5 1-1.4zm.7 1.2c-.2.2-.4.3-.5.6 0 .1.8.2 1.3-1.8-.1-.1-.3.8-.8 1.2zm-5.2-1.2c0 .6.1 1.1.4 1.4-.2.8-.9.8-1.1.7-.3-.1-.4-.4-.5-.8.4-.3.6-.9.6-1.3.2.1.4.1.6 0zm4.1-1.3c0 .6 0 .9.3 1.1-.2.5-.8 1.4-1.1 1.4-.2 0-.3-.3-.2-1.3.3-.2.5-.7.6-1.2.1.1.3.1.4 0zm1.6.1c0 .4 0 1 .1 1.1-.2.4-.5 1.2-.9 1.3-.2 0-.2-.2 0-1.3 0 0 .3-.3.6-1.2.1.1.2.1.2.1zm-4-.1c.1.7.2 1 .5 1.1 0 .2-.6 1.2-1.1 1.3-.6.1-.7-.7-.7-1.2.3-.2.6-.6.7-1.2.1.1.3.1.6 0zm1.7-.1c0 .3-.4 1.2-.9 1.2-.3 0-.5-.5-.6-1.2.2-.2.5-.7.6-1.6h.4c.1.7.3 1.3.5 1.6zm1.6-1.7c.2 1.4.3 1.5.4 1.7-.2.9-.5 1.2-.6 1.2-.4 0-.3-.7-.4-1.2.2-.2.4-.7.4-1.6.1-.1.1-.1.2-.1zm1 1.7c.2-.4.1-1.6.2-1.7.1 0 .5 2-.1 2.8-.1.1-.1-1.1-.1-1.1zm-5.9-1.7c.1.9.4 1.4.8 1.7 0 .1-.4 1.2-1.1 1.2-.5 0-.8-.6-.9-1.3.3-.4.6-.9.6-1.6h.6zm3.8-1.2c0 .1.3.9.6 1.1 0 .8-.2 1.7-.6 1.7-.4 0-.6-.9-.7-1.7.1-.1.3-.5.3-1 .1 0 .3 0 .4-.1zm2.1 1.1c0 .5 0 1.7-.3 1.7-.2-.1-.5-1.8-.5-1.8.1-.1.2-.5.1-1h.2c.2.6.5 1.1.5 1.1zM15.3 10c.2.4.5.9.8 1.1 0 .6-.4 1.7-.9 1.7-.7 0-.9-.8-1-1.7.3-.2.5-.6.5-1 .2 0 .4 0 .6-.1zm1.1.9c-.3 0-.6-.4-.9-1.1.2-.2.3-.6.2-1.2h.3c.3.5.5 1 .9 1.3 0 .1 0 1-.5 1zm1.5-1.1c0-.2.1-.5-.1-1.2h.2s.6 1.2.9 1.3c.1.5.1 1-.2 1.1-.3 0-.5-.3-.8-1.2zm1.6-.1c0-.3-.4-1-.4-1 .7.5 1 2.2.9 2.2-.1 0-.6-.8-.5-1.2zm-5.9 1.2c-.7 0-.9-.6-1-1.1.2-.1.5-.6.5-1.2h.5c.1.4.4 1 .7 1.3 0 .5-.2 1-.7 1zm4.3-3.2c.2 0 .9.8 1 .8.5.7.5 1.3.3 1.3-.3 0-.9-1.2-1-1.4 0-.2-.5-.7-.3-.7zm-10.2.1c-.1.3-.1.6 0 .7-.3.6-.7 1.4-1.1 1.3-.5-.1-.1-1.2 0-1.3.3-.1.9-1 1.1-1 .1.1 0 .3 0 .3zm2.2 0c0 .3 0 .6.3.7-.2.6-.6 1.3-1.2 1.3-.4-.1-.5-.8-.4-1.3.4-.1.8-1 1.1-1 .2 0 .2.2.2.3zm6.5.7c.1-.1.1-.4 0-.7 0 0-.1-.3 0-.3.2 0 .9.9 1.1 1 0 .1.4 1.2 0 1.3-.4.1-.8-.8-1.1-1.3zm-2.5 0c.2-.1.2-.5.3-.7 0 0 0-.3.2-.3s.7.9 1.1 1c.1.6 0 1.2-.4 1.3-.7.1-1-.8-1.2-1.3zm-1.9-1c.5 0 .5.9.8 1.1 0 .2-.1 1.3-.9 1.3-.6 0-.8-.8-.8-1.3.6-.3.4-1.1.9-1.1z" fill="#fff"/></svg>