<svg xmlns="http://www.w3.org/2000/svg" viewBox="0 0 24 23.2"><path d="M17.5 2.7c.7 0 1.3-.6 1.3-1.3S18.2 0 17.5 0s-1.3.6-1.3 1.4.5 1.3 1.3 1.3zm.3 3.5c.6 0 1.1-.5 1.1-1.1 0-.6-.5-1.1-1.1-1.1s-1.1.5-1.1 1.1.5 1.1 1.1 1.1zm3.1.4c.6 0 1.1-.5 1.1-1.1s-.5-1.1-1.1-1.1-1.1.5-1.1 1.1.5 1.1 1.1 1.1zm-.3 3c.5 0 1-.4 1-1s-.4-1-1-1-1 .4-1 1 .4 1 1 1zm2.4 1c.5 0 1-.4 1-1s-.4-1-1-1c-.5 0-1 .4-1 1 .1.6.5 1 1 1zm-5.5-1.4c.5 0 1-.4 1-1s-.4-1-1-1-1 .4-1 1 .4 1 1 1zm-.9 2.4c.5 0 .8-.4.8-.8 0-.5-.4-.8-.8-.8-.5 0-.8.4-.8.8-.1.4.3.8.8.8zm3.1.4c.5 0 .8-.4.8-.8 0-.5-.4-.8-.8-.8-.5 0-.8.4-.8.8-.1.5.3.8.8.8-.1 0-.1 0 0 0zm2.4 1c.5 0 .8-.4.8-.8 0-.5-.4-.8-.8-.8-.5 0-.8.4-.8.8s.4.8.8.8zm-1.2 1.8c.4 0 .7-.3.7-.7s-.3-.7-.7-.7c-.4 0-.7.3-.7.7 0 .4.3.7.7.7zm-2.5-.9c.4 0 .7-.3.7-.7s-.3-.7-.7-.7c-.4 0-.7.3-.7.7s.3.7.7.7zm-3.1-.5c.4 0 .7-.3.7-.7s-.3-.7-.7-.7c-.4 0-.7.3-.7.7 0 .4.4.7.7.7zm1.8 1.7c.3 0 .6-.3.6-.6s-.3-.6-.6-.6-.6.3-.6.6c-.1.3.2.6.6.6zm2.4 1c.3 0 .6-.3.6-.6s-.3-.6-.6-.6-.6.3-.6.6.3.6.6.6zm-1.4.7c.3 0 .5-.2.5-.5s-.2-.5-.5-.5-.5.2-.5.5.3.5.5.5zm-1.3.4c.2 0 .4-.2.4-.4s-.2-.4-.4-.4-.4.2-.4.4.2.4.4.4zm-1.1-1.3c.3 0 .5-.2.5-.5s-.2-.5-.5-.5-.5.2-.5.5c-.1.3.2.5.5.5zM14 14.7c.3 0 .6-.3.6-.6s-.3-.6-.6-.6-.6.3-.6.6c-.1.3.2.6.6.6zm5 7.8c.7 0 1.3-.6 1.3-1.3 0-.7-.6-1.3-1.3-1.3-.7 0-1.3.6-1.3 1.3s.6 1.3 1.3 1.3zm-3.4-1.7c.6 0 1.1-.5 1.1-1.1s-.5-1.1-1.1-1.1-1.1.5-1.1 1.1.5 1.1 1.1 1.1zm-1.9 2.4c.6 0 1.1-.5 1.1-1.1s-.5-1.1-1.1-1.1-1.1.5-1.1 1.1c0 .6.5 1.1 1.1 1.1zm-.6-4.5c.5 0 1-.4 1-1 0-.5-.4-1-1-1-.5 0-1 .4-1 1 .1.6.5 1 1 1zm-1.9 2.5c.5 0 1-.4 1-1s-.4-1-1-1c-.5 0-1 .4-1 1 .1.6.5 1 1 1zm-2 1.7c.5 0 1-.4 1-1 0-.5-.4-1-1-1-.5 0-1 .4-1 1s.4 1 1 1zm-1.7-2.2c.5 0 .8-.4.8-.8 0-.5-.4-.8-.8-.8-.5 0-.8.4-.8.8-.1.4.3.8.8.8zm2-1.7c.5 0 .8-.4.8-.8 0-.5-.4-.8-.8-.8-.5 0-.8.4-.8.8s.4.8.8.8zm1.9-2.5c.5 0 .8-.4.8-.8 0-.5-.4-.8-.8-.8-.5 0-.8.4-.8.8s.4.8.8.8zm-2.9.3c.4 0 .7-.3.7-.7 0-.4-.3-.7-.7-.7s-.7.3-.7.7c0 .4.3.7.7.7zm-2.1 1.7c.4 0 .7-.3.7-.7 0-.4-.3-.7-.7-.7-.4 0-.7.3-.7.7 0 .4.4.7.7.7zM6 16.6c.3 0 .6-.3.6-.6s-.3-.6-.6-.6-.6.3-.6.6.2.6.6.6zm0-1.8c.3 0 .5-.2.5-.5s-.2-.5-.5-.5-.5.2-.5.5.2.5.5.5zm.2-1.4c.2 0 .4-.2.4-.4s-.2-.4-.4-.4-.4.2-.4.4.2.4.4.4zm1.8-.3c.3 0 .5-.2.5-.5s-.2-.5-.5-.5-.5.2-.5.5.2.5.5.5zm2-.7c.3 0 .6-.3.6-.6s-.3-.6-.6-.6-.6.3-.6.6c-.1.3.2.6.6.6zm.4 1.9c.4 0 .7-.3.7-.7s-.3-.7-.7-.7-.7.3-.7.7.3.7.7.7zm-2.4.6c.3 0 .6-.3.6-.6s-.2-.7-.6-.7c-.3 0-.6.3-.6.6 0 .4.3.7.6.7zm-6.7-1c.7 0 1.3-.6 1.3-1.3s-.6-1.3-1.3-1.3-1.3.6-1.3 1.3c0 .8.6 1.3 1.3 1.3zm3-2.3c.6 0 1.1-.5 1.1-1.1s-.5-1.1-1.1-1.1-1.1.5-1.1 1.1c0 .6.5 1.1 1.1 1.1zm-1.2-3c.6 0 1.1-.5 1.1-1.1s-.4-1.1-1.1-1.1c-.6 0-1.1.5-1.1 1.1 0 .6.5 1.1 1.1 1.1zM6 7.2c.5 0 1-.4 1-1s-.4-1-1-1-1 .4-1 1 .5 1 1 1zm1.2 3c.5 0 1-.4 1-1s-.4-1-1-1-1 .4-1 1 .5 1 1 1zm2.6-.6c.5 0 .8-.4.8-.8 0-.5-.4-.8-.8-.8-.4-.1-.8.2-.8.7 0 .5.4.9.8.9zm2.3 0c.4 0 .7-.3.7-.7s-.3-.7-.7-.7-.7.3-.7.7c0 .3.3.7.7.7zm1.9.4c.3 0 .6-.3.6-.6s-.3-.6-.6-.6-.6.3-.6.6.2.6.6.6zm.2-2.2c.3 0 .5-.2.5-.5s-.2-.5-.5-.5-.5.2-.5.5.2.5.5.5zm-1.4-.7c.3 0 .6-.3.6-.6s-.3-.6-.6-.6-.6.3-.6.6.2.6.6.6zm-1.9-.5c.4 0 .7-.3.7-.7 0-.4-.3-.7-.7-.7s-.7.3-.7.7c0 .4.3.7.7.7zm-2.2 0c.5 0 .8-.4.8-.8 0-.5-.4-.8-.8-.8-.5 0-.9.3-.9.8s.4.8.9.8zM5.6 4.5c.5 0 .9-.4.9-.9s-.4-.9-.9-.9-.9.4-.9.9.4.9.9.9zM8.2 4c.5 0 .8-.4.8-.8s-.3-.9-.8-.9-.8.4-.8.8.4.9.8.9zm2.3 0c.4 0 .7-.3.7-.7s-.3-.7-.7-.7-.7.3-.7.7c0 .4.3.7.7.7zm1.9.4c.3 0 .6-.3.6-.6s-.3-.6-.6-.6-.6.3-.6.6.2.6.6.6zm1.4.8c.3 0 .5-.2.5-.5s-.2-.5-.5-.5-.5.2-.5.5.2.5.5.5zm1 .8c.2 0 .4-.2.4-.4s-.2-.4-.4-.4-.4.2-.4.4.2.4.4.4z" fill="#e7bd5c"/></svg>