<svg version="1.1" id="Слой_1" xmlns="http://www.w3.org/2000/svg" xmlns:xlink="http://www.w3.org/1999/xlink" x="0" y="0" viewBox="0 0 72 24" xml:space="preserve"><style/><defs><path id="SVGID_1_" d="M0 0h72v24H0z"/></defs><clipPath id="SVGID_2_"><use xlink:href="#SVGID_1_" overflow="visible"/></clipPath><path d="M4 0H0v4.1h4V24h4.1V4.1H4zm20.5 7.9h-7.8V4.1h7.8V0H12.7v24h15.8V7.9h-4zm-3.9 12h-4V12h7.8v8h-3.8z" fill="#00cdcd"/><path d="M68.2 4.1V0h-4.1v24h4.1V8.1H72v-4zM56.2 0h4v4.1h-4zm0 12v12h4.1V7.9h-4.1zm-8.1-4.1h-7.6V4.1h-4V0h-4v4.1h4V24h15.6V7.9h-4zm0 8V20h-7.6v-8h7.6v3.9z" fill="#fff"/></svg>