<svg xmlns="http://www.w3.org/2000/svg" viewBox="0 0 536.47 574.77"><defs><clipPath id="clip-path" transform="translate(-395.82 -29.71)"><path transform="rotate(-29.49 477.822 97.885)" fill="none" d="M452.18 89.32h51.39v17.13h-51.39z"/></clipPath><style>.cls-9{fill:none}.cls-3{font-size:24.08px;fill:#8592a2;font-family:FuturisCyrillic}.cls-6{fill:#6f5037}.cls-7{fill:#667329}.cls-8{fill:#484f18}.cls-9{stroke:#fff;stroke-miterlimit:10}.cls-10{fill:#fff}.cls-11{fill:#ffab00}.cls-12{fill:#ff8000}.cls-14{fill:#1d1d1b}.cls-15{fill:#00cdcd}.cls-17{fill:#fc2727}.cls-18{clip-path:url(#clip-path)}</style></defs><g style="isolation:isolate"><g id="Layer_2" data-name="Layer 2"><text class="cls-3" transform="translate(146.1 554.84)">GENERAL PARTNER</text><path d="M543.12 404.87A41.48 41.48 0 01560 333.66a23.65 23.65 0 0113.63-37.29 41.48 41.48 0 0169.12-45.06 41.54 41.54 0 0150.47 8.69 23.48 23.48 0 0121.92-3.43 41.47 41.47 0 0166.14 7.43 41.33 41.33 0 0113.25-6 41.48 41.48 0 00-64.48-28.18 41.46 41.46 0 00-66.14-7.43 23.53 23.53 0 00-21.91 3.44 41.52 41.52 0 00-50.43-8.69 41.48 41.48 0 00-69.12 45.06 23.65 23.65 0 00-13.63 37.29 41.48 41.48 0 00-16.92 71.21 41.49 41.49 0 0040.62 68.41 41.37 41.37 0 0110.61-34.24z" transform="translate(-395.82 -29.71)" fill="#6ce077"/><path d="M574.19 453.72a41.5 41.5 0 0039.25-28 41.32 41.32 0 0027.37 11.7v.59l.55-.57h1a41.25 41.25 0 0023.71-7.44 41.48 41.48 0 0075.56-23.66 43.33 43.33 0 00-.25-4.58c1.06.08 2.13.14 3.21.14a41.46 41.46 0 0040-52.51 41.46 41.46 0 001.41-59.61 41.33 41.33 0 008.53-31.78 41.33 41.33 0 00-13.25 6 41.47 41.47 0 00-66.14-7.42 23.48 23.48 0 00-21.92 3.42 41.54 41.54 0 00-50.43-8.68 41.48 41.48 0 00-69.12 45.06A23.65 23.65 0 00560 333.66a41.48 41.48 0 00-16.92 71.21 41.37 41.37 0 00-10.61 34.24 41 41 0 007.87-2.85 41.42 41.42 0 0033.85 17.46z" transform="translate(-395.82 -29.71)" fill="#1fc25a"/><path class="cls-6" d="M243.49 261.04l-3.47 261.55 31.23 3.46-21.7-262.45-6.06-2.56z"/><path class="cls-6" d="M254.7 453.49l87.46-120.52 3.96.46-87.83 137.09-3.59-17.03zm-7.39-116.82L214.2 282.2l-2.1 4.03 31.58 65.31 3.63-14.87zm1.15 52.06l-42-52.06-1.74 8.08 40.02 59.91 3.72-15.93zm2.67-32.47l33.93-47.71 1.03 6.16-30.97 61.84-3.99-20.29z"/><path class="cls-6" d="M671.06 314.86c10.88-7.73 23.67-18.94 30.86-30 6.48-9.93 9.9-20.44 14.21-30.65 0 13.29-7.63 31.2-16 41.44-4.32 5.27-10.05 9.7-14.61 15.07-2.23 2.62-19.73 13.75-14.25 4.1" transform="translate(-395.82 -29.71)"/><path class="cls-7" d="M723.68 238.44s-16.44 9.13-8.38 21.33v-.08c14.1-3.76 8.38-21.25 8.38-21.25z" transform="translate(-395.82 -29.71)"/><path class="cls-8" d="M728.44 266.78s-18.59-2.79-19.65 11.79h.08c13.45 5.56 19.57-11.79 19.57-11.79zm-13.76 40.87s-9.4-16.29-21.47-8h.09c3.99 14.01 21.38 8 21.38 8z" transform="translate(-395.82 -29.71)"/><path class="cls-8" d="M703.79 259.77s-11.73 14.69.36 22.91v-.09c11.59-8.83-.36-22.82-.36-22.82z" transform="translate(-395.82 -29.71)"/><path class="cls-7" d="M718.3 296.91s-13.27-13.32-22.8-2.24h.08c7.42 12.52 22.72 2.24 22.72 2.24zm-22.1-31.68s-7.22 17.37 6.67 21.92v-.08c8.67-11.69-6.67-21.84-6.67-21.84zm-96.53 29.01s-4.35 19.85 11.3 22v-.09c6.97-14.06-11.3-21.91-11.3-21.91zM641.3 274s-12.07 16.35 1.32 24.74v-.1c12.15-9.98-1.32-24.64-1.32-24.64zm14.23 30.29s-18.15 9.15-10 22.67v-.08c15.47-3.46 10-22.59 10-22.59z" transform="translate(-395.82 -29.71)"/><path class="cls-8" d="M625.29 293.67s-.81 20.3 15 19.73v-.08c4.37-15.11-15-19.65-15-19.65z" transform="translate(-395.82 -29.71)"/><path class="cls-7" d="M701.23 333.48s-19.35-6.19-23 9.18h.08c13.39 8.27 22.92-9.18 22.92-9.18zm49.03 11.6s-19.08 7-12.51 21.37v-.08c15.71-1.67 12.51-21.29 12.51-21.29z" transform="translate(-395.82 -29.71)"/><path class="cls-8" d="M693.7 405.88s-7.86 12.71 2.46 18.05v-.07c8.3-8.07-2.46-17.98-2.46-17.98zm21.63 24.77s-14.51-9.69-21.15 2.14h.08c9.08 10.01 21.07-2.14 21.07-2.14zM669 334.56s-8.86 12.77 1.57 18.88v-.07c9.04-7.93-1.57-18.81-1.57-18.81z" transform="translate(-395.82 -29.71)"/><path class="cls-7" d="M589.27 355.8s0 20.32 15.77 19.1l-.06-.08c3.82-15.27-15.71-19.02-15.71-19.02zm-.55 28.7s13.17 11.17 21 .31h-.07c-7.75-10.89-20.93-.31-20.93-.31zm33.07-19.67s-15.61 13-4.59 24.34v-.09c14.2-6.84 4.59-24.25 4.59-24.25z" transform="translate(-395.82 -29.71)"/><path class="cls-8" d="M694.83 365.22s-13.61-15.09-24.5-3.65h.09c7.38 13.93 24.41 3.65 24.41 3.65zm-75.26-61.57s-13.55 15.14-1 24.75v-.09c13.04-8.82 1-24.66 1-24.66z" transform="translate(-395.82 -29.71)"/><path class="cls-7" d="M632 324.35s-12.33 11.41-2.75 20.29v-.08c11.45-6.25 2.75-20.21 2.75-20.21zm-30.14 9.38s8.95 13.44 18.84 5.7h-.07c-4.19-11.82-18.77-5.7-18.77-5.7z" transform="translate(-395.82 -29.71)"/><path class="cls-8" d="M605.87 351.86s11.26 16.92 23.71 7.18h-.09c-5.28-14.87-23.62-7.18-23.62-7.18z" transform="translate(-395.82 -29.71)"/><path class="cls-6" d="M322.84 364.61l11.51-62.7-4.26 1.61-22.01 77.35 14.76-16.26z"/><path class="cls-7" d="M732 317.76s-16.45 11.93-6.22 24v-.09c14.66-5.9 6.22-23.91 6.22-23.91z" transform="translate(-395.82 -29.71)"/><path class="cls-8" d="M739.84 342.36s-18 2-15.36 15.88l.06-.06c13.92 1.87 15.3-15.82 15.3-15.82zm-23.99-11.43s-8.3 16.12 4.69 21.59v-.08c9.26-10.55-4.69-21.51-4.69-21.51zm-156-37.18s-18.09 1.09-16.18 15.05l.06-.05c13.81 2.59 16.12-15 16.12-15z" transform="translate(-395.82 -29.71)"/><path class="cls-7" d="M709.56 342.48s-2.25 16 10.28 16.79v-.07c4.67-11.59-10.28-16.72-10.28-16.72z" transform="translate(-395.82 -29.71)"/><path class="cls-8" d="M700.49 358.69s-2.83 20.12 12.93 21.12v-.08c5.89-14.59-12.93-21.04-12.93-21.04z" transform="translate(-395.82 -29.71)"/><path class="cls-6" d="M559.46 317.86c-20.18-10.59-22.56-23.34-33-37.07-4.3-5.68-8.4-10.92-11.27-17.58-2.54-5.86-5.83-11-7.37-17.76-3.31 3.91 2.46 20.53 4.66 25.38 3.73 8.2 10.12 14.7 14.41 22.59a104.71 104.71 0 0017 22.79c2 2.13 8.91 11.17 12.2 11.42 3.92.29 8.4-6.48 3.78-9.63" transform="translate(-395.82 -29.71)"/><path class="cls-7" d="M510.57 303.13s16.1 9.92 22.82-3.15h-.08c-10.22-10.47-22.74 3.15-22.74 3.15zm-19.73-41.86s10 16.07 21.83 7.4h-.09c-4.45-13.99-21.74-7.4-21.74-7.4zm10.24 17.51s10 16.08 21.83 7.4h-.08c-4.45-13.99-21.75-7.4-21.75-7.4z" transform="translate(-395.82 -29.71)"/><path class="cls-8" d="M527 252.75s-17.33 7.57-10.43 20.55v-.08c14.49-2.42 10.43-20.47 10.43-20.47z" transform="translate(-395.82 -29.71)"/><path class="cls-7" d="M538.4 266.75s-17.33 7.57-10.4 20.55v-.07c14.46-2.43 10.4-20.48 10.4-20.48zm10.89 19.68S532 294 538.87 307v-.07c14.48-2.44 10.42-20.5 10.42-20.5z" transform="translate(-395.82 -29.71)"/><path class="cls-6" d="M612.53 555.77h71.66c-15.7-36.47-25-69.34-33.7-164.25.31 9.11-14 37.45-14 37.45-3.41 66.54-6.91 93.31-23.96 126.8z" transform="translate(-395.82 -29.71)"/><path class="cls-6" d="M318.71 374.51l22.04-13.3v-1.9l-17.2 5.34-4.84 9.86z"/><path class="cls-9" d="M252.54 537.1v-22.03"/><path class="cls-10" d="M651.22 544.92a2.86 2.86 0 10-2.86 2.86 2.86 2.86 0 002.86-2.86z" transform="translate(-395.82 -29.71)"/><text class="cls-3" transform="translate(417.29 351.92)">DEALERS</text><path class="cls-9" d="M412.77 349.79H262.45"/><circle class="cls-10" cx="262.59" cy="349.79" r="2.86"/><path class="cls-9" d="M345.77 349.79l-32.67 29.26"/><path class="cls-10" d="M707.12 406.54a2.86 2.86 0 104 .22 2.85 2.85 0 00-4-.22z" transform="translate(-395.82 -29.71)"/><text class="cls-3" transform="translate(417.29 288.94)">REFERRALS</text><path class="cls-9" d="M412.76 285.93h-54.8l-45.62-10.73"/><path class="cls-10" d="M709 302.16a2.86 2.86 0 102.13 3.44 2.85 2.85 0 00-2.13-3.44z" transform="translate(-395.82 -29.71)"/><path class="cls-9" d="M357.96 285.93l-43.91-20.81"/><path class="cls-10" d="M711.22 292.31a2.86 2.86 0 101.36 3.81 2.86 2.86 0 00-1.36-3.81z" transform="translate(-395.82 -29.71)"/><path class="cls-9" d="M357.96 285.93l-64.98 21.62"/><path class="cls-10" d="M688 334.5a2.86 2.86 0 103.62 1.81 2.87 2.87 0 00-3.62-1.81z" transform="translate(-395.82 -29.71)"/><path class="cls-9" d="M357.96 285.93l-8.14 36.29"/><path class="cls-10" d="M742.88 351.17a2.86 2.86 0 103.41-2.16 2.85 2.85 0 00-3.41 2.16z" transform="translate(-395.82 -29.71)"/><path class="cls-9" d="M357.96 285.93l-38.53 34.58"/><path class="cls-10" d="M713.45 348a2.86 2.86 0 104 .22 2.86 2.86 0 00-4-.22z" transform="translate(-395.82 -29.71)"/><path class="cls-11" d="M396.61 153.26l48.95 8.4-17.18 46.6 44.53-22 13.49 47.8 23.1-44 39 30.79-7.18-49.18 49.66 2-34.71-35.55 41.32-27.6-49-8.39 17.18-46.6-44.53 22-13.44-47.82-23.1 44-39-30.78 7.18 49.18-49.66-2 34.71 35.55zm75.59-65.4a50.58 50.58 0 11-19.13 68.93 50.58 50.58 0 0119.13-68.93z" transform="translate(-395.82 -29.71)"/><path class="cls-12" d="M408.37 182.07l48.83-6.65-2.38 49.23 35.6-34.1 27 41.25 8.75-48.52 46.09 17.51-21.45-44.39 47.57-12.93L555 120.14l30.86-38.42L537 88.36l2.38-49.22-35.6 34.1L476.79 32 468 80.51 422 63l21.44 44.39-47.57 12.93 43.41 23.34zm63.83-94.21a50.58 50.58 0 11-19.13 68.93 50.58 50.58 0 0119.13-68.93z" transform="translate(-395.82 -29.71)"/><circle class="cls-12" cx="497.1" cy="131.89" r="44.02" transform="rotate(-29.49 242.694 869.018)"/><path d="M487.26 174.8a44 44 0 0136.56-77.9 44 44 0 10-36.56 77.9z" transform="translate(-395.82 -29.71)" style="mix-blend-mode:multiply" fill="#ccc"/><path class="cls-11" d="M535.42 110.22a44.07 44.07 0 00-7.23-9.49 44 44 0 00-36.61 74.84 44 44 0 0043.84-65.35z" transform="translate(-395.82 -29.71)"/><path class="cls-14" transform="rotate(-29.49 239.49 863.36)" d="M456.79 123.52h74.23v5.44h-74.23z"/><path class="cls-14" transform="rotate(-29.49 225.297 875.998)" d="M463.89 137.57h31.64v2.6h-31.64z"/><path class="cls-14" transform="rotate(-29.49 227.716 877.61)" d="M467.63 139.18h29v2.6h-29z"/><path class="cls-14" transform="rotate(-29.49 229.013 879.86)" d="M471.56 141.43h23.74v2.6h-23.74z"/><path class="cls-14" transform="rotate(-29.49 230.329 882.117)" d="M475.44 143.69h18.58v2.6h-18.58z"/><path class="cls-14" transform="rotate(-29.49 231.53 884.424)" d="M479.29 145.99h13.31v2.6h-13.31z"/><path class="cls-14" transform="rotate(150.51 317.952 53.709)" d="M496.14 119.34h31.64v2.6h-31.64z"/><path class="cls-14" transform="rotate(150.51 318.084 56.62)" d="M497.59 122.24h29v2.6h-29z"/><path class="cls-14" transform="rotate(150.51 319.341 58.891)" d="M501.47 124.52h23.74v2.6h-23.74z"/><path class="cls-14" transform="rotate(150.51 320.602 61.17)" d="M505.32 126.79h18.58v2.6h-18.58z"/><path class="cls-14" transform="rotate(150.51 321.95 63.4)" d="M509.29 129.02h13.31v2.6h-13.31z"/><path class="cls-10" transform="rotate(-29.49 220.806 881.56)" d="M473.93 143.14h2.56v2.56h-2.56z"/><path class="cls-10" transform="rotate(-29.49 224.305 882.543)" d="M477.44 144.14H480v2.56h-2.56z"/><path class="cls-10" transform="rotate(-29.49 225.282 879.062)" d="M478.4 140.66h2.56v2.56h-2.56z"/><path class="cls-10" transform="rotate(-29.49 227.786 883.52)" d="M480.92 145.11h2.56v2.56h-2.56z"/><path class="cls-10" transform="rotate(-29.49 228.763 880.039)" d="M481.89 141.62h2.56v2.56h-2.56z"/><path class="cls-10" transform="rotate(-29.49 251.027 864.447)" d="M504.16 126.05h2.56v2.56h-2.56z"/><path class="cls-10" transform="rotate(-29.49 254.541 865.453)" d="M507.67 127.05h2.56v2.56h-2.56z"/><path class="cls-10" transform="rotate(-29.49 255.499 861.967)" d="M508.64 123.56h2.56v2.56h-2.56z"/><path class="cls-10" transform="rotate(-29.49 258.022 866.43)" d="M511.16 128.02h2.56v2.56h-2.56z"/><path class="cls-10" transform="rotate(-29.49 259.004 862.93)" d="M512.13 124.53h2.56v2.56h-2.56z"/><path class="cls-15" d="M468.93 137.23l45.75-25.87c9.49-5.36 15-13.49 12.41-18.15l-17.53-10.44s2.27-4.09-31.69 15.12c-33.23 18.79-29.48 19.47-29.48 19.47l.53 21c2.4 4.28 11.36 3.77 20.01-1.13z" transform="translate(-395.82 -29.71)"/><path class="cls-14" d="M475.42 68.61L454 80.7c-13.23 7.48-18.64 22.93-11.16 36.16l5.58 9.87s6.86 1.15 36.8-15.78c29.3-16.56 32.49-23.4 32.49-23.4l-5.59-9.87c-7.44-13.23-23.47-16.55-36.7-9.07z" transform="translate(-395.82 -29.71)"/><path d="M463.09 71.51h2.16a2.15 2.15 0 012.15 2.15v1.92h-6.6v-1.79a2.28 2.28 0 012.29-2.28z" transform="rotate(-29.49 209.699 810.687)" fill="#840013"/><path class="cls-10" d="M490.36 157.48s17.37.37 31.6-17.86c10.24 18.09-21.36 35.96-31.6 17.86z" transform="translate(-395.82 -29.71)"/><circle class="cls-17" cx="129.16" cy="104.93" r="3.54"/><circle class="cls-17" cx="88.96" cy="126.95" r="3.54"/><g class="cls-18"><path class="cls-15" d="M57.95 71.96l-2.48 1.41 1.44 2.55 2.48-1.41 1.34 2.36.07.13 1.37 2.42 1.37 2.42.07.13 1.09 1.92.24.44 1.45 2.54 2.54-1.44-1.44-2.54-.24-.44-1.09-1.92-.07-.13-1.37-2.42-1.37-2.42-.07-.13-1.34-2.36-2.55 1.44-1.44-2.55z"/><path class="cls-15" d="M469.29 99.38l-2.36 1.34-.13.07-2.36 1.33-1.33-2.36 2.36-1.33.12-.07L468 97l-1.44-2.55-2.36 1.34-.12.07-2.36 1.33-2.49 1.41 1.44 2.55 1.37 2.42.07.12 1.34 2.36 1.37 2.43.07.12 1.37 2.42.28.5 1.12 2 2.49-1.41 2.36-1.33.12-.07 2.36-1.34 2.49-1.4-1.09-1.93-.35-.62-1.42-2.42-.07-.13-1.34-2.36-1.44-2.51zm1.79 8.83l-.12.07-2.37 1.33-1.37-2.42-.07-.13-1.33-2.36 2.36-1.33.12-.07 2.36-1.34 1.37 2.43.08.12 1.37 2.42-2.37 1.34z" transform="translate(-395.82 -29.71)"/></g><g class="cls-18"><path class="cls-10" d="M99.28 51.96l-1.44-2.55-2.55 1.44 1.44 2.55 1.34 2.36.07.12 1.37 2.42 1.37 2.43.07.12 1.33 2.36.35.62 1.09 1.93 2.55-1.44-1.09-1.93-.35-.62-1.34-2.36-.07-.12-1.37-2.42-1.37-2.43 2.37-1.33-1.41-2.49-2.36 1.34z"/><path class="cls-10" transform="rotate(-29.49 233.767 821.044)" d="M486.74 82.44h2.85v2.93h-2.85z"/><path class="cls-10" d="M94.6 61.08l1.37 2.42.07.13.98 1.74.35.62 1.44 2.54 2.55-1.44-1.44-2.54-.35-.62-.98-1.74-.07-.13-1.37-2.42-1.44-2.55-2.55 1.44 1.44 2.55z"/><path class="cls-10" d="M484 91.09l-2.36 1.34-1.87 1-.49.28-1.34-2.36-2.48 1.4-1.46-2.49-2.49 1.4 1.44 2.55 2.49-1.41 1.37 2.43.07.12 1.33 2.36 1.37 2.43.07.12 1.37 2.42.71 1.24.7 1.25 2.36-1.34.12-.07 1.12-.63 1.24-.7 2.36-1.34.13-.07 2.36-1.33-.74-1.31-.7-1.24-1.37-2.42-.07-.13-1.34-2.36-1.44-2.55-2.39 1.32zm2.81 5l.07.12 1.37 2.43-2.36 1.33-1.24.7-1.12.64-1.37-2.43-.07-.12-1.37-2.42.49-.28L483 95l2.36-1.33z" transform="translate(-395.82 -29.71)"/></g><ellipse cx="496.3" cy="113.3" rx="7.43" ry="4.4" transform="rotate(-30 242.95 837.058)" fill="#fff4a4" stroke="#1d1d1b" stroke-miterlimit="10"/><path stroke-width="2" fill="#fff4a4" stroke="#1d1d1b" stroke-miterlimit="10" d="M93.93 87.07l12.73-7.62"/><path class="cls-6" d="M137.66 273.69h1.09v9.07h-1.09z"/><ellipse class="cls-12" cx="134.5" cy="295.61" rx="10.86" ry="13.48"/><ellipse class="cls-11" cx="141.28" cy="295.61" rx="10.22" ry="13.48"/><path class="cls-6" d="M226.65 222.97h.67v5.61h-.67z"/><ellipse class="cls-12" cx="224.68" cy="236.54" rx="6.72" ry="8.35"/><ellipse class="cls-11" cx="228.89" cy="236.54" rx="6.33" ry="8.35"/><path class="cls-8" d="M749.7 385.62s-13-4.21-15.51 6.13c9.05 5.61 15.51-6.13 15.51-6.13z" transform="translate(-395.82 -29.71)"/><path class="cls-6" d="M358.24 203.24h1.44v4.67h-1.44z"/><ellipse class="cls-12" cx="354.04" cy="224.96" rx="14.4" ry="17.88"/><ellipse class="cls-11" cx="363.04" cy="224.96" rx="13.56" ry="17.88"/><text class="cls-3" transform="translate(417.29 226.06)">PROFIT</text><path class="cls-9" d="M412.77 223.04h-47.25"/><path class="cls-10" d="M761.49 249.89a2.86 2.86 0 102.85 2.86 2.86 2.86 0 00-2.85-2.86z" transform="translate(-395.82 -29.71)"/></g></g></svg>