<svg xmlns="http://www.w3.org/2000/svg" viewBox="0 0 202.56 204.36"><defs><clipPath id="clip-path"><path transform="rotate(-29.49 82.043 68.173)" fill="none" d="M56.36 59.61h51.39v17.13H56.36z"/></clipPath><style>.cls-3{fill:#ffab00}.cls-4{fill:#ff8000}.cls-6{fill:#1d1d1b}.cls-7{fill:#fff}.cls-8{fill:#00cdcd}.cls-10{fill:#fc2727}.cls-11{clip-path:url(#clip-path)}</style></defs><g style="isolation:isolate"><g id="Слой_2" data-name="Слой 2"><g id="Layer_2" data-name="Layer 2"><path class="cls-3" d="M.79 123.55l49 8.4-17.18 46.6 44.53-22 13.49 47.8 23.1-44 39 30.79L145.5 142l49.66 2-34.71-35.6 41.32-27.59-49-8.4L170 25.82l-44.53 22L112 0 88.87 44l-39-30.78 7.19 49.17-49.66-2L42.11 96zm75.59-65.4a50.58 50.58 0 11-19.13 68.93 50.59 50.59 0 0119.13-68.93z"/><path class="cls-4" d="M12.55 152.36l48.83-6.65L59 194.94l35.6-34.1 27 41.25 8.74-48.53 46.1 17.52L155 126.69l47.58-12.93-43.43-23.33L190 52l-48.83 6.64 2.38-49.22L108 43.53 81 2.27 72.22 50.8 26.13 33.28l21.44 44.39L0 90.6l43.41 23.34zm63.83-94.21a50.58 50.58 0 11-19.13 68.93 50.59 50.59 0 0119.13-68.93z"/><circle class="cls-4" cx="101.28" cy="102.18" r="44.02" transform="rotate(-29.49 101.269 102.18)"/><path d="M91.44 145.09A44 44 0 01128 67.19a44 44 0 10-36.56 77.9z" style="mix-blend-mode:multiply" fill="#ccc"/><path class="cls-3" d="M139.6 80.51a44.39 44.39 0 00-7.23-9.51 44 44 0 00-36.62 74.84 44 44 0 0043.85-65.33z"/><path class="cls-6" transform="rotate(-29.49 98.065 96.522)" d="M60.97 93.81h74.23v5.44H60.97z"/><path class="cls-6" transform="rotate(-29.49 83.871 109.16)" d="M68.07 107.86h31.64v2.6H68.07z"/><path class="cls-6" transform="rotate(-29.49 86.291 110.772)" d="M71.81 109.47h29v2.6h-29z"/><path class="cls-6" transform="rotate(-29.49 87.593 113.003)" d="M75.74 111.72h23.74v2.6H75.74z"/><path class="cls-6" transform="rotate(-29.49 88.904 115.278)" d="M79.62 113.98H98.2v2.6H79.62z"/><path class="cls-6" transform="rotate(-29.49 90.11 117.566)" d="M83.47 116.28h13.31v2.6H83.47z"/><path class="cls-6" transform="rotate(150.51 116.132 90.93)" d="M100.31 89.62h31.64v2.6h-31.64z"/><path class="cls-6" transform="rotate(150.51 116.259 93.84)" d="M101.76 92.53h29v2.6h-29z"/><path class="cls-6" transform="rotate(150.51 117.516 96.111)" d="M105.65 94.81h23.74v2.6h-23.74z"/><path class="cls-6" transform="rotate(150.51 118.782 98.39)" d="M109.49 97.08h18.58v2.6h-18.58z"/><path class="cls-6" transform="rotate(150.51 120.125 100.62)" d="M113.47 99.31h13.31v2.6h-13.31z"/><path class="cls-7" transform="rotate(-29.49 79.386 114.703)" d="M78.11 113.43h2.56v2.56h-2.56z"/><path class="cls-7" transform="rotate(-29.49 82.88 115.704)" d="M81.61 114.43h2.56v2.56h-2.56z"/><path class="cls-7" transform="rotate(-29.49 83.857 112.223)" d="M82.58 110.94h2.56v2.56h-2.56z"/><path class="cls-7" transform="rotate(-29.49 86.366 116.662)" d="M85.1 115.4h2.56v2.56H85.1z"/><path class="cls-7" transform="rotate(-29.49 87.343 113.181)" d="M86.07 111.91h2.56v2.56h-2.56z"/><path class="cls-7" transform="rotate(-29.49 109.602 97.608)" d="M108.34 96.34h2.56v2.56h-2.56z"/><path class="cls-7" transform="rotate(-29.49 113.116 98.614)" d="M111.85 97.34h2.56v2.56h-2.56z"/><path class="cls-7" transform="rotate(-29.49 114.079 95.11)" d="M112.82 93.85h2.56v2.56h-2.56z"/><path class="cls-7" transform="rotate(-29.49 116.601 99.572)" d="M115.34 98.3h2.56v2.56h-2.56z"/><path class="cls-7" transform="rotate(-29.49 117.578 96.092)" d="M116.31 94.82h2.56v2.56h-2.56z"/><path class="cls-8" d="M73.11 107.52l45.75-25.87c9.49-5.36 15-13.49 12.4-18.15l-17.52-10.44S116 49 82.05 68.18C48.82 87 52.57 87.65 52.57 87.65l.53 21c2.4 4.28 11.36 3.76 20.01-1.13z"/><path class="cls-6" d="M79.6 38.89L58.22 51C45 58.46 39.58 73.92 47.06 87.15L52.64 97s6.86 1.15 36.8-15.78c29.3-16.57 32.49-23.4 32.49-23.4L116.34 48c-7.48-13.26-23.51-16.59-36.74-9.11z"/><path d="M67.14 41.8h2.16a2.28 2.28 0 012.28 2.28v1.79H65V44a2.15 2.15 0 012.14-2.2z" transform="rotate(-29.49 68.278 43.83)" fill="#840013"/><path class="cls-7" d="M94.54 127.77s17.36.37 31.6-17.87c10.23 18.1-21.36 35.97-31.6 17.87z"/><circle class="cls-10" cx="129.16" cy="104.93" r="3.54"/><circle class="cls-10" cx="88.96" cy="126.95" r="3.54"/><g class="cls-11"><path class="cls-8" d="M57.95 71.96l-2.48 1.41 1.44 2.55 2.48-1.41 1.34 2.36.07.13 1.37 2.42 1.37 2.42.07.13 1.09 1.92.24.44 1.45 2.54 2.54-1.44-1.44-2.54-.24-.44-1.09-1.92-.07-.13-1.37-2.42-1.37-2.42-.07-.13-1.34-2.36-2.55 1.44-1.44-2.55zm15.51-2.29L71.1 71l-.12.07-2.36 1.34-1.34-2.36 2.36-1.34.13-.07 2.36-1.33-1.44-2.55-2.36 1.34-.13.07-2.36 1.33-2.48 1.41 1.44 2.54 1.37 2.43.07.12 1.33 2.36 1.37 2.42.07.13 1.37 2.42.29.5 1.12 2 2.48-1.41 2.37-1.33.12-.07 2.36-1.34 2.49-1.4-1.09-1.93-.35-.62-1.37-2.43-.07-.13-1.34-2.36L76 68.26zm1.8 8.82l-.13.07-2.36 1.34-1.37-2.42-.07-.13L70 75l2.36-1.33.12-.07 2.36-1.34 1.37 2.42.07.13 1.37 2.42-2.36 1.34z"/></g><g class="cls-11"><path class="cls-7" d="M99.28 51.96l-1.44-2.55-2.55 1.44 1.44 2.55 1.34 2.36.07.12 1.37 2.42 1.37 2.43.07.12 1.33 2.36.35.62 1.09 1.93 2.55-1.44-1.09-1.93-.35-.62-1.34-2.36-.07-.12-1.37-2.42-1.37-2.43 2.37-1.33-1.41-2.49-2.36 1.34z"/><path class="cls-7" transform="rotate(-29.49 92.347 54.186)" d="M90.92 52.73h2.85v2.93h-2.85z"/><path class="cls-7" d="M94.6 61.08l1.37 2.42.07.13.98 1.74.35.62 1.44 2.54 2.55-1.44-1.44-2.54-.35-.62-.98-1.74-.07-.13-1.37-2.42-1.44-2.55-2.55 1.44 1.44 2.55zm-6.47.3l-2.36 1.33-1.87 1.06-.5.28-1.33-2.36-2.49 1.4-1.44-2.54L75.66 62l1.44 2.5 2.48-1.41L81 65.52l.08.12L82.36 68l1.37 2.42.07.13L85.17 73l.7 1.24.71 1.25 2.36-1.34.12-.07 1.12-.63 1.24-.7 2.36-1.34.13-.07L96.27 70l-.74-1.31-.7-1.24L93.46 65l-.07-.13-1.34-2.36L90.61 60l-2.36 1.34zm2.81 5l.07.12 1.37 2.43-2.38 1.3-1.25.7-1.11.64-1.37-2.43-.05-.14-1.37-2.4.49-.29 1.87-1 2.36-1.33z"/></g><ellipse cx="100.48" cy="83.59" rx="7.43" ry="4.4" transform="rotate(-30 100.484 83.584)" fill="#fff4a4" stroke="#1d1d1b" stroke-miterlimit="10"/><path stroke-width="2" fill="#fff4a4" stroke="#1d1d1b" stroke-miterlimit="10" d="M93.93 87.07l12.73-7.62"/></g></g></g></svg>