<svg xmlns="http://www.w3.org/2000/svg" viewBox="0 0 330.72 365"><defs><style>.cls-3{fill:#6f5037}.cls-4{fill:#667329}.cls-5{fill:#484f18}.cls-6{fill:none;stroke:#fff;stroke-miterlimit:10}.cls-7{fill:#fff}.cls-8{fill:#ff8000}.cls-9{fill:#ffab00}</style></defs><g id="Слой_2" data-name="Слой 2"><g id="Layer_2" data-name="Layer 2"><path d="M65.25 203.06a41.49 41.49 0 0116.91-71.22 23.67 23.67 0 0113.63-37.29 41.49 41.49 0 0169.13-45.06 41.51 41.51 0 0150.42 8.69 23.55 23.55 0 0121.93-3.44 41.48 41.48 0 0166.14 7.43 41.25 41.25 0 0113.25-6A41.49 41.49 0 00252.18 28 41.47 41.47 0 00186 20.58 23.5 23.5 0 00164.11 24a41.48 41.48 0 00-50.42-8.68 41.49 41.49 0 00-69.13 45.07 23.67 23.67 0 00-13.63 37.29A41.48 41.48 0 0014 168.89a41.47 41.47 0 0040.62 68.4 41.34 41.34 0 0110.61-34.23z" fill="#6ce077"/><path d="M96.32 251.91a41.51 41.51 0 0039.25-28 41.33 41.33 0 0027.37 11.71v.59l.55-.58h1a41.27 41.27 0 0023.72-7.46 41.48 41.48 0 0075.56-23.66 40.68 40.68 0 00-.26-4.58c1.07.08 2.14.13 3.22.13a41.45 41.45 0 0040-52.5A41.46 41.46 0 00308.15 88a41.32 41.32 0 009-25.73 41.76 41.76 0 00-.44-6.06 41.25 41.25 0 00-13.25 6 41.48 41.48 0 00-66.14-7.43 23.55 23.55 0 00-21.93 3.44 41.51 41.51 0 00-50.42-8.69 41.49 41.49 0 00-69.18 45.02 23.67 23.67 0 00-13.63 37.29 41.49 41.49 0 00-16.91 71.22 41.34 41.34 0 00-10.61 34.23 41.68 41.68 0 007.87-2.84 41.41 41.41 0 0033.81 17.46z" fill="#1fc25a"/><path class="cls-3" d="M161.44 88.94l-3.47 261.55 31.23 3.46L167.5 91.5l-6.06-2.56z"/><path class="cls-3" d="M172.65 281.39l87.46-120.52 3.96.45-87.83 137.1-3.59-17.03zm-7.39-116.82l-33.11-54.48-2.1 4.04 31.58 65.31 3.63-14.87zm1.15 52.05l-42-52.05-1.74 8.08 40.02 59.91 3.72-15.94zm2.67-32.46l33.93-47.71 1.03 6.16-30.97 61.83-3.99-20.28zM193.19 113c10.88-7.73 23.66-18.94 30.86-30 6.47-9.92 9.9-20.44 14.21-30.64 0 13.28-7.63 31.19-16 41.43-4.33 5.27-10.05 9.71-14.61 15.07-2.23 2.63-19.74 13.75-14.25 4.11"/><path class="cls-4" d="M245.81 36.62s-16.44 9.14-8.38 21.38v-.08c14.1-3.81 8.38-21.3 8.38-21.3z"/><path class="cls-5" d="M250.57 65s-18.6-2.8-19.65 11.79l.08-.05C244.44 82.31 250.57 65 250.57 65zm-13.77 40.84s-9.39-16.29-21.46-8h.08c3.99 14 21.38 8 21.38 8z"/><path class="cls-5" d="M225.92 58s-11.73 14.7.36 22.92v-.09C237.86 72 225.92 58 225.92 58z"/><path class="cls-4" d="M240.43 95.1s-13.27-13.33-22.8-2.24h.08c7.46 12.52 22.72 2.24 22.72 2.24zm-22.1-31.68s-7.22 17.36 6.67 21.92v-.08c8.67-11.69-6.67-21.84-6.67-21.84zm-96.53 29s-4.35 19.85 11.3 22v-.09c6.97-14.05-11.3-21.91-11.3-21.91zm41.63-20.2S151.36 88.56 164.74 97v-.09c12.16-10.06-1.31-24.69-1.31-24.69zm14.23 30.26s-18.15 9.14-10 22.67v-.09c15.43-3.45 10-22.58 10-22.58z"/><path class="cls-5" d="M147.42 91.86s-.81 20.3 15 19.72l-.05-.08c4.42-15.1-14.95-19.64-14.95-19.64z"/><path class="cls-4" d="M223.36 131.67s-19.36-6.19-23 9.18h.08c13.38 8.27 22.92-9.18 22.92-9.18zm49.03 11.59s-19.08 7-12.51 21.38l.05-.08c15.66-1.67 12.46-21.3 12.46-21.3z"/><path class="cls-5" d="M215.83 204.06s-7.86 12.72 2.46 18.06v-.07c8.3-8.05-2.46-17.99-2.46-17.99zm21.63 24.77S223 219.15 216.31 231h.08c9.08 10 21.07-2.17 21.07-2.17zm-46.35-96.08s-8.86 12.76 1.56 18.87v-.07c9.07-7.93-1.56-18.8-1.56-18.8z"/><path class="cls-4" d="M111.4 154s0 20.31 15.77 19.09l-.06-.07C130.93 157.73 111.4 154 111.4 154zm-.55 28.69s13.16 11.17 21 .3h-.08c-7.77-10.89-20.92-.3-20.92-.3zM143.91 163s-15.6 13-4.58 24.33v-.09c14.2-6.82 4.58-24.24 4.58-24.24z"/><path class="cls-5" d="M217 163.4s-13.61-15.09-24.5-3.64h.09c7.34 13.93 24.41 3.64 24.41 3.64zm-75.3-61.56s-13.56 15.13-1 24.75v-.1c13.04-8.82 1-24.65 1-24.65z"/><path class="cls-4" d="M154.14 122.53s-12.32 11.47-2.74 20.29v-.07c11.43-6.26 2.74-20.22 2.74-20.22zM124 131.91s9 13.44 18.84 5.7h-.07c-4.21-11.81-18.77-5.7-18.77-5.7z"/><path class="cls-5" d="M128 150.05s11.26 16.91 23.7 7.17h-.08c-5.28-14.86-23.62-7.17-23.62-7.17z"/><path class="cls-3" d="M240.79 192.5l11.51-62.7-4.26 1.61-22.01 77.35 14.76-16.26z"/><path class="cls-4" d="M254.15 115.94s-16.45 11.93-6.22 24v-.09c14.64-5.85 6.22-23.91 6.22-23.91z"/><path class="cls-5" d="M262 140.55s-18 2-15.36 15.88l.06-.06c13.89 1.86 15.3-15.82 15.3-15.82zm-24-11.43s-8.29 16.12 4.7 21.59v-.08c9.23-10.55-4.7-21.51-4.7-21.51zM82 91.94S63.88 93 65.8 107h.06C79.67 109.53 82 91.94 82 91.94z"/><path class="cls-4" d="M231.69 140.66s-2.25 16 10.28 16.79v-.06c4.67-11.6-10.28-16.73-10.28-16.73z"/><path class="cls-5" d="M222.62 156.88S219.78 177 235.55 178v-.08c5.88-14.59-12.93-21.04-12.93-21.04z"/><path class="cls-3" d="M81.59 116.05C61.41 105.46 59 92.71 48.63 79c-4.31-5.67-8.4-10.91-11.27-17.58-2.54-5.85-5.84-11-7.37-17.75-3.31 3.88 2.46 20.49 4.66 25.33 3.73 8.19 10.12 14.7 14.41 22.58a104.39 104.39 0 0017 22.79c2 2.14 8.91 11.18 12.19 11.43 3.93.29 8.41-6.49 3.79-9.63"/><path class="cls-4" d="M32.7 101.31s16.1 9.92 22.82-3.14h-.09c-10.22-10.48-22.73 3.14-22.73 3.14zM13 59.45s10 16.08 21.82 7.41h-.08C30.26 52.87 13 59.45 13 59.45zM23.21 77S33.17 93 45 84.36h-.08C40.51 70.38 23.21 77 23.21 77z"/><path class="cls-5" d="M49.13 50.94S31.8 58.5 38.7 71.49v-.08C53.18 69 49.13 50.94 49.13 50.94z"/><path class="cls-4" d="M60.53 64.93S43.2 72.5 50.1 85.48v-.07C64.59 83 60.53 64.93 60.53 64.93zm10.89 19.69S54.09 92.19 61 105.17v-.08c14.48-2.42 10.42-20.47 10.42-20.47z"/><path class="cls-3" d="M134.66 354h71.66c-15.7-36.47-25-69.34-33.71-164.24.32 9.11-14 37.45-14 37.45-3.4 66.49-6.91 93.25-23.95 126.79zm102-151.59l22.04-13.3v-1.91l-17.2 5.34-4.84 9.87z"/><path class="cls-6" d="M170.49 365v-22.03"/><path class="cls-7" d="M173.35 343.11a2.86 2.86 0 10-2.86 2.86 2.86 2.86 0 002.86-2.86z"/><path class="cls-6" d="M330.72 177.69H180.4"/><circle class="cls-7" cx="180.54" cy="177.69" r="2.86"/><path class="cls-6" d="M263.72 177.69l-32.67 29.26"/><path class="cls-7" d="M229.25 204.73a2.85 2.85 0 104 .22 2.84 2.84 0 00-4-.22z"/><path class="cls-6" d="M330.72 113.83h-54.81l-45.62-10.73"/><path class="cls-7" d="M231.08 100.35a2.86 2.86 0 102.13 3.43 2.86 2.86 0 00-2.13-3.43z"/><path class="cls-6" d="M275.91 113.82L232 93.02"/><path class="cls-7" d="M233.35 90.5a2.86 2.86 0 101.36 3.8 2.86 2.86 0 00-1.36-3.8z"/><path class="cls-6" d="M275.91 113.82l-64.98 21.62"/><path class="cls-7" d="M210.16 132.69a2.86 2.86 0 103.61 1.8 2.85 2.85 0 00-3.61-1.8z"/><path class="cls-6" d="M275.91 113.82l-8.14 36.3"/><path class="cls-7" d="M265 149.36a2.85 2.85 0 103.41-2.17 2.85 2.85 0 00-3.41 2.17z"/><path class="cls-6" d="M275.91 113.82l-38.53 34.59"/><path class="cls-7" d="M235.58 146.19a2.86 2.86 0 104 .21 2.86 2.86 0 00-4-.21z"/><path class="cls-3" d="M55.61 101.58h1.09v9.07h-1.09z"/><ellipse class="cls-8" cx="52.45" cy="123.51" rx="10.86" ry="13.48"/><ellipse class="cls-9" cx="59.23" cy="123.51" rx="10.22" ry="13.48"/><path class="cls-3" d="M144.6 50.86h.67v5.61h-.67z"/><ellipse class="cls-8" cx="142.63" cy="64.44" rx="6.72" ry="8.35"/><ellipse class="cls-9" cx="146.84" cy="64.44" rx="6.33" ry="8.35"/><path class="cls-5" d="M271.83 183.81s-13-4.22-15.52 6.13h.06c9 5.6 15.46-6.13 15.46-6.13z"/><path class="cls-3" d="M276.19 31.13h1.44v4.67h-1.44z"/><ellipse class="cls-8" cx="271.99" cy="52.86" rx="14.4" ry="17.88"/><ellipse class="cls-9" cx="280.99" cy="52.86" rx="13.56" ry="17.88"/><path class="cls-6" d="M330.72 50.94h-47.25"/><path class="cls-7" d="M283.61 48.08a2.86 2.86 0 102.86 2.86 2.86 2.86 0 00-2.86-2.86z"/></g></g></svg>